<svg xmlns="http://www.w3.org/2000/svg" xmlns:xlink="http://www.w3.org/1999/xlink" width="1080" zoomAndPan="magnify" viewBox="0 0 810 809.999993" height="1080" preserveAspectRatio="xMidYMid meet" version="1.0"><defs><g/><clipPath id="ad3a6420cb"><path d="M 0 0 L 810 0 L 810 430.726562 L 0 430.726562 Z M 0 0 " clip-rule="nonzero"/></clipPath><clipPath id="657d3ae07f"><path d="M 5.28125 0 L 804.71875 0 C 814.863281 0 824.59375 4.03125 831.765625 11.203125 C 838.941406 18.375 842.96875 28.105469 842.96875 38.25 L 842.96875 392.476562 C 842.96875 402.621094 838.941406 412.351562 831.765625 419.523438 C 824.59375 426.699219 814.863281 430.726562 804.71875 430.726562 L 5.28125 430.726562 C -4.863281 430.726562 -14.59375 426.699219 -21.765625 419.523438 C -28.941406 412.351562 -32.96875 402.621094 -32.96875 392.476562 L -32.96875 38.25 C -32.96875 28.105469 -28.941406 18.375 -21.765625 11.203125 C -14.59375 4.03125 -4.863281 0 5.28125 0 Z M 5.28125 0 " clip-rule="nonzero"/></clipPath><clipPath id="bc380ace3b"><path d="M 223.1875 67.101562 L 586.8125 67.101562 L 586.8125 430.726562 L 223.1875 430.726562 Z M 223.1875 67.101562 " clip-rule="nonzero"/></clipPath><clipPath id="81cac4e844"><path d="M 405 67.101562 C 304.585938 67.101562 223.1875 148.5 223.1875 248.914062 C 223.1875 349.328125 304.585938 430.726562 405 430.726562 C 505.414062 430.726562 586.8125 349.328125 586.8125 248.914062 C 586.8125 148.5 505.414062 67.101562 405 67.101562 Z M 405 67.101562 " clip-rule="nonzero"/></clipPath><clipPath id="8e85b06f1d"><path d="M 311.675781 84.847656 L 488 84.847656 L 488 192 L 311.675781 192 Z M 311.675781 84.847656 " clip-rule="nonzero"/></clipPath><clipPath id="2f1012926b"><path d="M 311.675781 166 L 351 166 L 351 403.421875 L 311.675781 403.421875 Z M 311.675781 166 " clip-rule="nonzero"/></clipPath><clipPath id="fca6c1d6c4"><path d="M 346 108 L 489.863281 108 L 489.863281 403.421875 L 346 403.421875 Z M 346 108 " clip-rule="nonzero"/></clipPath><clipPath id="c3942faeb2"><path d="M 0 577.398438 L 810 577.398438 L 810 810 L 0 810 Z M 0 577.398438 " clip-rule="nonzero"/></clipPath><clipPath id="6eb8ad48d1"><path d="M 405 810 L 818.925781 577.398438 L -8.925781 577.398438 Z M 405 810 " clip-rule="nonzero"/></clipPath></defs><rect x="-81" width="972" fill="#ffffff" y="-80.999999" height="971.999992" fill-opacity="1"/><rect x="-81" width="972" fill="#ffffff" y="-80.999999" height="971.999992" fill-opacity="1"/><g clip-path="url(#ad3a6420cb)"><g clip-path="url(#657d3ae07f)"><path fill="#d50000" d="M -32.96875 0 L 843.628906 0 L 843.628906 430.726562 L -32.96875 430.726562 Z M -32.96875 0 " fill-opacity="1" fill-rule="nonzero"/></g></g><g clip-path="url(#bc380ace3b)"><g clip-path="url(#81cac4e844)"><path fill="#ffffff" d="M 223.1875 67.101562 L 586.8125 67.101562 L 586.8125 430.726562 L 223.1875 430.726562 Z M 223.1875 67.101562 " fill-opacity="1" fill-rule="nonzero"/></g></g><g clip-path="url(#8e85b06f1d)"><path fill="#414141" d="M 348.566406 191.402344 C 348.273438 191.402344 348.003906 191.324219 347.757812 191.171875 L 312.386719 169.015625 C 312.277344 168.945312 312.175781 168.863281 312.085938 168.769531 C 311.996094 168.675781 311.921875 168.570312 311.859375 168.457031 C 311.796875 168.339844 311.75 168.222656 311.71875 168.09375 C 311.6875 167.96875 311.671875 167.839844 311.671875 167.710938 C 311.675781 167.578125 311.691406 167.453125 311.726562 167.324219 C 311.761719 167.199219 311.808594 167.082031 311.875 166.96875 C 311.941406 166.855469 312.019531 166.75 312.109375 166.660156 C 312.199219 166.566406 312.300781 166.484375 312.414062 166.417969 L 448.453125 85.1875 C 448.703125 85.039062 448.972656 84.96875 449.261719 84.972656 C 449.554688 84.976562 449.820312 85.058594 450.0625 85.21875 L 486.597656 108.925781 C 486.707031 108.996094 486.804688 109.078125 486.894531 109.175781 C 486.980469 109.273438 487.054688 109.378906 487.117188 109.492188 C 487.175781 109.609375 487.222656 109.730469 487.25 109.855469 C 487.28125 109.980469 487.292969 110.109375 487.292969 110.242188 C 487.289062 110.371094 487.269531 110.5 487.230469 110.625 C 487.195312 110.75 487.144531 110.867188 487.078125 110.980469 C 487.011719 111.089844 486.933594 111.191406 486.839844 111.285156 C 486.746094 111.375 486.644531 111.453125 486.53125 111.519531 L 349.328125 191.195312 C 349.09375 191.332031 348.839844 191.402344 348.566406 191.402344 Z M 316.117188 167.757812 L 348.597656 188.101562 L 482.863281 110.128906 L 449.199219 88.289062 Z M 316.117188 167.757812 " fill-opacity="1" fill-rule="nonzero"/></g><g clip-path="url(#2f1012926b)"><path fill="#414141" d="M 348.179688 403.234375 C 347.890625 403.234375 347.621094 403.15625 347.375 403.003906 L 312.394531 381.234375 C 311.917969 380.9375 311.675781 380.503906 311.675781 379.941406 L 311.675781 167.726562 C 311.675781 167.449219 311.746094 167.191406 311.886719 166.953125 C 312.027344 166.710938 312.21875 166.527344 312.460938 166.390625 C 312.707031 166.257812 312.964844 166.195312 313.242188 166.203125 C 313.519531 166.210938 313.777344 166.289062 314.011719 166.4375 L 349.375 188.589844 C 349.851562 188.890625 350.089844 189.320312 350.085938 189.882812 L 349.703125 401.710938 C 349.703125 401.914062 349.664062 402.109375 349.585938 402.292969 C 349.507812 402.480469 349.398438 402.644531 349.253906 402.789062 C 349.113281 402.929688 348.949219 403.039062 348.761719 403.117188 C 348.574219 403.195312 348.382812 403.234375 348.179688 403.234375 Z M 314.722656 379.09375 L 346.660156 398.972656 L 347.042969 190.722656 L 314.722656 170.476562 Z M 314.722656 379.09375 " fill-opacity="1" fill-rule="nonzero"/></g><g clip-path="url(#fca6c1d6c4)"><path fill="#414141" d="M 348.179688 403.234375 C 347.976562 403.234375 347.785156 403.195312 347.597656 403.117188 C 347.410156 403.039062 347.246094 402.929688 347.101562 402.789062 C 346.960938 402.644531 346.851562 402.480469 346.773438 402.292969 C 346.695312 402.109375 346.65625 401.914062 346.65625 401.710938 L 347.046875 189.882812 C 347.046875 189.613281 347.113281 189.363281 347.25 189.125 C 347.386719 188.890625 347.570312 188.707031 347.804688 188.570312 L 485.003906 108.886719 C 485.121094 108.820312 485.242188 108.769531 485.371094 108.734375 C 485.5 108.699219 485.628906 108.679688 485.761719 108.679688 C 485.894531 108.679688 486.027344 108.695312 486.15625 108.730469 C 486.28125 108.761719 486.40625 108.8125 486.519531 108.878906 C 486.636719 108.945312 486.742188 109.023438 486.835938 109.117188 C 486.929688 109.210938 487.011719 109.3125 487.082031 109.429688 C 487.148438 109.542969 487.199219 109.664062 487.234375 109.792969 C 487.273438 109.917969 487.289062 110.050781 487.292969 110.183594 L 490.011719 320.453125 C 490.015625 320.730469 489.949219 320.988281 489.8125 321.226562 C 489.679688 321.464844 489.492188 321.652344 489.253906 321.792969 L 348.941406 403.023438 C 348.707031 403.164062 348.453125 403.230469 348.179688 403.234375 Z M 350.089844 190.761719 L 349.707031 399.066406 L 486.957031 319.605469 L 484.28125 112.828125 Z M 350.089844 190.761719 " fill-opacity="1" fill-rule="nonzero"/></g><path fill="#414141" d="M 366.445312 270.691406 C 366.246094 270.691406 366.050781 270.652344 365.863281 270.578125 C 365.679688 270.5 365.511719 270.390625 365.371094 270.246094 C 365.226562 270.105469 365.117188 269.9375 365.039062 269.753906 C 364.964844 269.566406 364.925781 269.371094 364.925781 269.171875 L 364.925781 200.769531 C 364.921875 200.496094 364.992188 200.242188 365.125 200.007812 C 365.261719 199.773438 365.445312 199.585938 365.679688 199.449219 L 469.453125 138.6875 C 469.6875 138.550781 469.941406 138.480469 470.214844 138.480469 C 470.488281 138.476562 470.742188 138.542969 470.980469 138.679688 C 471.214844 138.816406 471.402344 139 471.539062 139.238281 C 471.675781 139.472656 471.746094 139.726562 471.746094 140 L 471.746094 208.535156 C 471.746094 208.808594 471.679688 209.0625 471.542969 209.296875 C 471.410156 209.53125 471.222656 209.71875 470.992188 209.855469 L 367.214844 270.488281 C 366.976562 270.625 366.722656 270.695312 366.445312 270.691406 Z M 367.96875 201.636719 L 367.96875 266.519531 L 468.699219 207.664062 L 468.699219 142.65625 Z M 367.96875 201.636719 " fill-opacity="1" fill-rule="nonzero"/><path fill="#414141" d="M 368.648438 306.980469 C 368.449219 306.980469 368.253906 306.941406 368.066406 306.863281 C 367.878906 306.789062 367.714844 306.675781 367.574219 306.535156 C 367.429688 306.390625 367.320312 306.226562 367.242188 306.042969 C 367.164062 305.855469 367.125 305.660156 367.125 305.457031 L 367.125 284.714844 C 367.128906 284.445312 367.195312 284.191406 367.332031 283.953125 C 367.46875 283.71875 367.65625 283.53125 367.890625 283.398438 L 392.359375 269.359375 C 392.472656 269.292969 392.597656 269.242188 392.726562 269.207031 C 392.855469 269.171875 392.984375 269.15625 393.117188 269.15625 C 393.253906 269.15625 393.382812 269.171875 393.511719 269.207031 C 393.640625 269.242188 393.761719 269.292969 393.878906 269.359375 C 393.996094 269.425781 394.097656 269.507812 394.195312 269.601562 C 394.289062 269.695312 394.367188 269.800781 394.433594 269.917969 C 394.5 270.03125 394.550781 270.15625 394.585938 270.285156 C 394.621094 270.414062 394.640625 270.542969 394.640625 270.675781 L 394.640625 292.105469 C 394.640625 292.382812 394.566406 292.644531 394.425781 292.882812 C 394.28125 293.121094 394.089844 293.308594 393.84375 293.441406 L 369.378906 306.792969 C 369.152344 306.917969 368.910156 306.980469 368.648438 306.980469 Z M 370.171875 285.597656 L 370.171875 302.890625 L 391.59375 291.199219 L 391.59375 273.304688 Z M 370.171875 285.597656 " fill-opacity="1" fill-rule="nonzero"/><path fill="#414141" d="M 408.832031 284.632812 C 408.632812 284.632812 408.4375 284.59375 408.25 284.515625 C 408.066406 284.4375 407.898438 284.328125 407.757812 284.1875 C 407.613281 284.042969 407.503906 283.878906 407.425781 283.691406 C 407.351562 283.503906 407.3125 283.3125 407.3125 283.109375 L 407.3125 262.371094 C 407.3125 262.097656 407.378906 261.84375 407.515625 261.609375 C 407.652344 261.371094 407.839844 261.1875 408.074219 261.050781 L 432.539062 247.011719 C 432.65625 246.945312 432.777344 246.894531 432.90625 246.859375 C 433.035156 246.824219 433.167969 246.808594 433.300781 246.808594 C 433.433594 246.808594 433.566406 246.828125 433.695312 246.863281 C 433.824219 246.894531 433.945312 246.945312 434.058594 247.015625 C 434.175781 247.082031 434.28125 247.160156 434.375 247.253906 C 434.46875 247.351562 434.550781 247.453125 434.617188 247.570312 C 434.683594 247.6875 434.734375 247.808594 434.769531 247.9375 C 434.804688 248.066406 434.820312 248.199219 434.820312 248.332031 L 434.820312 269.753906 C 434.820312 270.03125 434.75 270.292969 434.609375 270.53125 C 434.464844 270.769531 434.273438 270.957031 434.027344 271.089844 L 409.5625 284.445312 C 409.335938 284.570312 409.09375 284.632812 408.832031 284.632812 Z M 410.355469 263.25 L 410.355469 280.542969 L 431.777344 268.851562 L 431.777344 250.957031 Z M 410.355469 263.25 " fill-opacity="1" fill-rule="nonzero"/><path fill="#414141" d="M 446.921875 261.894531 C 446.722656 261.894531 446.527344 261.855469 446.339844 261.777344 C 446.15625 261.703125 445.988281 261.589844 445.847656 261.449219 C 445.703125 261.304688 445.59375 261.140625 445.515625 260.953125 C 445.441406 260.769531 445.402344 260.574219 445.402344 260.371094 L 445.402344 239.632812 C 445.402344 239.359375 445.46875 239.105469 445.605469 238.867188 C 445.742188 238.632812 445.929688 238.449219 446.164062 238.3125 L 470.632812 224.273438 C 470.746094 224.207031 470.867188 224.15625 470.996094 224.121094 C 471.125 224.085938 471.257812 224.070312 471.390625 224.070312 C 471.523438 224.070312 471.65625 224.085938 471.785156 224.121094 C 471.914062 224.15625 472.035156 224.207031 472.152344 224.273438 C 472.265625 224.339844 472.371094 224.421875 472.464844 224.515625 C 472.558594 224.609375 472.640625 224.714844 472.707031 224.832031 C 472.773438 224.945312 472.824219 225.070312 472.859375 225.199219 C 472.894531 225.328125 472.910156 225.457031 472.910156 225.589844 L 472.910156 247.015625 C 472.910156 247.292969 472.839844 247.554688 472.699219 247.792969 C 472.554688 248.03125 472.363281 248.21875 472.117188 248.351562 L 447.652344 261.707031 C 447.425781 261.832031 447.183594 261.894531 446.921875 261.894531 Z M 448.445312 240.511719 L 448.445312 257.804688 L 469.867188 246.109375 L 469.867188 228.21875 Z M 448.445312 240.511719 " fill-opacity="1" fill-rule="nonzero"/><path fill="#414141" d="M 446.921875 330.109375 C 446.722656 330.109375 446.527344 330.070312 446.339844 329.992188 C 446.15625 329.914062 445.988281 329.804688 445.847656 329.660156 C 445.703125 329.519531 445.59375 329.355469 445.515625 329.167969 C 445.441406 328.980469 445.402344 328.789062 445.402344 328.585938 L 445.402344 273.507812 C 445.402344 273.234375 445.46875 272.980469 445.605469 272.746094 C 445.742188 272.507812 445.929688 272.324219 446.167969 272.1875 L 471.773438 257.492188 C 472.011719 257.359375 472.265625 257.289062 472.535156 257.289062 C 472.808594 257.292969 473.0625 257.359375 473.296875 257.496094 C 473.53125 257.632812 473.71875 257.820312 473.855469 258.054688 C 473.988281 258.292969 474.054688 258.546875 474.054688 258.816406 L 474.054688 312.316406 C 474.054688 312.875 473.816406 313.304688 473.34375 313.601562 L 447.738281 329.875 C 447.488281 330.03125 447.21875 330.109375 446.921875 330.109375 Z M 448.445312 274.390625 L 448.445312 325.816406 L 471.011719 311.476562 L 471.011719 261.441406 Z M 448.445312 274.390625 " fill-opacity="1" fill-rule="nonzero"/><path fill="#414141" d="M 368.648438 341.761719 C 368.449219 341.761719 368.253906 341.722656 368.066406 341.644531 C 367.878906 341.566406 367.714844 341.457031 367.574219 341.316406 C 367.429688 341.171875 367.320312 341.007812 367.242188 340.820312 C 367.164062 340.636719 367.125 340.441406 367.125 340.238281 L 367.125 319.5 C 367.128906 319.226562 367.195312 318.972656 367.332031 318.734375 C 367.46875 318.5 367.65625 318.3125 367.890625 318.179688 L 392.359375 304.136719 C 392.472656 304.070312 392.597656 304.019531 392.726562 303.988281 C 392.855469 303.953125 392.984375 303.9375 393.117188 303.9375 C 393.253906 303.9375 393.382812 303.953125 393.511719 303.988281 C 393.640625 304.023438 393.761719 304.074219 393.878906 304.140625 C 393.996094 304.207031 394.097656 304.289062 394.195312 304.382812 C 394.289062 304.476562 394.367188 304.582031 394.433594 304.699219 C 394.5 304.8125 394.550781 304.933594 394.585938 305.0625 C 394.621094 305.191406 394.640625 305.324219 394.640625 305.457031 L 394.640625 326.882812 C 394.640625 327.160156 394.566406 327.417969 394.425781 327.660156 C 394.285156 327.898438 394.089844 328.085938 393.84375 328.21875 L 369.378906 341.574219 C 369.152344 341.699219 368.910156 341.761719 368.648438 341.761719 Z M 370.171875 320.378906 L 370.171875 337.671875 L 391.59375 325.980469 L 391.59375 308.085938 Z M 370.171875 320.378906 " fill-opacity="1" fill-rule="nonzero"/><path fill="#414141" d="M 368.648438 375.355469 C 368.449219 375.355469 368.253906 375.316406 368.066406 375.242188 C 367.878906 375.164062 367.714844 375.054688 367.574219 374.910156 C 367.429688 374.769531 367.320312 374.601562 367.242188 374.417969 C 367.164062 374.230469 367.125 374.035156 367.125 373.835938 L 367.125 353.09375 C 367.128906 352.820312 367.195312 352.566406 367.332031 352.328125 C 367.46875 352.09375 367.65625 351.910156 367.890625 351.773438 L 392.359375 337.734375 C 392.472656 337.667969 392.597656 337.617188 392.726562 337.582031 C 392.855469 337.546875 392.984375 337.53125 393.117188 337.53125 C 393.253906 337.53125 393.382812 337.546875 393.511719 337.582031 C 393.640625 337.617188 393.761719 337.667969 393.878906 337.734375 C 393.996094 337.800781 394.097656 337.882812 394.195312 337.976562 C 394.289062 338.070312 394.367188 338.175781 394.433594 338.292969 C 394.5 338.40625 394.550781 338.53125 394.585938 338.660156 C 394.621094 338.789062 394.640625 338.917969 394.640625 339.050781 L 394.640625 360.476562 C 394.636719 360.753906 394.566406 361.015625 394.425781 361.253906 C 394.28125 361.492188 394.089844 361.679688 393.84375 361.8125 L 369.378906 375.167969 C 369.152344 375.292969 368.910156 375.355469 368.648438 375.355469 Z M 370.171875 353.972656 L 370.171875 371.265625 L 391.59375 359.574219 L 391.59375 341.679688 Z M 370.171875 353.972656 " fill-opacity="1" fill-rule="nonzero"/><path fill="#414141" d="M 408.832031 318.417969 C 408.632812 318.417969 408.4375 318.378906 408.25 318.300781 C 408.066406 318.222656 407.898438 318.113281 407.757812 317.96875 C 407.613281 317.828125 407.503906 317.664062 407.425781 317.476562 C 407.351562 317.289062 407.3125 317.097656 407.3125 316.894531 L 407.3125 296.152344 C 407.3125 295.878906 407.378906 295.625 407.515625 295.390625 C 407.652344 295.152344 407.839844 294.96875 408.074219 294.832031 L 432.539062 280.792969 C 432.65625 280.726562 432.777344 280.675781 432.90625 280.640625 C 433.035156 280.609375 433.167969 280.589844 433.300781 280.589844 C 433.433594 280.589844 433.566406 280.609375 433.695312 280.644531 C 433.824219 280.679688 433.945312 280.730469 434.058594 280.796875 C 434.175781 280.863281 434.28125 280.941406 434.375 281.039062 C 434.46875 281.132812 434.550781 281.238281 434.617188 281.351562 C 434.683594 281.46875 434.734375 281.589844 434.769531 281.71875 C 434.804688 281.847656 434.820312 281.980469 434.820312 282.113281 L 434.820312 303.535156 C 434.820312 303.816406 434.75 304.074219 434.609375 304.3125 C 434.464844 304.554688 434.273438 304.738281 434.027344 304.871094 L 409.5625 318.230469 C 409.335938 318.355469 409.09375 318.417969 408.832031 318.417969 Z M 410.355469 297.03125 L 410.355469 314.332031 L 431.777344 302.636719 L 431.777344 284.742188 Z M 410.355469 297.03125 " fill-opacity="1" fill-rule="nonzero"/><path fill="#414141" d="M 408.832031 351.453125 C 408.632812 351.453125 408.4375 351.414062 408.25 351.335938 C 408.066406 351.261719 407.898438 351.148438 407.757812 351.007812 C 407.613281 350.863281 407.503906 350.699219 407.425781 350.511719 C 407.351562 350.328125 407.3125 350.132812 407.3125 349.929688 L 407.3125 329.191406 C 407.3125 328.917969 407.378906 328.664062 407.515625 328.429688 C 407.652344 328.191406 407.839844 328.007812 408.074219 327.871094 L 432.539062 313.832031 C 432.65625 313.765625 432.777344 313.714844 432.90625 313.679688 C 433.035156 313.644531 433.167969 313.628906 433.300781 313.628906 C 433.433594 313.628906 433.566406 313.648438 433.695312 313.679688 C 433.824219 313.714844 433.945312 313.765625 434.058594 313.832031 C 434.175781 313.902344 434.28125 313.980469 434.375 314.074219 C 434.46875 314.167969 434.550781 314.273438 434.617188 314.390625 C 434.683594 314.507812 434.734375 314.628906 434.769531 314.757812 C 434.804688 314.886719 434.820312 315.015625 434.820312 315.152344 L 434.820312 336.574219 C 434.820312 336.851562 434.75 337.113281 434.605469 337.351562 C 434.464844 337.589844 434.273438 337.777344 434.027344 337.910156 L 409.5625 351.265625 C 409.335938 351.390625 409.09375 351.453125 408.832031 351.453125 Z M 410.355469 330.070312 L 410.355469 347.367188 L 431.777344 335.671875 L 431.777344 317.78125 Z M 410.355469 330.070312 " fill-opacity="1" fill-rule="nonzero"/><path fill="#414141" d="M 459.15625 191.402344 C 458.867188 191.402344 458.605469 191.328125 458.359375 191.179688 L 434.445312 176.539062 C 434.273438 176.433594 434.128906 176.300781 434.011719 176.136719 C 433.890625 175.972656 433.808594 175.792969 433.761719 175.597656 C 433.714844 175.398438 433.707031 175.203125 433.738281 175.003906 C 433.769531 174.804688 433.839844 174.617188 433.945312 174.445312 C 434.050781 174.273438 434.183594 174.128906 434.347656 174.007812 C 434.511719 173.890625 434.691406 173.808594 434.886719 173.761719 C 435.082031 173.714844 435.28125 173.707031 435.480469 173.738281 C 435.679688 173.769531 435.863281 173.835938 436.039062 173.941406 L 459.949219 188.582031 C 460.238281 188.761719 460.445312 189.007812 460.570312 189.324219 C 460.695312 189.644531 460.710938 189.964844 460.617188 190.292969 C 460.527344 190.621094 460.34375 190.890625 460.070312 191.09375 C 459.800781 191.300781 459.492188 191.402344 459.152344 191.402344 Z M 459.15625 191.402344 " fill-opacity="1" fill-rule="nonzero"/><path fill="#414141" d="M 459.15625 178.058594 C 458.847656 178.058594 458.570312 177.976562 458.316406 177.804688 L 445.019531 168.996094 C 444.855469 168.882812 444.714844 168.742188 444.605469 168.574219 C 444.496094 168.410156 444.417969 168.226562 444.382812 168.03125 C 444.34375 167.832031 444.34375 167.636719 444.382812 167.441406 C 444.421875 167.242188 444.496094 167.0625 444.605469 166.894531 C 444.714844 166.726562 444.855469 166.585938 445.019531 166.476562 C 445.1875 166.363281 445.367188 166.285156 445.566406 166.246094 C 445.761719 166.203125 445.957031 166.203125 446.15625 166.238281 C 446.351562 166.277344 446.535156 166.347656 446.703125 166.457031 L 459.996094 175.269531 C 460.277344 175.453125 460.472656 175.703125 460.585938 176.019531 C 460.703125 176.335938 460.710938 176.65625 460.613281 176.976562 C 460.515625 177.296875 460.332031 177.558594 460.0625 177.757812 C 459.792969 177.960938 459.492188 178.058594 459.15625 178.058594 Z M 459.15625 178.058594 " fill-opacity="1" fill-rule="nonzero"/><g clip-path="url(#c3942faeb2)"><g clip-path="url(#6eb8ad48d1)"><path fill="#d50000" d="M -8.925781 577.398438 L 818.8125 577.398438 L 818.8125 810 L -8.925781 810 Z M -8.925781 577.398438 " fill-opacity="1" fill-rule="nonzero"/></g></g><g fill="#414141" fill-opacity="1"><g transform="translate(198.45804, 498.062227)"><g><path d="M 19.359375 0 L 11.328125 0 L 11.328125 -31.15625 L 1.0625 -31.15625 L 1.0625 -37.828125 L 29.625 -37.828125 L 29.625 -31.15625 L 19.359375 -31.15625 Z M 19.359375 0 "/></g></g></g><g fill="#414141" fill-opacity="1"><g transform="translate(229.145897, 498.062227)"><g><path d="M 27.921875 0 L 25.1875 -9 L 11.390625 -9 L 8.640625 0 L 0 0 L 13.359375 -37.984375 L 23.15625 -37.984375 L 36.5625 0 Z M 23.265625 -15.734375 L 20.515625 -24.53125 C 20.347656 -25.113281 20.117188 -25.867188 19.828125 -26.796875 C 19.546875 -27.722656 19.265625 -28.664062 18.984375 -29.625 C 18.703125 -30.582031 18.472656 -31.410156 18.296875 -32.109375 C 18.117188 -31.410156 17.878906 -30.535156 17.578125 -29.484375 C 17.273438 -28.441406 16.984375 -27.453125 16.703125 -26.515625 C 16.429688 -25.585938 16.238281 -24.925781 16.125 -24.53125 L 13.40625 -15.734375 Z M 23.265625 -15.734375 "/></g></g></g><g fill="#414141" fill-opacity="1"><g transform="translate(265.707399, 498.062227)"><g><path d="M 35.34375 0 L 26.1875 0 L 17.390625 -14.3125 L 8.59375 0 L 0 0 L 12.546875 -19.515625 L 0.796875 -37.828125 L 9.65625 -37.828125 L 17.8125 -24.21875 L 25.796875 -37.828125 L 34.4375 -37.828125 L 22.5625 -19.078125 Z M 35.34375 0 "/></g></g></g><g fill="#414141" fill-opacity="1"><g transform="translate(301.052772, 498.062227)"><g/></g></g><g fill="#414141" fill-opacity="1"><g transform="translate(314.81832, 498.062227)"><g><path d="M 27.921875 0 L 25.1875 -9 L 11.390625 -9 L 8.640625 0 L 0 0 L 13.359375 -37.984375 L 23.15625 -37.984375 L 36.5625 0 Z M 23.265625 -15.734375 L 20.515625 -24.53125 C 20.347656 -25.113281 20.117188 -25.867188 19.828125 -26.796875 C 19.546875 -27.722656 19.265625 -28.664062 18.984375 -29.625 C 18.703125 -30.582031 18.472656 -31.410156 18.296875 -32.109375 C 18.117188 -31.410156 17.878906 -30.535156 17.578125 -29.484375 C 17.273438 -28.441406 16.984375 -27.453125 16.703125 -26.515625 C 16.429688 -25.585938 16.238281 -24.925781 16.125 -24.53125 L 13.40625 -15.734375 Z M 23.265625 -15.734375 "/></g></g></g><g fill="#414141" fill-opacity="1"><g transform="translate(351.379823, 498.062227)"><g><path d="M 35.5625 -37.828125 L 35.5625 -13.359375 C 35.5625 -10.753906 34.984375 -8.398438 33.828125 -6.296875 C 32.679688 -4.203125 30.945312 -2.539062 28.625 -1.3125 C 26.3125 -0.09375 23.394531 0.515625 19.875 0.515625 C 14.875 0.515625 11.0625 -0.757812 8.4375 -3.3125 C 5.8125 -5.863281 4.5 -9.242188 4.5 -13.453125 L 4.5 -37.828125 L 12.5 -37.828125 L 12.5 -14.671875 C 12.5 -11.546875 13.132812 -9.351562 14.40625 -8.09375 C 15.6875 -6.84375 17.578125 -6.21875 20.078125 -6.21875 C 21.835938 -6.21875 23.265625 -6.515625 24.359375 -7.109375 C 25.460938 -7.710938 26.269531 -8.644531 26.78125 -9.90625 C 27.300781 -11.164062 27.5625 -12.769531 27.5625 -14.71875 L 27.5625 -37.828125 Z M 35.5625 -37.828125 "/></g></g></g><g fill="#414141" fill-opacity="1"><g transform="translate(391.434462, 498.062227)"><g><path d="M 36.15625 -19.28125 C 36.15625 -15.019531 35.335938 -11.460938 33.703125 -8.609375 C 32.078125 -5.753906 29.71875 -3.601562 26.625 -2.15625 C 23.539062 -0.71875 19.820312 0 15.46875 0 L 4.765625 0 L 4.765625 -37.828125 L 16.640625 -37.828125 C 20.609375 -37.828125 24.050781 -37.125 26.96875 -35.71875 C 29.882812 -34.3125 32.144531 -32.234375 33.75 -29.484375 C 35.351562 -26.734375 36.15625 -23.332031 36.15625 -19.28125 Z M 27.8125 -19.078125 C 27.8125 -21.867188 27.398438 -24.164062 26.578125 -25.96875 C 25.765625 -27.769531 24.5625 -29.101562 22.96875 -29.96875 C 21.375 -30.832031 19.398438 -31.265625 17.046875 -31.265625 L 12.78125 -31.265625 L 12.78125 -6.625 L 16.21875 -6.625 C 20.132812 -6.625 23.046875 -7.664062 24.953125 -9.75 C 26.859375 -11.84375 27.8125 -14.953125 27.8125 -19.078125 Z M 27.8125 -19.078125 "/></g></g></g><g fill="#414141" fill-opacity="1"><g transform="translate(430.661099, 498.062227)"><g><path d="M 4.765625 0 L 4.765625 -37.828125 L 12.78125 -37.828125 L 12.78125 0 Z M 4.765625 0 "/></g></g></g><g fill="#414141" fill-opacity="1"><g transform="translate(448.20441, 498.062227)"><g><path d="M 19.359375 0 L 11.328125 0 L 11.328125 -31.15625 L 1.0625 -31.15625 L 1.0625 -37.828125 L 29.625 -37.828125 L 29.625 -31.15625 L 19.359375 -31.15625 Z M 19.359375 0 "/></g></g></g><g fill="#414141" fill-opacity="1"><g transform="translate(478.892268, 498.062227)"><g/></g></g><g fill="#414141" fill-opacity="1"><g transform="translate(492.657816, 498.062227)"><g><path d="M 27.921875 0 L 25.1875 -9 L 11.390625 -9 L 8.640625 0 L 0 0 L 13.359375 -37.984375 L 23.15625 -37.984375 L 36.5625 0 Z M 23.265625 -15.734375 L 20.515625 -24.53125 C 20.347656 -25.113281 20.117188 -25.867188 19.828125 -26.796875 C 19.546875 -27.722656 19.265625 -28.664062 18.984375 -29.625 C 18.703125 -30.582031 18.472656 -31.410156 18.296875 -32.109375 C 18.117188 -31.410156 17.878906 -30.535156 17.578125 -29.484375 C 17.273438 -28.441406 16.984375 -27.453125 16.703125 -26.515625 C 16.429688 -25.585938 16.238281 -24.925781 16.125 -24.53125 L 13.40625 -15.734375 Z M 23.265625 -15.734375 "/></g></g></g><g fill="#414141" fill-opacity="1"><g transform="translate(529.21933, 498.062227)"><g><path d="M 38.328125 0 L 28.125 0 L 11.671875 -28.625 L 11.4375 -28.625 C 11.507812 -27.4375 11.570312 -26.238281 11.625 -25.03125 C 11.675781 -23.820312 11.726562 -22.613281 11.78125 -21.40625 C 11.832031 -20.207031 11.882812 -19.007812 11.9375 -17.8125 L 11.9375 0 L 4.765625 0 L 4.765625 -37.828125 L 14.875 -37.828125 L 31.3125 -9.5 L 31.5 -9.5 C 31.457031 -10.664062 31.410156 -11.828125 31.359375 -12.984375 C 31.304688 -14.140625 31.257812 -15.296875 31.21875 -16.453125 C 31.175781 -17.609375 31.140625 -18.765625 31.109375 -19.921875 L 31.109375 -37.828125 L 38.328125 -37.828125 Z M 38.328125 0 "/></g></g></g><g fill="#414141" fill-opacity="1"><g transform="translate(572.301344, 498.062227)"><g><path d="M 36.15625 -19.28125 C 36.15625 -15.019531 35.335938 -11.460938 33.703125 -8.609375 C 32.078125 -5.753906 29.71875 -3.601562 26.625 -2.15625 C 23.539062 -0.71875 19.820312 0 15.46875 0 L 4.765625 0 L 4.765625 -37.828125 L 16.640625 -37.828125 C 20.609375 -37.828125 24.050781 -37.125 26.96875 -35.71875 C 29.882812 -34.3125 32.144531 -32.234375 33.75 -29.484375 C 35.351562 -26.734375 36.15625 -23.332031 36.15625 -19.28125 Z M 27.8125 -19.078125 C 27.8125 -21.867188 27.398438 -24.164062 26.578125 -25.96875 C 25.765625 -27.769531 24.5625 -29.101562 22.96875 -29.96875 C 21.375 -30.832031 19.398438 -31.265625 17.046875 -31.265625 L 12.78125 -31.265625 L 12.78125 -6.625 L 16.21875 -6.625 C 20.132812 -6.625 23.046875 -7.664062 24.953125 -9.75 C 26.859375 -11.84375 27.8125 -14.953125 27.8125 -19.078125 Z M 27.8125 -19.078125 "/></g></g></g><g fill="#414141" fill-opacity="1"><g transform="translate(131.086949, 550.562224)"><g><path d="M 19.359375 0 L 11.328125 0 L 11.328125 -31.15625 L 1.0625 -31.15625 L 1.0625 -37.828125 L 29.625 -37.828125 L 29.625 -31.15625 L 19.359375 -31.15625 Z M 19.359375 0 "/></g></g></g><g fill="#414141" fill-opacity="1"><g transform="translate(161.774806, 550.562224)"><g><path d="M 26.546875 0 L 4.765625 0 L 4.765625 -37.828125 L 26.546875 -37.828125 L 26.546875 -31.265625 L 12.78125 -31.265625 L 12.78125 -22.953125 L 25.59375 -22.953125 L 25.59375 -16.375 L 12.78125 -16.375 L 12.78125 -6.625 L 26.546875 -6.625 Z M 26.546875 0 "/></g></g></g><g fill="#414141" fill-opacity="1"><g transform="translate(191.453535, 550.562224)"><g><path d="M 20.828125 -31.703125 C 19.296875 -31.703125 17.9375 -31.40625 16.75 -30.8125 C 15.570312 -30.21875 14.582031 -29.359375 13.78125 -28.234375 C 12.976562 -27.109375 12.367188 -25.753906 11.953125 -24.171875 C 11.535156 -22.585938 11.328125 -20.800781 11.328125 -18.8125 C 11.328125 -16.132812 11.660156 -13.851562 12.328125 -11.96875 C 12.992188 -10.082031 14.023438 -8.640625 15.421875 -7.640625 C 16.816406 -6.648438 18.617188 -6.15625 20.828125 -6.15625 C 22.367188 -6.15625 23.910156 -6.328125 25.453125 -6.671875 C 26.992188 -7.015625 28.671875 -7.507812 30.484375 -8.15625 L 30.484375 -1.421875 C 28.804688 -0.734375 27.15625 -0.238281 25.53125 0.0625 C 23.914062 0.363281 22.097656 0.515625 20.078125 0.515625 C 16.179688 0.515625 12.976562 -0.289062 10.46875 -1.90625 C 7.957031 -3.519531 6.097656 -5.78125 4.890625 -8.6875 C 3.679688 -11.59375 3.078125 -14.984375 3.078125 -18.859375 C 3.078125 -21.722656 3.460938 -24.34375 4.234375 -26.71875 C 5.015625 -29.101562 6.15625 -31.164062 7.65625 -32.90625 C 9.15625 -34.65625 11.007812 -36.003906 13.21875 -36.953125 C 15.425781 -37.898438 17.960938 -38.375 20.828125 -38.375 C 22.710938 -38.375 24.597656 -38.132812 26.484375 -37.65625 C 28.378906 -37.1875 30.1875 -36.539062 31.90625 -35.71875 L 29.328125 -29.1875 C 27.910156 -29.863281 26.484375 -30.453125 25.046875 -30.953125 C 23.617188 -31.453125 22.210938 -31.703125 20.828125 -31.703125 Z M 20.828125 -31.703125 "/></g></g></g><g fill="#414141" fill-opacity="1"><g transform="translate(225.220527, 550.562224)"><g><path d="M 35.765625 0 L 27.765625 0 L 27.765625 -16.328125 L 12.78125 -16.328125 L 12.78125 0 L 4.765625 0 L 4.765625 -37.828125 L 12.78125 -37.828125 L 12.78125 -23 L 27.765625 -23 L 27.765625 -37.828125 L 35.765625 -37.828125 Z M 35.765625 0 "/></g></g></g><g fill="#414141" fill-opacity="1"><g transform="translate(265.766794, 550.562224)"><g><path d="M 38.328125 0 L 28.125 0 L 11.671875 -28.625 L 11.4375 -28.625 C 11.507812 -27.4375 11.570312 -26.238281 11.625 -25.03125 C 11.675781 -23.820312 11.726562 -22.613281 11.78125 -21.40625 C 11.832031 -20.207031 11.882812 -19.007812 11.9375 -17.8125 L 11.9375 0 L 4.765625 0 L 4.765625 -37.828125 L 14.875 -37.828125 L 31.3125 -9.5 L 31.5 -9.5 C 31.457031 -10.664062 31.410156 -11.828125 31.359375 -12.984375 C 31.304688 -14.140625 31.257812 -15.296875 31.21875 -16.453125 C 31.175781 -17.609375 31.140625 -18.765625 31.109375 -19.921875 L 31.109375 -37.828125 L 38.328125 -37.828125 Z M 38.328125 0 "/></g></g></g><g fill="#414141" fill-opacity="1"><g transform="translate(308.848819, 550.562224)"><g><path d="M 4.765625 0 L 4.765625 -37.828125 L 12.78125 -37.828125 L 12.78125 0 Z M 4.765625 0 "/></g></g></g><g fill="#414141" fill-opacity="1"><g transform="translate(326.39213, 550.562224)"><g><path d="M 20.828125 -31.703125 C 19.296875 -31.703125 17.9375 -31.40625 16.75 -30.8125 C 15.570312 -30.21875 14.582031 -29.359375 13.78125 -28.234375 C 12.976562 -27.109375 12.367188 -25.753906 11.953125 -24.171875 C 11.535156 -22.585938 11.328125 -20.800781 11.328125 -18.8125 C 11.328125 -16.132812 11.660156 -13.851562 12.328125 -11.96875 C 12.992188 -10.082031 14.023438 -8.640625 15.421875 -7.640625 C 16.816406 -6.648438 18.617188 -6.15625 20.828125 -6.15625 C 22.367188 -6.15625 23.910156 -6.328125 25.453125 -6.671875 C 26.992188 -7.015625 28.671875 -7.507812 30.484375 -8.15625 L 30.484375 -1.421875 C 28.804688 -0.734375 27.15625 -0.238281 25.53125 0.0625 C 23.914062 0.363281 22.097656 0.515625 20.078125 0.515625 C 16.179688 0.515625 12.976562 -0.289062 10.46875 -1.90625 C 7.957031 -3.519531 6.097656 -5.78125 4.890625 -8.6875 C 3.679688 -11.59375 3.078125 -14.984375 3.078125 -18.859375 C 3.078125 -21.722656 3.460938 -24.34375 4.234375 -26.71875 C 5.015625 -29.101562 6.15625 -31.164062 7.65625 -32.90625 C 9.15625 -34.65625 11.007812 -36.003906 13.21875 -36.953125 C 15.425781 -37.898438 17.960938 -38.375 20.828125 -38.375 C 22.710938 -38.375 24.597656 -38.132812 26.484375 -37.65625 C 28.378906 -37.1875 30.1875 -36.539062 31.90625 -35.71875 L 29.328125 -29.1875 C 27.910156 -29.863281 26.484375 -30.453125 25.046875 -30.953125 C 23.617188 -31.453125 22.210938 -31.703125 20.828125 -31.703125 Z M 20.828125 -31.703125 "/></g></g></g><g fill="#414141" fill-opacity="1"><g transform="translate(360.159111, 550.562224)"><g><path d="M 27.921875 0 L 25.1875 -9 L 11.390625 -9 L 8.640625 0 L 0 0 L 13.359375 -37.984375 L 23.15625 -37.984375 L 36.5625 0 Z M 23.265625 -15.734375 L 20.515625 -24.53125 C 20.347656 -25.113281 20.117188 -25.867188 19.828125 -26.796875 C 19.546875 -27.722656 19.265625 -28.664062 18.984375 -29.625 C 18.703125 -30.582031 18.472656 -31.410156 18.296875 -32.109375 C 18.117188 -31.410156 17.878906 -30.535156 17.578125 -29.484375 C 17.273438 -28.441406 16.984375 -27.453125 16.703125 -26.515625 C 16.429688 -25.585938 16.238281 -24.925781 16.125 -24.53125 L 13.40625 -15.734375 Z M 23.265625 -15.734375 "/></g></g></g><g fill="#414141" fill-opacity="1"><g transform="translate(396.720602, 550.562224)"><g><path d="M 4.765625 0 L 4.765625 -37.828125 L 12.78125 -37.828125 L 12.78125 -6.625 L 28.125 -6.625 L 28.125 0 Z M 4.765625 0 "/></g></g></g><g fill="#414141" fill-opacity="1"><g transform="translate(426.65807, 550.562224)"><g/></g></g><g fill="#414141" fill-opacity="1"><g transform="translate(440.423618, 550.562224)"><g><path d="M 27.09375 -10.5 C 27.09375 -8.257812 26.546875 -6.3125 25.453125 -4.65625 C 24.367188 -3 22.785156 -1.722656 20.703125 -0.828125 C 18.628906 0.0664062 16.109375 0.515625 13.140625 0.515625 C 11.835938 0.515625 10.554688 0.425781 9.296875 0.25 C 8.046875 0.0820312 6.847656 -0.164062 5.703125 -0.5 C 4.554688 -0.84375 3.46875 -1.265625 2.4375 -1.765625 L 2.4375 -9.21875 C 4.226562 -8.414062 6.085938 -7.695312 8.015625 -7.0625 C 9.953125 -6.425781 11.867188 -6.109375 13.765625 -6.109375 C 15.078125 -6.109375 16.132812 -6.28125 16.9375 -6.625 C 17.738281 -6.96875 18.320312 -7.441406 18.6875 -8.046875 C 19.050781 -8.648438 19.234375 -9.34375 19.234375 -10.125 C 19.234375 -11.070312 18.910156 -11.878906 18.265625 -12.546875 C 17.628906 -13.222656 16.753906 -13.851562 15.640625 -14.4375 C 14.523438 -15.03125 13.269531 -15.660156 11.875 -16.328125 C 11 -16.742188 10.039062 -17.25 9 -17.84375 C 7.96875 -18.4375 6.984375 -19.164062 6.046875 -20.03125 C 5.117188 -20.894531 4.359375 -21.941406 3.765625 -23.171875 C 3.171875 -24.410156 2.875 -25.890625 2.875 -27.609375 C 2.875 -29.867188 3.390625 -31.800781 4.421875 -33.40625 C 5.460938 -35.007812 6.941406 -36.238281 8.859375 -37.09375 C 10.785156 -37.945312 13.0625 -38.375 15.6875 -38.375 C 17.65625 -38.375 19.53125 -38.144531 21.3125 -37.6875 C 23.09375 -37.226562 24.960938 -36.570312 26.921875 -35.71875 L 24.328125 -29.46875 C 22.585938 -30.175781 21.023438 -30.722656 19.640625 -31.109375 C 18.265625 -31.503906 16.859375 -31.703125 15.421875 -31.703125 C 14.421875 -31.703125 13.566406 -31.539062 12.859375 -31.21875 C 12.148438 -30.90625 11.613281 -30.457031 11.25 -29.875 C 10.894531 -29.300781 10.71875 -28.632812 10.71875 -27.875 C 10.71875 -26.976562 10.976562 -26.222656 11.5 -25.609375 C 12.03125 -24.992188 12.820312 -24.398438 13.875 -23.828125 C 14.9375 -23.265625 16.265625 -22.601562 17.859375 -21.84375 C 19.785156 -20.925781 21.4375 -19.972656 22.8125 -18.984375 C 24.1875 -17.992188 25.242188 -16.828125 25.984375 -15.484375 C 26.722656 -14.148438 27.09375 -12.488281 27.09375 -10.5 Z M 27.09375 -10.5 "/></g></g></g><g fill="#414141" fill-opacity="1"><g transform="translate(469.61072, 550.562224)"><g><path d="M 26.546875 0 L 4.765625 0 L 4.765625 -37.828125 L 26.546875 -37.828125 L 26.546875 -31.265625 L 12.78125 -31.265625 L 12.78125 -22.953125 L 25.59375 -22.953125 L 25.59375 -16.375 L 12.78125 -16.375 L 12.78125 -6.625 L 26.546875 -6.625 Z M 26.546875 0 "/></g></g></g><g fill="#414141" fill-opacity="1"><g transform="translate(499.28946, 550.562224)"><g><path d="M 15.78125 -37.828125 C 19.21875 -37.828125 22.050781 -37.410156 24.28125 -36.578125 C 26.519531 -35.753906 28.179688 -34.503906 29.265625 -32.828125 C 30.359375 -31.160156 30.90625 -29.050781 30.90625 -26.5 C 30.90625 -24.769531 30.578125 -23.257812 29.921875 -21.96875 C 29.265625 -20.675781 28.398438 -19.582031 27.328125 -18.6875 C 26.253906 -17.789062 25.097656 -17.054688 23.859375 -16.484375 L 34.984375 0 L 26.09375 0 L 17.046875 -14.515625 L 12.78125 -14.515625 L 12.78125 0 L 4.765625 0 L 4.765625 -37.828125 Z M 15.21875 -31.265625 L 12.78125 -31.265625 L 12.78125 -21.046875 L 15.375 -21.046875 C 18.03125 -21.046875 19.929688 -21.488281 21.078125 -22.375 C 22.222656 -23.257812 22.796875 -24.566406 22.796875 -26.296875 C 22.796875 -28.085938 22.175781 -29.363281 20.9375 -30.125 C 19.707031 -30.882812 17.800781 -31.265625 15.21875 -31.265625 Z M 15.21875 -31.265625 "/></g></g></g><g fill="#414141" fill-opacity="1"><g transform="translate(534.272582, 550.562224)"><g><path d="M 34.4375 -37.828125 L 21.578125 0 L 12.84375 0 L 0 -37.828125 L 8.09375 -37.828125 L 15.21875 -15.328125 C 15.332031 -14.941406 15.523438 -14.226562 15.796875 -13.1875 C 16.078125 -12.144531 16.359375 -11.039062 16.640625 -9.875 C 16.929688 -8.707031 17.128906 -7.742188 17.234375 -6.984375 C 17.335938 -7.742188 17.519531 -8.703125 17.78125 -9.859375 C 18.050781 -11.015625 18.320312 -12.113281 18.59375 -13.15625 C 18.863281 -14.195312 19.054688 -14.921875 19.171875 -15.328125 L 26.34375 -37.828125 Z M 34.4375 -37.828125 "/></g></g></g><g fill="#414141" fill-opacity="1"><g transform="translate(568.712339, 550.562224)"><g><path d="M 4.765625 0 L 4.765625 -37.828125 L 12.78125 -37.828125 L 12.78125 0 Z M 4.765625 0 "/></g></g></g><g fill="#414141" fill-opacity="1"><g transform="translate(586.255627, 550.562224)"><g><path d="M 20.828125 -31.703125 C 19.296875 -31.703125 17.9375 -31.40625 16.75 -30.8125 C 15.570312 -30.21875 14.582031 -29.359375 13.78125 -28.234375 C 12.976562 -27.109375 12.367188 -25.753906 11.953125 -24.171875 C 11.535156 -22.585938 11.328125 -20.800781 11.328125 -18.8125 C 11.328125 -16.132812 11.660156 -13.851562 12.328125 -11.96875 C 12.992188 -10.082031 14.023438 -8.640625 15.421875 -7.640625 C 16.816406 -6.648438 18.617188 -6.15625 20.828125 -6.15625 C 22.367188 -6.15625 23.910156 -6.328125 25.453125 -6.671875 C 26.992188 -7.015625 28.671875 -7.507812 30.484375 -8.15625 L 30.484375 -1.421875 C 28.804688 -0.734375 27.15625 -0.238281 25.53125 0.0625 C 23.914062 0.363281 22.097656 0.515625 20.078125 0.515625 C 16.179688 0.515625 12.976562 -0.289062 10.46875 -1.90625 C 7.957031 -3.519531 6.097656 -5.78125 4.890625 -8.6875 C 3.679688 -11.59375 3.078125 -14.984375 3.078125 -18.859375 C 3.078125 -21.722656 3.460938 -24.34375 4.234375 -26.71875 C 5.015625 -29.101562 6.15625 -31.164062 7.65625 -32.90625 C 9.15625 -34.65625 11.007812 -36.003906 13.21875 -36.953125 C 15.425781 -37.898438 17.960938 -38.375 20.828125 -38.375 C 22.710938 -38.375 24.597656 -38.132812 26.484375 -37.65625 C 28.378906 -37.1875 30.1875 -36.539062 31.90625 -35.71875 L 29.328125 -29.1875 C 27.910156 -29.863281 26.484375 -30.453125 25.046875 -30.953125 C 23.617188 -31.453125 22.210938 -31.703125 20.828125 -31.703125 Z M 20.828125 -31.703125 "/></g></g></g><g fill="#414141" fill-opacity="1"><g transform="translate(620.022608, 550.562224)"><g><path d="M 26.546875 0 L 4.765625 0 L 4.765625 -37.828125 L 26.546875 -37.828125 L 26.546875 -31.265625 L 12.78125 -31.265625 L 12.78125 -22.953125 L 25.59375 -22.953125 L 25.59375 -16.375 L 12.78125 -16.375 L 12.78125 -6.625 L 26.546875 -6.625 Z M 26.546875 0 "/></g></g></g><g fill="#414141" fill-opacity="1"><g transform="translate(649.701348, 550.562224)"><g><path d="M 27.09375 -10.5 C 27.09375 -8.257812 26.546875 -6.3125 25.453125 -4.65625 C 24.367188 -3 22.785156 -1.722656 20.703125 -0.828125 C 18.628906 0.0664062 16.109375 0.515625 13.140625 0.515625 C 11.835938 0.515625 10.554688 0.425781 9.296875 0.25 C 8.046875 0.0820312 6.847656 -0.164062 5.703125 -0.5 C 4.554688 -0.84375 3.46875 -1.265625 2.4375 -1.765625 L 2.4375 -9.21875 C 4.226562 -8.414062 6.085938 -7.695312 8.015625 -7.0625 C 9.953125 -6.425781 11.867188 -6.109375 13.765625 -6.109375 C 15.078125 -6.109375 16.132812 -6.28125 16.9375 -6.625 C 17.738281 -6.96875 18.320312 -7.441406 18.6875 -8.046875 C 19.050781 -8.648438 19.234375 -9.34375 19.234375 -10.125 C 19.234375 -11.070312 18.910156 -11.878906 18.265625 -12.546875 C 17.628906 -13.222656 16.753906 -13.851562 15.640625 -14.4375 C 14.523438 -15.03125 13.269531 -15.660156 11.875 -16.328125 C 11 -16.742188 10.039062 -17.25 9 -17.84375 C 7.96875 -18.4375 6.984375 -19.164062 6.046875 -20.03125 C 5.117188 -20.894531 4.359375 -21.941406 3.765625 -23.171875 C 3.171875 -24.410156 2.875 -25.890625 2.875 -27.609375 C 2.875 -29.867188 3.390625 -31.800781 4.421875 -33.40625 C 5.460938 -35.007812 6.941406 -36.238281 8.859375 -37.09375 C 10.785156 -37.945312 13.0625 -38.375 15.6875 -38.375 C 17.65625 -38.375 19.53125 -38.144531 21.3125 -37.6875 C 23.09375 -37.226562 24.960938 -36.570312 26.921875 -35.71875 L 24.328125 -29.46875 C 22.585938 -30.175781 21.023438 -30.722656 19.640625 -31.109375 C 18.265625 -31.503906 16.859375 -31.703125 15.421875 -31.703125 C 14.421875 -31.703125 13.566406 -31.539062 12.859375 -31.21875 C 12.148438 -30.90625 11.613281 -30.457031 11.25 -29.875 C 10.894531 -29.300781 10.71875 -28.632812 10.71875 -27.875 C 10.71875 -26.976562 10.976562 -26.222656 11.5 -25.609375 C 12.03125 -24.992188 12.820312 -24.398438 13.875 -23.828125 C 14.9375 -23.265625 16.265625 -22.601562 17.859375 -21.84375 C 19.785156 -20.925781 21.4375 -19.972656 22.8125 -18.984375 C 24.1875 -17.992188 25.242188 -16.828125 25.984375 -15.484375 C 26.722656 -14.148438 27.09375 -12.488281 27.09375 -10.5 Z M 27.09375 -10.5 "/></g></g></g></svg>