<svg xmlns="http://www.w3.org/2000/svg" xmlns:xlink="http://www.w3.org/1999/xlink" width="1080" zoomAndPan="magnify" viewBox="0 0 810 809.999993" height="1080" preserveAspectRatio="xMidYMid meet" version="1.0"><defs><g/><clipPath id="02613daff6"><path d="M 0 0 L 810 0 L 810 430.726562 L 0 430.726562 Z M 0 0 " clip-rule="nonzero"/></clipPath><clipPath id="3c367fdc59"><path d="M 5.28125 0 L 804.71875 0 C 814.863281 0 824.59375 4.03125 831.765625 11.203125 C 838.941406 18.375 842.96875 28.105469 842.96875 38.25 L 842.96875 392.476562 C 842.96875 402.621094 838.941406 412.351562 831.765625 419.523438 C 824.59375 426.699219 814.863281 430.726562 804.71875 430.726562 L 5.28125 430.726562 C -4.863281 430.726562 -14.59375 426.699219 -21.765625 419.523438 C -28.941406 412.351562 -32.96875 402.621094 -32.96875 392.476562 L -32.96875 38.25 C -32.96875 28.105469 -28.941406 18.375 -21.765625 11.203125 C -14.59375 4.03125 -4.863281 0 5.28125 0 Z M 5.28125 0 " clip-rule="nonzero"/></clipPath><clipPath id="ede5a1549e"><path d="M 223.1875 67.101562 L 586.8125 67.101562 L 586.8125 430.726562 L 223.1875 430.726562 Z M 223.1875 67.101562 " clip-rule="nonzero"/></clipPath><clipPath id="041e7fff2d"><path d="M 405 67.101562 C 304.585938 67.101562 223.1875 148.5 223.1875 248.914062 C 223.1875 349.328125 304.585938 430.726562 405 430.726562 C 505.414062 430.726562 586.8125 349.328125 586.8125 248.914062 C 586.8125 148.5 505.414062 67.101562 405 67.101562 Z M 405 67.101562 " clip-rule="nonzero"/></clipPath><clipPath id="27ac3d1795"><path d="M 302.582031 184 L 338 184 L 338 208 L 302.582031 208 Z M 302.582031 184 " clip-rule="nonzero"/></clipPath><clipPath id="8afcb6ed1f"><path d="M 302.582031 192 L 325 192 L 325 393 L 302.582031 393 Z M 302.582031 192 " clip-rule="nonzero"/></clipPath><clipPath id="cafdf0657f"><path d="M 321 255 L 507.332031 255 L 507.332031 393 L 321 393 Z M 321 255 " clip-rule="nonzero"/></clipPath><clipPath id="ab4de6379d"><path d="M 334 196 L 507.332031 196 L 507.332031 371 L 334 371 Z M 334 196 " clip-rule="nonzero"/></clipPath><clipPath id="95cf9cde16"><path d="M 0 577.398438 L 810 577.398438 L 810 810 L 0 810 Z M 0 577.398438 " clip-rule="nonzero"/></clipPath><clipPath id="ac6036f628"><path d="M 405 810 L 818.925781 577.398438 L -8.925781 577.398438 Z M 405 810 " clip-rule="nonzero"/></clipPath></defs><rect x="-81" width="972" fill="#ffffff" y="-80.999999" height="971.999992" fill-opacity="1"/><rect x="-81" width="972" fill="#ffffff" y="-80.999999" height="971.999992" fill-opacity="1"/><g clip-path="url(#02613daff6)"><g clip-path="url(#3c367fdc59)"><path fill="#414141" d="M -32.96875 0 L 843.628906 0 L 843.628906 430.726562 L -32.96875 430.726562 Z M -32.96875 0 " fill-opacity="1" fill-rule="nonzero"/></g></g><g clip-path="url(#ede5a1549e)"><g clip-path="url(#041e7fff2d)"><path fill="#ffffff" d="M 223.1875 67.101562 L 586.8125 67.101562 L 586.8125 430.726562 L 223.1875 430.726562 Z M 223.1875 67.101562 " fill-opacity="1" fill-rule="nonzero"/></g></g><path fill="#d50000" d="M 497.441406 170.910156 C 497.246094 170.910156 497.058594 170.875 496.878906 170.796875 L 458.175781 154.714844 C 458.058594 154.667969 457.953125 154.605469 457.851562 154.53125 C 457.753906 154.457031 457.664062 154.371094 457.585938 154.273438 C 457.507812 154.175781 457.445312 154.070312 457.394531 153.957031 C 457.339844 153.84375 457.304688 153.726562 457.285156 153.601562 C 457.261719 153.480469 457.257812 153.355469 457.265625 153.230469 C 457.277344 153.105469 457.300781 152.984375 457.34375 152.867188 C 457.382812 152.75 457.4375 152.640625 457.507812 152.535156 C 457.574219 152.429688 457.65625 152.335938 457.75 152.253906 L 499.089844 114.746094 C 499.3125 114.546875 499.570312 114.421875 499.863281 114.378906 C 500.160156 114.335938 500.441406 114.378906 500.710938 114.503906 C 500.980469 114.632812 501.195312 114.824219 501.347656 115.082031 C 501.5 115.335938 501.570312 115.613281 501.554688 115.910156 L 498.917969 169.503906 C 498.90625 169.691406 498.863281 169.875 498.785156 170.046875 C 498.707031 170.21875 498.597656 170.371094 498.460938 170.5 C 498.324219 170.632812 498.164062 170.730469 497.988281 170.800781 C 497.8125 170.871094 497.628906 170.90625 497.441406 170.90625 Z M 461.457031 152.882812 L 496.070312 167.265625 L 498.433594 119.332031 Z M 461.457031 152.882812 " fill-opacity="1" fill-rule="nonzero"/><path fill="#d50000" d="M 458.742188 154.828125 C 458.542969 154.828125 458.351562 154.789062 458.167969 154.710938 L 436.023438 145.414062 C 435.90625 145.363281 435.796875 145.300781 435.699219 145.226562 C 435.597656 145.148438 435.507812 145.058594 435.429688 144.960938 C 435.351562 144.859375 435.289062 144.753906 435.238281 144.636719 C 435.1875 144.519531 435.152344 144.398438 435.132812 144.273438 C 435.117188 144.148438 435.113281 144.023438 435.125 143.898438 C 435.140625 143.773438 435.167969 143.652344 435.210938 143.53125 C 435.257812 143.414062 435.316406 143.304688 435.390625 143.199219 C 435.460938 143.097656 435.546875 143.003906 435.644531 142.921875 L 480.308594 105.355469 C 480.53125 105.164062 480.789062 105.050781 481.082031 105.015625 C 481.375 104.980469 481.652344 105.027344 481.914062 105.15625 L 500.738281 114.515625 C 500.914062 114.605469 501.066406 114.722656 501.195312 114.871094 C 501.324219 115.015625 501.417969 115.183594 501.480469 115.371094 C 501.542969 115.554688 501.570312 115.746094 501.554688 115.941406 C 501.542969 116.136719 501.492188 116.320312 501.40625 116.496094 C 501.316406 116.671875 501.199219 116.824219 501.050781 116.953125 C 500.90625 117.082031 500.738281 117.175781 500.550781 117.238281 C 500.367188 117.300781 500.175781 117.324219 499.980469 117.3125 C 499.785156 117.300781 499.601562 117.25 499.425781 117.160156 L 481.46875 108.238281 L 439.394531 143.628906 L 459.3125 151.992188 C 459.636719 152.128906 459.882812 152.355469 460.046875 152.664062 C 460.210938 152.976562 460.257812 153.304688 460.1875 153.648438 C 460.121094 153.992188 459.949219 154.277344 459.675781 154.5 C 459.402344 154.722656 459.09375 154.832031 458.742188 154.832031 Z M 458.742188 154.828125 " fill-opacity="1" fill-rule="nonzero"/><path fill="#d50000" d="M 379.832031 305.363281 C 379.640625 305.363281 379.457031 305.328125 379.277344 305.253906 L 364.953125 299.472656 C 364.867188 299.441406 364.785156 299.398438 364.707031 299.347656 L 350.007812 289.925781 C 349.855469 289.828125 349.726562 289.707031 349.617188 289.558594 C 349.511719 289.414062 349.433594 289.253906 349.382812 289.082031 C 349.335938 288.90625 349.316406 288.730469 349.332031 288.550781 C 349.351562 288.371094 349.398438 288.199219 349.476562 288.035156 L 390.1875 204.351562 C 390.382812 203.945312 390.699219 203.683594 391.136719 203.566406 L 430.445312 193.1875 L 451.292969 150.136719 C 451.375 149.957031 451.488281 149.800781 451.636719 149.667969 C 451.78125 149.535156 451.949219 149.4375 452.132812 149.371094 C 452.320312 149.304688 452.511719 149.277344 452.710938 149.285156 C 452.90625 149.296875 453.09375 149.347656 453.273438 149.433594 C 453.449219 149.519531 453.605469 149.636719 453.734375 149.785156 C 453.867188 149.929688 453.964844 150.097656 454.027344 150.285156 C 454.089844 150.472656 454.117188 150.664062 454.101562 150.863281 C 454.089844 151.058594 454.039062 151.246094 453.949219 151.421875 L 432.804688 195.082031 C 432.609375 195.492188 432.292969 195.753906 431.855469 195.871094 L 392.546875 206.25 L 352.707031 288.144531 L 366.191406 296.785156 L 379.101562 301.992188 L 412.921875 230.875 C 413.121094 230.460938 413.441406 230.195312 413.882812 230.082031 L 449.695312 220.695312 L 480.570312 162.277344 C 480.65625 162.097656 480.777344 161.945312 480.925781 161.8125 C 481.078125 161.683594 481.25 161.585938 481.4375 161.523438 C 481.628906 161.464844 481.820312 161.441406 482.019531 161.457031 C 482.21875 161.476562 482.40625 161.53125 482.582031 161.625 C 482.757812 161.71875 482.910156 161.839844 483.035156 161.996094 C 483.164062 162.148438 483.253906 162.320312 483.308594 162.511719 C 483.367188 162.703125 483.382812 162.898438 483.359375 163.097656 C 483.335938 163.296875 483.277344 163.480469 483.179688 163.65625 L 452.003906 222.648438 C 451.800781 223.03125 451.488281 223.277344 451.070312 223.386719 L 415.292969 232.761719 L 381.164062 304.523438 C 381.039062 304.78125 380.859375 304.984375 380.617188 305.136719 C 380.378906 305.285156 380.113281 305.363281 379.832031 305.363281 Z M 379.832031 305.363281 " fill-opacity="1" fill-rule="nonzero"/><path fill="#d50000" d="M 365.503906 299.582031 C 365.378906 299.582031 365.257812 299.566406 365.136719 299.535156 C 365.015625 299.503906 364.898438 299.457031 364.789062 299.398438 C 364.679688 299.335938 364.582031 299.261719 364.492188 299.175781 C 364.398438 299.089844 364.320312 298.996094 364.253906 298.890625 C 364.1875 298.785156 364.136719 298.671875 364.097656 298.550781 C 364.0625 298.433594 364.039062 298.3125 364.03125 298.1875 C 364.023438 298.0625 364.035156 297.9375 364.058594 297.816406 C 364.082031 297.691406 364.121094 297.574219 364.175781 297.460938 L 404.890625 213.523438 C 405.09375 213.109375 405.417969 212.847656 405.867188 212.738281 L 442.164062 203.847656 L 467.03125 156.652344 C 467.121094 156.480469 467.242188 156.332031 467.394531 156.207031 C 467.546875 156.082031 467.714844 155.992188 467.902344 155.933594 C 468.089844 155.875 468.277344 155.855469 468.472656 155.875 C 468.667969 155.890625 468.851562 155.945312 469.027344 156.039062 C 469.199219 156.128906 469.347656 156.25 469.472656 156.402344 C 469.597656 156.550781 469.6875 156.71875 469.746094 156.90625 C 469.804688 157.09375 469.824219 157.285156 469.808594 157.480469 C 469.789062 157.675781 469.734375 157.859375 469.644531 158.03125 L 444.464844 205.808594 C 444.257812 206.203125 443.941406 206.449219 443.511719 206.554688 L 407.242188 215.4375 L 366.832031 298.75 C 366.710938 299.003906 366.527344 299.207031 366.289062 299.355469 C 366.050781 299.507812 365.789062 299.582031 365.503906 299.582031 Z M 365.503906 299.582031 " fill-opacity="1" fill-rule="nonzero"/><g clip-path="url(#27ac3d1795)"><path fill="#d50000" d="M 321.402344 207.789062 C 321.097656 207.792969 320.816406 207.707031 320.566406 207.53125 L 303.226562 195.660156 C 303.125 195.59375 303.035156 195.511719 302.953125 195.417969 C 302.871094 195.328125 302.804688 195.226562 302.746094 195.117188 C 302.691406 195.007812 302.648438 194.894531 302.621094 194.773438 C 302.59375 194.65625 302.582031 194.535156 302.585938 194.414062 C 302.585938 194.289062 302.605469 194.167969 302.636719 194.050781 C 302.667969 193.933594 302.714844 193.820312 302.777344 193.714844 C 302.835938 193.609375 302.910156 193.511719 302.996094 193.421875 C 303.078125 193.332031 303.175781 193.257812 303.277344 193.191406 L 316.847656 184.710938 C 317.089844 184.558594 317.351562 184.484375 317.636719 184.488281 C 317.921875 184.488281 318.183594 184.566406 318.425781 184.71875 L 336.707031 196.402344 C 336.8125 196.46875 336.910156 196.546875 336.996094 196.640625 C 337.082031 196.734375 337.152344 196.835938 337.214844 196.945312 C 337.273438 197.054688 337.316406 197.171875 337.347656 197.292969 C 337.378906 197.417969 337.390625 197.539062 337.390625 197.667969 C 337.386719 197.792969 337.371094 197.914062 337.335938 198.035156 C 337.304688 198.160156 337.253906 198.273438 337.191406 198.382812 C 337.128906 198.492188 337.054688 198.589844 336.964844 198.679688 C 336.878906 198.769531 336.777344 198.847656 336.671875 198.910156 L 322.160156 207.582031 C 321.925781 207.722656 321.671875 207.792969 321.402344 207.789062 Z M 306.757812 194.496094 L 321.453125 204.5625 L 333.105469 197.601562 L 317.621094 187.707031 Z M 306.757812 194.496094 " fill-opacity="1" fill-rule="nonzero"/></g><g clip-path="url(#8afcb6ed1f)"><path fill="#d50000" d="M 322.933594 392.878906 C 322.667969 392.882812 322.417969 392.8125 322.1875 392.675781 L 303.3125 381.554688 C 302.828125 381.269531 302.585938 380.847656 302.582031 380.285156 L 302.582031 194.441406 C 302.582031 194.246094 302.621094 194.058594 302.695312 193.875 C 302.769531 193.695312 302.878906 193.535156 303.015625 193.398438 C 303.15625 193.257812 303.3125 193.152344 303.496094 193.078125 C 303.675781 193 303.863281 192.964844 304.058594 192.964844 C 304.257812 192.964844 304.445312 193 304.625 193.078125 C 304.804688 193.152344 304.964844 193.257812 305.105469 193.398438 C 305.242188 193.535156 305.347656 193.695312 305.425781 193.875 C 305.5 194.058594 305.535156 194.246094 305.535156 194.441406 L 305.535156 379.441406 L 321.4375 388.808594 L 319.925781 206.328125 C 319.921875 206.132812 319.957031 205.941406 320.03125 205.761719 C 320.105469 205.578125 320.210938 205.417969 320.347656 205.277344 C 320.484375 205.140625 320.644531 205.03125 320.824219 204.953125 C 321.003906 204.878906 321.191406 204.839844 321.390625 204.839844 L 321.402344 204.839844 C 321.59375 204.839844 321.78125 204.875 321.964844 204.949219 C 322.144531 205.023438 322.300781 205.128906 322.441406 205.265625 C 322.578125 205.402344 322.6875 205.5625 322.761719 205.742188 C 322.835938 205.921875 322.875 206.109375 322.878906 206.300781 L 324.410156 391.390625 C 324.414062 391.589844 324.378906 391.777344 324.304688 391.960938 C 324.230469 392.144531 324.121094 392.304688 323.984375 392.445312 C 323.84375 392.582031 323.683594 392.691406 323.503906 392.765625 C 323.320312 392.84375 323.132812 392.878906 322.933594 392.878906 Z M 322.933594 392.878906 " fill-opacity="1" fill-rule="nonzero"/></g><g clip-path="url(#cafdf0657f)"><path fill="#d50000" d="M 322.9375 392.878906 C 322.601562 392.882812 322.300781 392.78125 322.035156 392.578125 C 321.769531 392.375 321.59375 392.109375 321.507812 391.785156 C 321.421875 391.464844 321.441406 391.148438 321.570312 390.839844 C 321.699219 390.53125 321.90625 390.292969 322.199219 390.125 L 504.261719 285.191406 L 504.261719 270.285156 L 485.363281 258.738281 L 336.660156 345.746094 C 336.488281 345.84375 336.308594 345.910156 336.113281 345.933594 C 335.921875 345.960938 335.730469 345.949219 335.539062 345.902344 C 335.351562 345.851562 335.175781 345.765625 335.019531 345.648438 C 334.867188 345.53125 334.738281 345.386719 334.640625 345.21875 C 334.539062 345.046875 334.476562 344.867188 334.449219 344.671875 C 334.425781 344.480469 334.433594 344.289062 334.484375 344.097656 C 334.535156 343.910156 334.617188 343.734375 334.738281 343.578125 C 334.855469 343.421875 335 343.296875 335.167969 343.199219 L 484.636719 255.742188 C 484.871094 255.605469 485.125 255.539062 485.394531 255.539062 C 485.667969 255.542969 485.917969 255.613281 486.152344 255.753906 L 506.507812 268.195312 C 506.976562 268.484375 507.214844 268.902344 507.214844 269.457031 L 507.214844 286.042969 C 507.214844 286.308594 507.148438 286.554688 507.015625 286.78125 C 506.882812 287.011719 506.703125 287.191406 506.472656 287.324219 L 323.671875 392.683594 C 323.445312 392.816406 323.199219 392.882812 322.9375 392.878906 Z M 322.9375 392.878906 " fill-opacity="1" fill-rule="nonzero"/></g><g clip-path="url(#ab4de6379d)"><path fill="#d50000" d="M 335.914062 370.078125 C 335.71875 370.078125 335.53125 370.042969 335.347656 369.964844 C 335.167969 369.890625 335.007812 369.785156 334.871094 369.644531 C 334.730469 369.507812 334.625 369.347656 334.550781 369.167969 C 334.476562 368.984375 334.4375 368.796875 334.4375 368.601562 L 334.4375 197.644531 C 334.4375 197.449219 334.476562 197.261719 334.550781 197.078125 C 334.625 196.898438 334.730469 196.738281 334.871094 196.601562 C 335.007812 196.460938 335.167969 196.355469 335.347656 196.28125 C 335.53125 196.207031 335.71875 196.167969 335.914062 196.167969 C 336.109375 196.167969 336.296875 196.207031 336.480469 196.28125 C 336.660156 196.355469 336.820312 196.460938 336.957031 196.601562 C 337.097656 196.738281 337.203125 196.898438 337.277344 197.078125 C 337.351562 197.261719 337.390625 197.449219 337.390625 197.644531 L 337.390625 366.027344 L 504.992188 268.179688 C 505.160156 268.085938 505.34375 268.023438 505.535156 268 C 505.730469 267.972656 505.917969 267.984375 506.109375 268.035156 C 506.296875 268.085938 506.46875 268.171875 506.621094 268.289062 C 506.777344 268.40625 506.902344 268.550781 507 268.71875 C 507.101562 268.886719 507.160156 269.066406 507.1875 269.261719 C 507.214844 269.453125 507.203125 269.644531 507.15625 269.832031 C 507.105469 270.019531 507.023438 270.191406 506.90625 270.347656 C 506.789062 270.503906 506.648438 270.632812 506.480469 270.730469 L 336.660156 369.871094 C 336.429688 370.007812 336.179688 370.078125 335.914062 370.078125 Z M 335.914062 370.078125 " fill-opacity="1" fill-rule="nonzero"/></g><g fill="#d50000" fill-opacity="1"><g transform="translate(176.426791, 498.062347)"><g><path d="M 15.78125 -37.828125 C 19.21875 -37.828125 22.050781 -37.410156 24.28125 -36.578125 C 26.519531 -35.753906 28.179688 -34.503906 29.265625 -32.828125 C 30.359375 -31.160156 30.90625 -29.050781 30.90625 -26.5 C 30.90625 -24.769531 30.578125 -23.257812 29.921875 -21.96875 C 29.265625 -20.675781 28.398438 -19.582031 27.328125 -18.6875 C 26.253906 -17.789062 25.097656 -17.054688 23.859375 -16.484375 L 34.984375 0 L 26.09375 0 L 17.046875 -14.515625 L 12.78125 -14.515625 L 12.78125 0 L 4.765625 0 L 4.765625 -37.828125 Z M 15.21875 -31.265625 L 12.78125 -31.265625 L 12.78125 -21.046875 L 15.375 -21.046875 C 18.03125 -21.046875 19.929688 -21.488281 21.078125 -22.375 C 22.222656 -23.257812 22.796875 -24.566406 22.796875 -26.296875 C 22.796875 -28.085938 22.175781 -29.363281 20.9375 -30.125 C 19.707031 -30.882812 17.800781 -31.265625 15.21875 -31.265625 Z M 15.21875 -31.265625 "/></g></g></g><g fill="#d50000" fill-opacity="1"><g transform="translate(211.409913, 498.062347)"><g><path d="M 26.546875 0 L 4.765625 0 L 4.765625 -37.828125 L 26.546875 -37.828125 L 26.546875 -31.265625 L 12.78125 -31.265625 L 12.78125 -22.953125 L 25.59375 -22.953125 L 25.59375 -16.375 L 12.78125 -16.375 L 12.78125 -6.625 L 26.546875 -6.625 Z M 26.546875 0 "/></g></g></g><g fill="#d50000" fill-opacity="1"><g transform="translate(241.088641, 498.062347)"><g><path d="M 34.4375 -37.828125 L 21.578125 0 L 12.84375 0 L 0 -37.828125 L 8.09375 -37.828125 L 15.21875 -15.328125 C 15.332031 -14.941406 15.523438 -14.226562 15.796875 -13.1875 C 16.078125 -12.144531 16.359375 -11.039062 16.640625 -9.875 C 16.929688 -8.707031 17.128906 -7.742188 17.234375 -6.984375 C 17.335938 -7.742188 17.519531 -8.703125 17.78125 -9.859375 C 18.050781 -11.015625 18.320312 -12.113281 18.59375 -13.15625 C 18.863281 -14.195312 19.054688 -14.921875 19.171875 -15.328125 L 26.34375 -37.828125 Z M 34.4375 -37.828125 "/></g></g></g><g fill="#d50000" fill-opacity="1"><g transform="translate(275.528386, 498.062347)"><g><path d="M 26.546875 0 L 4.765625 0 L 4.765625 -37.828125 L 26.546875 -37.828125 L 26.546875 -31.265625 L 12.78125 -31.265625 L 12.78125 -22.953125 L 25.59375 -22.953125 L 25.59375 -16.375 L 12.78125 -16.375 L 12.78125 -6.625 L 26.546875 -6.625 Z M 26.546875 0 "/></g></g></g><g fill="#d50000" fill-opacity="1"><g transform="translate(305.207114, 498.062347)"><g><path d="M 38.328125 0 L 28.125 0 L 11.671875 -28.625 L 11.4375 -28.625 C 11.507812 -27.4375 11.570312 -26.238281 11.625 -25.03125 C 11.675781 -23.820312 11.726562 -22.613281 11.78125 -21.40625 C 11.832031 -20.207031 11.882812 -19.007812 11.9375 -17.8125 L 11.9375 0 L 4.765625 0 L 4.765625 -37.828125 L 14.875 -37.828125 L 31.3125 -9.5 L 31.5 -9.5 C 31.457031 -10.664062 31.410156 -11.828125 31.359375 -12.984375 C 31.304688 -14.140625 31.257812 -15.296875 31.21875 -16.453125 C 31.175781 -17.609375 31.140625 -18.765625 31.109375 -19.921875 L 31.109375 -37.828125 L 38.328125 -37.828125 Z M 38.328125 0 "/></g></g></g><g fill="#d50000" fill-opacity="1"><g transform="translate(348.289139, 498.062347)"><g><path d="M 35.5625 -37.828125 L 35.5625 -13.359375 C 35.5625 -10.753906 34.984375 -8.398438 33.828125 -6.296875 C 32.679688 -4.203125 30.945312 -2.539062 28.625 -1.3125 C 26.3125 -0.09375 23.394531 0.515625 19.875 0.515625 C 14.875 0.515625 11.0625 -0.757812 8.4375 -3.3125 C 5.8125 -5.863281 4.5 -9.242188 4.5 -13.453125 L 4.5 -37.828125 L 12.5 -37.828125 L 12.5 -14.671875 C 12.5 -11.546875 13.132812 -9.351562 14.40625 -8.09375 C 15.6875 -6.84375 17.578125 -6.21875 20.078125 -6.21875 C 21.835938 -6.21875 23.265625 -6.515625 24.359375 -7.109375 C 25.460938 -7.710938 26.269531 -8.644531 26.78125 -9.90625 C 27.300781 -11.164062 27.5625 -12.769531 27.5625 -14.71875 L 27.5625 -37.828125 Z M 35.5625 -37.828125 "/></g></g></g><g fill="#d50000" fill-opacity="1"><g transform="translate(388.343779, 498.062347)"><g><path d="M 26.546875 0 L 4.765625 0 L 4.765625 -37.828125 L 26.546875 -37.828125 L 26.546875 -31.265625 L 12.78125 -31.265625 L 12.78125 -22.953125 L 25.59375 -22.953125 L 25.59375 -16.375 L 12.78125 -16.375 L 12.78125 -6.625 L 26.546875 -6.625 Z M 26.546875 0 "/></g></g></g><g fill="#d50000" fill-opacity="1"><g transform="translate(418.022496, 498.062347)"><g/></g></g><g fill="#d50000" fill-opacity="1"><g transform="translate(431.788045, 498.062347)"><g><path d="M 27.09375 -10.5 C 27.09375 -8.257812 26.546875 -6.3125 25.453125 -4.65625 C 24.367188 -3 22.785156 -1.722656 20.703125 -0.828125 C 18.628906 0.0664062 16.109375 0.515625 13.140625 0.515625 C 11.835938 0.515625 10.554688 0.425781 9.296875 0.25 C 8.046875 0.0820312 6.847656 -0.164062 5.703125 -0.5 C 4.554688 -0.84375 3.46875 -1.265625 2.4375 -1.765625 L 2.4375 -9.21875 C 4.226562 -8.414062 6.085938 -7.695312 8.015625 -7.0625 C 9.953125 -6.425781 11.867188 -6.109375 13.765625 -6.109375 C 15.078125 -6.109375 16.132812 -6.28125 16.9375 -6.625 C 17.738281 -6.96875 18.320312 -7.441406 18.6875 -8.046875 C 19.050781 -8.648438 19.234375 -9.34375 19.234375 -10.125 C 19.234375 -11.070312 18.910156 -11.878906 18.265625 -12.546875 C 17.628906 -13.222656 16.753906 -13.851562 15.640625 -14.4375 C 14.523438 -15.03125 13.269531 -15.660156 11.875 -16.328125 C 11 -16.742188 10.039062 -17.25 9 -17.84375 C 7.96875 -18.4375 6.984375 -19.164062 6.046875 -20.03125 C 5.117188 -20.894531 4.359375 -21.941406 3.765625 -23.171875 C 3.171875 -24.410156 2.875 -25.890625 2.875 -27.609375 C 2.875 -29.867188 3.390625 -31.800781 4.421875 -33.40625 C 5.460938 -35.007812 6.941406 -36.238281 8.859375 -37.09375 C 10.785156 -37.945312 13.0625 -38.375 15.6875 -38.375 C 17.65625 -38.375 19.53125 -38.144531 21.3125 -37.6875 C 23.09375 -37.226562 24.960938 -36.570312 26.921875 -35.71875 L 24.328125 -29.46875 C 22.585938 -30.175781 21.023438 -30.722656 19.640625 -31.109375 C 18.265625 -31.503906 16.859375 -31.703125 15.421875 -31.703125 C 14.421875 -31.703125 13.566406 -31.539062 12.859375 -31.21875 C 12.148438 -30.90625 11.613281 -30.457031 11.25 -29.875 C 10.894531 -29.300781 10.71875 -28.632812 10.71875 -27.875 C 10.71875 -26.976562 10.976562 -26.222656 11.5 -25.609375 C 12.03125 -24.992188 12.820312 -24.398438 13.875 -23.828125 C 14.9375 -23.265625 16.265625 -22.601562 17.859375 -21.84375 C 19.785156 -20.925781 21.4375 -19.972656 22.8125 -18.984375 C 24.1875 -17.992188 25.242188 -16.828125 25.984375 -15.484375 C 26.722656 -14.148438 27.09375 -12.488281 27.09375 -10.5 Z M 27.09375 -10.5 "/></g></g></g><g fill="#d50000" fill-opacity="1"><g transform="translate(460.975147, 498.062347)"><g><path d="M 16.53125 -22.25 L 24.4375 -37.828125 L 33.078125 -37.828125 L 20.515625 -14.71875 L 20.515625 0 L 12.546875 0 L 12.546875 -14.46875 L 0 -37.828125 L 8.703125 -37.828125 Z M 16.53125 -22.25 "/></g></g></g><g fill="#d50000" fill-opacity="1"><g transform="translate(494.043512, 498.062347)"><g><path d="M 27.09375 -10.5 C 27.09375 -8.257812 26.546875 -6.3125 25.453125 -4.65625 C 24.367188 -3 22.785156 -1.722656 20.703125 -0.828125 C 18.628906 0.0664062 16.109375 0.515625 13.140625 0.515625 C 11.835938 0.515625 10.554688 0.425781 9.296875 0.25 C 8.046875 0.0820312 6.847656 -0.164062 5.703125 -0.5 C 4.554688 -0.84375 3.46875 -1.265625 2.4375 -1.765625 L 2.4375 -9.21875 C 4.226562 -8.414062 6.085938 -7.695312 8.015625 -7.0625 C 9.953125 -6.425781 11.867188 -6.109375 13.765625 -6.109375 C 15.078125 -6.109375 16.132812 -6.28125 16.9375 -6.625 C 17.738281 -6.96875 18.320312 -7.441406 18.6875 -8.046875 C 19.050781 -8.648438 19.234375 -9.34375 19.234375 -10.125 C 19.234375 -11.070312 18.910156 -11.878906 18.265625 -12.546875 C 17.628906 -13.222656 16.753906 -13.851562 15.640625 -14.4375 C 14.523438 -15.03125 13.269531 -15.660156 11.875 -16.328125 C 11 -16.742188 10.039062 -17.25 9 -17.84375 C 7.96875 -18.4375 6.984375 -19.164062 6.046875 -20.03125 C 5.117188 -20.894531 4.359375 -21.941406 3.765625 -23.171875 C 3.171875 -24.410156 2.875 -25.890625 2.875 -27.609375 C 2.875 -29.867188 3.390625 -31.800781 4.421875 -33.40625 C 5.460938 -35.007812 6.941406 -36.238281 8.859375 -37.09375 C 10.785156 -37.945312 13.0625 -38.375 15.6875 -38.375 C 17.65625 -38.375 19.53125 -38.144531 21.3125 -37.6875 C 23.09375 -37.226562 24.960938 -36.570312 26.921875 -35.71875 L 24.328125 -29.46875 C 22.585938 -30.175781 21.023438 -30.722656 19.640625 -31.109375 C 18.265625 -31.503906 16.859375 -31.703125 15.421875 -31.703125 C 14.421875 -31.703125 13.566406 -31.539062 12.859375 -31.21875 C 12.148438 -30.90625 11.613281 -30.457031 11.25 -29.875 C 10.894531 -29.300781 10.71875 -28.632812 10.71875 -27.875 C 10.71875 -26.976562 10.976562 -26.222656 11.5 -25.609375 C 12.03125 -24.992188 12.820312 -24.398438 13.875 -23.828125 C 14.9375 -23.265625 16.265625 -22.601562 17.859375 -21.84375 C 19.785156 -20.925781 21.4375 -19.972656 22.8125 -18.984375 C 24.1875 -17.992188 25.242188 -16.828125 25.984375 -15.484375 C 26.722656 -14.148438 27.09375 -12.488281 27.09375 -10.5 Z M 27.09375 -10.5 "/></g></g></g><g fill="#d50000" fill-opacity="1"><g transform="translate(523.230614, 498.062347)"><g><path d="M 19.359375 0 L 11.328125 0 L 11.328125 -31.15625 L 1.0625 -31.15625 L 1.0625 -37.828125 L 29.625 -37.828125 L 29.625 -31.15625 L 19.359375 -31.15625 Z M 19.359375 0 "/></g></g></g><g fill="#d50000" fill-opacity="1"><g transform="translate(553.918471, 498.062347)"><g><path d="M 26.546875 0 L 4.765625 0 L 4.765625 -37.828125 L 26.546875 -37.828125 L 26.546875 -31.265625 L 12.78125 -31.265625 L 12.78125 -22.953125 L 25.59375 -22.953125 L 25.59375 -16.375 L 12.78125 -16.375 L 12.78125 -6.625 L 26.546875 -6.625 Z M 26.546875 0 "/></g></g></g><g fill="#d50000" fill-opacity="1"><g transform="translate(583.597211, 498.062347)"><g><path d="M 20.78125 0 L 11.671875 -29.6875 L 11.4375 -29.6875 C 11.46875 -28.976562 11.519531 -27.910156 11.59375 -26.484375 C 11.675781 -25.066406 11.753906 -23.550781 11.828125 -21.9375 C 11.898438 -20.332031 11.9375 -18.882812 11.9375 -17.59375 L 11.9375 0 L 4.765625 0 L 4.765625 -37.828125 L 15.6875 -37.828125 L 24.640625 -8.90625 L 24.796875 -8.90625 L 34.296875 -37.828125 L 45.203125 -37.828125 L 45.203125 0 L 37.734375 0 L 37.734375 -17.90625 C 37.734375 -19.09375 37.753906 -20.460938 37.796875 -22.015625 C 37.835938 -23.578125 37.890625 -25.0625 37.953125 -26.46875 C 38.023438 -27.875 38.082031 -28.925781 38.125 -29.625 L 37.890625 -29.625 L 28.125 0 Z M 20.78125 0 "/></g></g></g><g fill="#d50000" fill-opacity="1"><g transform="translate(209.028351, 550.562344)"><g><path d="M 39.109375 -18.96875 C 39.109375 -16.050781 38.742188 -13.394531 38.015625 -11 C 37.285156 -8.613281 36.179688 -6.554688 34.703125 -4.828125 C 33.234375 -3.109375 31.367188 -1.785156 29.109375 -0.859375 C 26.847656 0.0546875 24.175781 0.515625 21.09375 0.515625 C 18 0.515625 15.320312 0.0546875 13.0625 -0.859375 C 10.800781 -1.785156 8.929688 -3.109375 7.453125 -4.828125 C 5.984375 -6.554688 4.882812 -8.617188 4.15625 -11.015625 C 3.4375 -13.421875 3.078125 -16.085938 3.078125 -19.015625 C 3.078125 -22.929688 3.71875 -26.34375 5 -29.25 C 6.289062 -32.15625 8.269531 -34.410156 10.9375 -36.015625 C 13.613281 -37.628906 17.015625 -38.4375 21.140625 -38.4375 C 25.242188 -38.4375 28.617188 -37.628906 31.265625 -36.015625 C 33.921875 -34.410156 35.890625 -32.148438 37.171875 -29.234375 C 38.460938 -26.328125 39.109375 -22.90625 39.109375 -18.96875 Z M 11.484375 -18.96875 C 11.484375 -16.332031 11.816406 -14.0625 12.484375 -12.15625 C 13.148438 -10.25 14.191406 -8.78125 15.609375 -7.75 C 17.023438 -6.726562 18.851562 -6.21875 21.09375 -6.21875 C 23.363281 -6.21875 25.207031 -6.726562 26.625 -7.75 C 28.039062 -8.78125 29.070312 -10.25 29.71875 -12.15625 C 30.363281 -14.0625 30.6875 -16.332031 30.6875 -18.96875 C 30.6875 -22.9375 29.941406 -26.054688 28.453125 -28.328125 C 26.972656 -30.609375 24.535156 -31.75 21.140625 -31.75 C 18.878906 -31.75 17.035156 -31.234375 15.609375 -30.203125 C 14.191406 -29.179688 13.148438 -27.71875 12.484375 -25.8125 C 11.816406 -23.90625 11.484375 -21.625 11.484375 -18.96875 Z M 11.484375 -18.96875 "/></g></g></g><g fill="#d50000" fill-opacity="1"><g transform="translate(251.204749, 550.562344)"><g><path d="M 16.84375 -37.828125 C 21.726562 -37.828125 25.289062 -36.78125 27.53125 -34.6875 C 29.78125 -32.59375 30.90625 -29.707031 30.90625 -26.03125 C 30.90625 -24.375 30.65625 -22.789062 30.15625 -21.28125 C 29.65625 -19.769531 28.835938 -18.425781 27.703125 -17.25 C 26.578125 -16.082031 25.070312 -15.15625 23.1875 -14.46875 C 21.300781 -13.789062 18.976562 -13.453125 16.21875 -13.453125 L 12.78125 -13.453125 L 12.78125 0 L 4.765625 0 L 4.765625 -37.828125 Z M 16.4375 -31.265625 L 12.78125 -31.265625 L 12.78125 -20.03125 L 15.421875 -20.03125 C 16.921875 -20.03125 18.222656 -20.226562 19.328125 -20.625 C 20.429688 -21.019531 21.285156 -21.640625 21.890625 -22.484375 C 22.492188 -23.328125 22.796875 -24.414062 22.796875 -25.75 C 22.796875 -27.613281 22.273438 -29 21.234375 -29.90625 C 20.203125 -30.8125 18.601562 -31.265625 16.4375 -31.265625 Z M 16.4375 -31.265625 "/></g></g></g><g fill="#d50000" fill-opacity="1"><g transform="translate(284.480115, 550.562344)"><g><path d="M 19.359375 0 L 11.328125 0 L 11.328125 -31.15625 L 1.0625 -31.15625 L 1.0625 -37.828125 L 29.625 -37.828125 L 29.625 -31.15625 L 19.359375 -31.15625 Z M 19.359375 0 "/></g></g></g><g fill="#d50000" fill-opacity="1"><g transform="translate(315.167972, 550.562344)"><g><path d="M 4.765625 0 L 4.765625 -37.828125 L 12.78125 -37.828125 L 12.78125 0 Z M 4.765625 0 "/></g></g></g><g fill="#d50000" fill-opacity="1"><g transform="translate(332.711283, 550.562344)"><g><path d="M 20.78125 0 L 11.671875 -29.6875 L 11.4375 -29.6875 C 11.46875 -28.976562 11.519531 -27.910156 11.59375 -26.484375 C 11.675781 -25.066406 11.753906 -23.550781 11.828125 -21.9375 C 11.898438 -20.332031 11.9375 -18.882812 11.9375 -17.59375 L 11.9375 0 L 4.765625 0 L 4.765625 -37.828125 L 15.6875 -37.828125 L 24.640625 -8.90625 L 24.796875 -8.90625 L 34.296875 -37.828125 L 45.203125 -37.828125 L 45.203125 0 L 37.734375 0 L 37.734375 -17.90625 C 37.734375 -19.09375 37.753906 -20.460938 37.796875 -22.015625 C 37.835938 -23.578125 37.890625 -25.0625 37.953125 -26.46875 C 38.023438 -27.875 38.082031 -28.925781 38.125 -29.625 L 37.890625 -29.625 L 28.125 0 Z M 20.78125 0 "/></g></g></g><g fill="#d50000" fill-opacity="1"><g transform="translate(382.676083, 550.562344)"><g><path d="M 4.765625 0 L 4.765625 -37.828125 L 12.78125 -37.828125 L 12.78125 0 Z M 4.765625 0 "/></g></g></g><g fill="#d50000" fill-opacity="1"><g transform="translate(400.219394, 550.562344)"><g><path d="M 29.421875 0 L 1.265625 0 L 1.265625 -5.203125 L 19.40625 -31.203125 L 1.765625 -31.203125 L 1.765625 -37.828125 L 28.9375 -37.828125 L 28.9375 -32.65625 L 10.8125 -6.625 L 29.421875 -6.625 Z M 29.421875 0 "/></g></g></g><g fill="#d50000" fill-opacity="1"><g transform="translate(430.907263, 550.562344)"><g><path d="M 27.921875 0 L 25.1875 -9 L 11.390625 -9 L 8.640625 0 L 0 0 L 13.359375 -37.984375 L 23.15625 -37.984375 L 36.5625 0 Z M 23.265625 -15.734375 L 20.515625 -24.53125 C 20.347656 -25.113281 20.117188 -25.867188 19.828125 -26.796875 C 19.546875 -27.722656 19.265625 -28.664062 18.984375 -29.625 C 18.703125 -30.582031 18.472656 -31.410156 18.296875 -32.109375 C 18.117188 -31.410156 17.878906 -30.535156 17.578125 -29.484375 C 17.273438 -28.441406 16.984375 -27.453125 16.703125 -26.515625 C 16.429688 -25.585938 16.238281 -24.925781 16.125 -24.53125 L 13.40625 -15.734375 Z M 23.265625 -15.734375 "/></g></g></g><g fill="#d50000" fill-opacity="1"><g transform="translate(467.468753, 550.562344)"><g><path d="M 19.359375 0 L 11.328125 0 L 11.328125 -31.15625 L 1.0625 -31.15625 L 1.0625 -37.828125 L 29.625 -37.828125 L 29.625 -31.15625 L 19.359375 -31.15625 Z M 19.359375 0 "/></g></g></g><g fill="#d50000" fill-opacity="1"><g transform="translate(498.156611, 550.562344)"><g><path d="M 4.765625 0 L 4.765625 -37.828125 L 12.78125 -37.828125 L 12.78125 0 Z M 4.765625 0 "/></g></g></g><g fill="#d50000" fill-opacity="1"><g transform="translate(515.699922, 550.562344)"><g><path d="M 39.109375 -18.96875 C 39.109375 -16.050781 38.742188 -13.394531 38.015625 -11 C 37.285156 -8.613281 36.179688 -6.554688 34.703125 -4.828125 C 33.234375 -3.109375 31.367188 -1.785156 29.109375 -0.859375 C 26.847656 0.0546875 24.175781 0.515625 21.09375 0.515625 C 18 0.515625 15.320312 0.0546875 13.0625 -0.859375 C 10.800781 -1.785156 8.929688 -3.109375 7.453125 -4.828125 C 5.984375 -6.554688 4.882812 -8.617188 4.15625 -11.015625 C 3.4375 -13.421875 3.078125 -16.085938 3.078125 -19.015625 C 3.078125 -22.929688 3.71875 -26.34375 5 -29.25 C 6.289062 -32.15625 8.269531 -34.410156 10.9375 -36.015625 C 13.613281 -37.628906 17.015625 -38.4375 21.140625 -38.4375 C 25.242188 -38.4375 28.617188 -37.628906 31.265625 -36.015625 C 33.921875 -34.410156 35.890625 -32.148438 37.171875 -29.234375 C 38.460938 -26.328125 39.109375 -22.90625 39.109375 -18.96875 Z M 11.484375 -18.96875 C 11.484375 -16.332031 11.816406 -14.0625 12.484375 -12.15625 C 13.148438 -10.25 14.191406 -8.78125 15.609375 -7.75 C 17.023438 -6.726562 18.851562 -6.21875 21.09375 -6.21875 C 23.363281 -6.21875 25.207031 -6.726562 26.625 -7.75 C 28.039062 -8.78125 29.070312 -10.25 29.71875 -12.15625 C 30.363281 -14.0625 30.6875 -16.332031 30.6875 -18.96875 C 30.6875 -22.9375 29.941406 -26.054688 28.453125 -28.328125 C 26.972656 -30.609375 24.535156 -31.75 21.140625 -31.75 C 18.878906 -31.75 17.035156 -31.234375 15.609375 -30.203125 C 14.191406 -29.179688 13.148438 -27.71875 12.484375 -25.8125 C 11.816406 -23.90625 11.484375 -21.625 11.484375 -18.96875 Z M 11.484375 -18.96875 "/></g></g></g><g fill="#d50000" fill-opacity="1"><g transform="translate(557.876319, 550.562344)"><g><path d="M 38.328125 0 L 28.125 0 L 11.671875 -28.625 L 11.4375 -28.625 C 11.507812 -27.4375 11.570312 -26.238281 11.625 -25.03125 C 11.675781 -23.820312 11.726562 -22.613281 11.78125 -21.40625 C 11.832031 -20.207031 11.882812 -19.007812 11.9375 -17.8125 L 11.9375 0 L 4.765625 0 L 4.765625 -37.828125 L 14.875 -37.828125 L 31.3125 -9.5 L 31.5 -9.5 C 31.457031 -10.664062 31.410156 -11.828125 31.359375 -12.984375 C 31.304688 -14.140625 31.257812 -15.296875 31.21875 -16.453125 C 31.175781 -17.609375 31.140625 -18.765625 31.109375 -19.921875 L 31.109375 -37.828125 L 38.328125 -37.828125 Z M 38.328125 0 "/></g></g></g><g clip-path="url(#95cf9cde16)"><g clip-path="url(#ac6036f628)"><path fill="#414141" d="M -8.925781 577.398438 L 818.8125 577.398438 L 818.8125 810 L -8.925781 810 Z M -8.925781 577.398438 " fill-opacity="1" fill-rule="nonzero"/></g></g></svg>