<svg xmlns="http://www.w3.org/2000/svg" xmlns:xlink="http://www.w3.org/1999/xlink" width="1080" zoomAndPan="magnify" viewBox="0 0 810 809.999993" height="1080" preserveAspectRatio="xMidYMid meet" version="1.0"><defs><g/><clipPath id="c5918f9262"><path d="M 0 0 L 810 0 L 810 430.726562 L 0 430.726562 Z M 0 0 " clip-rule="nonzero"/></clipPath><clipPath id="efe8d4a1a6"><path d="M 5.28125 0 L 804.71875 0 C 814.863281 0 824.59375 4.03125 831.765625 11.203125 C 838.941406 18.375 842.96875 28.105469 842.96875 38.25 L 842.96875 392.476562 C 842.96875 402.621094 838.941406 412.351562 831.765625 419.523438 C 824.59375 426.699219 814.863281 430.726562 804.71875 430.726562 L 5.28125 430.726562 C -4.863281 430.726562 -14.59375 426.699219 -21.765625 419.523438 C -28.941406 412.351562 -32.96875 402.621094 -32.96875 392.476562 L -32.96875 38.25 C -32.96875 28.105469 -28.941406 18.375 -21.765625 11.203125 C -14.59375 4.03125 -4.863281 0 5.28125 0 Z M 5.28125 0 " clip-rule="nonzero"/></clipPath><clipPath id="75562b5d80"><path d="M 223.1875 67.101562 L 586.8125 67.101562 L 586.8125 430.726562 L 223.1875 430.726562 Z M 223.1875 67.101562 " clip-rule="nonzero"/></clipPath><clipPath id="7eeba52258"><path d="M 405 67.101562 C 304.585938 67.101562 223.1875 148.5 223.1875 248.914062 C 223.1875 349.328125 304.585938 430.726562 405 430.726562 C 505.414062 430.726562 586.8125 349.328125 586.8125 248.914062 C 586.8125 148.5 505.414062 67.101562 405 67.101562 Z M 405 67.101562 " clip-rule="nonzero"/></clipPath><clipPath id="2305abc58e"><path d="M 422 125.820312 L 501 125.820312 L 501 190 L 422 190 Z M 422 125.820312 " clip-rule="nonzero"/></clipPath><clipPath id="f06fb295cd"><path d="M 452 194 L 520.601562 194 L 520.601562 234 L 452 234 Z M 452 194 " clip-rule="nonzero"/></clipPath><clipPath id="197cefbe22"><path d="M 452 212 L 520.601562 212 L 520.601562 249 L 452 249 Z M 452 212 " clip-rule="nonzero"/></clipPath><clipPath id="6cf38a9d44"><path d="M 289.601562 290 L 358 290 L 358 330 L 289.601562 330 Z M 289.601562 290 " clip-rule="nonzero"/></clipPath><clipPath id="46746515fe"><path d="M 289.601562 308 L 358 308 L 358 345 L 289.601562 345 Z M 289.601562 308 " clip-rule="nonzero"/></clipPath><clipPath id="678bff2f0c"><path d="M 0 577.398438 L 810 577.398438 L 810 810 L 0 810 Z M 0 577.398438 " clip-rule="nonzero"/></clipPath><clipPath id="fa21782cc7"><path d="M 405 810 L 818.925781 577.398438 L -8.925781 577.398438 Z M 405 810 " clip-rule="nonzero"/></clipPath></defs><rect x="-81" width="972" fill="#ffffff" y="-80.999999" height="971.999992" fill-opacity="1"/><rect x="-81" width="972" fill="#ffffff" y="-80.999999" height="971.999992" fill-opacity="1"/><g clip-path="url(#c5918f9262)"><g clip-path="url(#efe8d4a1a6)"><path fill="#d50000" d="M -32.96875 0 L 843.628906 0 L 843.628906 430.726562 L -32.96875 430.726562 Z M -32.96875 0 " fill-opacity="1" fill-rule="nonzero"/></g></g><g clip-path="url(#75562b5d80)"><g clip-path="url(#7eeba52258)"><path fill="#ffffff" d="M 223.1875 67.101562 L 586.8125 67.101562 L 586.8125 430.726562 L 223.1875 430.726562 Z M 223.1875 67.101562 " fill-opacity="1" fill-rule="nonzero"/></g></g><g fill="#414141" fill-opacity="1"><g transform="translate(36.48047, 524.687346)"><g><path d="M 20.78125 0 L 11.671875 -29.6875 L 11.4375 -29.6875 C 11.46875 -28.976562 11.519531 -27.910156 11.59375 -26.484375 C 11.675781 -25.066406 11.753906 -23.550781 11.828125 -21.9375 C 11.898438 -20.332031 11.9375 -18.882812 11.9375 -17.59375 L 11.9375 0 L 4.765625 0 L 4.765625 -37.828125 L 15.6875 -37.828125 L 24.640625 -8.90625 L 24.796875 -8.90625 L 34.296875 -37.828125 L 45.203125 -37.828125 L 45.203125 0 L 37.734375 0 L 37.734375 -17.90625 C 37.734375 -19.09375 37.753906 -20.460938 37.796875 -22.015625 C 37.835938 -23.578125 37.890625 -25.0625 37.953125 -26.46875 C 38.023438 -27.875 38.082031 -28.925781 38.125 -29.625 L 37.890625 -29.625 L 28.125 0 Z M 20.78125 0 "/></g></g></g><g fill="#414141" fill-opacity="1"><g transform="translate(86.44527, 524.687346)"><g><path d="M 27.921875 0 L 25.1875 -9 L 11.390625 -9 L 8.640625 0 L 0 0 L 13.359375 -37.984375 L 23.15625 -37.984375 L 36.5625 0 Z M 23.265625 -15.734375 L 20.515625 -24.53125 C 20.347656 -25.113281 20.117188 -25.867188 19.828125 -26.796875 C 19.546875 -27.722656 19.265625 -28.664062 18.984375 -29.625 C 18.703125 -30.582031 18.472656 -31.410156 18.296875 -32.109375 C 18.117188 -31.410156 17.878906 -30.535156 17.578125 -29.484375 C 17.273438 -28.441406 16.984375 -27.453125 16.703125 -26.515625 C 16.429688 -25.585938 16.238281 -24.925781 16.125 -24.53125 L 13.40625 -15.734375 Z M 23.265625 -15.734375 "/></g></g></g><g fill="#414141" fill-opacity="1"><g transform="translate(123.006772, 524.687346)"><g><path d="M 38.328125 0 L 28.125 0 L 11.671875 -28.625 L 11.4375 -28.625 C 11.507812 -27.4375 11.570312 -26.238281 11.625 -25.03125 C 11.675781 -23.820312 11.726562 -22.613281 11.78125 -21.40625 C 11.832031 -20.207031 11.882812 -19.007812 11.9375 -17.8125 L 11.9375 0 L 4.765625 0 L 4.765625 -37.828125 L 14.875 -37.828125 L 31.3125 -9.5 L 31.5 -9.5 C 31.457031 -10.664062 31.410156 -11.828125 31.359375 -12.984375 C 31.304688 -14.140625 31.257812 -15.296875 31.21875 -16.453125 C 31.175781 -17.609375 31.140625 -18.765625 31.109375 -19.921875 L 31.109375 -37.828125 L 38.328125 -37.828125 Z M 38.328125 0 "/></g></g></g><g fill="#414141" fill-opacity="1"><g transform="translate(166.088797, 524.687346)"><g><path d="M 27.921875 0 L 25.1875 -9 L 11.390625 -9 L 8.640625 0 L 0 0 L 13.359375 -37.984375 L 23.15625 -37.984375 L 36.5625 0 Z M 23.265625 -15.734375 L 20.515625 -24.53125 C 20.347656 -25.113281 20.117188 -25.867188 19.828125 -26.796875 C 19.546875 -27.722656 19.265625 -28.664062 18.984375 -29.625 C 18.703125 -30.582031 18.472656 -31.410156 18.296875 -32.109375 C 18.117188 -31.410156 17.878906 -30.535156 17.578125 -29.484375 C 17.273438 -28.441406 16.984375 -27.453125 16.703125 -26.515625 C 16.429688 -25.585938 16.238281 -24.925781 16.125 -24.53125 L 13.40625 -15.734375 Z M 23.265625 -15.734375 "/></g></g></g><g fill="#414141" fill-opacity="1"><g transform="translate(202.650299, 524.687346)"><g><path d="M 19.125 -21.25 L 34.140625 -21.25 L 34.140625 -1.625 C 32.148438 -0.96875 30.082031 -0.445312 27.9375 -0.0625 C 25.800781 0.320312 23.378906 0.515625 20.671875 0.515625 C 16.910156 0.515625 13.71875 -0.222656 11.09375 -1.703125 C 8.476562 -3.191406 6.488281 -5.382812 5.125 -8.28125 C 3.757812 -11.175781 3.078125 -14.738281 3.078125 -18.96875 C 3.078125 -22.9375 3.835938 -26.367188 5.359375 -29.265625 C 6.890625 -32.160156 9.125 -34.398438 12.0625 -35.984375 C 15.007812 -37.578125 18.601562 -38.375 22.84375 -38.375 C 24.851562 -38.375 26.832031 -38.15625 28.78125 -37.71875 C 30.726562 -37.289062 32.492188 -36.734375 34.078125 -36.046875 L 31.421875 -29.625 C 30.265625 -30.21875 28.941406 -30.710938 27.453125 -31.109375 C 25.972656 -31.503906 24.421875 -31.703125 22.796875 -31.703125 C 20.472656 -31.703125 18.453125 -31.164062 16.734375 -30.09375 C 15.015625 -29.03125 13.679688 -27.535156 12.734375 -25.609375 C 11.796875 -23.679688 11.328125 -21.414062 11.328125 -18.8125 C 11.328125 -16.34375 11.664062 -14.15625 12.34375 -12.25 C 13.019531 -10.34375 14.082031 -8.847656 15.53125 -7.765625 C 16.976562 -6.691406 18.863281 -6.15625 21.1875 -6.15625 C 22.332031 -6.15625 23.296875 -6.210938 24.078125 -6.328125 C 24.867188 -6.441406 25.609375 -6.554688 26.296875 -6.671875 L 26.296875 -14.5625 L 19.125 -14.5625 Z M 19.125 -21.25 "/></g></g></g><g fill="#414141" fill-opacity="1"><g transform="translate(241.023047, 524.687346)"><g><path d="M 26.546875 0 L 4.765625 0 L 4.765625 -37.828125 L 26.546875 -37.828125 L 26.546875 -31.265625 L 12.78125 -31.265625 L 12.78125 -22.953125 L 25.59375 -22.953125 L 25.59375 -16.375 L 12.78125 -16.375 L 12.78125 -6.625 L 26.546875 -6.625 Z M 26.546875 0 "/></g></g></g><g fill="#414141" fill-opacity="1"><g transform="translate(270.701787, 524.687346)"><g><path d="M 20.78125 0 L 11.671875 -29.6875 L 11.4375 -29.6875 C 11.46875 -28.976562 11.519531 -27.910156 11.59375 -26.484375 C 11.675781 -25.066406 11.753906 -23.550781 11.828125 -21.9375 C 11.898438 -20.332031 11.9375 -18.882812 11.9375 -17.59375 L 11.9375 0 L 4.765625 0 L 4.765625 -37.828125 L 15.6875 -37.828125 L 24.640625 -8.90625 L 24.796875 -8.90625 L 34.296875 -37.828125 L 45.203125 -37.828125 L 45.203125 0 L 37.734375 0 L 37.734375 -17.90625 C 37.734375 -19.09375 37.753906 -20.460938 37.796875 -22.015625 C 37.835938 -23.578125 37.890625 -25.0625 37.953125 -26.46875 C 38.023438 -27.875 38.082031 -28.925781 38.125 -29.625 L 37.890625 -29.625 L 28.125 0 Z M 20.78125 0 "/></g></g></g><g fill="#414141" fill-opacity="1"><g transform="translate(320.666597, 524.687346)"><g><path d="M 26.546875 0 L 4.765625 0 L 4.765625 -37.828125 L 26.546875 -37.828125 L 26.546875 -31.265625 L 12.78125 -31.265625 L 12.78125 -22.953125 L 25.59375 -22.953125 L 25.59375 -16.375 L 12.78125 -16.375 L 12.78125 -6.625 L 26.546875 -6.625 Z M 26.546875 0 "/></g></g></g><g fill="#414141" fill-opacity="1"><g transform="translate(350.345337, 524.687346)"><g><path d="M 38.328125 0 L 28.125 0 L 11.671875 -28.625 L 11.4375 -28.625 C 11.507812 -27.4375 11.570312 -26.238281 11.625 -25.03125 C 11.675781 -23.820312 11.726562 -22.613281 11.78125 -21.40625 C 11.832031 -20.207031 11.882812 -19.007812 11.9375 -17.8125 L 11.9375 0 L 4.765625 0 L 4.765625 -37.828125 L 14.875 -37.828125 L 31.3125 -9.5 L 31.5 -9.5 C 31.457031 -10.664062 31.410156 -11.828125 31.359375 -12.984375 C 31.304688 -14.140625 31.257812 -15.296875 31.21875 -16.453125 C 31.175781 -17.609375 31.140625 -18.765625 31.109375 -19.921875 L 31.109375 -37.828125 L 38.328125 -37.828125 Z M 38.328125 0 "/></g></g></g><g fill="#414141" fill-opacity="1"><g transform="translate(393.427351, 524.687346)"><g><path d="M 19.359375 0 L 11.328125 0 L 11.328125 -31.15625 L 1.0625 -31.15625 L 1.0625 -37.828125 L 29.625 -37.828125 L 29.625 -31.15625 L 19.359375 -31.15625 Z M 19.359375 0 "/></g></g></g><g fill="#414141" fill-opacity="1"><g transform="translate(424.115185, 524.687346)"><g/></g></g><g fill="#414141" fill-opacity="1"><g transform="translate(437.880733, 524.687346)"><g><path d="M 20.828125 -31.703125 C 19.296875 -31.703125 17.9375 -31.40625 16.75 -30.8125 C 15.570312 -30.21875 14.582031 -29.359375 13.78125 -28.234375 C 12.976562 -27.109375 12.367188 -25.753906 11.953125 -24.171875 C 11.535156 -22.585938 11.328125 -20.800781 11.328125 -18.8125 C 11.328125 -16.132812 11.660156 -13.851562 12.328125 -11.96875 C 12.992188 -10.082031 14.023438 -8.640625 15.421875 -7.640625 C 16.816406 -6.648438 18.617188 -6.15625 20.828125 -6.15625 C 22.367188 -6.15625 23.910156 -6.328125 25.453125 -6.671875 C 26.992188 -7.015625 28.671875 -7.507812 30.484375 -8.15625 L 30.484375 -1.421875 C 28.804688 -0.734375 27.15625 -0.238281 25.53125 0.0625 C 23.914062 0.363281 22.097656 0.515625 20.078125 0.515625 C 16.179688 0.515625 12.976562 -0.289062 10.46875 -1.90625 C 7.957031 -3.519531 6.097656 -5.78125 4.890625 -8.6875 C 3.679688 -11.59375 3.078125 -14.984375 3.078125 -18.859375 C 3.078125 -21.722656 3.460938 -24.34375 4.234375 -26.71875 C 5.015625 -29.101562 6.15625 -31.164062 7.65625 -32.90625 C 9.15625 -34.65625 11.007812 -36.003906 13.21875 -36.953125 C 15.425781 -37.898438 17.960938 -38.375 20.828125 -38.375 C 22.710938 -38.375 24.597656 -38.132812 26.484375 -37.65625 C 28.378906 -37.1875 30.1875 -36.539062 31.90625 -35.71875 L 29.328125 -29.1875 C 27.910156 -29.863281 26.484375 -30.453125 25.046875 -30.953125 C 23.617188 -31.453125 22.210938 -31.703125 20.828125 -31.703125 Z M 20.828125 -31.703125 "/></g></g></g><g fill="#414141" fill-opacity="1"><g transform="translate(471.647714, 524.687346)"><g><path d="M 39.109375 -18.96875 C 39.109375 -16.050781 38.742188 -13.394531 38.015625 -11 C 37.285156 -8.613281 36.179688 -6.554688 34.703125 -4.828125 C 33.234375 -3.109375 31.367188 -1.785156 29.109375 -0.859375 C 26.847656 0.0546875 24.175781 0.515625 21.09375 0.515625 C 18 0.515625 15.320312 0.0546875 13.0625 -0.859375 C 10.800781 -1.785156 8.929688 -3.109375 7.453125 -4.828125 C 5.984375 -6.554688 4.882812 -8.617188 4.15625 -11.015625 C 3.4375 -13.421875 3.078125 -16.085938 3.078125 -19.015625 C 3.078125 -22.929688 3.71875 -26.34375 5 -29.25 C 6.289062 -32.15625 8.269531 -34.410156 10.9375 -36.015625 C 13.613281 -37.628906 17.015625 -38.4375 21.140625 -38.4375 C 25.242188 -38.4375 28.617188 -37.628906 31.265625 -36.015625 C 33.921875 -34.410156 35.890625 -32.148438 37.171875 -29.234375 C 38.460938 -26.328125 39.109375 -22.90625 39.109375 -18.96875 Z M 11.484375 -18.96875 C 11.484375 -16.332031 11.816406 -14.0625 12.484375 -12.15625 C 13.148438 -10.25 14.191406 -8.78125 15.609375 -7.75 C 17.023438 -6.726562 18.851562 -6.21875 21.09375 -6.21875 C 23.363281 -6.21875 25.207031 -6.726562 26.625 -7.75 C 28.039062 -8.78125 29.070312 -10.25 29.71875 -12.15625 C 30.363281 -14.0625 30.6875 -16.332031 30.6875 -18.96875 C 30.6875 -22.9375 29.941406 -26.054688 28.453125 -28.328125 C 26.972656 -30.609375 24.535156 -31.75 21.140625 -31.75 C 18.878906 -31.75 17.035156 -31.234375 15.609375 -30.203125 C 14.191406 -29.179688 13.148438 -27.71875 12.484375 -25.8125 C 11.816406 -23.90625 11.484375 -21.625 11.484375 -18.96875 Z M 11.484375 -18.96875 "/></g></g></g><g fill="#414141" fill-opacity="1"><g transform="translate(513.824134, 524.687346)"><g><path d="M 38.328125 0 L 28.125 0 L 11.671875 -28.625 L 11.4375 -28.625 C 11.507812 -27.4375 11.570312 -26.238281 11.625 -25.03125 C 11.675781 -23.820312 11.726562 -22.613281 11.78125 -21.40625 C 11.832031 -20.207031 11.882812 -19.007812 11.9375 -17.8125 L 11.9375 0 L 4.765625 0 L 4.765625 -37.828125 L 14.875 -37.828125 L 31.3125 -9.5 L 31.5 -9.5 C 31.457031 -10.664062 31.410156 -11.828125 31.359375 -12.984375 C 31.304688 -14.140625 31.257812 -15.296875 31.21875 -16.453125 C 31.175781 -17.609375 31.140625 -18.765625 31.109375 -19.921875 L 31.109375 -37.828125 L 38.328125 -37.828125 Z M 38.328125 0 "/></g></g></g><g fill="#414141" fill-opacity="1"><g transform="translate(556.906148, 524.687346)"><g><path d="M 27.09375 -10.5 C 27.09375 -8.257812 26.546875 -6.3125 25.453125 -4.65625 C 24.367188 -3 22.785156 -1.722656 20.703125 -0.828125 C 18.628906 0.0664062 16.109375 0.515625 13.140625 0.515625 C 11.835938 0.515625 10.554688 0.425781 9.296875 0.25 C 8.046875 0.0820312 6.847656 -0.164062 5.703125 -0.5 C 4.554688 -0.84375 3.46875 -1.265625 2.4375 -1.765625 L 2.4375 -9.21875 C 4.226562 -8.414062 6.085938 -7.695312 8.015625 -7.0625 C 9.953125 -6.425781 11.867188 -6.109375 13.765625 -6.109375 C 15.078125 -6.109375 16.132812 -6.28125 16.9375 -6.625 C 17.738281 -6.96875 18.320312 -7.441406 18.6875 -8.046875 C 19.050781 -8.648438 19.234375 -9.34375 19.234375 -10.125 C 19.234375 -11.070312 18.910156 -11.878906 18.265625 -12.546875 C 17.628906 -13.222656 16.753906 -13.851562 15.640625 -14.4375 C 14.523438 -15.03125 13.269531 -15.660156 11.875 -16.328125 C 11 -16.742188 10.039062 -17.25 9 -17.84375 C 7.96875 -18.4375 6.984375 -19.164062 6.046875 -20.03125 C 5.117188 -20.894531 4.359375 -21.941406 3.765625 -23.171875 C 3.171875 -24.410156 2.875 -25.890625 2.875 -27.609375 C 2.875 -29.867188 3.390625 -31.800781 4.421875 -33.40625 C 5.460938 -35.007812 6.941406 -36.238281 8.859375 -37.09375 C 10.785156 -37.945312 13.0625 -38.375 15.6875 -38.375 C 17.65625 -38.375 19.53125 -38.144531 21.3125 -37.6875 C 23.09375 -37.226562 24.960938 -36.570312 26.921875 -35.71875 L 24.328125 -29.46875 C 22.585938 -30.175781 21.023438 -30.722656 19.640625 -31.109375 C 18.265625 -31.503906 16.859375 -31.703125 15.421875 -31.703125 C 14.421875 -31.703125 13.566406 -31.539062 12.859375 -31.21875 C 12.148438 -30.90625 11.613281 -30.457031 11.25 -29.875 C 10.894531 -29.300781 10.71875 -28.632812 10.71875 -27.875 C 10.71875 -26.976562 10.976562 -26.222656 11.5 -25.609375 C 12.03125 -24.992188 12.820312 -24.398438 13.875 -23.828125 C 14.9375 -23.265625 16.265625 -22.601562 17.859375 -21.84375 C 19.785156 -20.925781 21.4375 -19.972656 22.8125 -18.984375 C 24.1875 -17.992188 25.242188 -16.828125 25.984375 -15.484375 C 26.722656 -14.148438 27.09375 -12.488281 27.09375 -10.5 Z M 27.09375 -10.5 "/></g></g></g><g fill="#414141" fill-opacity="1"><g transform="translate(586.09325, 524.687346)"><g><path d="M 35.5625 -37.828125 L 35.5625 -13.359375 C 35.5625 -10.753906 34.984375 -8.398438 33.828125 -6.296875 C 32.679688 -4.203125 30.945312 -2.539062 28.625 -1.3125 C 26.3125 -0.09375 23.394531 0.515625 19.875 0.515625 C 14.875 0.515625 11.0625 -0.757812 8.4375 -3.3125 C 5.8125 -5.863281 4.5 -9.242188 4.5 -13.453125 L 4.5 -37.828125 L 12.5 -37.828125 L 12.5 -14.671875 C 12.5 -11.546875 13.132812 -9.351562 14.40625 -8.09375 C 15.6875 -6.84375 17.578125 -6.21875 20.078125 -6.21875 C 21.835938 -6.21875 23.265625 -6.515625 24.359375 -7.109375 C 25.460938 -7.710938 26.269531 -8.644531 26.78125 -9.90625 C 27.300781 -11.164062 27.5625 -12.769531 27.5625 -14.71875 L 27.5625 -37.828125 Z M 35.5625 -37.828125 "/></g></g></g><g fill="#414141" fill-opacity="1"><g transform="translate(626.147889, 524.687346)"><g><path d="M 4.765625 0 L 4.765625 -37.828125 L 12.78125 -37.828125 L 12.78125 -6.625 L 28.125 -6.625 L 28.125 0 Z M 4.765625 0 "/></g></g></g><g fill="#414141" fill-opacity="1"><g transform="translate(656.085357, 524.687346)"><g><path d="M 19.359375 0 L 11.328125 0 L 11.328125 -31.15625 L 1.0625 -31.15625 L 1.0625 -37.828125 L 29.625 -37.828125 L 29.625 -31.15625 L 19.359375 -31.15625 Z M 19.359375 0 "/></g></g></g><g fill="#414141" fill-opacity="1"><g transform="translate(686.773191, 524.687346)"><g><path d="M 4.765625 0 L 4.765625 -37.828125 L 12.78125 -37.828125 L 12.78125 0 Z M 4.765625 0 "/></g></g></g><g fill="#414141" fill-opacity="1"><g transform="translate(704.316525, 524.687346)"><g><path d="M 38.328125 0 L 28.125 0 L 11.671875 -28.625 L 11.4375 -28.625 C 11.507812 -27.4375 11.570312 -26.238281 11.625 -25.03125 C 11.675781 -23.820312 11.726562 -22.613281 11.78125 -21.40625 C 11.832031 -20.207031 11.882812 -19.007812 11.9375 -17.8125 L 11.9375 0 L 4.765625 0 L 4.765625 -37.828125 L 14.875 -37.828125 L 31.3125 -9.5 L 31.5 -9.5 C 31.457031 -10.664062 31.410156 -11.828125 31.359375 -12.984375 C 31.304688 -14.140625 31.257812 -15.296875 31.21875 -16.453125 C 31.175781 -17.609375 31.140625 -18.765625 31.109375 -19.921875 L 31.109375 -37.828125 L 38.328125 -37.828125 Z M 38.328125 0 "/></g></g></g><g fill="#414141" fill-opacity="1"><g transform="translate(747.398539, 524.687346)"><g><path d="M 19.125 -21.25 L 34.140625 -21.25 L 34.140625 -1.625 C 32.148438 -0.96875 30.082031 -0.445312 27.9375 -0.0625 C 25.800781 0.320312 23.378906 0.515625 20.671875 0.515625 C 16.910156 0.515625 13.71875 -0.222656 11.09375 -1.703125 C 8.476562 -3.191406 6.488281 -5.382812 5.125 -8.28125 C 3.757812 -11.175781 3.078125 -14.738281 3.078125 -18.96875 C 3.078125 -22.9375 3.835938 -26.367188 5.359375 -29.265625 C 6.890625 -32.160156 9.125 -34.398438 12.0625 -35.984375 C 15.007812 -37.578125 18.601562 -38.375 22.84375 -38.375 C 24.851562 -38.375 26.832031 -38.15625 28.78125 -37.71875 C 30.726562 -37.289062 32.492188 -36.734375 34.078125 -36.046875 L 31.421875 -29.625 C 30.265625 -30.21875 28.941406 -30.710938 27.453125 -31.109375 C 25.972656 -31.503906 24.421875 -31.703125 22.796875 -31.703125 C 20.472656 -31.703125 18.453125 -31.164062 16.734375 -30.09375 C 15.015625 -29.03125 13.679688 -27.535156 12.734375 -25.609375 C 11.796875 -23.679688 11.328125 -21.414062 11.328125 -18.8125 C 11.328125 -16.34375 11.664062 -14.15625 12.34375 -12.25 C 13.019531 -10.34375 14.082031 -8.847656 15.53125 -7.765625 C 16.976562 -6.691406 18.863281 -6.15625 21.1875 -6.15625 C 22.332031 -6.15625 23.296875 -6.210938 24.078125 -6.328125 C 24.867188 -6.441406 25.609375 -6.554688 26.296875 -6.671875 L 26.296875 -14.5625 L 19.125 -14.5625 Z M 19.125 -21.25 "/></g></g></g><path fill="#414141" d="M 411.792969 157.507812 C 404.703125 157.507812 399.152344 154 399.152344 149.519531 C 399.152344 145.039062 404.703125 141.53125 411.792969 141.53125 C 418.878906 141.53125 424.433594 145.039062 424.433594 149.519531 C 424.433594 154 418.878906 157.507812 411.792969 157.507812 Z M 411.792969 143.742188 C 406.136719 143.742188 401.359375 146.386719 401.359375 149.519531 C 401.359375 152.652344 406.136719 155.300781 411.792969 155.300781 C 417.445312 155.300781 422.222656 152.652344 422.222656 149.519531 C 422.222656 146.386719 417.445312 143.742188 411.792969 143.742188 Z M 411.792969 143.742188 " fill-opacity="1" fill-rule="nonzero"/><path fill="#414141" d="M 412.429688 316.664062 C 410.980469 316.660156 409.546875 316.496094 408.136719 316.171875 C 407.5 316.019531 406.878906 315.816406 406.277344 315.5625 C 405.675781 315.304688 405.097656 315 404.546875 314.648438 C 403.996094 314.292969 403.476562 313.898438 402.992188 313.457031 C 402.507812 313.019531 402.0625 312.542969 401.65625 312.027344 C 401.253906 311.511719 400.894531 310.96875 400.578125 310.394531 C 400.265625 309.820312 400.003906 309.222656 399.789062 308.601562 C 399.574219 307.984375 399.414062 307.351562 399.308594 306.707031 C 399.199219 306.0625 399.148438 305.410156 399.148438 304.757812 L 399.148438 149.519531 C 399.148438 149.375 399.175781 149.230469 399.234375 149.097656 C 399.289062 148.960938 399.367188 148.84375 399.472656 148.738281 C 399.574219 148.636719 399.695312 148.554688 399.832031 148.5 C 399.964844 148.441406 400.105469 148.414062 400.253906 148.414062 C 400.398438 148.414062 400.542969 148.441406 400.675781 148.5 C 400.8125 148.554688 400.929688 148.636719 401.035156 148.738281 C 401.140625 148.84375 401.21875 148.960938 401.273438 149.097656 C 401.332031 149.230469 401.359375 149.375 401.359375 149.519531 L 401.359375 304.757812 C 401.355469 305.289062 401.398438 305.816406 401.484375 306.339844 C 401.570312 306.863281 401.699219 307.375 401.871094 307.875 C 402.046875 308.375 402.257812 308.859375 402.511719 309.324219 C 402.765625 309.792969 403.054688 310.234375 403.382812 310.648438 C 403.707031 311.066406 404.066406 311.453125 404.460938 311.8125 C 404.851562 312.167969 405.269531 312.488281 405.714844 312.777344 C 406.160156 313.0625 406.628906 313.308594 407.117188 313.519531 C 407.601562 313.726562 408.105469 313.894531 408.621094 314.019531 C 410.175781 314.378906 411.753906 314.515625 413.347656 314.429688 C 413.945312 314.386719 414.535156 314.292969 415.113281 314.140625 C 415.691406 313.992188 416.253906 313.785156 416.792969 313.53125 C 417.335938 313.273438 417.847656 312.96875 418.332031 312.613281 C 418.8125 312.261719 419.261719 311.863281 419.667969 311.425781 C 420.078125 310.988281 420.441406 310.515625 420.757812 310.007812 C 421.078125 309.503906 421.347656 308.96875 421.566406 308.414062 C 421.785156 307.855469 421.949219 307.28125 422.058594 306.691406 C 422.167969 306.105469 422.222656 305.511719 422.21875 304.910156 L 422.21875 149.519531 C 422.21875 149.375 422.25 149.230469 422.304688 149.097656 C 422.359375 148.960938 422.441406 148.84375 422.542969 148.738281 C 422.648438 148.636719 422.765625 148.554688 422.902344 148.5 C 423.039062 148.441406 423.179688 148.414062 423.324219 148.414062 C 423.472656 148.414062 423.613281 148.441406 423.75 148.5 C 423.882812 148.554688 424.003906 148.636719 424.105469 148.738281 C 424.210938 148.84375 424.289062 148.960938 424.347656 149.097656 C 424.402344 149.230469 424.429688 149.375 424.429688 149.519531 L 424.429688 304.910156 C 424.433594 305.648438 424.367188 306.382812 424.230469 307.109375 C 424.09375 307.832031 423.890625 308.539062 423.621094 309.226562 C 423.351562 309.914062 423.019531 310.570312 422.625 311.195312 C 422.230469 311.820312 421.78125 312.402344 421.277344 312.941406 C 420.773438 313.480469 420.222656 313.96875 419.625 314.402344 C 419.03125 314.839844 418.398438 315.214844 417.730469 315.53125 C 417.0625 315.847656 416.371094 316.097656 415.65625 316.285156 C 414.941406 316.46875 414.214844 316.585938 413.480469 316.632812 C 413.136719 316.652344 412.78125 316.664062 412.429688 316.664062 Z M 412.429688 316.664062 " fill-opacity="1" fill-rule="nonzero"/><path fill="#414141" d="M 411.792969 327.121094 C 397.371094 327.121094 385.636719 319.902344 385.636719 311.039062 C 385.636719 304.925781 391.113281 299.421875 399.925781 296.683594 C 400.066406 296.640625 400.210938 296.625 400.355469 296.636719 C 400.5 296.652344 400.640625 296.691406 400.769531 296.757812 C 400.898438 296.828125 401.011719 296.917969 401.105469 297.03125 C 401.199219 297.144531 401.269531 297.269531 401.3125 297.410156 C 401.355469 297.550781 401.371094 297.691406 401.355469 297.839844 C 401.34375 297.984375 401.300781 298.121094 401.234375 298.253906 C 401.164062 298.382812 401.074219 298.492188 400.960938 298.585938 C 400.847656 298.679688 400.722656 298.75 400.582031 298.792969 C 392.726562 301.234375 387.847656 305.925781 387.847656 311.039062 C 387.847656 318.6875 398.589844 324.914062 411.792969 324.914062 C 424.996094 324.914062 435.738281 318.6875 435.738281 311.039062 C 435.738281 305.925781 430.855469 301.234375 423 298.792969 C 422.859375 298.75 422.734375 298.679688 422.621094 298.585938 C 422.507812 298.492188 422.417969 298.382812 422.351562 298.253906 C 422.28125 298.121094 422.242188 297.984375 422.226562 297.839844 C 422.214844 297.691406 422.230469 297.550781 422.273438 297.410156 C 422.316406 297.269531 422.386719 297.144531 422.480469 297.03125 C 422.574219 296.917969 422.683594 296.828125 422.8125 296.761719 C 422.945312 296.691406 423.082031 296.652344 423.226562 296.636719 C 423.375 296.625 423.515625 296.640625 423.65625 296.683594 C 432.472656 299.421875 437.945312 304.921875 437.945312 311.039062 C 437.945312 319.90625 426.214844 327.121094 411.792969 327.121094 Z M 411.792969 327.121094 " fill-opacity="1" fill-rule="nonzero"/><path fill="#414141" d="M 411.859375 345.761719 C 403.113281 345.761719 395.929688 342.390625 391.433594 339.554688 C 390.542969 338.996094 389.738281 338.335938 389.015625 337.570312 C 388.292969 336.804688 387.679688 335.964844 387.171875 335.042969 C 386.664062 334.121094 386.28125 333.152344 386.019531 332.132812 C 385.761719 331.113281 385.632812 330.082031 385.636719 329.027344 L 385.636719 311.039062 C 385.636719 310.890625 385.664062 310.75 385.71875 310.617188 C 385.777344 310.480469 385.855469 310.359375 385.960938 310.257812 C 386.0625 310.152344 386.183594 310.074219 386.320312 310.015625 C 386.453125 309.960938 386.59375 309.933594 386.742188 309.933594 C 386.886719 309.933594 387.027344 309.960938 387.164062 310.015625 C 387.300781 310.074219 387.417969 310.152344 387.523438 310.257812 C 387.625 310.359375 387.707031 310.480469 387.761719 310.617188 C 387.816406 310.75 387.847656 310.890625 387.847656 311.039062 L 387.847656 329.027344 C 387.84375 329.894531 387.949219 330.746094 388.164062 331.582031 C 388.375 332.421875 388.691406 333.21875 389.109375 333.976562 C 389.523438 334.730469 390.03125 335.425781 390.625 336.054688 C 391.21875 336.683594 391.878906 337.226562 392.613281 337.6875 C 399.851562 342.253906 414.496094 348.292969 431.226562 337.417969 C 431.925781 336.957031 432.558594 336.414062 433.125 335.792969 C 433.6875 335.171875 434.167969 334.492188 434.5625 333.75 C 434.957031 333.007812 435.253906 332.230469 435.453125 331.414062 C 435.652344 330.597656 435.746094 329.769531 435.738281 328.929688 L 435.738281 311.039062 C 435.738281 310.890625 435.765625 310.75 435.820312 310.617188 C 435.878906 310.480469 435.957031 310.359375 436.0625 310.257812 C 436.164062 310.152344 436.285156 310.074219 436.417969 310.015625 C 436.554688 309.960938 436.695312 309.933594 436.84375 309.933594 C 436.988281 309.933594 437.128906 309.960938 437.265625 310.015625 C 437.398438 310.074219 437.519531 310.152344 437.625 310.257812 C 437.726562 310.359375 437.808594 310.480469 437.863281 310.617188 C 437.917969 310.75 437.945312 310.890625 437.945312 311.039062 L 437.945312 328.929688 C 437.957031 329.953125 437.839844 330.964844 437.59375 331.957031 C 437.351562 332.953125 436.988281 333.902344 436.507812 334.804688 C 436.023438 335.707031 435.4375 336.535156 434.746094 337.292969 C 434.058594 338.046875 433.285156 338.707031 432.429688 339.269531 C 425.058594 344.0625 418.0625 345.761719 411.859375 345.761719 Z M 411.859375 345.761719 " fill-opacity="1" fill-rule="nonzero"/><path fill="#414141" d="M 411.558594 355.425781 C 387.59375 355.425781 368.097656 343.308594 368.097656 328.410156 C 368.097656 319.675781 374.898438 311.449219 386.292969 306.402344 C 386.425781 306.339844 386.566406 306.308594 386.710938 306.308594 C 386.859375 306.304688 387 306.328125 387.136719 306.378906 C 387.273438 306.433594 387.394531 306.511719 387.5 306.613281 C 387.609375 306.710938 387.691406 306.828125 387.75 306.964844 C 387.808594 307.097656 387.839844 307.238281 387.84375 307.382812 C 387.847656 307.53125 387.824219 307.671875 387.769531 307.808594 C 387.71875 307.945312 387.640625 308.066406 387.539062 308.171875 C 387.4375 308.28125 387.320312 308.363281 387.1875 308.421875 C 376.617188 313.105469 370.304688 320.574219 370.304688 328.410156 C 370.304688 342.089844 388.808594 353.21875 411.554688 353.21875 C 434.300781 353.21875 452.804688 342.089844 452.804688 328.410156 C 452.804688 320.710938 446.664062 313.316406 436.378906 308.628906 C 436.246094 308.566406 436.128906 308.480469 436.03125 308.375 C 435.929688 308.269531 435.855469 308.144531 435.804688 308.007812 C 435.753906 307.871094 435.730469 307.730469 435.734375 307.582031 C 435.742188 307.4375 435.773438 307.296875 435.832031 307.164062 C 435.894531 307.03125 435.976562 306.914062 436.085938 306.816406 C 436.191406 306.714844 436.3125 306.640625 436.453125 306.585938 C 436.589844 306.535156 436.730469 306.511719 436.875 306.519531 C 437.023438 306.523438 437.164062 306.554688 437.296875 306.617188 C 448.554688 311.75 455.015625 319.691406 455.015625 328.410156 C 455.019531 343.308594 435.523438 355.425781 411.558594 355.425781 Z M 411.558594 355.425781 " fill-opacity="1" fill-rule="nonzero"/><path fill="#414141" d="M 412.046875 370.550781 C 399.53125 370.550781 387.058594 366.800781 377.3125 359.347656 C 375.878906 358.238281 374.589844 356.980469 373.445312 355.578125 C 372.300781 354.171875 371.328125 352.65625 370.527344 351.03125 C 369.730469 349.402344 369.125 347.707031 368.714844 345.941406 C 368.304688 344.179688 368.097656 342.390625 368.097656 340.578125 L 368.097656 328.410156 C 368.097656 328.265625 368.125 328.125 368.179688 327.988281 C 368.238281 327.851562 368.316406 327.734375 368.421875 327.628906 C 368.523438 327.527344 368.644531 327.445312 368.777344 327.390625 C 368.914062 327.335938 369.054688 327.304688 369.203125 327.304688 C 369.347656 327.304688 369.488281 327.335938 369.625 327.390625 C 369.761719 327.445312 369.878906 327.527344 369.984375 327.628906 C 370.085938 327.734375 370.167969 327.851562 370.222656 327.988281 C 370.277344 328.125 370.308594 328.265625 370.308594 328.410156 L 370.308594 340.578125 C 370.308594 342.21875 370.492188 343.839844 370.863281 345.441406 C 371.238281 347.042969 371.785156 348.578125 372.507812 350.054688 C 373.230469 351.527344 374.113281 352.902344 375.152344 354.175781 C 376.1875 355.449219 377.359375 356.585938 378.65625 357.59375 C 396.820312 371.488281 424.871094 371.992188 443.914062 358.769531 C 449.234375 355.078125 452.808594 347.820312 452.808594 340.714844 L 452.808594 328.414062 C 452.808594 328.265625 452.835938 328.125 452.894531 327.992188 C 452.949219 327.855469 453.03125 327.738281 453.132812 327.632812 C 453.238281 327.527344 453.355469 327.449219 453.492188 327.394531 C 453.628906 327.335938 453.769531 327.308594 453.914062 327.308594 C 454.0625 327.308594 454.203125 327.335938 454.335938 327.394531 C 454.472656 327.449219 454.59375 327.527344 454.695312 327.632812 C 454.800781 327.738281 454.878906 327.855469 454.933594 327.992188 C 454.992188 328.125 455.019531 328.265625 455.019531 328.414062 L 455.019531 340.714844 C 455.019531 348.632812 451.15625 356.433594 445.175781 360.585938 C 435.589844 367.242188 423.800781 370.550781 412.046875 370.550781 Z M 412.046875 370.550781 " fill-opacity="1" fill-rule="nonzero"/><path fill="#414141" d="M 313.828125 253.753906 C 313.582031 253.753906 313.355469 253.679688 313.160156 253.527344 C 312.960938 253.375 312.828125 253.179688 312.761719 252.9375 C 312.699219 252.699219 312.710938 252.460938 312.804688 252.230469 C 312.898438 252 313.054688 251.820312 313.269531 251.695312 L 399.695312 200.988281 C 399.824219 200.914062 399.960938 200.867188 400.105469 200.847656 C 400.25 200.828125 400.394531 200.835938 400.535156 200.875 C 400.675781 200.910156 400.804688 200.972656 400.921875 201.0625 C 401.039062 201.148438 401.132812 201.257812 401.207031 201.382812 C 401.28125 201.507812 401.328125 201.644531 401.351562 201.789062 C 401.371094 201.933594 401.363281 202.078125 401.324219 202.21875 C 401.289062 202.363281 401.226562 202.492188 401.136719 202.609375 C 401.050781 202.726562 400.941406 202.820312 400.816406 202.894531 L 314.386719 253.601562 C 314.214844 253.703125 314.03125 253.753906 313.828125 253.753906 Z M 313.828125 253.753906 " fill-opacity="1" fill-rule="nonzero"/><g clip-path="url(#2305abc58e)"><path fill="#414141" d="M 423.824219 189.222656 C 423.574219 189.222656 423.351562 189.144531 423.152344 188.992188 C 422.953125 188.84375 422.820312 188.648438 422.757812 188.40625 C 422.691406 188.164062 422.703125 187.929688 422.800781 187.699219 C 422.894531 187.46875 423.046875 187.289062 423.261719 187.164062 L 498.519531 143.011719 C 499.296875 131.324219 492.21875 128.597656 490.464844 128.105469 L 423.875 166.429688 C 423.75 166.5 423.613281 166.546875 423.46875 166.566406 C 423.320312 166.585938 423.179688 166.578125 423.035156 166.539062 C 422.894531 166.5 422.765625 166.4375 422.648438 166.347656 C 422.53125 166.257812 422.4375 166.152344 422.363281 166.023438 C 422.292969 165.898438 422.246094 165.761719 422.226562 165.613281 C 422.207031 165.46875 422.214844 165.324219 422.253906 165.183594 C 422.292969 165.042969 422.355469 164.914062 422.445312 164.796875 C 422.535156 164.679688 422.644531 164.585938 422.769531 164.511719 L 489.746094 125.96875 C 489.980469 125.832031 490.230469 125.789062 490.5 125.839844 C 490.613281 125.863281 502.019531 128.160156 500.675781 143.765625 C 500.644531 144.144531 500.460938 144.433594 500.132812 144.625 L 424.378906 189.070312 C 424.207031 189.171875 424.023438 189.222656 423.824219 189.222656 Z M 423.824219 189.222656 " fill-opacity="1" fill-rule="nonzero"/></g><path fill="#414141" d="M 301.746094 236.550781 C 301.496094 236.550781 301.269531 236.472656 301.070312 236.320312 C 300.871094 236.167969 300.742188 235.972656 300.675781 235.730469 C 300.609375 235.488281 300.625 235.253906 300.722656 235.019531 C 300.820312 234.789062 300.976562 234.613281 301.191406 234.488281 L 399.703125 177.789062 C 399.832031 177.71875 399.96875 177.671875 400.113281 177.652344 C 400.257812 177.632812 400.402344 177.640625 400.542969 177.679688 C 400.6875 177.71875 400.816406 177.78125 400.929688 177.871094 C 401.046875 177.960938 401.140625 178.066406 401.214844 178.195312 C 401.289062 178.320312 401.335938 178.457031 401.355469 178.605469 C 401.371094 178.75 401.363281 178.894531 401.324219 179.035156 C 401.289062 179.175781 401.222656 179.304688 401.132812 179.421875 C 401.046875 179.539062 400.9375 179.632812 400.808594 179.707031 L 302.292969 236.402344 C 302.125 236.5 301.941406 236.550781 301.746094 236.550781 Z M 301.746094 236.550781 " fill-opacity="1" fill-rule="nonzero"/><path fill="#414141" d="M 311.054688 254.585938 C 307.839844 254.585938 304.109375 252.367188 301.410156 248.527344 C 297.664062 243.195312 297.53125 237.050781 301.109375 234.539062 C 304.683594 232.027344 310.417969 234.238281 314.164062 239.566406 C 317.90625 244.898438 318.039062 251.039062 314.464844 253.550781 C 313.4375 254.261719 312.300781 254.605469 311.054688 254.585938 Z M 304.492188 235.730469 C 303.722656 235.710938 303.015625 235.917969 302.378906 236.347656 C 299.902344 238.089844 300.289062 243.082031 303.21875 247.257812 C 306.148438 251.429688 310.714844 253.484375 313.195312 251.746094 C 315.671875 250.003906 315.285156 245.011719 312.355469 240.839844 C 310.132812 237.675781 306.972656 235.730469 304.492188 235.730469 Z M 304.492188 235.730469 " fill-opacity="1" fill-rule="nonzero"/><g clip-path="url(#f06fb295cd)"><path fill="#414141" d="M 486.316406 233.761719 C 467.710938 233.761719 452.574219 224.914062 452.574219 214.042969 C 452.574219 203.171875 467.710938 194.328125 486.316406 194.328125 C 504.921875 194.328125 520.058594 203.171875 520.058594 214.042969 C 520.058594 224.917969 504.921875 233.761719 486.316406 233.761719 Z M 486.316406 196.535156 C 468.933594 196.535156 454.785156 204.390625 454.785156 214.042969 C 454.785156 223.699219 468.929688 231.550781 486.316406 231.550781 C 503.703125 231.550781 517.847656 223.699219 517.847656 214.042969 C 517.847656 204.390625 503.703125 196.535156 486.316406 196.535156 Z M 486.316406 196.535156 " fill-opacity="1" fill-rule="nonzero"/></g><g clip-path="url(#197cefbe22)"><path fill="#414141" d="M 486.316406 248.546875 C 485.210938 248.546875 484.109375 248.492188 483.011719 248.382812 C 481.910156 248.273438 480.820312 248.109375 479.738281 247.894531 C 478.652344 247.675781 477.582031 247.410156 476.527344 247.085938 C 475.46875 246.765625 474.429688 246.394531 473.410156 245.96875 C 472.390625 245.546875 471.394531 245.074219 470.417969 244.554688 C 469.445312 244.03125 468.5 243.464844 467.582031 242.851562 C 466.660156 242.234375 465.777344 241.578125 464.921875 240.878906 C 464.066406 240.175781 463.25 239.4375 462.46875 238.65625 C 461.6875 237.875 460.949219 237.054688 460.246094 236.203125 C 459.546875 235.347656 458.886719 234.460938 458.273438 233.542969 C 457.660156 232.625 457.09375 231.679688 456.570312 230.707031 C 456.050781 229.730469 455.578125 228.734375 455.15625 227.714844 C 454.730469 226.695312 454.359375 225.65625 454.039062 224.597656 C 453.714844 223.542969 453.445312 222.472656 453.230469 221.386719 C 453.015625 220.304688 452.851562 219.214844 452.742188 218.113281 C 452.632812 217.015625 452.578125 215.914062 452.574219 214.808594 L 452.574219 214.042969 C 452.574219 213.898438 452.605469 213.753906 452.660156 213.621094 C 452.714844 213.484375 452.796875 213.367188 452.898438 213.261719 C 453.003906 213.160156 453.121094 213.078125 453.257812 213.023438 C 453.394531 212.964844 453.535156 212.9375 453.679688 212.9375 C 453.828125 212.9375 453.96875 212.964844 454.105469 213.023438 C 454.238281 213.078125 454.359375 213.160156 454.460938 213.261719 C 454.566406 213.367188 454.644531 213.484375 454.703125 213.621094 C 454.757812 213.753906 454.785156 213.898438 454.785156 214.042969 L 454.785156 214.808594 C 454.785156 215.839844 454.839844 216.871094 454.941406 217.898438 C 455.042969 218.925781 455.195312 219.945312 455.394531 220.957031 C 455.597656 221.96875 455.847656 222.96875 456.148438 223.957031 C 456.449219 224.945312 456.796875 225.914062 457.191406 226.867188 C 457.585938 227.820312 458.027344 228.753906 458.515625 229.664062 C 459.003906 230.574219 459.535156 231.457031 460.105469 232.316406 C 460.679688 233.171875 461.296875 234 461.949219 234.796875 C 462.605469 235.597656 463.296875 236.359375 464.027344 237.089844 C 464.757812 237.820312 465.523438 238.511719 466.320312 239.164062 C 467.121094 239.820312 467.949219 240.433594 468.804688 241.007812 C 469.664062 241.582031 470.546875 242.109375 471.460938 242.597656 C 472.371094 243.082031 473.300781 243.523438 474.253906 243.917969 C 475.210938 244.3125 476.179688 244.660156 477.167969 244.960938 C 478.15625 245.257812 479.15625 245.511719 480.167969 245.710938 C 481.179688 245.914062 482.199219 246.0625 483.226562 246.164062 C 484.253906 246.265625 485.285156 246.316406 486.316406 246.316406 C 487.347656 246.316406 488.378906 246.265625 489.40625 246.164062 C 490.433594 246.0625 491.453125 245.914062 492.464844 245.710938 C 493.476562 245.511719 494.476562 245.257812 495.464844 244.960938 C 496.453125 244.660156 497.425781 244.3125 498.378906 243.917969 C 499.332031 243.523438 500.265625 243.082031 501.175781 242.597656 C 502.085938 242.109375 502.96875 241.582031 503.828125 241.007812 C 504.6875 240.433594 505.515625 239.820312 506.3125 239.164062 C 507.109375 238.511719 507.875 237.820312 508.605469 237.089844 C 509.335938 236.359375 510.027344 235.597656 510.683594 234.796875 C 511.335938 234 511.953125 233.171875 512.527344 232.316406 C 513.101562 231.457031 513.628906 230.574219 514.117188 229.664062 C 514.605469 228.753906 515.046875 227.820312 515.441406 226.867188 C 515.835938 225.914062 516.183594 224.945312 516.484375 223.957031 C 516.785156 222.96875 517.035156 221.96875 517.238281 220.957031 C 517.441406 219.945312 517.589844 218.925781 517.695312 217.898438 C 517.796875 216.871094 517.847656 215.839844 517.847656 214.808594 L 517.847656 214.042969 C 517.847656 213.898438 517.875 213.753906 517.929688 213.621094 C 517.988281 213.484375 518.066406 213.367188 518.171875 213.261719 C 518.273438 213.160156 518.394531 213.078125 518.53125 213.023438 C 518.664062 212.964844 518.804688 212.9375 518.953125 212.9375 C 519.097656 212.9375 519.238281 212.964844 519.375 213.023438 C 519.511719 213.078125 519.628906 213.160156 519.734375 213.261719 C 519.835938 213.367188 519.917969 213.484375 519.972656 213.621094 C 520.027344 213.753906 520.058594 213.898438 520.058594 214.042969 L 520.058594 214.808594 C 520.054688 215.914062 520 217.015625 519.890625 218.113281 C 519.78125 219.214844 519.617188 220.304688 519.402344 221.386719 C 519.1875 222.472656 518.917969 223.542969 518.59375 224.597656 C 518.273438 225.65625 517.902344 226.695312 517.480469 227.714844 C 517.054688 228.734375 516.582031 229.730469 516.0625 230.707031 C 515.539062 231.679688 514.972656 232.625 514.359375 233.542969 C 513.746094 234.460938 513.085938 235.347656 512.386719 236.203125 C 511.6875 237.054688 510.945312 237.875 510.164062 238.65625 C 509.382812 239.4375 508.566406 240.175781 507.710938 240.878906 C 506.855469 241.578125 505.972656 242.234375 505.054688 242.851562 C 504.132812 243.464844 503.1875 244.03125 502.214844 244.554688 C 501.238281 245.074219 500.242188 245.546875 499.222656 245.96875 C 498.203125 246.394531 497.164062 246.765625 496.105469 247.085938 C 495.050781 247.410156 493.980469 247.675781 492.894531 247.894531 C 491.8125 248.109375 490.722656 248.273438 489.621094 248.382812 C 488.523438 248.492188 487.421875 248.546875 486.316406 248.546875 Z M 486.316406 248.546875 " fill-opacity="1" fill-rule="nonzero"/></g><path fill="#414141" d="M 459.816406 234.949219 C 459.644531 234.949219 459.484375 234.914062 459.328125 234.835938 C 459.175781 234.761719 459.046875 234.65625 458.941406 234.519531 C 458.835938 234.382812 458.769531 234.234375 458.734375 234.066406 C 458.699219 233.898438 458.707031 233.730469 458.75 233.5625 L 479.578125 154.5 C 479.613281 154.351562 479.671875 154.21875 479.761719 154.101562 C 479.847656 153.980469 479.957031 153.882812 480.082031 153.804688 C 480.210938 153.726562 480.347656 153.679688 480.496094 153.65625 C 480.644531 153.636719 480.789062 153.644531 480.933594 153.683594 C 481.078125 153.722656 481.210938 153.785156 481.328125 153.875 C 481.445312 153.96875 481.542969 154.078125 481.613281 154.207031 C 481.6875 154.335938 481.734375 154.476562 481.75 154.625 C 481.769531 154.773438 481.753906 154.917969 481.714844 155.0625 L 460.886719 234.125 C 460.820312 234.367188 460.691406 234.566406 460.492188 234.71875 C 460.292969 234.875 460.070312 234.949219 459.816406 234.949219 Z M 459.816406 234.949219 " fill-opacity="1" fill-rule="nonzero"/><path fill="#414141" d="M 513.632812 233.761719 C 513.378906 233.761719 513.148438 233.679688 512.949219 233.519531 C 512.746094 233.363281 512.617188 233.15625 512.558594 232.90625 L 492.65625 147.351562 C 492.625 147.207031 492.617188 147.0625 492.644531 146.917969 C 492.667969 146.773438 492.71875 146.640625 492.792969 146.515625 C 492.871094 146.390625 492.96875 146.285156 493.089844 146.203125 C 493.207031 146.117188 493.339844 146.058594 493.480469 146.023438 C 493.625 145.992188 493.769531 145.984375 493.914062 146.011719 C 494.058594 146.035156 494.191406 146.085938 494.316406 146.160156 C 494.441406 146.238281 494.546875 146.335938 494.632812 146.457031 C 494.714844 146.574219 494.777344 146.707031 494.808594 146.847656 L 514.714844 232.410156 C 514.746094 232.550781 514.75 232.695312 514.726562 232.839844 C 514.703125 232.984375 514.652344 233.117188 514.574219 233.242188 C 514.496094 233.367188 514.398438 233.472656 514.28125 233.558594 C 514.160156 233.644531 514.03125 233.703125 513.886719 233.734375 C 513.804688 233.753906 513.71875 233.761719 513.632812 233.761719 Z M 513.632812 233.761719 " fill-opacity="1" fill-rule="nonzero"/><path fill="#414141" d="M 489.171875 196.609375 C 489.027344 196.609375 488.886719 196.582031 488.75 196.527344 C 488.613281 196.46875 488.496094 196.390625 488.390625 196.285156 C 488.289062 196.183594 488.207031 196.0625 488.152344 195.929688 C 488.09375 195.792969 488.066406 195.652344 488.066406 195.503906 L 488.066406 149.773438 C 488.066406 149.628906 488.09375 149.488281 488.152344 149.351562 C 488.207031 149.21875 488.289062 149.097656 488.390625 148.992188 C 488.496094 148.890625 488.613281 148.8125 488.75 148.753906 C 488.886719 148.699219 489.027344 148.671875 489.171875 148.671875 C 489.320312 148.671875 489.460938 148.699219 489.59375 148.753906 C 489.730469 148.8125 489.851562 148.890625 489.953125 148.992188 C 490.058594 149.097656 490.136719 149.21875 490.191406 149.351562 C 490.25 149.488281 490.277344 149.628906 490.277344 149.773438 L 490.277344 195.503906 C 490.277344 195.652344 490.25 195.792969 490.191406 195.929688 C 490.136719 196.0625 490.058594 196.183594 489.953125 196.285156 C 489.851562 196.390625 489.730469 196.46875 489.59375 196.527344 C 489.460938 196.582031 489.320312 196.609375 489.171875 196.609375 Z M 489.171875 196.609375 " fill-opacity="1" fill-rule="nonzero"/><g clip-path="url(#6cf38a9d44)"><path fill="#414141" d="M 323.640625 329.671875 C 305.035156 329.671875 289.902344 320.824219 289.902344 309.953125 C 289.902344 299.082031 305.035156 290.234375 323.640625 290.234375 C 342.246094 290.234375 357.378906 299.082031 357.378906 309.953125 C 357.378906 320.828125 342.246094 329.671875 323.640625 329.671875 Z M 323.640625 292.445312 C 306.253906 292.441406 292.109375 300.300781 292.109375 309.953125 C 292.109375 319.609375 306.253906 327.460938 323.640625 327.460938 C 341.027344 327.460938 355.171875 319.605469 355.171875 309.953125 C 355.171875 300.300781 341.027344 292.441406 323.640625 292.441406 Z M 323.640625 292.445312 " fill-opacity="1" fill-rule="nonzero"/></g><g clip-path="url(#46746515fe)"><path fill="#414141" d="M 323.640625 344.457031 C 322.535156 344.457031 321.433594 344.402344 320.335938 344.292969 C 319.234375 344.183594 318.144531 344.019531 317.058594 343.804688 C 315.976562 343.585938 314.90625 343.320312 313.851562 342.996094 C 312.792969 342.675781 311.753906 342.304688 310.734375 341.878906 C 309.714844 341.457031 308.714844 340.984375 307.742188 340.464844 C 306.769531 339.941406 305.824219 339.375 304.902344 338.761719 C 303.984375 338.148438 303.101562 337.488281 302.246094 336.789062 C 301.390625 336.085938 300.574219 335.347656 299.792969 334.566406 C 299.011719 333.785156 298.269531 332.964844 297.570312 332.113281 C 296.871094 331.257812 296.210938 330.371094 295.597656 329.453125 C 294.984375 328.535156 294.417969 327.589844 293.894531 326.617188 C 293.375 325.640625 292.902344 324.644531 292.476562 323.625 C 292.054688 322.605469 291.683594 321.566406 291.359375 320.507812 C 291.039062 319.453125 290.769531 318.382812 290.554688 317.296875 C 290.339844 316.214844 290.175781 315.125 290.066406 314.023438 C 289.957031 312.925781 289.902344 311.824219 289.898438 310.71875 L 289.898438 309.953125 C 289.898438 309.808594 289.929688 309.667969 289.984375 309.53125 C 290.039062 309.394531 290.121094 309.277344 290.222656 309.171875 C 290.328125 309.070312 290.445312 308.988281 290.582031 308.933594 C 290.71875 308.875 290.859375 308.847656 291.003906 308.847656 C 291.152344 308.847656 291.292969 308.875 291.425781 308.933594 C 291.5625 308.988281 291.683594 309.070312 291.785156 309.171875 C 291.890625 309.277344 291.96875 309.394531 292.027344 309.53125 C 292.082031 309.667969 292.109375 309.808594 292.109375 309.953125 L 292.109375 310.71875 C 292.109375 311.75 292.160156 312.78125 292.261719 313.808594 C 292.363281 314.835938 292.515625 315.855469 292.714844 316.871094 C 292.917969 317.882812 293.167969 318.882812 293.46875 319.871094 C 293.765625 320.859375 294.113281 321.832031 294.507812 322.785156 C 294.90625 323.738281 295.347656 324.671875 295.832031 325.582031 C 296.320312 326.492188 296.851562 327.378906 297.421875 328.234375 C 297.996094 329.09375 298.613281 329.921875 299.265625 330.722656 C 299.921875 331.519531 300.613281 332.285156 301.34375 333.015625 C 302.074219 333.746094 302.839844 334.4375 303.636719 335.09375 C 304.4375 335.746094 305.265625 336.363281 306.121094 336.933594 C 306.980469 337.507812 307.867188 338.039062 308.777344 338.527344 C 309.6875 339.011719 310.621094 339.453125 311.574219 339.847656 C 312.527344 340.242188 313.5 340.589844 314.488281 340.890625 C 315.476562 341.191406 316.476562 341.441406 317.488281 341.644531 C 318.5 341.84375 319.523438 341.996094 320.550781 342.097656 C 321.578125 342.199219 322.609375 342.25 323.640625 342.25 C 324.671875 342.25 325.703125 342.199219 326.730469 342.097656 C 327.757812 341.996094 328.777344 341.84375 329.792969 341.644531 C 330.804688 341.441406 331.804688 341.191406 332.792969 340.890625 C 333.78125 340.589844 334.753906 340.242188 335.707031 339.847656 C 336.660156 339.453125 337.59375 339.011719 338.503906 338.527344 C 339.414062 338.039062 340.300781 337.507812 341.15625 336.933594 C 342.015625 336.363281 342.84375 335.746094 343.644531 335.09375 C 344.441406 334.4375 345.207031 333.746094 345.9375 333.015625 C 346.667969 332.285156 347.359375 331.519531 348.015625 330.722656 C 348.667969 329.921875 349.285156 329.09375 349.855469 328.234375 C 350.429688 327.378906 350.960938 326.492188 351.449219 325.582031 C 351.933594 324.671875 352.375 323.738281 352.769531 322.785156 C 353.164062 321.832031 353.511719 320.859375 353.8125 319.871094 C 354.113281 318.882812 354.363281 317.882812 354.566406 316.871094 C 354.765625 315.855469 354.917969 314.835938 355.019531 313.808594 C 355.121094 312.78125 355.171875 311.75 355.171875 310.71875 L 355.171875 309.953125 C 355.171875 309.808594 355.199219 309.667969 355.253906 309.53125 C 355.3125 309.394531 355.390625 309.277344 355.496094 309.171875 C 355.597656 309.070312 355.71875 308.988281 355.851562 308.933594 C 355.988281 308.875 356.128906 308.847656 356.277344 308.847656 C 356.421875 308.847656 356.5625 308.875 356.699219 308.933594 C 356.835938 308.988281 356.953125 309.070312 357.058594 309.171875 C 357.160156 309.277344 357.242188 309.394531 357.296875 309.53125 C 357.351562 309.667969 357.378906 309.808594 357.378906 309.953125 L 357.378906 310.71875 C 357.378906 311.824219 357.324219 312.925781 357.214844 314.023438 C 357.105469 315.125 356.941406 316.214844 356.726562 317.296875 C 356.507812 318.382812 356.242188 319.453125 355.917969 320.507812 C 355.597656 321.566406 355.226562 322.605469 354.800781 323.625 C 354.378906 324.644531 353.90625 325.640625 353.386719 326.617188 C 352.863281 327.589844 352.296875 328.535156 351.683594 329.453125 C 351.070312 330.371094 350.410156 331.257812 349.710938 332.113281 C 349.007812 332.964844 348.269531 333.785156 347.488281 334.566406 C 346.707031 335.347656 345.886719 336.085938 345.035156 336.789062 C 344.179688 337.488281 343.292969 338.148438 342.375 338.761719 C 341.457031 339.375 340.511719 339.941406 339.539062 340.464844 C 338.5625 340.984375 337.566406 341.457031 336.546875 341.878906 C 335.527344 342.304688 334.488281 342.675781 333.429688 342.996094 C 332.375 343.320312 331.304688 343.585938 330.21875 343.804688 C 329.136719 344.019531 328.046875 344.183594 326.945312 344.292969 C 325.847656 344.402344 324.746094 344.457031 323.640625 344.457031 Z M 323.640625 344.457031 " fill-opacity="1" fill-rule="nonzero"/></g><path fill="#414141" d="M 297.140625 330.859375 C 296.96875 330.859375 296.808594 330.824219 296.652344 330.746094 C 296.5 330.671875 296.371094 330.566406 296.265625 330.429688 C 296.160156 330.292969 296.089844 330.144531 296.058594 329.976562 C 296.023438 329.808594 296.027344 329.640625 296.070312 329.472656 L 316.898438 250.410156 C 316.9375 250.269531 317.003906 250.144531 317.09375 250.035156 C 317.183594 249.921875 317.289062 249.828125 317.414062 249.757812 C 317.539062 249.6875 317.671875 249.644531 317.816406 249.625 C 317.957031 249.605469 318.097656 249.617188 318.238281 249.652344 C 318.378906 249.691406 318.503906 249.75 318.621094 249.835938 C 318.734375 249.921875 318.828125 250.027344 318.902344 250.152344 C 318.976562 250.273438 319.027344 250.40625 319.046875 250.546875 C 319.070312 250.691406 319.066406 250.832031 319.035156 250.972656 L 298.207031 330.035156 C 298.144531 330.277344 298.015625 330.476562 297.816406 330.628906 C 297.617188 330.785156 297.390625 330.859375 297.140625 330.859375 Z M 297.140625 330.859375 " fill-opacity="1" fill-rule="nonzero"/><path fill="#414141" d="M 350.957031 329.671875 C 350.699219 329.671875 350.472656 329.589844 350.269531 329.429688 C 350.070312 329.269531 349.941406 329.066406 349.882812 328.816406 L 329.980469 243.261719 C 329.945312 243.117188 329.941406 242.972656 329.964844 242.828125 C 329.988281 242.683594 330.039062 242.550781 330.117188 242.425781 C 330.195312 242.300781 330.292969 242.195312 330.414062 242.109375 C 330.53125 242.023438 330.664062 241.964844 330.804688 241.933594 C 330.949219 241.898438 331.09375 241.894531 331.238281 241.917969 C 331.382812 241.941406 331.515625 241.992188 331.640625 242.070312 C 331.765625 242.148438 331.871094 242.246094 331.953125 242.367188 C 332.039062 242.484375 332.097656 242.617188 332.132812 242.757812 L 352.035156 328.316406 C 352.066406 328.457031 352.070312 328.601562 352.046875 328.746094 C 352.023438 328.890625 351.972656 329.027344 351.894531 329.148438 C 351.820312 329.273438 351.71875 329.378906 351.601562 329.464844 C 351.480469 329.550781 351.351562 329.609375 351.207031 329.640625 C 351.125 329.660156 351.042969 329.671875 350.957031 329.671875 Z M 350.957031 329.671875 " fill-opacity="1" fill-rule="nonzero"/><path fill="#414141" d="M 326.496094 292.519531 C 326.351562 292.519531 326.210938 292.492188 326.074219 292.4375 C 325.9375 292.382812 325.820312 292.300781 325.714844 292.199219 C 325.613281 292.09375 325.53125 291.972656 325.476562 291.839844 C 325.421875 291.703125 325.390625 291.5625 325.390625 291.417969 L 325.390625 245.683594 C 325.390625 245.539062 325.421875 245.398438 325.476562 245.261719 C 325.53125 245.125 325.613281 245.007812 325.714844 244.902344 C 325.820312 244.800781 325.9375 244.71875 326.074219 244.664062 C 326.210938 244.609375 326.351562 244.582031 326.496094 244.582031 C 326.644531 244.582031 326.785156 244.609375 326.917969 244.664062 C 327.054688 244.71875 327.175781 244.800781 327.277344 244.902344 C 327.382812 245.007812 327.460938 245.125 327.519531 245.261719 C 327.574219 245.398438 327.601562 245.539062 327.601562 245.683594 L 327.601562 291.417969 C 327.601562 291.5625 327.574219 291.703125 327.519531 291.839844 C 327.460938 291.972656 327.382812 292.09375 327.277344 292.199219 C 327.175781 292.300781 327.054688 292.382812 326.917969 292.4375 C 326.785156 292.492188 326.644531 292.519531 326.496094 292.519531 Z M 326.496094 292.519531 " fill-opacity="1" fill-rule="nonzero"/><g clip-path="url(#678bff2f0c)"><g clip-path="url(#fa21782cc7)"><path fill="#d50000" d="M -8.925781 577.398438 L 818.8125 577.398438 L 818.8125 810 L -8.925781 810 Z M -8.925781 577.398438 " fill-opacity="1" fill-rule="nonzero"/></g></g></svg>