<svg xmlns="http://www.w3.org/2000/svg" xmlns:xlink="http://www.w3.org/1999/xlink" width="1080" zoomAndPan="magnify" viewBox="0 0 810 809.999993" height="1080" preserveAspectRatio="xMidYMid meet" version="1.0"><defs><g/><clipPath id="79155df821"><path d="M 0 0 L 810 0 L 810 430.726562 L 0 430.726562 Z M 0 0 " clip-rule="nonzero"/></clipPath><clipPath id="d2e261de86"><path d="M 5.28125 0 L 804.71875 0 C 814.863281 0 824.59375 4.03125 831.765625 11.203125 C 838.941406 18.375 842.96875 28.105469 842.96875 38.25 L 842.96875 392.476562 C 842.96875 402.621094 838.941406 412.351562 831.765625 419.523438 C 824.59375 426.699219 814.863281 430.726562 804.71875 430.726562 L 5.28125 430.726562 C -4.863281 430.726562 -14.59375 426.699219 -21.765625 419.523438 C -28.941406 412.351562 -32.96875 402.621094 -32.96875 392.476562 L -32.96875 38.25 C -32.96875 28.105469 -28.941406 18.375 -21.765625 11.203125 C -14.59375 4.03125 -4.863281 0 5.28125 0 Z M 5.28125 0 " clip-rule="nonzero"/></clipPath><clipPath id="25fa3ed74d"><path d="M 223.1875 67.101562 L 586.8125 67.101562 L 586.8125 430.726562 L 223.1875 430.726562 Z M 223.1875 67.101562 " clip-rule="nonzero"/></clipPath><clipPath id="7ceb488f16"><path d="M 405 67.101562 C 304.585938 67.101562 223.1875 148.5 223.1875 248.914062 C 223.1875 349.328125 304.585938 430.726562 405 430.726562 C 505.414062 430.726562 586.8125 349.328125 586.8125 248.914062 C 586.8125 148.5 505.414062 67.101562 405 67.101562 Z M 405 67.101562 " clip-rule="nonzero"/></clipPath><clipPath id="c745f3fb7a"><path d="M 403 223 L 444.859375 223 L 444.859375 312 L 403 312 Z M 403 223 " clip-rule="nonzero"/></clipPath><clipPath id="e2d1567425"><path d="M 403.390625 323.058594 L 403.148438 237.203125 L 444.089844 213.5625 L 444.335938 299.417969 Z M 403.390625 323.058594 " clip-rule="nonzero"/></clipPath><clipPath id="1554c7f1ca"><path d="M 0 577.398438 L 810 577.398438 L 810 810 L 0 810 Z M 0 577.398438 " clip-rule="nonzero"/></clipPath><clipPath id="85ddd41743"><path d="M 405 810 L 818.925781 577.398438 L -8.925781 577.398438 Z M 405 810 " clip-rule="nonzero"/></clipPath></defs><rect x="-81" width="972" fill="#ffffff" y="-80.999999" height="971.999992" fill-opacity="1"/><rect x="-81" width="972" fill="#ffffff" y="-80.999999" height="971.999992" fill-opacity="1"/><g clip-path="url(#79155df821)"><g clip-path="url(#d2e261de86)"><path fill="#414141" d="M -32.96875 0 L 843.628906 0 L 843.628906 430.726562 L -32.96875 430.726562 Z M -32.96875 0 " fill-opacity="1" fill-rule="nonzero"/></g></g><g fill="#d50000" fill-opacity="1"><g transform="translate(77.239296, 524.312346)"><g><path d="M 12.65625 0 L 4.765625 0 L 4.765625 -37.828125 L 26.453125 -37.828125 L 26.453125 -31.265625 L 12.65625 -31.265625 L 12.65625 -21.5 L 25.484375 -21.5 L 25.484375 -14.953125 L 12.65625 -14.953125 Z M 12.65625 0 "/></g></g></g><g fill="#d50000" fill-opacity="1"><g transform="translate(106.322897, 524.312346)"><g><path d="M 39.109375 -18.96875 C 39.109375 -16.050781 38.742188 -13.394531 38.015625 -11 C 37.285156 -8.613281 36.179688 -6.554688 34.703125 -4.828125 C 33.234375 -3.109375 31.367188 -1.785156 29.109375 -0.859375 C 26.847656 0.0546875 24.175781 0.515625 21.09375 0.515625 C 18 0.515625 15.320312 0.0546875 13.0625 -0.859375 C 10.800781 -1.785156 8.929688 -3.109375 7.453125 -4.828125 C 5.984375 -6.554688 4.882812 -8.617188 4.15625 -11.015625 C 3.4375 -13.421875 3.078125 -16.085938 3.078125 -19.015625 C 3.078125 -22.929688 3.71875 -26.34375 5 -29.25 C 6.289062 -32.15625 8.269531 -34.410156 10.9375 -36.015625 C 13.613281 -37.628906 17.015625 -38.4375 21.140625 -38.4375 C 25.242188 -38.4375 28.617188 -37.628906 31.265625 -36.015625 C 33.921875 -34.410156 35.890625 -32.148438 37.171875 -29.234375 C 38.460938 -26.328125 39.109375 -22.90625 39.109375 -18.96875 Z M 11.484375 -18.96875 C 11.484375 -16.332031 11.816406 -14.0625 12.484375 -12.15625 C 13.148438 -10.25 14.191406 -8.78125 15.609375 -7.75 C 17.023438 -6.726562 18.851562 -6.21875 21.09375 -6.21875 C 23.363281 -6.21875 25.207031 -6.726562 26.625 -7.75 C 28.039062 -8.78125 29.070312 -10.25 29.71875 -12.15625 C 30.363281 -14.0625 30.6875 -16.332031 30.6875 -18.96875 C 30.6875 -22.9375 29.941406 -26.054688 28.453125 -28.328125 C 26.972656 -30.609375 24.535156 -31.75 21.140625 -31.75 C 18.878906 -31.75 17.035156 -31.234375 15.609375 -30.203125 C 14.191406 -29.179688 13.148438 -27.71875 12.484375 -25.8125 C 11.816406 -23.90625 11.484375 -21.625 11.484375 -18.96875 Z M 11.484375 -18.96875 "/></g></g></g><g fill="#d50000" fill-opacity="1"><g transform="translate(148.499294, 524.312346)"><g><path d="M 15.78125 -37.828125 C 19.21875 -37.828125 22.050781 -37.410156 24.28125 -36.578125 C 26.519531 -35.753906 28.179688 -34.503906 29.265625 -32.828125 C 30.359375 -31.160156 30.90625 -29.050781 30.90625 -26.5 C 30.90625 -24.769531 30.578125 -23.257812 29.921875 -21.96875 C 29.265625 -20.675781 28.398438 -19.582031 27.328125 -18.6875 C 26.253906 -17.789062 25.097656 -17.054688 23.859375 -16.484375 L 34.984375 0 L 26.09375 0 L 17.046875 -14.515625 L 12.78125 -14.515625 L 12.78125 0 L 4.765625 0 L 4.765625 -37.828125 Z M 15.21875 -31.265625 L 12.78125 -31.265625 L 12.78125 -21.046875 L 15.375 -21.046875 C 18.03125 -21.046875 19.929688 -21.488281 21.078125 -22.375 C 22.222656 -23.257812 22.796875 -24.566406 22.796875 -26.296875 C 22.796875 -28.085938 22.175781 -29.363281 20.9375 -30.125 C 19.707031 -30.882812 17.800781 -31.265625 15.21875 -31.265625 Z M 15.21875 -31.265625 "/></g></g></g><g fill="#d50000" fill-opacity="1"><g transform="translate(183.482416, 524.312346)"><g><path d="M 26.546875 0 L 4.765625 0 L 4.765625 -37.828125 L 26.546875 -37.828125 L 26.546875 -31.265625 L 12.78125 -31.265625 L 12.78125 -22.953125 L 25.59375 -22.953125 L 25.59375 -16.375 L 12.78125 -16.375 L 12.78125 -6.625 L 26.546875 -6.625 Z M 26.546875 0 "/></g></g></g><g fill="#d50000" fill-opacity="1"><g transform="translate(213.161145, 524.312346)"><g><path d="M 38.328125 0 L 28.125 0 L 11.671875 -28.625 L 11.4375 -28.625 C 11.507812 -27.4375 11.570312 -26.238281 11.625 -25.03125 C 11.675781 -23.820312 11.726562 -22.613281 11.78125 -21.40625 C 11.832031 -20.207031 11.882812 -19.007812 11.9375 -17.8125 L 11.9375 0 L 4.765625 0 L 4.765625 -37.828125 L 14.875 -37.828125 L 31.3125 -9.5 L 31.5 -9.5 C 31.457031 -10.664062 31.410156 -11.828125 31.359375 -12.984375 C 31.304688 -14.140625 31.257812 -15.296875 31.21875 -16.453125 C 31.175781 -17.609375 31.140625 -18.765625 31.109375 -19.921875 L 31.109375 -37.828125 L 38.328125 -37.828125 Z M 38.328125 0 "/></g></g></g><g fill="#d50000" fill-opacity="1"><g transform="translate(256.24317, 524.312346)"><g><path d="M 27.09375 -10.5 C 27.09375 -8.257812 26.546875 -6.3125 25.453125 -4.65625 C 24.367188 -3 22.785156 -1.722656 20.703125 -0.828125 C 18.628906 0.0664062 16.109375 0.515625 13.140625 0.515625 C 11.835938 0.515625 10.554688 0.425781 9.296875 0.25 C 8.046875 0.0820312 6.847656 -0.164062 5.703125 -0.5 C 4.554688 -0.84375 3.46875 -1.265625 2.4375 -1.765625 L 2.4375 -9.21875 C 4.226562 -8.414062 6.085938 -7.695312 8.015625 -7.0625 C 9.953125 -6.425781 11.867188 -6.109375 13.765625 -6.109375 C 15.078125 -6.109375 16.132812 -6.28125 16.9375 -6.625 C 17.738281 -6.96875 18.320312 -7.441406 18.6875 -8.046875 C 19.050781 -8.648438 19.234375 -9.34375 19.234375 -10.125 C 19.234375 -11.070312 18.910156 -11.878906 18.265625 -12.546875 C 17.628906 -13.222656 16.753906 -13.851562 15.640625 -14.4375 C 14.523438 -15.03125 13.269531 -15.660156 11.875 -16.328125 C 11 -16.742188 10.039062 -17.25 9 -17.84375 C 7.96875 -18.4375 6.984375 -19.164062 6.046875 -20.03125 C 5.117188 -20.894531 4.359375 -21.941406 3.765625 -23.171875 C 3.171875 -24.410156 2.875 -25.890625 2.875 -27.609375 C 2.875 -29.867188 3.390625 -31.800781 4.421875 -33.40625 C 5.460938 -35.007812 6.941406 -36.238281 8.859375 -37.09375 C 10.785156 -37.945312 13.0625 -38.375 15.6875 -38.375 C 17.65625 -38.375 19.53125 -38.144531 21.3125 -37.6875 C 23.09375 -37.226562 24.960938 -36.570312 26.921875 -35.71875 L 24.328125 -29.46875 C 22.585938 -30.175781 21.023438 -30.722656 19.640625 -31.109375 C 18.265625 -31.503906 16.859375 -31.703125 15.421875 -31.703125 C 14.421875 -31.703125 13.566406 -31.539062 12.859375 -31.21875 C 12.148438 -30.90625 11.613281 -30.457031 11.25 -29.875 C 10.894531 -29.300781 10.71875 -28.632812 10.71875 -27.875 C 10.71875 -26.976562 10.976562 -26.222656 11.5 -25.609375 C 12.03125 -24.992188 12.820312 -24.398438 13.875 -23.828125 C 14.9375 -23.265625 16.265625 -22.601562 17.859375 -21.84375 C 19.785156 -20.925781 21.4375 -19.972656 22.8125 -18.984375 C 24.1875 -17.992188 25.242188 -16.828125 25.984375 -15.484375 C 26.722656 -14.148438 27.09375 -12.488281 27.09375 -10.5 Z M 27.09375 -10.5 "/></g></g></g><g fill="#d50000" fill-opacity="1"><g transform="translate(285.430272, 524.312346)"><g><path d="M 4.765625 0 L 4.765625 -37.828125 L 12.78125 -37.828125 L 12.78125 0 Z M 4.765625 0 "/></g></g></g><g fill="#d50000" fill-opacity="1"><g transform="translate(302.973583, 524.312346)"><g><path d="M 20.828125 -31.703125 C 19.296875 -31.703125 17.9375 -31.40625 16.75 -30.8125 C 15.570312 -30.21875 14.582031 -29.359375 13.78125 -28.234375 C 12.976562 -27.109375 12.367188 -25.753906 11.953125 -24.171875 C 11.535156 -22.585938 11.328125 -20.800781 11.328125 -18.8125 C 11.328125 -16.132812 11.660156 -13.851562 12.328125 -11.96875 C 12.992188 -10.082031 14.023438 -8.640625 15.421875 -7.640625 C 16.816406 -6.648438 18.617188 -6.15625 20.828125 -6.15625 C 22.367188 -6.15625 23.910156 -6.328125 25.453125 -6.671875 C 26.992188 -7.015625 28.671875 -7.507812 30.484375 -8.15625 L 30.484375 -1.421875 C 28.804688 -0.734375 27.15625 -0.238281 25.53125 0.0625 C 23.914062 0.363281 22.097656 0.515625 20.078125 0.515625 C 16.179688 0.515625 12.976562 -0.289062 10.46875 -1.90625 C 7.957031 -3.519531 6.097656 -5.78125 4.890625 -8.6875 C 3.679688 -11.59375 3.078125 -14.984375 3.078125 -18.859375 C 3.078125 -21.722656 3.460938 -24.34375 4.234375 -26.71875 C 5.015625 -29.101562 6.15625 -31.164062 7.65625 -32.90625 C 9.15625 -34.65625 11.007812 -36.003906 13.21875 -36.953125 C 15.425781 -37.898438 17.960938 -38.375 20.828125 -38.375 C 22.710938 -38.375 24.597656 -38.132812 26.484375 -37.65625 C 28.378906 -37.1875 30.1875 -36.539062 31.90625 -35.71875 L 29.328125 -29.1875 C 27.910156 -29.863281 26.484375 -30.453125 25.046875 -30.953125 C 23.617188 -31.453125 22.210938 -31.703125 20.828125 -31.703125 Z M 20.828125 -31.703125 "/></g></g></g><g fill="#d50000" fill-opacity="1"><g transform="translate(336.740564, 524.312346)"><g/></g></g><g fill="#d50000" fill-opacity="1"><g transform="translate(350.506112, 524.312346)"><g><path d="M 26.546875 0 L 4.765625 0 L 4.765625 -37.828125 L 26.546875 -37.828125 L 26.546875 -31.265625 L 12.78125 -31.265625 L 12.78125 -22.953125 L 25.59375 -22.953125 L 25.59375 -16.375 L 12.78125 -16.375 L 12.78125 -6.625 L 26.546875 -6.625 Z M 26.546875 0 "/></g></g></g><g fill="#d50000" fill-opacity="1"><g transform="translate(380.184852, 524.312346)"><g><path d="M 35.34375 0 L 26.1875 0 L 17.390625 -14.3125 L 8.59375 0 L 0 0 L 12.546875 -19.515625 L 0.796875 -37.828125 L 9.65625 -37.828125 L 17.8125 -24.21875 L 25.796875 -37.828125 L 34.4375 -37.828125 L 22.5625 -19.078125 Z M 35.34375 0 "/></g></g></g><g fill="#d50000" fill-opacity="1"><g transform="translate(415.530226, 524.312346)"><g><path d="M 27.921875 0 L 25.1875 -9 L 11.390625 -9 L 8.640625 0 L 0 0 L 13.359375 -37.984375 L 23.15625 -37.984375 L 36.5625 0 Z M 23.265625 -15.734375 L 20.515625 -24.53125 C 20.347656 -25.113281 20.117188 -25.867188 19.828125 -26.796875 C 19.546875 -27.722656 19.265625 -28.664062 18.984375 -29.625 C 18.703125 -30.582031 18.472656 -31.410156 18.296875 -32.109375 C 18.117188 -31.410156 17.878906 -30.535156 17.578125 -29.484375 C 17.273438 -28.441406 16.984375 -27.453125 16.703125 -26.515625 C 16.429688 -25.585938 16.238281 -24.925781 16.125 -24.53125 L 13.40625 -15.734375 Z M 23.265625 -15.734375 "/></g></g></g><g fill="#d50000" fill-opacity="1"><g transform="translate(452.09174, 524.312346)"><g><path d="M 20.78125 0 L 11.671875 -29.6875 L 11.4375 -29.6875 C 11.46875 -28.976562 11.519531 -27.910156 11.59375 -26.484375 C 11.675781 -25.066406 11.753906 -23.550781 11.828125 -21.9375 C 11.898438 -20.332031 11.9375 -18.882812 11.9375 -17.59375 L 11.9375 0 L 4.765625 0 L 4.765625 -37.828125 L 15.6875 -37.828125 L 24.640625 -8.90625 L 24.796875 -8.90625 L 34.296875 -37.828125 L 45.203125 -37.828125 L 45.203125 0 L 37.734375 0 L 37.734375 -17.90625 C 37.734375 -19.09375 37.753906 -20.460938 37.796875 -22.015625 C 37.835938 -23.578125 37.890625 -25.0625 37.953125 -26.46875 C 38.023438 -27.875 38.082031 -28.925781 38.125 -29.625 L 37.890625 -29.625 L 28.125 0 Z M 20.78125 0 "/></g></g></g><g fill="#d50000" fill-opacity="1"><g transform="translate(502.05655, 524.312346)"><g><path d="M 4.765625 0 L 4.765625 -37.828125 L 12.78125 -37.828125 L 12.78125 0 Z M 4.765625 0 "/></g></g></g><g fill="#d50000" fill-opacity="1"><g transform="translate(519.599839, 524.312346)"><g><path d="M 38.328125 0 L 28.125 0 L 11.671875 -28.625 L 11.4375 -28.625 C 11.507812 -27.4375 11.570312 -26.238281 11.625 -25.03125 C 11.675781 -23.820312 11.726562 -22.613281 11.78125 -21.40625 C 11.832031 -20.207031 11.882812 -19.007812 11.9375 -17.8125 L 11.9375 0 L 4.765625 0 L 4.765625 -37.828125 L 14.875 -37.828125 L 31.3125 -9.5 L 31.5 -9.5 C 31.457031 -10.664062 31.410156 -11.828125 31.359375 -12.984375 C 31.304688 -14.140625 31.257812 -15.296875 31.21875 -16.453125 C 31.175781 -17.609375 31.140625 -18.765625 31.109375 -19.921875 L 31.109375 -37.828125 L 38.328125 -37.828125 Z M 38.328125 0 "/></g></g></g><g fill="#d50000" fill-opacity="1"><g transform="translate(562.681852, 524.312346)"><g><path d="M 27.921875 0 L 25.1875 -9 L 11.390625 -9 L 8.640625 0 L 0 0 L 13.359375 -37.984375 L 23.15625 -37.984375 L 36.5625 0 Z M 23.265625 -15.734375 L 20.515625 -24.53125 C 20.347656 -25.113281 20.117188 -25.867188 19.828125 -26.796875 C 19.546875 -27.722656 19.265625 -28.664062 18.984375 -29.625 C 18.703125 -30.582031 18.472656 -31.410156 18.296875 -32.109375 C 18.117188 -31.410156 17.878906 -30.535156 17.578125 -29.484375 C 17.273438 -28.441406 16.984375 -27.453125 16.703125 -26.515625 C 16.429688 -25.585938 16.238281 -24.925781 16.125 -24.53125 L 13.40625 -15.734375 Z M 23.265625 -15.734375 "/></g></g></g><g fill="#d50000" fill-opacity="1"><g transform="translate(599.243343, 524.312346)"><g><path d="M 19.359375 0 L 11.328125 0 L 11.328125 -31.15625 L 1.0625 -31.15625 L 1.0625 -37.828125 L 29.625 -37.828125 L 29.625 -31.15625 L 19.359375 -31.15625 Z M 19.359375 0 "/></g></g></g><g fill="#d50000" fill-opacity="1"><g transform="translate(629.931223, 524.312346)"><g><path d="M 4.765625 0 L 4.765625 -37.828125 L 12.78125 -37.828125 L 12.78125 0 Z M 4.765625 0 "/></g></g></g><g fill="#d50000" fill-opacity="1"><g transform="translate(647.474557, 524.312346)"><g><path d="M 39.109375 -18.96875 C 39.109375 -16.050781 38.742188 -13.394531 38.015625 -11 C 37.285156 -8.613281 36.179688 -6.554688 34.703125 -4.828125 C 33.234375 -3.109375 31.367188 -1.785156 29.109375 -0.859375 C 26.847656 0.0546875 24.175781 0.515625 21.09375 0.515625 C 18 0.515625 15.320312 0.0546875 13.0625 -0.859375 C 10.800781 -1.785156 8.929688 -3.109375 7.453125 -4.828125 C 5.984375 -6.554688 4.882812 -8.617188 4.15625 -11.015625 C 3.4375 -13.421875 3.078125 -16.085938 3.078125 -19.015625 C 3.078125 -22.929688 3.71875 -26.34375 5 -29.25 C 6.289062 -32.15625 8.269531 -34.410156 10.9375 -36.015625 C 13.613281 -37.628906 17.015625 -38.4375 21.140625 -38.4375 C 25.242188 -38.4375 28.617188 -37.628906 31.265625 -36.015625 C 33.921875 -34.410156 35.890625 -32.148438 37.171875 -29.234375 C 38.460938 -26.328125 39.109375 -22.90625 39.109375 -18.96875 Z M 11.484375 -18.96875 C 11.484375 -16.332031 11.816406 -14.0625 12.484375 -12.15625 C 13.148438 -10.25 14.191406 -8.78125 15.609375 -7.75 C 17.023438 -6.726562 18.851562 -6.21875 21.09375 -6.21875 C 23.363281 -6.21875 25.207031 -6.726562 26.625 -7.75 C 28.039062 -8.78125 29.070312 -10.25 29.71875 -12.15625 C 30.363281 -14.0625 30.6875 -16.332031 30.6875 -18.96875 C 30.6875 -22.9375 29.941406 -26.054688 28.453125 -28.328125 C 26.972656 -30.609375 24.535156 -31.75 21.140625 -31.75 C 18.878906 -31.75 17.035156 -31.234375 15.609375 -30.203125 C 14.191406 -29.179688 13.148438 -27.71875 12.484375 -25.8125 C 11.816406 -23.90625 11.484375 -21.625 11.484375 -18.96875 Z M 11.484375 -18.96875 "/></g></g></g><g fill="#d50000" fill-opacity="1"><g transform="translate(689.650977, 524.312346)"><g><path d="M 38.328125 0 L 28.125 0 L 11.671875 -28.625 L 11.4375 -28.625 C 11.507812 -27.4375 11.570312 -26.238281 11.625 -25.03125 C 11.675781 -23.820312 11.726562 -22.613281 11.78125 -21.40625 C 11.832031 -20.207031 11.882812 -19.007812 11.9375 -17.8125 L 11.9375 0 L 4.765625 0 L 4.765625 -37.828125 L 14.875 -37.828125 L 31.3125 -9.5 L 31.5 -9.5 C 31.457031 -10.664062 31.410156 -11.828125 31.359375 -12.984375 C 31.304688 -14.140625 31.257812 -15.296875 31.21875 -16.453125 C 31.175781 -17.609375 31.140625 -18.765625 31.109375 -19.921875 L 31.109375 -37.828125 L 38.328125 -37.828125 Z M 38.328125 0 "/></g></g></g><g clip-path="url(#25fa3ed74d)"><g clip-path="url(#7ceb488f16)"><path fill="#ffffff" d="M 223.1875 67.101562 L 586.8125 67.101562 L 586.8125 430.726562 L 223.1875 430.726562 Z M 223.1875 67.101562 " fill-opacity="1" fill-rule="nonzero"/></g></g><path fill="#d50000" d="M 371.089844 398.429688 C 358.875 398.429688 347.816406 395.289062 338.46875 388.996094 C 319.144531 375.992188 309.539062 351.15625 311.417969 319.066406 C 313.277344 287.273438 326.210938 252.074219 347.828125 219.953125 C 369.441406 187.835938 397.179688 162.601562 425.933594 148.90625 C 454.949219 135.078125 481.578125 134.625 500.90625 147.628906 C 520.234375 160.632812 529.832031 185.46875 527.953125 217.558594 C 526.089844 249.351562 513.160156 284.550781 491.542969 316.671875 C 469.929688 348.785156 442.191406 374.023438 413.4375 387.71875 C 398.457031 394.855469 384.117188 398.429688 371.089844 398.429688 Z M 468.265625 141.292969 C 455.703125 141.292969 441.816406 144.765625 427.269531 151.699219 C 399.007812 165.164062 371.707031 190.019531 350.398438 221.683594 C 329.085938 253.351562 316.34375 288 314.511719 319.246094 C 312.699219 350.199219 321.820312 374.058594 340.199219 386.425781 C 358.574219 398.792969 384.109375 398.257812 412.101562 384.917969 C 440.359375 371.453125 467.660156 346.597656 488.96875 314.933594 C 510.277344 283.265625 523.023438 248.617188 524.855469 217.367188 C 526.667969 186.414062 517.546875 162.558594 499.167969 150.191406 C 490.34375 144.257812 479.867188 141.292969 468.265625 141.292969 Z M 468.265625 141.292969 " fill-opacity="1" fill-rule="nonzero"/><path fill="#d50000" d="M 382.15625 366.359375 C 378.535156 366.433594 374.984375 365.96875 371.503906 364.96875 C 368.023438 363.96875 364.769531 362.472656 361.738281 360.488281 C 348.679688 351.699219 342.738281 334.148438 345.019531 311.066406 C 347.269531 288.328125 357.234375 262.839844 373.085938 239.285156 C 388.933594 215.726562 408.796875 196.898438 429.015625 186.253906 C 449.535156 175.449219 468.03125 174.339844 481.09375 183.128906 C 494.160156 191.917969 500.097656 209.472656 497.8125 232.550781 C 495.566406 255.289062 485.597656 280.777344 469.75 304.335938 C 453.898438 327.890625 434.035156 346.71875 413.816406 357.363281 C 402.449219 363.347656 391.703125 366.359375 382.15625 366.359375 Z M 460.632812 180.351562 C 434.917969 180.351562 400.785156 203.671875 375.65625 241.011719 C 343.703125 288.492188 338.234375 340.9375 363.46875 357.917969 C 375.539062 366.042969 392.910156 364.871094 412.375 354.621094 C 432.148438 344.214844 451.609375 325.738281 467.179688 302.605469 C 499.132812 255.121094 504.597656 202.679688 479.363281 185.703125 C 476.582031 183.886719 473.597656 182.523438 470.402344 181.613281 C 467.210938 180.699219 463.953125 180.28125 460.632812 180.351562 Z M 460.632812 180.351562 " fill-opacity="1" fill-rule="nonzero"/><path fill="#d50000" d="M 337.320312 387.820312 C 336.988281 387.820312 336.6875 387.722656 336.417969 387.53125 C 332.074219 384.425781 327.992188 381.375 323.667969 378.140625 C 318.976562 374.628906 314.121094 371.003906 308.648438 367.097656 C 289.628906 353.539062 280.132812 328.574219 281.902344 296.804688 C 283.667969 265.144531 296.503906 230.082031 318.039062 198.082031 C 362.824219 131.535156 431.488281 99.085938 471.117188 125.75 C 476.972656 129.695312 483.105469 134.328125 489.039062 138.808594 C 492.984375 141.789062 497.058594 144.867188 500.9375 147.652344 C 501.105469 147.773438 501.242188 147.917969 501.351562 148.09375 C 501.457031 148.269531 501.527344 148.457031 501.5625 148.660156 C 501.59375 148.863281 501.585938 149.0625 501.539062 149.261719 C 501.492188 149.460938 501.410156 149.644531 501.289062 149.8125 C 501.171875 149.980469 501.023438 150.117188 500.851562 150.226562 C 500.675781 150.332031 500.488281 150.402344 500.285156 150.4375 C 500.082031 150.46875 499.882812 150.464844 499.679688 150.417969 C 499.480469 150.371094 499.296875 150.289062 499.132812 150.167969 C 495.222656 147.363281 491.128906 144.269531 487.171875 141.28125 C 481.273438 136.824219 475.171875 132.21875 469.382812 128.320312 C 431.183594 102.617188 364.441406 134.679688 320.613281 199.8125 C 299.382812 231.359375 286.738281 265.863281 285 296.980469 C 283.289062 327.648438 292.324219 351.652344 310.449219 364.574219 C 315.949219 368.5 320.816406 372.140625 325.523438 375.660156 C 329.835938 378.878906 333.90625 381.925781 338.222656 385.011719 C 338.496094 385.207031 338.683594 385.464844 338.792969 385.785156 C 338.898438 386.101562 338.898438 386.421875 338.796875 386.746094 C 338.691406 387.066406 338.503906 387.324219 338.234375 387.523438 C 337.960938 387.722656 337.65625 387.820312 337.320312 387.820312 Z M 337.320312 387.820312 " fill-opacity="1" fill-rule="nonzero"/><path fill="#d50000" d="M 447.636719 144.105469 C 447.367188 144.105469 447.113281 144.039062 446.875 143.90625 L 411.152344 123.742188 C 410.972656 123.640625 410.820312 123.507812 410.695312 123.347656 C 410.566406 123.183594 410.476562 123.003906 410.421875 122.808594 C 410.367188 122.609375 410.351562 122.410156 410.375 122.203125 C 410.402344 122 410.464844 121.808594 410.566406 121.632812 C 410.664062 121.453125 410.796875 121.300781 410.957031 121.171875 C 411.121094 121.046875 411.300781 120.957031 411.5 120.898438 C 411.695312 120.84375 411.898438 120.828125 412.101562 120.855469 C 412.304688 120.878906 412.496094 120.941406 412.675781 121.042969 L 448.398438 141.203125 C 448.707031 141.378906 448.929688 141.625 449.066406 141.953125 C 449.203125 142.277344 449.226562 142.609375 449.136719 142.949219 C 449.046875 143.289062 448.863281 143.566406 448.582031 143.78125 C 448.304688 143.996094 447.988281 144.101562 447.636719 144.101562 Z M 447.636719 144.105469 " fill-opacity="1" fill-rule="nonzero"/><path fill="#d50000" d="M 408.289062 162.273438 C 407.996094 162.273438 407.726562 162.195312 407.480469 162.042969 L 374.957031 141.988281 C 374.78125 141.882812 374.636719 141.742188 374.515625 141.578125 C 374.394531 141.410156 374.3125 141.226562 374.261719 141.027344 C 374.214844 140.828125 374.207031 140.625 374.242188 140.421875 C 374.273438 140.21875 374.34375 140.03125 374.453125 139.855469 C 374.558594 139.683594 374.695312 139.535156 374.863281 139.414062 C 375.03125 139.292969 375.214844 139.210938 375.414062 139.164062 C 375.613281 139.113281 375.816406 139.109375 376.015625 139.140625 C 376.21875 139.171875 376.410156 139.242188 376.585938 139.351562 L 409.105469 159.40625 C 409.398438 159.589844 409.609375 159.84375 409.734375 160.164062 C 409.859375 160.488281 409.875 160.816406 409.78125 161.148438 C 409.683594 161.480469 409.5 161.753906 409.222656 161.960938 C 408.949219 162.171875 408.636719 162.273438 408.289062 162.273438 Z M 408.289062 162.273438 " fill-opacity="1" fill-rule="nonzero"/><path fill="#d50000" d="M 378.683594 186.484375 C 378.367188 186.484375 378.082031 186.394531 377.820312 186.21875 L 347 165.386719 C 346.832031 165.273438 346.691406 165.128906 346.578125 164.957031 C 346.46875 164.785156 346.394531 164.601562 346.355469 164.398438 C 346.316406 164.199219 346.320312 164 346.359375 163.800781 C 346.402344 163.597656 346.480469 163.414062 346.59375 163.246094 C 346.707031 163.078125 346.851562 162.933594 347.019531 162.824219 C 347.191406 162.710938 347.375 162.632812 347.574219 162.59375 C 347.777344 162.554688 347.976562 162.554688 348.175781 162.59375 C 348.378906 162.632812 348.5625 162.707031 348.734375 162.820312 L 379.554688 183.648438 C 379.835938 183.839844 380.035156 184.09375 380.148438 184.417969 C 380.261719 184.738281 380.269531 185.0625 380.167969 185.386719 C 380.066406 185.710938 379.878906 185.976562 379.605469 186.179688 C 379.332031 186.378906 379.023438 186.480469 378.683594 186.480469 Z M 378.683594 186.484375 " fill-opacity="1" fill-rule="nonzero"/><path fill="#d50000" d="M 351.566406 219.078125 C 351.242188 219.078125 350.949219 218.984375 350.683594 218.800781 L 320.296875 197.726562 C 320.128906 197.609375 319.988281 197.460938 319.878906 197.289062 C 319.765625 197.117188 319.691406 196.929688 319.65625 196.726562 C 319.621094 196.527344 319.625 196.324219 319.667969 196.125 C 319.710938 195.921875 319.792969 195.738281 319.910156 195.570312 C 320.027344 195.402344 320.171875 195.261719 320.34375 195.148438 C 320.515625 195.039062 320.703125 194.964844 320.90625 194.929688 C 321.105469 194.890625 321.308594 194.894531 321.507812 194.9375 C 321.710938 194.980469 321.894531 195.0625 322.0625 195.179688 L 352.453125 216.253906 C 352.730469 216.449219 352.925781 216.703125 353.035156 217.027344 C 353.144531 217.347656 353.148438 217.667969 353.046875 217.992188 C 352.945312 218.316406 352.757812 218.578125 352.484375 218.777344 C 352.210938 218.976562 351.90625 219.078125 351.566406 219.078125 Z M 351.566406 219.078125 " fill-opacity="1" fill-rule="nonzero"/><path fill="#d50000" d="M 331.027344 250.511719 C 330.707031 250.511719 330.414062 250.417969 330.148438 250.234375 L 301.429688 230.316406 C 301.261719 230.199219 301.121094 230.054688 301.011719 229.882812 C 300.898438 229.710938 300.828125 229.523438 300.789062 229.320312 C 300.753906 229.117188 300.757812 228.917969 300.800781 228.71875 C 300.84375 228.515625 300.925781 228.332031 301.042969 228.164062 C 301.160156 227.992188 301.304688 227.855469 301.476562 227.742188 C 301.648438 227.632812 301.835938 227.558594 302.039062 227.519531 C 302.242188 227.484375 302.441406 227.488281 302.640625 227.53125 C 302.84375 227.574219 303.027344 227.65625 303.195312 227.773438 L 331.914062 247.691406 C 332.191406 247.882812 332.386719 248.140625 332.496094 248.460938 C 332.605469 248.78125 332.609375 249.101562 332.507812 249.425781 C 332.40625 249.75 332.21875 250.011719 331.945312 250.210938 C 331.671875 250.410156 331.367188 250.511719 331.027344 250.511719 Z M 331.027344 250.511719 " fill-opacity="1" fill-rule="nonzero"/><path fill="#d50000" d="M 317.507812 290.933594 C 317.183594 290.933594 316.890625 290.84375 316.625 290.660156 L 286.859375 270.011719 C 286.691406 269.894531 286.550781 269.75 286.4375 269.578125 C 286.328125 269.40625 286.253906 269.21875 286.21875 269.015625 C 286.179688 268.8125 286.183594 268.613281 286.226562 268.410156 C 286.269531 268.210938 286.351562 268.027344 286.46875 267.859375 C 286.585938 267.6875 286.730469 267.546875 286.902344 267.4375 C 287.078125 267.328125 287.265625 267.253906 287.464844 267.214844 C 287.667969 267.179688 287.871094 267.183594 288.070312 267.226562 C 288.269531 267.269531 288.457031 267.351562 288.625 267.46875 L 318.390625 288.113281 C 318.667969 288.308594 318.863281 288.5625 318.972656 288.882812 C 319.082031 289.203125 319.085938 289.527344 318.984375 289.847656 C 318.882812 290.171875 318.695312 290.433594 318.421875 290.632812 C 318.152344 290.835938 317.84375 290.933594 317.507812 290.933594 Z M 317.507812 290.933594 " fill-opacity="1" fill-rule="nonzero"/><path fill="#d50000" d="M 312.792969 331.667969 C 312.46875 331.667969 312.175781 331.574219 311.910156 331.390625 L 282.496094 310.988281 C 282.324219 310.871094 282.1875 310.726562 282.074219 310.550781 C 281.964844 310.378906 281.890625 310.191406 281.851562 309.988281 C 281.816406 309.789062 281.820312 309.585938 281.863281 309.386719 C 281.90625 309.183594 281.988281 309 282.105469 308.832031 C 282.222656 308.664062 282.367188 308.523438 282.539062 308.410156 C 282.710938 308.300781 282.898438 308.226562 283.101562 308.191406 C 283.304688 308.152344 283.503906 308.15625 283.707031 308.199219 C 283.90625 308.242188 284.089844 308.324219 284.261719 308.441406 L 313.675781 328.84375 C 313.953125 329.035156 314.148438 329.292969 314.257812 329.613281 C 314.371094 329.933594 314.375 330.253906 314.273438 330.578125 C 314.171875 330.902344 313.984375 331.164062 313.710938 331.363281 C 313.4375 331.566406 313.132812 331.664062 312.792969 331.664062 Z M 312.792969 331.667969 " fill-opacity="1" fill-rule="nonzero"/><g clip-path="url(#c745f3fb7a)"><g clip-path="url(#e2d1567425)"><path fill="#d50000" d="M 425.050781 224.558594 C 424.382812 224.988281 423.777344 225.492188 423.226562 226.070312 C 422.679688 226.644531 422.207031 227.273438 421.804688 227.960938 C 421.40625 228.648438 421.089844 229.371094 420.859375 230.132812 C 420.628906 230.890625 420.492188 231.667969 420.441406 232.460938 C 420.441406 233.207031 420.433594 233.929688 420.4375 234.621094 C 420.4375 235.425781 420.410156 235.445312 419.734375 235.980469 C 416.914062 238.160156 414.429688 240.671875 412.285156 243.519531 C 409.15625 247.5625 407.023438 252.074219 405.890625 257.0625 C 405.1875 260.28125 405.070312 263.519531 405.542969 266.777344 C 405.980469 269.820312 407.058594 272.210938 409.128906 273.40625 C 410.261719 274.03125 411.46875 274.464844 412.742188 274.703125 C 416.023438 275.207031 419.289062 275.109375 422.535156 274.40625 C 424.660156 273.949219 426.792969 273.890625 428.9375 274.230469 C 429.320312 274.285156 429.6875 274.402344 430.03125 274.578125 C 430.378906 274.753906 430.6875 274.980469 430.960938 275.257812 C 431.234375 275.535156 431.453125 275.847656 431.625 276.195312 C 431.796875 276.546875 431.90625 276.910156 431.957031 277.296875 C 432.167969 278.527344 432.246094 279.761719 432.191406 281.007812 C 432.0625 282.746094 431.625 284.398438 430.875 285.972656 C 430.125 287.542969 429.117188 288.925781 427.847656 290.121094 C 426.78125 291.132812 425.613281 292.011719 424.347656 292.757812 C 423.195312 293.441406 421.96875 293.921875 420.660156 294.203125 C 418.324219 294.679688 416.578125 294.011719 415.824219 291.660156 C 415.550781 290.726562 415.363281 289.777344 415.261719 288.8125 C 415.132812 287.800781 414.347656 287.421875 413.398438 287.925781 C 413.257812 287.996094 413.121094 288.074219 412.980469 288.15625 C 412.839844 288.238281 412.699219 288.320312 412.558594 288.398438 C 411.539062 288.984375 410.515625 289.570312 409.492188 290.160156 C 408.46875 290.753906 407.445312 291.347656 406.421875 291.945312 C 406.148438 292.101562 405.878906 292.253906 405.605469 292.414062 C 405.464844 292.492188 405.328125 292.570312 405.191406 292.652344 C 404.554688 293 404.0625 293.496094 403.722656 294.136719 C 403.378906 294.777344 403.238281 295.460938 403.304688 296.183594 C 403.328125 296.519531 403.382812 296.839844 403.402344 297.175781 C 403.488281 299.285156 403.980469 301.296875 404.882812 303.203125 C 406.527344 306.460938 409.445312 307.46875 412.964844 307.386719 C 414.699219 307.320312 416.375 306.992188 418.003906 306.398438 C 420.628906 305.480469 420.625 304.898438 420.632812 306.367188 L 420.632812 307.792969 C 420.644531 310.714844 422.714844 311.890625 425.265625 310.421875 L 425.3125 310.390625 L 425.320312 310.390625 C 425.980469 309.957031 426.585938 309.453125 427.128906 308.875 C 427.671875 308.296875 428.140625 307.667969 428.535156 306.980469 C 428.933594 306.292969 429.242188 305.570312 429.46875 304.8125 C 429.695312 304.054688 429.832031 303.277344 429.875 302.488281 C 429.875 301.910156 429.882812 301.320312 429.882812 300.746094 C 429.882812 299.738281 429.875 299.726562 430.757812 299.011719 C 432.828125 297.332031 434.714844 295.460938 436.40625 293.398438 C 438.199219 291.300781 439.707031 289.023438 440.9375 286.554688 C 442.167969 284.089844 443.082031 281.511719 443.675781 278.820312 C 444.214844 276.292969 444.40625 273.746094 444.242188 271.167969 C 444.167969 268.976562 443.664062 266.886719 442.730469 264.898438 C 441.4375 262.398438 439.246094 261.363281 436.722656 260.886719 C 433.605469 260.421875 430.5 260.515625 427.414062 261.164062 C 425.023438 261.671875 422.632812 261.691406 420.234375 261.21875 C 419.589844 261.082031 419.035156 260.785156 418.566406 260.320312 C 418.101562 259.855469 417.796875 259.304688 417.660156 258.660156 C 417.082031 256.160156 417.21875 253.695312 418.0625 251.273438 C 418.726562 249.027344 419.929688 247.125 421.667969 245.558594 C 422.511719 244.800781 423.421875 244.132812 424.398438 243.558594 C 424.675781 243.402344 424.949219 243.253906 425.226562 243.117188 C 428.132812 241.695312 430.242188 242.105469 431.324219 244.636719 C 431.710938 245.597656 431.957031 246.589844 432.054688 247.621094 C 432.21875 248.988281 432.972656 249.234375 434.121094 248.570312 C 434.152344 248.550781 434.183594 248.535156 434.214844 248.515625 C 434.734375 248.203125 435.257812 247.894531 435.777344 247.597656 C 436.558594 247.144531 437.335938 246.703125 438.117188 246.253906 L 438.117188 246.238281 C 438.980469 245.738281 439.847656 245.25 440.710938 244.75 C 441.25 244.441406 441.789062 244.125 442.332031 243.796875 C 442.867188 243.503906 443.285156 243.089844 443.585938 242.554688 C 443.886719 242.023438 444.023438 241.449219 444 240.839844 C 443.910156 239.425781 443.722656 238.023438 443.445312 236.636719 C 442.558594 232.703125 440.46875 230.335938 437.25 229.527344 C 434.925781 229.0625 432.652344 229.230469 430.421875 230.03125 C 429.988281 230.167969 429.671875 229.914062 429.667969 229.398438 L 429.660156 227.207031 C 429.660156 224.273438 427.582031 223.085938 425.03125 224.5625 " fill-opacity="1" fill-rule="nonzero"/></g></g><g clip-path="url(#1554c7f1ca)"><g clip-path="url(#85ddd41743)"><path fill="#414141" d="M -8.925781 577.398438 L 818.8125 577.398438 L 818.8125 810 L -8.925781 810 Z M -8.925781 577.398438 " fill-opacity="1" fill-rule="nonzero"/></g></g></svg>