<svg xmlns="http://www.w3.org/2000/svg" xmlns:xlink="http://www.w3.org/1999/xlink" width="1080" zoomAndPan="magnify" viewBox="0 0 810 809.999993" height="1080" preserveAspectRatio="xMidYMid meet" version="1.0"><defs><g/><clipPath id="831a153b12"><path d="M 0 0 L 810 0 L 810 430.726562 L 0 430.726562 Z M 0 0 " clip-rule="nonzero"/></clipPath><clipPath id="901c28ffb5"><path d="M 5.28125 0 L 804.71875 0 C 814.863281 0 824.59375 4.03125 831.765625 11.203125 C 838.941406 18.375 842.96875 28.105469 842.96875 38.25 L 842.96875 392.476562 C 842.96875 402.621094 838.941406 412.351562 831.765625 419.523438 C 824.59375 426.699219 814.863281 430.726562 804.71875 430.726562 L 5.28125 430.726562 C -4.863281 430.726562 -14.59375 426.699219 -21.765625 419.523438 C -28.941406 412.351562 -32.96875 402.621094 -32.96875 392.476562 L -32.96875 38.25 C -32.96875 28.105469 -28.941406 18.375 -21.765625 11.203125 C -14.59375 4.03125 -4.863281 0 5.28125 0 Z M 5.28125 0 " clip-rule="nonzero"/></clipPath><clipPath id="9b823fac29"><path d="M 223.1875 67.101562 L 586.8125 67.101562 L 586.8125 430.726562 L 223.1875 430.726562 Z M 223.1875 67.101562 " clip-rule="nonzero"/></clipPath><clipPath id="3a463b6675"><path d="M 405 67.101562 C 304.585938 67.101562 223.1875 148.5 223.1875 248.914062 C 223.1875 349.328125 304.585938 430.726562 405 430.726562 C 505.414062 430.726562 586.8125 349.328125 586.8125 248.914062 C 586.8125 148.5 505.414062 67.101562 405 67.101562 Z M 405 67.101562 " clip-rule="nonzero"/></clipPath><clipPath id="1ebf5854eb"><path d="M 0 577.398438 L 810 577.398438 L 810 810 L 0 810 Z M 0 577.398438 " clip-rule="nonzero"/></clipPath><clipPath id="1db608e6f4"><path d="M 405 810 L 818.925781 577.398438 L -8.925781 577.398438 Z M 405 810 " clip-rule="nonzero"/></clipPath></defs><rect x="-81" width="972" fill="#ffffff" y="-80.999999" height="971.999992" fill-opacity="1"/><rect x="-81" width="972" fill="#ffffff" y="-80.999999" height="971.999992" fill-opacity="1"/><g clip-path="url(#831a153b12)"><g clip-path="url(#901c28ffb5)"><path fill="#d50000" d="M -32.96875 0 L 843.628906 0 L 843.628906 430.726562 L -32.96875 430.726562 Z M -32.96875 0 " fill-opacity="1" fill-rule="nonzero"/></g></g><g clip-path="url(#9b823fac29)"><g clip-path="url(#3a463b6675)"><path fill="#ffffff" d="M 223.1875 67.101562 L 586.8125 67.101562 L 586.8125 430.726562 L 223.1875 430.726562 Z M 223.1875 67.101562 " fill-opacity="1" fill-rule="nonzero"/></g></g><g fill="#414141" fill-opacity="1"><g transform="translate(105.364294, 524.31225)"><g><path d="M 20.828125 -31.703125 C 19.296875 -31.703125 17.9375 -31.40625 16.75 -30.8125 C 15.570312 -30.21875 14.582031 -29.359375 13.78125 -28.234375 C 12.976562 -27.109375 12.367188 -25.753906 11.953125 -24.171875 C 11.535156 -22.585938 11.328125 -20.800781 11.328125 -18.8125 C 11.328125 -16.132812 11.660156 -13.851562 12.328125 -11.96875 C 12.992188 -10.082031 14.023438 -8.640625 15.421875 -7.640625 C 16.816406 -6.648438 18.617188 -6.15625 20.828125 -6.15625 C 22.367188 -6.15625 23.910156 -6.328125 25.453125 -6.671875 C 26.992188 -7.015625 28.671875 -7.507812 30.484375 -8.15625 L 30.484375 -1.421875 C 28.804688 -0.734375 27.15625 -0.238281 25.53125 0.0625 C 23.914062 0.363281 22.097656 0.515625 20.078125 0.515625 C 16.179688 0.515625 12.976562 -0.289062 10.46875 -1.90625 C 7.957031 -3.519531 6.097656 -5.78125 4.890625 -8.6875 C 3.679688 -11.59375 3.078125 -14.984375 3.078125 -18.859375 C 3.078125 -21.722656 3.460938 -24.34375 4.234375 -26.71875 C 5.015625 -29.101562 6.15625 -31.164062 7.65625 -32.90625 C 9.15625 -34.65625 11.007812 -36.003906 13.21875 -36.953125 C 15.425781 -37.898438 17.960938 -38.375 20.828125 -38.375 C 22.710938 -38.375 24.597656 -38.132812 26.484375 -37.65625 C 28.378906 -37.1875 30.1875 -36.539062 31.90625 -35.71875 L 29.328125 -29.1875 C 27.910156 -29.863281 26.484375 -30.453125 25.046875 -30.953125 C 23.617188 -31.453125 22.210938 -31.703125 20.828125 -31.703125 Z M 20.828125 -31.703125 "/></g></g></g><g fill="#414141" fill-opacity="1"><g transform="translate(139.131287, 524.31225)"><g><path d="M 39.109375 -18.96875 C 39.109375 -16.050781 38.742188 -13.394531 38.015625 -11 C 37.285156 -8.613281 36.179688 -6.554688 34.703125 -4.828125 C 33.234375 -3.109375 31.367188 -1.785156 29.109375 -0.859375 C 26.847656 0.0546875 24.175781 0.515625 21.09375 0.515625 C 18 0.515625 15.320312 0.0546875 13.0625 -0.859375 C 10.800781 -1.785156 8.929688 -3.109375 7.453125 -4.828125 C 5.984375 -6.554688 4.882812 -8.617188 4.15625 -11.015625 C 3.4375 -13.421875 3.078125 -16.085938 3.078125 -19.015625 C 3.078125 -22.929688 3.71875 -26.34375 5 -29.25 C 6.289062 -32.15625 8.269531 -34.410156 10.9375 -36.015625 C 13.613281 -37.628906 17.015625 -38.4375 21.140625 -38.4375 C 25.242188 -38.4375 28.617188 -37.628906 31.265625 -36.015625 C 33.921875 -34.410156 35.890625 -32.148438 37.171875 -29.234375 C 38.460938 -26.328125 39.109375 -22.90625 39.109375 -18.96875 Z M 11.484375 -18.96875 C 11.484375 -16.332031 11.816406 -14.0625 12.484375 -12.15625 C 13.148438 -10.25 14.191406 -8.78125 15.609375 -7.75 C 17.023438 -6.726562 18.851562 -6.21875 21.09375 -6.21875 C 23.363281 -6.21875 25.207031 -6.726562 26.625 -7.75 C 28.039062 -8.78125 29.070312 -10.25 29.71875 -12.15625 C 30.363281 -14.0625 30.6875 -16.332031 30.6875 -18.96875 C 30.6875 -22.9375 29.941406 -26.054688 28.453125 -28.328125 C 26.972656 -30.609375 24.535156 -31.75 21.140625 -31.75 C 18.878906 -31.75 17.035156 -31.234375 15.609375 -30.203125 C 14.191406 -29.179688 13.148438 -27.71875 12.484375 -25.8125 C 11.816406 -23.90625 11.484375 -21.625 11.484375 -18.96875 Z M 11.484375 -18.96875 "/></g></g></g><g fill="#414141" fill-opacity="1"><g transform="translate(181.307684, 524.31225)"><g><path d="M 15.78125 -37.828125 C 19.21875 -37.828125 22.050781 -37.410156 24.28125 -36.578125 C 26.519531 -35.753906 28.179688 -34.503906 29.265625 -32.828125 C 30.359375 -31.160156 30.90625 -29.050781 30.90625 -26.5 C 30.90625 -24.769531 30.578125 -23.257812 29.921875 -21.96875 C 29.265625 -20.675781 28.398438 -19.582031 27.328125 -18.6875 C 26.253906 -17.789062 25.097656 -17.054688 23.859375 -16.484375 L 34.984375 0 L 26.09375 0 L 17.046875 -14.515625 L 12.78125 -14.515625 L 12.78125 0 L 4.765625 0 L 4.765625 -37.828125 Z M 15.21875 -31.265625 L 12.78125 -31.265625 L 12.78125 -21.046875 L 15.375 -21.046875 C 18.03125 -21.046875 19.929688 -21.488281 21.078125 -22.375 C 22.222656 -23.257812 22.796875 -24.566406 22.796875 -26.296875 C 22.796875 -28.085938 22.175781 -29.363281 20.9375 -30.125 C 19.707031 -30.882812 17.800781 -31.265625 15.21875 -31.265625 Z M 15.21875 -31.265625 "/></g></g></g><g fill="#414141" fill-opacity="1"><g transform="translate(216.290806, 524.31225)"><g><path d="M 16.84375 -37.828125 C 21.726562 -37.828125 25.289062 -36.78125 27.53125 -34.6875 C 29.78125 -32.59375 30.90625 -29.707031 30.90625 -26.03125 C 30.90625 -24.375 30.65625 -22.789062 30.15625 -21.28125 C 29.65625 -19.769531 28.835938 -18.425781 27.703125 -17.25 C 26.578125 -16.082031 25.070312 -15.15625 23.1875 -14.46875 C 21.300781 -13.789062 18.976562 -13.453125 16.21875 -13.453125 L 12.78125 -13.453125 L 12.78125 0 L 4.765625 0 L 4.765625 -37.828125 Z M 16.4375 -31.265625 L 12.78125 -31.265625 L 12.78125 -20.03125 L 15.421875 -20.03125 C 16.921875 -20.03125 18.222656 -20.226562 19.328125 -20.625 C 20.429688 -21.019531 21.285156 -21.640625 21.890625 -22.484375 C 22.492188 -23.328125 22.796875 -24.414062 22.796875 -25.75 C 22.796875 -27.613281 22.273438 -29 21.234375 -29.90625 C 20.203125 -30.8125 18.601562 -31.265625 16.4375 -31.265625 Z M 16.4375 -31.265625 "/></g></g></g><g fill="#414141" fill-opacity="1"><g transform="translate(249.566172, 524.31225)"><g><path d="M 39.109375 -18.96875 C 39.109375 -16.050781 38.742188 -13.394531 38.015625 -11 C 37.285156 -8.613281 36.179688 -6.554688 34.703125 -4.828125 C 33.234375 -3.109375 31.367188 -1.785156 29.109375 -0.859375 C 26.847656 0.0546875 24.175781 0.515625 21.09375 0.515625 C 18 0.515625 15.320312 0.0546875 13.0625 -0.859375 C 10.800781 -1.785156 8.929688 -3.109375 7.453125 -4.828125 C 5.984375 -6.554688 4.882812 -8.617188 4.15625 -11.015625 C 3.4375 -13.421875 3.078125 -16.085938 3.078125 -19.015625 C 3.078125 -22.929688 3.71875 -26.34375 5 -29.25 C 6.289062 -32.15625 8.269531 -34.410156 10.9375 -36.015625 C 13.613281 -37.628906 17.015625 -38.4375 21.140625 -38.4375 C 25.242188 -38.4375 28.617188 -37.628906 31.265625 -36.015625 C 33.921875 -34.410156 35.890625 -32.148438 37.171875 -29.234375 C 38.460938 -26.328125 39.109375 -22.90625 39.109375 -18.96875 Z M 11.484375 -18.96875 C 11.484375 -16.332031 11.816406 -14.0625 12.484375 -12.15625 C 13.148438 -10.25 14.191406 -8.78125 15.609375 -7.75 C 17.023438 -6.726562 18.851562 -6.21875 21.09375 -6.21875 C 23.363281 -6.21875 25.207031 -6.726562 26.625 -7.75 C 28.039062 -8.78125 29.070312 -10.25 29.71875 -12.15625 C 30.363281 -14.0625 30.6875 -16.332031 30.6875 -18.96875 C 30.6875 -22.9375 29.941406 -26.054688 28.453125 -28.328125 C 26.972656 -30.609375 24.535156 -31.75 21.140625 -31.75 C 18.878906 -31.75 17.035156 -31.234375 15.609375 -30.203125 C 14.191406 -29.179688 13.148438 -27.71875 12.484375 -25.8125 C 11.816406 -23.90625 11.484375 -21.625 11.484375 -18.96875 Z M 11.484375 -18.96875 "/></g></g></g><g fill="#414141" fill-opacity="1"><g transform="translate(291.742569, 524.31225)"><g><path d="M 15.78125 -37.828125 C 19.21875 -37.828125 22.050781 -37.410156 24.28125 -36.578125 C 26.519531 -35.753906 28.179688 -34.503906 29.265625 -32.828125 C 30.359375 -31.160156 30.90625 -29.050781 30.90625 -26.5 C 30.90625 -24.769531 30.578125 -23.257812 29.921875 -21.96875 C 29.265625 -20.675781 28.398438 -19.582031 27.328125 -18.6875 C 26.253906 -17.789062 25.097656 -17.054688 23.859375 -16.484375 L 34.984375 0 L 26.09375 0 L 17.046875 -14.515625 L 12.78125 -14.515625 L 12.78125 0 L 4.765625 0 L 4.765625 -37.828125 Z M 15.21875 -31.265625 L 12.78125 -31.265625 L 12.78125 -21.046875 L 15.375 -21.046875 C 18.03125 -21.046875 19.929688 -21.488281 21.078125 -22.375 C 22.222656 -23.257812 22.796875 -24.566406 22.796875 -26.296875 C 22.796875 -28.085938 22.175781 -29.363281 20.9375 -30.125 C 19.707031 -30.882812 17.800781 -31.265625 15.21875 -31.265625 Z M 15.21875 -31.265625 "/></g></g></g><g fill="#414141" fill-opacity="1"><g transform="translate(326.725702, 524.31225)"><g><path d="M 27.921875 0 L 25.1875 -9 L 11.390625 -9 L 8.640625 0 L 0 0 L 13.359375 -37.984375 L 23.15625 -37.984375 L 36.5625 0 Z M 23.265625 -15.734375 L 20.515625 -24.53125 C 20.347656 -25.113281 20.117188 -25.867188 19.828125 -26.796875 C 19.546875 -27.722656 19.265625 -28.664062 18.984375 -29.625 C 18.703125 -30.582031 18.472656 -31.410156 18.296875 -32.109375 C 18.117188 -31.410156 17.878906 -30.535156 17.578125 -29.484375 C 17.273438 -28.441406 16.984375 -27.453125 16.703125 -26.515625 C 16.429688 -25.585938 16.238281 -24.925781 16.125 -24.53125 L 13.40625 -15.734375 Z M 23.265625 -15.734375 "/></g></g></g><g fill="#414141" fill-opacity="1"><g transform="translate(363.287193, 524.31225)"><g><path d="M 19.359375 0 L 11.328125 0 L 11.328125 -31.15625 L 1.0625 -31.15625 L 1.0625 -37.828125 L 29.625 -37.828125 L 29.625 -31.15625 L 19.359375 -31.15625 Z M 19.359375 0 "/></g></g></g><g fill="#414141" fill-opacity="1"><g transform="translate(393.97505, 524.31225)"><g><path d="M 26.546875 0 L 4.765625 0 L 4.765625 -37.828125 L 26.546875 -37.828125 L 26.546875 -31.265625 L 12.78125 -31.265625 L 12.78125 -22.953125 L 25.59375 -22.953125 L 25.59375 -16.375 L 12.78125 -16.375 L 12.78125 -6.625 L 26.546875 -6.625 Z M 26.546875 0 "/></g></g></g><g fill="#414141" fill-opacity="1"><g transform="translate(423.653768, 524.31225)"><g/></g></g><g fill="#414141" fill-opacity="1"><g transform="translate(437.419316, 524.31225)"><g><path d="M 27.921875 0 L 25.1875 -9 L 11.390625 -9 L 8.640625 0 L 0 0 L 13.359375 -37.984375 L 23.15625 -37.984375 L 36.5625 0 Z M 23.265625 -15.734375 L 20.515625 -24.53125 C 20.347656 -25.113281 20.117188 -25.867188 19.828125 -26.796875 C 19.546875 -27.722656 19.265625 -28.664062 18.984375 -29.625 C 18.703125 -30.582031 18.472656 -31.410156 18.296875 -32.109375 C 18.117188 -31.410156 17.878906 -30.535156 17.578125 -29.484375 C 17.273438 -28.441406 16.984375 -27.453125 16.703125 -26.515625 C 16.429688 -25.585938 16.238281 -24.925781 16.125 -24.53125 L 13.40625 -15.734375 Z M 23.265625 -15.734375 "/></g></g></g><g fill="#414141" fill-opacity="1"><g transform="translate(473.980807, 524.31225)"><g><path d="M 36.15625 -19.28125 C 36.15625 -15.019531 35.335938 -11.460938 33.703125 -8.609375 C 32.078125 -5.753906 29.71875 -3.601562 26.625 -2.15625 C 23.539062 -0.71875 19.820312 0 15.46875 0 L 4.765625 0 L 4.765625 -37.828125 L 16.640625 -37.828125 C 20.609375 -37.828125 24.050781 -37.125 26.96875 -35.71875 C 29.882812 -34.3125 32.144531 -32.234375 33.75 -29.484375 C 35.351562 -26.734375 36.15625 -23.332031 36.15625 -19.28125 Z M 27.8125 -19.078125 C 27.8125 -21.867188 27.398438 -24.164062 26.578125 -25.96875 C 25.765625 -27.769531 24.5625 -29.101562 22.96875 -29.96875 C 21.375 -30.832031 19.398438 -31.265625 17.046875 -31.265625 L 12.78125 -31.265625 L 12.78125 -6.625 L 16.21875 -6.625 C 20.132812 -6.625 23.046875 -7.664062 24.953125 -9.75 C 26.859375 -11.84375 27.8125 -14.953125 27.8125 -19.078125 Z M 27.8125 -19.078125 "/></g></g></g><g fill="#414141" fill-opacity="1"><g transform="translate(513.207443, 524.31225)"><g><path d="M 34.4375 -37.828125 L 21.578125 0 L 12.84375 0 L 0 -37.828125 L 8.09375 -37.828125 L 15.21875 -15.328125 C 15.332031 -14.941406 15.523438 -14.226562 15.796875 -13.1875 C 16.078125 -12.144531 16.359375 -11.039062 16.640625 -9.875 C 16.929688 -8.707031 17.128906 -7.742188 17.234375 -6.984375 C 17.335938 -7.742188 17.519531 -8.703125 17.78125 -9.859375 C 18.050781 -11.015625 18.320312 -12.113281 18.59375 -13.15625 C 18.863281 -14.195312 19.054688 -14.921875 19.171875 -15.328125 L 26.34375 -37.828125 Z M 34.4375 -37.828125 "/></g></g></g><g fill="#414141" fill-opacity="1"><g transform="translate(547.6472, 524.31225)"><g><path d="M 4.765625 0 L 4.765625 -37.828125 L 12.78125 -37.828125 L 12.78125 0 Z M 4.765625 0 "/></g></g></g><g fill="#414141" fill-opacity="1"><g transform="translate(565.190534, 524.31225)"><g><path d="M 27.09375 -10.5 C 27.09375 -8.257812 26.546875 -6.3125 25.453125 -4.65625 C 24.367188 -3 22.785156 -1.722656 20.703125 -0.828125 C 18.628906 0.0664062 16.109375 0.515625 13.140625 0.515625 C 11.835938 0.515625 10.554688 0.425781 9.296875 0.25 C 8.046875 0.0820312 6.847656 -0.164062 5.703125 -0.5 C 4.554688 -0.84375 3.46875 -1.265625 2.4375 -1.765625 L 2.4375 -9.21875 C 4.226562 -8.414062 6.085938 -7.695312 8.015625 -7.0625 C 9.953125 -6.425781 11.867188 -6.109375 13.765625 -6.109375 C 15.078125 -6.109375 16.132812 -6.28125 16.9375 -6.625 C 17.738281 -6.96875 18.320312 -7.441406 18.6875 -8.046875 C 19.050781 -8.648438 19.234375 -9.34375 19.234375 -10.125 C 19.234375 -11.070312 18.910156 -11.878906 18.265625 -12.546875 C 17.628906 -13.222656 16.753906 -13.851562 15.640625 -14.4375 C 14.523438 -15.03125 13.269531 -15.660156 11.875 -16.328125 C 11 -16.742188 10.039062 -17.25 9 -17.84375 C 7.96875 -18.4375 6.984375 -19.164062 6.046875 -20.03125 C 5.117188 -20.894531 4.359375 -21.941406 3.765625 -23.171875 C 3.171875 -24.410156 2.875 -25.890625 2.875 -27.609375 C 2.875 -29.867188 3.390625 -31.800781 4.421875 -33.40625 C 5.460938 -35.007812 6.941406 -36.238281 8.859375 -37.09375 C 10.785156 -37.945312 13.0625 -38.375 15.6875 -38.375 C 17.65625 -38.375 19.53125 -38.144531 21.3125 -37.6875 C 23.09375 -37.226562 24.960938 -36.570312 26.921875 -35.71875 L 24.328125 -29.46875 C 22.585938 -30.175781 21.023438 -30.722656 19.640625 -31.109375 C 18.265625 -31.503906 16.859375 -31.703125 15.421875 -31.703125 C 14.421875 -31.703125 13.566406 -31.539062 12.859375 -31.21875 C 12.148438 -30.90625 11.613281 -30.457031 11.25 -29.875 C 10.894531 -29.300781 10.71875 -28.632812 10.71875 -27.875 C 10.71875 -26.976562 10.976562 -26.222656 11.5 -25.609375 C 12.03125 -24.992188 12.820312 -24.398438 13.875 -23.828125 C 14.9375 -23.265625 16.265625 -22.601562 17.859375 -21.84375 C 19.785156 -20.925781 21.4375 -19.972656 22.8125 -18.984375 C 24.1875 -17.992188 25.242188 -16.828125 25.984375 -15.484375 C 26.722656 -14.148438 27.09375 -12.488281 27.09375 -10.5 Z M 27.09375 -10.5 "/></g></g></g><g fill="#414141" fill-opacity="1"><g transform="translate(594.377636, 524.31225)"><g><path d="M 39.109375 -18.96875 C 39.109375 -16.050781 38.742188 -13.394531 38.015625 -11 C 37.285156 -8.613281 36.179688 -6.554688 34.703125 -4.828125 C 33.234375 -3.109375 31.367188 -1.785156 29.109375 -0.859375 C 26.847656 0.0546875 24.175781 0.515625 21.09375 0.515625 C 18 0.515625 15.320312 0.0546875 13.0625 -0.859375 C 10.800781 -1.785156 8.929688 -3.109375 7.453125 -4.828125 C 5.984375 -6.554688 4.882812 -8.617188 4.15625 -11.015625 C 3.4375 -13.421875 3.078125 -16.085938 3.078125 -19.015625 C 3.078125 -22.929688 3.71875 -26.34375 5 -29.25 C 6.289062 -32.15625 8.269531 -34.410156 10.9375 -36.015625 C 13.613281 -37.628906 17.015625 -38.4375 21.140625 -38.4375 C 25.242188 -38.4375 28.617188 -37.628906 31.265625 -36.015625 C 33.921875 -34.410156 35.890625 -32.148438 37.171875 -29.234375 C 38.460938 -26.328125 39.109375 -22.90625 39.109375 -18.96875 Z M 11.484375 -18.96875 C 11.484375 -16.332031 11.816406 -14.0625 12.484375 -12.15625 C 13.148438 -10.25 14.191406 -8.78125 15.609375 -7.75 C 17.023438 -6.726562 18.851562 -6.21875 21.09375 -6.21875 C 23.363281 -6.21875 25.207031 -6.726562 26.625 -7.75 C 28.039062 -8.78125 29.070312 -10.25 29.71875 -12.15625 C 30.363281 -14.0625 30.6875 -16.332031 30.6875 -18.96875 C 30.6875 -22.9375 29.941406 -26.054688 28.453125 -28.328125 C 26.972656 -30.609375 24.535156 -31.75 21.140625 -31.75 C 18.878906 -31.75 17.035156 -31.234375 15.609375 -30.203125 C 14.191406 -29.179688 13.148438 -27.71875 12.484375 -25.8125 C 11.816406 -23.90625 11.484375 -21.625 11.484375 -18.96875 Z M 11.484375 -18.96875 "/></g></g></g><g fill="#414141" fill-opacity="1"><g transform="translate(636.554056, 524.31225)"><g><path d="M 15.78125 -37.828125 C 19.21875 -37.828125 22.050781 -37.410156 24.28125 -36.578125 C 26.519531 -35.753906 28.179688 -34.503906 29.265625 -32.828125 C 30.359375 -31.160156 30.90625 -29.050781 30.90625 -26.5 C 30.90625 -24.769531 30.578125 -23.257812 29.921875 -21.96875 C 29.265625 -20.675781 28.398438 -19.582031 27.328125 -18.6875 C 26.253906 -17.789062 25.097656 -17.054688 23.859375 -16.484375 L 34.984375 0 L 26.09375 0 L 17.046875 -14.515625 L 12.78125 -14.515625 L 12.78125 0 L 4.765625 0 L 4.765625 -37.828125 Z M 15.21875 -31.265625 L 12.78125 -31.265625 L 12.78125 -21.046875 L 15.375 -21.046875 C 18.03125 -21.046875 19.929688 -21.488281 21.078125 -22.375 C 22.222656 -23.257812 22.796875 -24.566406 22.796875 -26.296875 C 22.796875 -28.085938 22.175781 -29.363281 20.9375 -30.125 C 19.707031 -30.882812 17.800781 -31.265625 15.21875 -31.265625 Z M 15.21875 -31.265625 "/></g></g></g><g fill="#414141" fill-opacity="1"><g transform="translate(671.537178, 524.31225)"><g><path d="M 16.53125 -22.25 L 24.4375 -37.828125 L 33.078125 -37.828125 L 20.515625 -14.71875 L 20.515625 0 L 12.546875 0 L 12.546875 -14.46875 L 0 -37.828125 L 8.703125 -37.828125 Z M 16.53125 -22.25 "/></g></g></g><path fill="#414141" d="M 384.71875 382.863281 C 384.441406 382.863281 384.1875 382.792969 383.949219 382.652344 L 356.546875 366.445312 C 356.375 366.34375 356.230469 366.210938 356.109375 366.054688 C 355.988281 365.894531 355.902344 365.71875 355.851562 365.527344 C 355.804688 365.335938 355.789062 365.140625 355.816406 364.941406 C 355.84375 364.746094 355.90625 364.5625 356.003906 364.390625 L 443.644531 212.078125 L 422.550781 199.714844 C 422.445312 199.652344 422.347656 199.578125 422.261719 199.492188 C 422.171875 199.40625 422.09375 199.308594 422.03125 199.203125 C 421.964844 199.097656 421.914062 198.988281 421.875 198.871094 C 421.839844 198.753906 421.816406 198.632812 421.808594 198.507812 C 421.800781 198.386719 421.808594 198.261719 421.828125 198.140625 C 421.851562 198.019531 421.886719 197.902344 421.9375 197.789062 C 421.988281 197.675781 422.050781 197.574219 422.128906 197.476562 C 422.207031 197.378906 422.292969 197.292969 422.390625 197.214844 L 510.386719 128.902344 C 510.632812 128.714844 510.90625 128.613281 511.210938 128.59375 C 511.519531 128.574219 511.804688 128.640625 512.070312 128.792969 C 512.335938 128.949219 512.535156 129.164062 512.671875 129.441406 C 512.804688 129.71875 512.847656 130.007812 512.804688 130.3125 L 496.984375 238.765625 C 496.964844 238.890625 496.933594 239.007812 496.886719 239.121094 C 496.839844 239.238281 496.777344 239.34375 496.703125 239.445312 C 496.628906 239.546875 496.546875 239.636719 496.449219 239.714844 C 496.355469 239.792969 496.25 239.859375 496.136719 239.914062 C 496.023438 239.964844 495.910156 240.003906 495.785156 240.03125 C 495.664062 240.054688 495.542969 240.0625 495.417969 240.058594 C 495.292969 240.050781 495.171875 240.03125 495.050781 239.996094 C 494.933594 239.960938 494.820312 239.910156 494.714844 239.847656 L 474.039062 227.515625 L 386.03125 382.101562 C 385.824219 382.46875 385.515625 382.707031 385.105469 382.8125 C 384.976562 382.847656 384.847656 382.863281 384.71875 382.863281 Z M 359.371094 364.601562 L 384.160156 379.269531 L 472.167969 224.675781 C 472.269531 224.5 472.402344 224.347656 472.5625 224.226562 C 472.722656 224.101562 472.902344 224.015625 473.097656 223.960938 C 473.292969 223.910156 473.492188 223.898438 473.695312 223.925781 C 473.894531 223.957031 474.082031 224.023438 474.257812 224.125 L 494.3125 236.089844 L 509.269531 133.589844 L 426.007812 198.234375 L 446.464844 210.230469 C 446.636719 210.328125 446.785156 210.460938 446.90625 210.617188 C 447.027344 210.777344 447.113281 210.953125 447.164062 211.144531 C 447.214844 211.339844 447.226562 211.535156 447.199219 211.730469 C 447.175781 211.929688 447.109375 212.113281 447.011719 212.285156 Z M 359.371094 364.601562 " fill-opacity="1" fill-rule="nonzero"/><path fill="#414141" d="M 357.3125 366.65625 C 357.054688 366.65625 356.8125 366.59375 356.585938 366.46875 L 331.59375 352.722656 C 331.414062 352.621094 331.261719 352.492188 331.132812 352.332031 C 331.007812 352.171875 330.917969 351.992188 330.863281 351.792969 C 330.808594 351.597656 330.796875 351.394531 330.824219 351.191406 C 330.851562 350.988281 330.917969 350.800781 331.023438 350.625 L 421.25 198.921875 L 400.226562 186.058594 C 400.125 185.996094 400.03125 185.921875 399.945312 185.835938 C 399.859375 185.75 399.785156 185.652344 399.722656 185.550781 C 399.660156 185.445312 399.609375 185.335938 399.574219 185.21875 C 399.539062 185.101562 399.515625 184.984375 399.507812 184.863281 C 399.5 184.738281 399.507812 184.621094 399.53125 184.5 C 399.550781 184.378906 399.589844 184.265625 399.636719 184.152344 C 399.6875 184.042969 399.75 183.9375 399.824219 183.84375 C 399.898438 183.746094 399.984375 183.660156 400.078125 183.585938 L 486.445312 115.402344 C 486.6875 115.210938 486.960938 115.105469 487.265625 115.082031 C 487.570312 115.058594 487.859375 115.121094 488.125 115.273438 L 512.054688 128.777344 C 512.234375 128.871094 512.386719 129 512.515625 129.15625 C 512.644531 129.316406 512.734375 129.492188 512.792969 129.6875 C 512.847656 129.882812 512.867188 130.082031 512.84375 130.285156 C 512.820312 130.484375 512.757812 130.675781 512.65625 130.851562 C 512.558594 131.03125 512.425781 131.179688 512.265625 131.304688 C 512.105469 131.429688 511.925781 131.519531 511.730469 131.570312 C 511.53125 131.625 511.332031 131.636719 511.132812 131.605469 C 510.929688 131.578125 510.742188 131.511719 510.566406 131.410156 L 487.523438 118.402344 L 403.65625 184.613281 L 424.101562 197.121094 C 424.273438 197.222656 424.414062 197.355469 424.53125 197.515625 C 424.648438 197.675781 424.734375 197.855469 424.78125 198.046875 C 424.828125 198.238281 424.835938 198.433594 424.808594 198.632812 C 424.777344 198.828125 424.714844 199.011719 424.613281 199.183594 L 334.417969 350.824219 L 358.039062 363.816406 C 358.34375 363.984375 358.5625 364.226562 358.699219 364.542969 C 358.835938 364.859375 358.863281 365.183594 358.777344 365.519531 C 358.691406 365.851562 358.511719 366.125 358.238281 366.335938 C 357.964844 366.546875 357.65625 366.652344 357.308594 366.652344 Z M 357.3125 366.65625 " fill-opacity="1" fill-rule="nonzero"/><path fill="#414141" d="M 329.554688 282.226562 C 327.683594 282.261719 325.847656 282.023438 324.046875 281.503906 C 322.246094 280.984375 320.566406 280.210938 319 279.183594 C 306.265625 270.621094 307.441406 246.507812 321.621094 225.441406 C 335.796875 204.378906 357.683594 194.210938 370.417969 202.777344 C 383.152344 211.347656 381.976562 235.457031 367.796875 256.523438 C 357.039062 272.515625 341.828125 282.226562 329.554688 282.226562 Z M 359.6875 202.695312 C 348.511719 202.695312 334.316406 211.984375 324.125 227.132812 C 310.878906 246.8125 309.335938 269.039062 320.6875 276.679688 C 332.035156 284.316406 352.046875 274.519531 365.292969 254.835938 C 378.542969 235.152344 380.078125 212.929688 368.730469 205.289062 C 367.386719 204.410156 365.945312 203.75 364.402344 203.308594 C 362.863281 202.867188 361.289062 202.660156 359.6875 202.695312 Z M 359.6875 202.695312 " fill-opacity="1" fill-rule="nonzero"/><path fill="#414141" d="M 319.21875 278.996094 C 318.894531 278.996094 318.605469 278.902344 318.34375 278.714844 C 316.988281 277.75 315.703125 276.785156 314.371094 275.792969 C 312.929688 274.714844 311.433594 273.597656 309.75 272.398438 C 297.050781 263.34375 298.21875 239.746094 312.398438 218.675781 C 319.1875 208.585938 327.917969 200.652344 336.980469 196.335938 C 346.304688 191.890625 354.90625 191.777344 361.199219 196.015625 C 363.035156 197.25 364.945312 198.691406 366.789062 200.085938 C 368.027344 201.023438 369.257812 201.949219 370.453125 202.808594 C 370.617188 202.925781 370.75 203.066406 370.859375 203.238281 C 370.964844 203.410156 371.03125 203.59375 371.066406 203.789062 C 371.097656 203.988281 371.089844 204.183594 371.046875 204.378906 C 371 204.574219 370.917969 204.753906 370.800781 204.917969 C 370.683594 205.082031 370.542969 205.214844 370.371094 205.320312 C 370.199219 205.425781 370.015625 205.496094 369.820312 205.527344 C 369.621094 205.558594 369.425781 205.554688 369.230469 205.507812 C 369.035156 205.460938 368.855469 205.382812 368.691406 205.265625 C 367.476562 204.390625 366.226562 203.449219 364.96875 202.5 C 363.15625 201.128906 361.277344 199.710938 359.511719 198.519531 C 354.140625 194.90625 346.601562 195.09375 338.28125 199.0625 C 329.699219 203.148438 321.402344 210.714844 314.90625 220.363281 C 301.867188 239.738281 300.339844 261.972656 311.503906 269.933594 C 313.210938 271.148438 314.722656 272.277344 316.179688 273.371094 C 317.492188 274.351562 318.765625 275.304688 320.097656 276.253906 C 320.367188 276.445312 320.554688 276.699219 320.65625 277.011719 C 320.757812 277.324219 320.761719 277.636719 320.660156 277.949219 C 320.558594 278.261719 320.375 278.515625 320.109375 278.707031 C 319.84375 278.902344 319.546875 279 319.21875 278.996094 Z M 319.21875 278.996094 " fill-opacity="1" fill-rule="nonzero"/><path fill="#414141" d="M 462.859375 372.230469 C 460.964844 372.261719 459.109375 372.015625 457.292969 371.488281 C 455.472656 370.957031 453.773438 370.171875 452.191406 369.132812 C 439.457031 360.566406 440.632812 336.453125 454.8125 315.386719 C 468.992188 294.324219 490.882812 284.15625 503.613281 292.726562 C 509.90625 296.960938 513.042969 304.972656 512.4375 315.28125 C 511.851562 325.304688 507.785156 336.378906 500.996094 346.46875 C 494.207031 356.5625 485.476562 364.496094 476.414062 368.8125 C 472.152344 370.96875 467.632812 372.105469 462.859375 372.230469 Z M 492.878906 292.640625 C 481.707031 292.640625 467.507812 301.933594 457.316406 317.078125 C 444.070312 336.757812 442.53125 358.984375 453.878906 366.625 C 459.25 370.238281 466.792969 370.050781 475.109375 366.082031 C 483.691406 361.996094 491.992188 354.429688 498.484375 344.78125 C 504.976562 335.132812 508.863281 324.59375 509.414062 315.105469 C 509.953125 305.90625 507.292969 298.847656 501.921875 295.234375 C 500.578125 294.355469 499.136719 293.695312 497.597656 293.253906 C 496.054688 292.8125 494.484375 292.605469 492.878906 292.640625 Z M 492.878906 292.640625 " fill-opacity="1" fill-rule="nonzero"/><path fill="#414141" d="M 452.414062 368.945312 C 452.089844 368.945312 451.796875 368.851562 451.535156 368.660156 C 450.183594 367.695312 448.894531 366.730469 447.5625 365.738281 C 446.121094 364.664062 444.625 363.542969 442.941406 362.34375 C 430.246094 353.292969 431.410156 329.691406 445.59375 308.621094 C 452.382812 298.53125 461.113281 290.597656 470.175781 286.28125 C 479.496094 281.839844 488.097656 281.722656 494.394531 285.960938 C 496.230469 287.195312 498.140625 288.640625 499.988281 290.035156 C 501.226562 290.972656 502.453125 291.898438 503.648438 292.757812 C 503.808594 292.875 503.945312 293.019531 504.050781 293.1875 C 504.15625 293.359375 504.226562 293.542969 504.257812 293.742188 C 504.289062 293.9375 504.285156 294.136719 504.238281 294.332031 C 504.191406 294.527344 504.109375 294.707031 503.992188 294.867188 C 503.878906 295.03125 503.734375 295.164062 503.5625 295.269531 C 503.394531 295.375 503.207031 295.445312 503.011719 295.480469 C 502.8125 295.511719 502.617188 295.503906 502.421875 295.457031 C 502.226562 295.414062 502.046875 295.332031 501.882812 295.214844 C 500.675781 294.34375 499.421875 293.402344 498.167969 292.453125 C 496.351562 291.078125 494.472656 289.660156 492.703125 288.472656 C 487.335938 284.855469 479.792969 285.050781 471.472656 289.011719 C 462.894531 293.101562 454.59375 300.664062 448.097656 310.3125 C 435.0625 329.6875 433.535156 351.925781 444.695312 359.882812 C 446.402344 361.101562 447.914062 362.230469 449.371094 363.320312 C 450.683594 364.304688 451.957031 365.253906 453.292969 366.207031 C 453.558594 366.398438 453.746094 366.652344 453.847656 366.960938 C 453.953125 367.273438 453.953125 367.585938 453.855469 367.898438 C 453.753906 368.214844 453.570312 368.464844 453.304688 368.660156 C 453.039062 368.855469 452.742188 368.949219 452.414062 368.949219 Z M 452.414062 368.945312 " fill-opacity="1" fill-rule="nonzero"/><g clip-path="url(#1ebf5854eb)"><g clip-path="url(#1db608e6f4)"><path fill="#d50000" d="M -8.925781 577.398438 L 818.8125 577.398438 L 818.8125 810 L -8.925781 810 Z M -8.925781 577.398438 " fill-opacity="1" fill-rule="nonzero"/></g></g></svg>