<svg xmlns="http://www.w3.org/2000/svg" xmlns:xlink="http://www.w3.org/1999/xlink" width="1080" zoomAndPan="magnify" viewBox="0 0 810 809.999993" height="1080" preserveAspectRatio="xMidYMid meet" version="1.0"><defs><g/><clipPath id="9f956b5f62"><path d="M 0 0 L 810 0 L 810 430.726562 L 0 430.726562 Z M 0 0 " clip-rule="nonzero"/></clipPath><clipPath id="ae9a597c86"><path d="M 5.28125 0 L 804.71875 0 C 814.863281 0 824.59375 4.03125 831.765625 11.203125 C 838.941406 18.375 842.96875 28.105469 842.96875 38.25 L 842.96875 392.476562 C 842.96875 402.621094 838.941406 412.351562 831.765625 419.523438 C 824.59375 426.699219 814.863281 430.726562 804.71875 430.726562 L 5.28125 430.726562 C -4.863281 430.726562 -14.59375 426.699219 -21.765625 419.523438 C -28.941406 412.351562 -32.96875 402.621094 -32.96875 392.476562 L -32.96875 38.25 C -32.96875 28.105469 -28.941406 18.375 -21.765625 11.203125 C -14.59375 4.03125 -4.863281 0 5.28125 0 Z M 5.28125 0 " clip-rule="nonzero"/></clipPath><clipPath id="97f7a4c87a"><path d="M 223.1875 67.101562 L 586.8125 67.101562 L 586.8125 430.726562 L 223.1875 430.726562 Z M 223.1875 67.101562 " clip-rule="nonzero"/></clipPath><clipPath id="ca0aca098e"><path d="M 405 67.101562 C 304.585938 67.101562 223.1875 148.5 223.1875 248.914062 C 223.1875 349.328125 304.585938 430.726562 405 430.726562 C 505.414062 430.726562 586.8125 349.328125 586.8125 248.914062 C 586.8125 148.5 505.414062 67.101562 405 67.101562 Z M 405 67.101562 " clip-rule="nonzero"/></clipPath><clipPath id="d3509292ec"><path d="M 355 105.417969 L 452 105.417969 L 452 165 L 355 165 Z M 355 105.417969 " clip-rule="nonzero"/></clipPath><clipPath id="f3b10f2dbe"><path d="M 321.234375 297 L 385 297 L 385 338 L 321.234375 338 Z M 321.234375 297 " clip-rule="nonzero"/></clipPath><clipPath id="80e1ea7619"><path d="M 346 122 L 488.484375 122 L 488.484375 392.667969 L 346 392.667969 Z M 346 122 " clip-rule="nonzero"/></clipPath><clipPath id="d0bfa9602d"><path d="M 450 235 L 488.484375 235 L 488.484375 277 L 450 277 Z M 450 235 " clip-rule="nonzero"/></clipPath><clipPath id="a7fe0bf285"><path d="M 403.085938 192 L 431.621094 192 L 431.621094 251 L 403.085938 251 Z M 403.085938 192 " clip-rule="nonzero"/></clipPath><clipPath id="ba10eb58eb"><path d="M 403.945312 258.773438 L 403.785156 201.484375 L 431.101562 185.710938 L 431.265625 243 Z M 403.945312 258.773438 " clip-rule="nonzero"/></clipPath><clipPath id="ca0d5b860a"><path d="M 0 577.398438 L 810 577.398438 L 810 810 L 0 810 Z M 0 577.398438 " clip-rule="nonzero"/></clipPath><clipPath id="3321d026cf"><path d="M 405 810 L 818.925781 577.398438 L -8.925781 577.398438 Z M 405 810 " clip-rule="nonzero"/></clipPath></defs><rect x="-81" width="972" fill="#ffffff" y="-80.999999" height="971.999992" fill-opacity="1"/><rect x="-81" width="972" fill="#ffffff" y="-80.999999" height="971.999992" fill-opacity="1"/><g clip-path="url(#9f956b5f62)"><g clip-path="url(#ae9a597c86)"><path fill="#414141" d="M -32.96875 0 L 843.628906 0 L 843.628906 430.726562 L -32.96875 430.726562 Z M -32.96875 0 " fill-opacity="1" fill-rule="nonzero"/></g></g><g fill="#d50000" fill-opacity="1"><g transform="translate(117.036169, 524.312226)"><g><path d="M 12.65625 0 L 4.765625 0 L 4.765625 -37.828125 L 26.453125 -37.828125 L 26.453125 -31.265625 L 12.65625 -31.265625 L 12.65625 -21.5 L 25.484375 -21.5 L 25.484375 -14.953125 L 12.65625 -14.953125 Z M 12.65625 0 "/></g></g></g><g fill="#d50000" fill-opacity="1"><g transform="translate(146.11977, 524.312226)"><g><path d="M 15.78125 -37.828125 C 19.21875 -37.828125 22.050781 -37.410156 24.28125 -36.578125 C 26.519531 -35.753906 28.179688 -34.503906 29.265625 -32.828125 C 30.359375 -31.160156 30.90625 -29.050781 30.90625 -26.5 C 30.90625 -24.769531 30.578125 -23.257812 29.921875 -21.96875 C 29.265625 -20.675781 28.398438 -19.582031 27.328125 -18.6875 C 26.253906 -17.789062 25.097656 -17.054688 23.859375 -16.484375 L 34.984375 0 L 26.09375 0 L 17.046875 -14.515625 L 12.78125 -14.515625 L 12.78125 0 L 4.765625 0 L 4.765625 -37.828125 Z M 15.21875 -31.265625 L 12.78125 -31.265625 L 12.78125 -21.046875 L 15.375 -21.046875 C 18.03125 -21.046875 19.929688 -21.488281 21.078125 -22.375 C 22.222656 -23.257812 22.796875 -24.566406 22.796875 -26.296875 C 22.796875 -28.085938 22.175781 -29.363281 20.9375 -30.125 C 19.707031 -30.882812 17.800781 -31.265625 15.21875 -31.265625 Z M 15.21875 -31.265625 "/></g></g></g><g fill="#d50000" fill-opacity="1"><g transform="translate(181.102892, 524.312226)"><g><path d="M 27.921875 0 L 25.1875 -9 L 11.390625 -9 L 8.640625 0 L 0 0 L 13.359375 -37.984375 L 23.15625 -37.984375 L 36.5625 0 Z M 23.265625 -15.734375 L 20.515625 -24.53125 C 20.347656 -25.113281 20.117188 -25.867188 19.828125 -26.796875 C 19.546875 -27.722656 19.265625 -28.664062 18.984375 -29.625 C 18.703125 -30.582031 18.472656 -31.410156 18.296875 -32.109375 C 18.117188 -31.410156 17.878906 -30.535156 17.578125 -29.484375 C 17.273438 -28.441406 16.984375 -27.453125 16.703125 -26.515625 C 16.429688 -25.585938 16.238281 -24.925781 16.125 -24.53125 L 13.40625 -15.734375 Z M 23.265625 -15.734375 "/></g></g></g><g fill="#d50000" fill-opacity="1"><g transform="translate(217.664394, 524.312226)"><g><path d="M 35.5625 -37.828125 L 35.5625 -13.359375 C 35.5625 -10.753906 34.984375 -8.398438 33.828125 -6.296875 C 32.679688 -4.203125 30.945312 -2.539062 28.625 -1.3125 C 26.3125 -0.09375 23.394531 0.515625 19.875 0.515625 C 14.875 0.515625 11.0625 -0.757812 8.4375 -3.3125 C 5.8125 -5.863281 4.5 -9.242188 4.5 -13.453125 L 4.5 -37.828125 L 12.5 -37.828125 L 12.5 -14.671875 C 12.5 -11.546875 13.132812 -9.351562 14.40625 -8.09375 C 15.6875 -6.84375 17.578125 -6.21875 20.078125 -6.21875 C 21.835938 -6.21875 23.265625 -6.515625 24.359375 -7.109375 C 25.460938 -7.710938 26.269531 -8.644531 26.78125 -9.90625 C 27.300781 -11.164062 27.5625 -12.769531 27.5625 -14.71875 L 27.5625 -37.828125 Z M 35.5625 -37.828125 "/></g></g></g><g fill="#d50000" fill-opacity="1"><g transform="translate(257.719034, 524.312226)"><g><path d="M 36.15625 -19.28125 C 36.15625 -15.019531 35.335938 -11.460938 33.703125 -8.609375 C 32.078125 -5.753906 29.71875 -3.601562 26.625 -2.15625 C 23.539062 -0.71875 19.820312 0 15.46875 0 L 4.765625 0 L 4.765625 -37.828125 L 16.640625 -37.828125 C 20.609375 -37.828125 24.050781 -37.125 26.96875 -35.71875 C 29.882812 -34.3125 32.144531 -32.234375 33.75 -29.484375 C 35.351562 -26.734375 36.15625 -23.332031 36.15625 -19.28125 Z M 27.8125 -19.078125 C 27.8125 -21.867188 27.398438 -24.164062 26.578125 -25.96875 C 25.765625 -27.769531 24.5625 -29.101562 22.96875 -29.96875 C 21.375 -30.832031 19.398438 -31.265625 17.046875 -31.265625 L 12.78125 -31.265625 L 12.78125 -6.625 L 16.21875 -6.625 C 20.132812 -6.625 23.046875 -7.664062 24.953125 -9.75 C 26.859375 -11.84375 27.8125 -14.953125 27.8125 -19.078125 Z M 27.8125 -19.078125 "/></g></g></g><g fill="#d50000" fill-opacity="1"><g transform="translate(296.945671, 524.312226)"><g/></g></g><g fill="#d50000" fill-opacity="1"><g transform="translate(310.711207, 524.312226)"><g><path d="M 26.546875 0 L 4.765625 0 L 4.765625 -37.828125 L 26.546875 -37.828125 L 26.546875 -31.265625 L 12.78125 -31.265625 L 12.78125 -22.953125 L 25.59375 -22.953125 L 25.59375 -16.375 L 12.78125 -16.375 L 12.78125 -6.625 L 26.546875 -6.625 Z M 26.546875 0 "/></g></g></g><g fill="#d50000" fill-opacity="1"><g transform="translate(340.389947, 524.312226)"><g><path d="M 35.34375 0 L 26.1875 0 L 17.390625 -14.3125 L 8.59375 0 L 0 0 L 12.546875 -19.515625 L 0.796875 -37.828125 L 9.65625 -37.828125 L 17.8125 -24.21875 L 25.796875 -37.828125 L 34.4375 -37.828125 L 22.5625 -19.078125 Z M 35.34375 0 "/></g></g></g><g fill="#d50000" fill-opacity="1"><g transform="translate(375.735321, 524.312226)"><g><path d="M 27.921875 0 L 25.1875 -9 L 11.390625 -9 L 8.640625 0 L 0 0 L 13.359375 -37.984375 L 23.15625 -37.984375 L 36.5625 0 Z M 23.265625 -15.734375 L 20.515625 -24.53125 C 20.347656 -25.113281 20.117188 -25.867188 19.828125 -26.796875 C 19.546875 -27.722656 19.265625 -28.664062 18.984375 -29.625 C 18.703125 -30.582031 18.472656 -31.410156 18.296875 -32.109375 C 18.117188 -31.410156 17.878906 -30.535156 17.578125 -29.484375 C 17.273438 -28.441406 16.984375 -27.453125 16.703125 -26.515625 C 16.429688 -25.585938 16.238281 -24.925781 16.125 -24.53125 L 13.40625 -15.734375 Z M 23.265625 -15.734375 "/></g></g></g><g fill="#d50000" fill-opacity="1"><g transform="translate(412.296835, 524.312226)"><g><path d="M 20.78125 0 L 11.671875 -29.6875 L 11.4375 -29.6875 C 11.46875 -28.976562 11.519531 -27.910156 11.59375 -26.484375 C 11.675781 -25.066406 11.753906 -23.550781 11.828125 -21.9375 C 11.898438 -20.332031 11.9375 -18.882812 11.9375 -17.59375 L 11.9375 0 L 4.765625 0 L 4.765625 -37.828125 L 15.6875 -37.828125 L 24.640625 -8.90625 L 24.796875 -8.90625 L 34.296875 -37.828125 L 45.203125 -37.828125 L 45.203125 0 L 37.734375 0 L 37.734375 -17.90625 C 37.734375 -19.09375 37.753906 -20.460938 37.796875 -22.015625 C 37.835938 -23.578125 37.890625 -25.0625 37.953125 -26.46875 C 38.023438 -27.875 38.082031 -28.925781 38.125 -29.625 L 37.890625 -29.625 L 28.125 0 Z M 20.78125 0 "/></g></g></g><g fill="#d50000" fill-opacity="1"><g transform="translate(462.261645, 524.312226)"><g><path d="M 4.765625 0 L 4.765625 -37.828125 L 12.78125 -37.828125 L 12.78125 0 Z M 4.765625 0 "/></g></g></g><g fill="#d50000" fill-opacity="1"><g transform="translate(479.804957, 524.312226)"><g><path d="M 38.328125 0 L 28.125 0 L 11.671875 -28.625 L 11.4375 -28.625 C 11.507812 -27.4375 11.570312 -26.238281 11.625 -25.03125 C 11.675781 -23.820312 11.726562 -22.613281 11.78125 -21.40625 C 11.832031 -20.207031 11.882812 -19.007812 11.9375 -17.8125 L 11.9375 0 L 4.765625 0 L 4.765625 -37.828125 L 14.875 -37.828125 L 31.3125 -9.5 L 31.5 -9.5 C 31.457031 -10.664062 31.410156 -11.828125 31.359375 -12.984375 C 31.304688 -14.140625 31.257812 -15.296875 31.21875 -16.453125 C 31.175781 -17.609375 31.140625 -18.765625 31.109375 -19.921875 L 31.109375 -37.828125 L 38.328125 -37.828125 Z M 38.328125 0 "/></g></g></g><g fill="#d50000" fill-opacity="1"><g transform="translate(522.886994, 524.312226)"><g><path d="M 27.921875 0 L 25.1875 -9 L 11.390625 -9 L 8.640625 0 L 0 0 L 13.359375 -37.984375 L 23.15625 -37.984375 L 36.5625 0 Z M 23.265625 -15.734375 L 20.515625 -24.53125 C 20.347656 -25.113281 20.117188 -25.867188 19.828125 -26.796875 C 19.546875 -27.722656 19.265625 -28.664062 18.984375 -29.625 C 18.703125 -30.582031 18.472656 -31.410156 18.296875 -32.109375 C 18.117188 -31.410156 17.878906 -30.535156 17.578125 -29.484375 C 17.273438 -28.441406 16.984375 -27.453125 16.703125 -26.515625 C 16.429688 -25.585938 16.238281 -24.925781 16.125 -24.53125 L 13.40625 -15.734375 Z M 23.265625 -15.734375 "/></g></g></g><g fill="#d50000" fill-opacity="1"><g transform="translate(559.448485, 524.312226)"><g><path d="M 19.359375 0 L 11.328125 0 L 11.328125 -31.15625 L 1.0625 -31.15625 L 1.0625 -37.828125 L 29.625 -37.828125 L 29.625 -31.15625 L 19.359375 -31.15625 Z M 19.359375 0 "/></g></g></g><g fill="#d50000" fill-opacity="1"><g transform="translate(590.136365, 524.312226)"><g><path d="M 4.765625 0 L 4.765625 -37.828125 L 12.78125 -37.828125 L 12.78125 0 Z M 4.765625 0 "/></g></g></g><g fill="#d50000" fill-opacity="1"><g transform="translate(607.679698, 524.312226)"><g><path d="M 39.109375 -18.96875 C 39.109375 -16.050781 38.742188 -13.394531 38.015625 -11 C 37.285156 -8.613281 36.179688 -6.554688 34.703125 -4.828125 C 33.234375 -3.109375 31.367188 -1.785156 29.109375 -0.859375 C 26.847656 0.0546875 24.175781 0.515625 21.09375 0.515625 C 18 0.515625 15.320312 0.0546875 13.0625 -0.859375 C 10.800781 -1.785156 8.929688 -3.109375 7.453125 -4.828125 C 5.984375 -6.554688 4.882812 -8.617188 4.15625 -11.015625 C 3.4375 -13.421875 3.078125 -16.085938 3.078125 -19.015625 C 3.078125 -22.929688 3.71875 -26.34375 5 -29.25 C 6.289062 -32.15625 8.269531 -34.410156 10.9375 -36.015625 C 13.613281 -37.628906 17.015625 -38.4375 21.140625 -38.4375 C 25.242188 -38.4375 28.617188 -37.628906 31.265625 -36.015625 C 33.921875 -34.410156 35.890625 -32.148438 37.171875 -29.234375 C 38.460938 -26.328125 39.109375 -22.90625 39.109375 -18.96875 Z M 11.484375 -18.96875 C 11.484375 -16.332031 11.816406 -14.0625 12.484375 -12.15625 C 13.148438 -10.25 14.191406 -8.78125 15.609375 -7.75 C 17.023438 -6.726562 18.851562 -6.21875 21.09375 -6.21875 C 23.363281 -6.21875 25.207031 -6.726562 26.625 -7.75 C 28.039062 -8.78125 29.070312 -10.25 29.71875 -12.15625 C 30.363281 -14.0625 30.6875 -16.332031 30.6875 -18.96875 C 30.6875 -22.9375 29.941406 -26.054688 28.453125 -28.328125 C 26.972656 -30.609375 24.535156 -31.75 21.140625 -31.75 C 18.878906 -31.75 17.035156 -31.234375 15.609375 -30.203125 C 14.191406 -29.179688 13.148438 -27.71875 12.484375 -25.8125 C 11.816406 -23.90625 11.484375 -21.625 11.484375 -18.96875 Z M 11.484375 -18.96875 "/></g></g></g><g fill="#d50000" fill-opacity="1"><g transform="translate(649.856118, 524.312226)"><g><path d="M 38.328125 0 L 28.125 0 L 11.671875 -28.625 L 11.4375 -28.625 C 11.507812 -27.4375 11.570312 -26.238281 11.625 -25.03125 C 11.675781 -23.820312 11.726562 -22.613281 11.78125 -21.40625 C 11.832031 -20.207031 11.882812 -19.007812 11.9375 -17.8125 L 11.9375 0 L 4.765625 0 L 4.765625 -37.828125 L 14.875 -37.828125 L 31.3125 -9.5 L 31.5 -9.5 C 31.457031 -10.664062 31.410156 -11.828125 31.359375 -12.984375 C 31.304688 -14.140625 31.257812 -15.296875 31.21875 -16.453125 C 31.175781 -17.609375 31.140625 -18.765625 31.109375 -19.921875 L 31.109375 -37.828125 L 38.328125 -37.828125 Z M 38.328125 0 "/></g></g></g><g clip-path="url(#97f7a4c87a)"><g clip-path="url(#ca0aca098e)"><path fill="#ffffff" d="M 223.1875 67.101562 L 586.8125 67.101562 L 586.8125 430.726562 L 223.1875 430.726562 Z M 223.1875 67.101562 " fill-opacity="1" fill-rule="nonzero"/></g></g><g clip-path="url(#d3509292ec)"><path fill="#d50000" d="M 383.226562 164.949219 C 383.011719 164.949219 382.8125 164.890625 382.628906 164.777344 L 356.171875 148.285156 C 356.089844 148.234375 356.015625 148.171875 355.949219 148.105469 C 355.882812 148.035156 355.828125 147.957031 355.78125 147.875 C 355.734375 147.789062 355.699219 147.699219 355.675781 147.605469 C 355.652344 147.515625 355.640625 147.417969 355.640625 147.324219 C 355.640625 147.226562 355.65625 147.132812 355.679688 147.039062 C 355.703125 146.945312 355.738281 146.859375 355.789062 146.773438 C 355.835938 146.691406 355.890625 146.613281 355.957031 146.546875 C 356.023438 146.476562 356.101562 146.417969 356.183594 146.367188 L 422.902344 105.726562 C 423.300781 105.484375 423.695312 105.488281 424.085938 105.734375 L 450.929688 122.609375 C 451.011719 122.660156 451.085938 122.71875 451.152344 122.789062 C 451.214844 122.859375 451.273438 122.9375 451.320312 123.023438 C 451.363281 123.105469 451.398438 123.195312 451.421875 123.289062 C 451.445312 123.382812 451.457031 123.476562 451.457031 123.574219 C 451.457031 123.667969 451.441406 123.765625 451.417969 123.855469 C 451.390625 123.949219 451.355469 124.039062 451.308594 124.121094 C 451.257812 124.207031 451.203125 124.28125 451.132812 124.351562 C 451.066406 124.417969 450.992188 124.476562 450.910156 124.527344 L 383.804688 164.789062 C 383.628906 164.894531 383.433594 164.949219 383.226562 164.949219 Z M 358.914062 147.339844 L 383.238281 162.503906 L 448.175781 123.539062 L 423.480469 108.011719 Z M 358.914062 147.339844 " fill-opacity="1" fill-rule="nonzero"/></g><path fill="#d50000" d="M 383.226562 317.179688 C 383 317.179688 382.789062 317.117188 382.601562 316.988281 L 356.144531 299.351562 C 355.808594 299.128906 355.640625 298.816406 355.640625 298.414062 L 355.640625 147.328125 C 355.640625 146.886719 355.835938 146.558594 356.222656 146.34375 C 356.609375 146.128906 356.988281 146.140625 357.363281 146.371094 L 383.820312 162.867188 C 384.175781 163.085938 384.351562 163.40625 384.351562 163.824219 L 384.351562 316.050781 C 384.351562 316.203125 384.324219 316.34375 384.265625 316.484375 C 384.210938 316.621094 384.128906 316.742188 384.023438 316.847656 C 383.917969 316.953125 383.792969 317.035156 383.65625 317.09375 C 383.519531 317.148438 383.375 317.179688 383.226562 317.179688 Z M 357.894531 297.8125 L 382.097656 313.949219 L 382.097656 164.449219 L 357.894531 149.359375 Z M 357.894531 297.8125 " fill-opacity="1" fill-rule="nonzero"/><g clip-path="url(#f3b10f2dbe)"><path fill="#d50000" d="M 347.566406 337.886719 C 347.324219 337.886719 347.105469 337.816406 346.910156 337.675781 L 321.703125 319.582031 C 321.550781 319.472656 321.429688 319.332031 321.347656 319.160156 C 321.265625 318.988281 321.226562 318.808594 321.234375 318.617188 C 321.242188 318.425781 321.296875 318.25 321.394531 318.085938 C 321.492188 317.925781 321.625 317.792969 321.789062 317.699219 L 356.195312 297.441406 C 356.382812 297.332031 356.582031 297.28125 356.800781 297.289062 C 357.015625 297.292969 357.210938 297.355469 357.390625 297.476562 L 383.851562 315.117188 C 384.011719 315.222656 384.136719 315.363281 384.226562 315.535156 C 384.316406 315.710938 384.359375 315.894531 384.351562 316.085938 C 384.347656 316.28125 384.292969 316.460938 384.195312 316.628906 C 384.09375 316.796875 383.960938 316.929688 383.792969 317.027344 L 348.128906 337.734375 C 347.957031 337.835938 347.765625 337.886719 347.566406 337.886719 Z M 324.421875 318.761719 L 347.628906 335.417969 L 381.097656 315.988281 L 356.730469 299.742188 Z M 324.421875 318.761719 " fill-opacity="1" fill-rule="nonzero"/></g><g clip-path="url(#80e1ea7619)"><path fill="#d50000" d="M 418.121094 392.335938 C 417.863281 392.335938 417.636719 392.257812 417.433594 392.101562 L 346.878906 337.648438 C 346.730469 337.535156 346.617188 337.394531 346.539062 337.222656 C 346.460938 337.050781 346.429688 336.871094 346.441406 336.683594 C 346.453125 336.496094 346.507812 336.324219 346.609375 336.164062 C 346.707031 336.003906 346.835938 335.878906 347 335.785156 L 382.097656 315.402344 L 382.097656 163.824219 C 382.097656 163.398438 382.28125 163.074219 382.644531 162.855469 L 449.75 122.59375 C 450.125 122.371094 450.5 122.363281 450.878906 122.574219 C 451.257812 122.789062 451.453125 123.109375 451.457031 123.546875 L 453.347656 273.765625 L 486.925781 252.597656 C 487.136719 252.460938 487.371094 252.40625 487.625 252.425781 C 487.875 252.449219 488.09375 252.546875 488.28125 252.714844 C 488.46875 252.886719 488.585938 253.097656 488.632812 253.34375 C 488.679688 253.59375 488.644531 253.832031 488.53125 254.058594 L 419.125 391.714844 C 418.96875 392.03125 418.714844 392.230469 418.371094 392.308594 C 418.289062 392.324219 418.203125 392.335938 418.121094 392.335938 Z M 349.582031 336.890625 L 417.726562 389.484375 L 484.6875 256.671875 L 452.851562 276.746094 C 452.476562 276.980469 452.097656 276.992188 451.710938 276.78125 C 451.324219 276.570312 451.128906 276.246094 451.121094 275.804688 L 449.230469 125.535156 L 384.347656 164.460938 L 384.347656 316.050781 C 384.351562 316.484375 384.164062 316.8125 383.789062 317.027344 Z M 383.226562 316.050781 Z M 383.226562 316.050781 " fill-opacity="1" fill-rule="nonzero"/></g><g clip-path="url(#d0bfa9602d)"><path fill="#d50000" d="M 452.246094 276.917969 C 452.097656 276.917969 451.957031 276.886719 451.820312 276.832031 C 451.683594 276.777344 451.5625 276.695312 451.457031 276.589844 C 451.351562 276.488281 451.269531 276.367188 451.210938 276.230469 C 451.152344 276.09375 451.121094 275.953125 451.121094 275.804688 L 450.6875 241.289062 C 450.679688 240.847656 450.871094 240.515625 451.253906 240.296875 L 458.972656 235.890625 C 459.355469 235.675781 459.734375 235.679688 460.109375 235.902344 L 488.101562 252.582031 C 488.183594 252.632812 488.257812 252.691406 488.324219 252.757812 C 488.394531 252.828125 488.453125 252.902344 488.5 252.988281 C 488.546875 253.070312 488.585938 253.160156 488.609375 253.25 C 488.636719 253.34375 488.648438 253.4375 488.648438 253.535156 C 488.652344 253.632812 488.640625 253.726562 488.617188 253.820312 C 488.59375 253.914062 488.558594 254.003906 488.515625 254.085938 C 488.46875 254.171875 488.414062 254.25 488.347656 254.320312 C 488.28125 254.390625 488.207031 254.449219 488.125 254.503906 L 452.847656 276.742188 C 452.664062 276.859375 452.464844 276.917969 452.246094 276.917969 Z M 452.945312 241.921875 L 453.347656 273.761719 L 485.371094 253.574219 L 459.519531 238.175781 Z M 452.945312 241.921875 " fill-opacity="1" fill-rule="nonzero"/></g><g clip-path="url(#a7fe0bf285)"><g clip-path="url(#ba10eb58eb)"><path fill="#d50000" d="M 418.398438 193.042969 C 417.496094 193.632812 416.773438 194.390625 416.234375 195.320312 C 415.691406 196.25 415.390625 197.25 415.324219 198.324219 C 415.324219 198.816406 415.316406 199.304688 415.320312 199.761719 C 415.320312 200.292969 415.304688 200.3125 414.851562 200.660156 C 412.96875 202.117188 411.316406 203.792969 409.886719 205.691406 C 407.792969 208.390625 406.367188 211.402344 405.613281 214.730469 C 405.144531 216.878906 405.066406 219.039062 405.382812 221.210938 C 405.671875 223.238281 406.390625 224.839844 407.777344 225.632812 C 408.53125 226.054688 409.335938 226.34375 410.183594 226.5 C 412.375 226.835938 414.550781 226.773438 416.71875 226.304688 C 418.136719 225.992188 419.5625 225.953125 420.996094 226.183594 C 421.523438 226.265625 421.972656 226.492188 422.34375 226.875 C 422.71875 227.253906 422.9375 227.707031 423.011719 228.234375 C 423.148438 229.050781 423.203125 229.875 423.164062 230.703125 C 423.078125 231.863281 422.785156 232.96875 422.285156 234.015625 C 421.785156 235.066406 421.109375 235.988281 420.261719 236.785156 C 419.550781 237.464844 418.773438 238.050781 417.925781 238.550781 C 417.160156 239.003906 416.339844 239.324219 415.46875 239.511719 C 413.914062 239.828125 412.746094 239.378906 412.246094 237.8125 C 412.0625 237.1875 411.9375 236.554688 411.871094 235.910156 C 411.78125 235.234375 411.257812 234.988281 410.621094 235.316406 C 410.4375 235.417969 410.25 235.53125 410.066406 235.632812 C 409.382812 236.023438 408.703125 236.414062 408.019531 236.808594 C 407.335938 237.203125 406.652344 237.601562 405.96875 237.996094 C 405.695312 238.160156 405.421875 238.3125 405.152344 238.476562 C 404.726562 238.707031 404.398438 239.035156 404.167969 239.464844 C 403.941406 239.890625 403.851562 240.347656 403.894531 240.828125 C 403.910156 241.054688 403.941406 241.269531 403.957031 241.492188 C 404.015625 242.902344 404.34375 244.242188 404.945312 245.519531 C 406.042969 247.691406 407.992188 248.355469 410.339844 248.304688 C 411.496094 248.257812 412.613281 248.039062 413.699219 247.644531 C 415.449219 247.03125 415.449219 246.644531 415.453125 247.625 L 415.453125 248.574219 C 415.464844 250.527344 416.84375 251.3125 418.542969 250.332031 L 418.578125 250.308594 L 418.585938 250.308594 C 419.480469 249.71875 420.195312 248.960938 420.730469 248.03125 C 421.265625 247.105469 421.5625 246.105469 421.625 245.035156 C 421.625 244.644531 421.625 244.261719 421.625 243.875 C 421.625 243.199219 421.625 243.191406 422.207031 242.722656 C 423.589844 241.597656 424.847656 240.34375 425.980469 238.96875 C 428.40625 236.128906 430.023438 232.886719 430.832031 229.242188 C 431.1875 227.554688 431.3125 225.855469 431.207031 224.136719 C 431.15625 222.671875 430.820312 221.277344 430.199219 219.953125 C 429.792969 219.207031 429.234375 218.597656 428.527344 218.121094 C 427.816406 217.648438 427.039062 217.367188 426.191406 217.273438 C 424.109375 216.964844 422.039062 217.027344 419.980469 217.460938 C 418.382812 217.796875 416.785156 217.808594 415.1875 217.496094 C 414.757812 217.40625 414.386719 217.207031 414.074219 216.894531 C 413.761719 216.585938 413.5625 216.214844 413.472656 215.78125 C 413.085938 214.117188 413.171875 212.476562 413.738281 210.863281 C 414.179688 209.363281 414.984375 208.09375 416.144531 207.050781 C 416.707031 206.539062 417.316406 206.09375 417.972656 205.710938 C 418.15625 205.605469 418.339844 205.507812 418.523438 205.417969 C 420.460938 204.476562 421.867188 204.742188 422.59375 206.433594 C 422.851562 207.074219 423.011719 207.734375 423.082031 208.421875 C 423.1875 209.335938 423.699219 209.496094 424.46875 209.050781 L 424.523438 209.015625 C 424.871094 208.808594 425.214844 208.605469 425.5625 208.40625 C 426.082031 208.105469 426.605469 207.808594 427.125 207.507812 L 427.125 207.503906 C 427.6875 207.179688 428.25 206.859375 428.8125 206.535156 C 429.1875 206.320312 429.5625 206.097656 429.9375 205.875 C 430.296875 205.675781 430.574219 205.398438 430.777344 205.042969 C 430.976562 204.6875 431.070312 204.304688 431.054688 203.894531 C 430.992188 202.953125 430.867188 202.019531 430.679688 201.089844 C 430.085938 198.46875 428.695312 196.898438 426.550781 196.347656 C 425 196.035156 423.480469 196.148438 421.992188 196.691406 C 421.707031 196.773438 421.496094 196.601562 421.492188 196.261719 L 421.488281 194.796875 C 421.484375 192.84375 420.097656 192.054688 418.394531 193.035156 " fill-opacity="1" fill-rule="nonzero"/></g></g><g clip-path="url(#ca0d5b860a)"><g clip-path="url(#3321d026cf)"><path fill="#414141" d="M -8.925781 577.398438 L 818.8125 577.398438 L 818.8125 810 L -8.925781 810 Z M -8.925781 577.398438 " fill-opacity="1" fill-rule="nonzero"/></g></g></svg>