<svg xmlns="http://www.w3.org/2000/svg" xmlns:xlink="http://www.w3.org/1999/xlink" width="1080" zoomAndPan="magnify" viewBox="0 0 810 809.999993" height="1080" preserveAspectRatio="xMidYMid meet" version="1.0"><defs><g/><clipPath id="58eb78fd92"><path d="M 0 0 L 810 0 L 810 430.726562 L 0 430.726562 Z M 0 0 " clip-rule="nonzero"/></clipPath><clipPath id="ee4337f0b7"><path d="M 5.28125 0 L 804.71875 0 C 814.863281 0 824.59375 4.03125 831.765625 11.203125 C 838.941406 18.375 842.96875 28.105469 842.96875 38.25 L 842.96875 392.476562 C 842.96875 402.621094 838.941406 412.351562 831.765625 419.523438 C 824.59375 426.699219 814.863281 430.726562 804.71875 430.726562 L 5.28125 430.726562 C -4.863281 430.726562 -14.59375 426.699219 -21.765625 419.523438 C -28.941406 412.351562 -32.96875 402.621094 -32.96875 392.476562 L -32.96875 38.25 C -32.96875 28.105469 -28.941406 18.375 -21.765625 11.203125 C -14.59375 4.03125 -4.863281 0 5.28125 0 Z M 5.28125 0 " clip-rule="nonzero"/></clipPath><clipPath id="5fc24894ea"><path d="M 223.1875 67.101562 L 586.8125 67.101562 L 586.8125 430.726562 L 223.1875 430.726562 Z M 223.1875 67.101562 " clip-rule="nonzero"/></clipPath><clipPath id="11082874f7"><path d="M 405 67.101562 C 304.585938 67.101562 223.1875 148.5 223.1875 248.914062 C 223.1875 349.328125 304.585938 430.726562 405 430.726562 C 505.414062 430.726562 586.8125 349.328125 586.8125 248.914062 C 586.8125 148.5 505.414062 67.101562 405 67.101562 Z M 405 67.101562 " clip-rule="nonzero"/></clipPath><clipPath id="d050091ec9"><path d="M 435 145 L 505.203125 145 L 505.203125 188 L 435 188 Z M 435 145 " clip-rule="nonzero"/></clipPath><clipPath id="5ef1f4d24c"><path d="M 468 165 L 505.203125 165 L 505.203125 299 L 468 299 Z M 468 165 " clip-rule="nonzero"/></clipPath><clipPath id="eaa08ae112"><path d="M 338 301 L 377 301 L 377 373.242188 L 338 373.242188 Z M 338 301 " clip-rule="nonzero"/></clipPath><clipPath id="eb4c3abecb"><path d="M 305 301 L 341 301 L 341 373.242188 L 305 373.242188 Z M 305 301 " clip-rule="nonzero"/></clipPath><clipPath id="01d6e645b0"><path d="M 393.15625 157 L 406 157 L 406 184 L 393.15625 184 Z M 393.15625 157 " clip-rule="nonzero"/></clipPath><clipPath id="ede80bafcf"><path d="M 393.769531 187.46875 L 393.699219 161.921875 L 405.882812 154.886719 L 405.957031 180.433594 Z M 393.769531 187.46875 " clip-rule="nonzero"/></clipPath><clipPath id="0dc6bca138"><path d="M 0 577.398438 L 810 577.398438 L 810 810 L 0 810 Z M 0 577.398438 " clip-rule="nonzero"/></clipPath><clipPath id="658c77eaa0"><path d="M 405 810 L 818.925781 577.398438 L -8.925781 577.398438 Z M 405 810 " clip-rule="nonzero"/></clipPath></defs><rect x="-81" width="972" fill="#ffffff" y="-80.999999" height="971.999992" fill-opacity="1"/><rect x="-81" width="972" fill="#ffffff" y="-80.999999" height="971.999992" fill-opacity="1"/><g clip-path="url(#58eb78fd92)"><g clip-path="url(#ee4337f0b7)"><path fill="#d50000" d="M -32.96875 0 L 843.628906 0 L 843.628906 430.726562 L -32.96875 430.726562 Z M -32.96875 0 " fill-opacity="1" fill-rule="nonzero"/></g></g><g clip-path="url(#5fc24894ea)"><g clip-path="url(#11082874f7)"><path fill="#ffffff" d="M 223.1875 67.101562 L 586.8125 67.101562 L 586.8125 430.726562 L 223.1875 430.726562 Z M 223.1875 67.101562 " fill-opacity="1" fill-rule="nonzero"/></g></g><g fill="#d50000" fill-opacity="1"><g transform="translate(182.627468, 524.065203)"><g><path d="M 28.109375 0 L 25.34375 -9.0625 L 11.453125 -9.0625 L 8.703125 0 L 0 0 L 13.4375 -38.234375 L 23.3125 -38.234375 L 36.796875 0 Z M 23.421875 -15.84375 L 20.65625 -24.6875 C 20.476562 -25.28125 20.242188 -26.039062 19.953125 -26.96875 C 19.671875 -27.894531 19.382812 -28.835938 19.09375 -29.796875 C 18.8125 -30.765625 18.585938 -31.609375 18.421875 -32.328125 C 18.242188 -31.609375 18.003906 -30.722656 17.703125 -29.671875 C 17.398438 -28.628906 17.109375 -27.640625 16.828125 -26.703125 C 16.546875 -25.765625 16.347656 -25.09375 16.234375 -24.6875 L 13.5 -15.84375 Z M 23.421875 -15.84375 "/></g></g></g><g fill="#d50000" fill-opacity="1"><g transform="translate(219.426044, 524.065203)"><g><path d="M 27.265625 -10.578125 C 27.265625 -8.316406 26.71875 -6.351562 25.625 -4.6875 C 24.53125 -3.019531 22.9375 -1.734375 20.84375 -0.828125 C 18.757812 0.0664062 16.222656 0.515625 13.234375 0.515625 C 11.910156 0.515625 10.617188 0.425781 9.359375 0.25 C 8.097656 0.0820312 6.890625 -0.164062 5.734375 -0.5 C 4.585938 -0.84375 3.492188 -1.265625 2.453125 -1.765625 L 2.453125 -9.265625 C 4.253906 -8.472656 6.125 -7.753906 8.0625 -7.109375 C 10.007812 -6.460938 11.941406 -6.140625 13.859375 -6.140625 C 15.179688 -6.140625 16.242188 -6.3125 17.046875 -6.65625 C 17.859375 -7.007812 18.445312 -7.488281 18.8125 -8.09375 C 19.175781 -8.707031 19.359375 -9.40625 19.359375 -10.1875 C 19.359375 -11.132812 19.035156 -11.945312 18.390625 -12.625 C 17.742188 -13.3125 16.859375 -13.945312 15.734375 -14.53125 C 14.617188 -15.125 13.359375 -15.757812 11.953125 -16.4375 C 11.066406 -16.851562 10.101562 -17.359375 9.0625 -17.953125 C 8.019531 -18.554688 7.03125 -19.289062 6.09375 -20.15625 C 5.15625 -21.03125 4.382812 -22.085938 3.78125 -23.328125 C 3.1875 -24.566406 2.890625 -26.054688 2.890625 -27.796875 C 2.890625 -30.066406 3.410156 -32.007812 4.453125 -33.625 C 5.492188 -35.238281 6.984375 -36.472656 8.921875 -37.328125 C 10.859375 -38.191406 13.144531 -38.625 15.78125 -38.625 C 17.757812 -38.625 19.644531 -38.394531 21.4375 -37.9375 C 23.238281 -37.476562 25.125 -36.8125 27.09375 -35.9375 L 24.484375 -29.671875 C 22.734375 -30.378906 21.160156 -30.925781 19.765625 -31.3125 C 18.378906 -31.707031 16.96875 -31.90625 15.53125 -31.90625 C 14.519531 -31.90625 13.65625 -31.742188 12.9375 -31.421875 C 12.226562 -31.097656 11.691406 -30.644531 11.328125 -30.0625 C 10.960938 -29.488281 10.78125 -28.816406 10.78125 -28.046875 C 10.78125 -27.148438 11.046875 -26.390625 11.578125 -25.765625 C 12.109375 -25.148438 12.90625 -24.554688 13.96875 -23.984375 C 15.039062 -23.410156 16.375 -22.742188 17.96875 -21.984375 C 19.914062 -21.066406 21.578125 -20.109375 22.953125 -19.109375 C 24.335938 -18.109375 25.398438 -16.9375 26.140625 -15.59375 C 26.890625 -14.25 27.265625 -12.578125 27.265625 -10.578125 Z M 27.265625 -10.578125 "/></g></g></g><g fill="#d50000" fill-opacity="1"><g transform="translate(248.802394, 524.065203)"><g><path d="M 27.265625 -10.578125 C 27.265625 -8.316406 26.71875 -6.351562 25.625 -4.6875 C 24.53125 -3.019531 22.9375 -1.734375 20.84375 -0.828125 C 18.757812 0.0664062 16.222656 0.515625 13.234375 0.515625 C 11.910156 0.515625 10.617188 0.425781 9.359375 0.25 C 8.097656 0.0820312 6.890625 -0.164062 5.734375 -0.5 C 4.585938 -0.84375 3.492188 -1.265625 2.453125 -1.765625 L 2.453125 -9.265625 C 4.253906 -8.472656 6.125 -7.753906 8.0625 -7.109375 C 10.007812 -6.460938 11.941406 -6.140625 13.859375 -6.140625 C 15.179688 -6.140625 16.242188 -6.3125 17.046875 -6.65625 C 17.859375 -7.007812 18.445312 -7.488281 18.8125 -8.09375 C 19.175781 -8.707031 19.359375 -9.40625 19.359375 -10.1875 C 19.359375 -11.132812 19.035156 -11.945312 18.390625 -12.625 C 17.742188 -13.3125 16.859375 -13.945312 15.734375 -14.53125 C 14.617188 -15.125 13.359375 -15.757812 11.953125 -16.4375 C 11.066406 -16.851562 10.101562 -17.359375 9.0625 -17.953125 C 8.019531 -18.554688 7.03125 -19.289062 6.09375 -20.15625 C 5.15625 -21.03125 4.382812 -22.085938 3.78125 -23.328125 C 3.1875 -24.566406 2.890625 -26.054688 2.890625 -27.796875 C 2.890625 -30.066406 3.410156 -32.007812 4.453125 -33.625 C 5.492188 -35.238281 6.984375 -36.472656 8.921875 -37.328125 C 10.859375 -38.191406 13.144531 -38.625 15.78125 -38.625 C 17.757812 -38.625 19.644531 -38.394531 21.4375 -37.9375 C 23.238281 -37.476562 25.125 -36.8125 27.09375 -35.9375 L 24.484375 -29.671875 C 22.734375 -30.378906 21.160156 -30.925781 19.765625 -31.3125 C 18.378906 -31.707031 16.96875 -31.90625 15.53125 -31.90625 C 14.519531 -31.90625 13.65625 -31.742188 12.9375 -31.421875 C 12.226562 -31.097656 11.691406 -30.644531 11.328125 -30.0625 C 10.960938 -29.488281 10.78125 -28.816406 10.78125 -28.046875 C 10.78125 -27.148438 11.046875 -26.390625 11.578125 -25.765625 C 12.109375 -25.148438 12.90625 -24.554688 13.96875 -23.984375 C 15.039062 -23.410156 16.375 -22.742188 17.96875 -21.984375 C 19.914062 -21.066406 21.578125 -20.109375 22.953125 -19.109375 C 24.335938 -18.109375 25.398438 -16.9375 26.140625 -15.59375 C 26.890625 -14.25 27.265625 -12.578125 27.265625 -10.578125 Z M 27.265625 -10.578125 "/></g></g></g><g fill="#d50000" fill-opacity="1"><g transform="translate(278.178744, 524.065203)"><g><path d="M 26.71875 0 L 4.796875 0 L 4.796875 -38.078125 L 26.71875 -38.078125 L 26.71875 -31.46875 L 12.859375 -31.46875 L 12.859375 -23.109375 L 25.765625 -23.109375 L 25.765625 -16.484375 L 12.859375 -16.484375 L 12.859375 -6.671875 L 26.71875 -6.671875 Z M 26.71875 0 "/></g></g></g><g fill="#d50000" fill-opacity="1"><g transform="translate(308.049918, 524.065203)"><g><path d="M 19.484375 0 L 11.40625 0 L 11.40625 -31.359375 L 1.0625 -31.359375 L 1.0625 -38.078125 L 29.828125 -38.078125 L 29.828125 -31.359375 L 19.484375 -31.359375 Z M 19.484375 0 "/></g></g></g><g fill="#d50000" fill-opacity="1"><g transform="translate(338.936755, 524.065203)"><g/></g></g><g fill="#d50000" fill-opacity="1"><g transform="translate(352.791558, 524.065203)"><g><path d="M 15.890625 -38.078125 C 19.347656 -38.078125 22.195312 -37.660156 24.4375 -36.828125 C 26.6875 -35.992188 28.359375 -34.734375 29.453125 -33.046875 C 30.546875 -31.367188 31.09375 -29.242188 31.09375 -26.671875 C 31.09375 -24.929688 30.765625 -23.410156 30.109375 -22.109375 C 29.453125 -20.804688 28.582031 -19.703125 27.5 -18.796875 C 26.425781 -17.898438 25.265625 -17.164062 24.015625 -16.59375 L 35.21875 0 L 26.25 0 L 17.171875 -14.609375 L 12.859375 -14.609375 L 12.859375 0 L 4.796875 0 L 4.796875 -38.078125 Z M 15.3125 -31.46875 L 12.859375 -31.46875 L 12.859375 -21.171875 L 15.46875 -21.171875 C 18.144531 -21.171875 20.0625 -21.617188 21.21875 -22.515625 C 22.375 -23.410156 22.953125 -24.726562 22.953125 -26.46875 C 22.953125 -28.269531 22.328125 -29.550781 21.078125 -30.3125 C 19.835938 -31.082031 17.914062 -31.46875 15.3125 -31.46875 Z M 15.3125 -31.46875 "/></g></g></g><g fill="#d50000" fill-opacity="1"><g transform="translate(388.001511, 524.065203)"><g><path d="M 26.71875 0 L 4.796875 0 L 4.796875 -38.078125 L 26.71875 -38.078125 L 26.71875 -31.46875 L 12.859375 -31.46875 L 12.859375 -23.109375 L 25.765625 -23.109375 L 25.765625 -16.484375 L 12.859375 -16.484375 L 12.859375 -6.671875 L 26.71875 -6.671875 Z M 26.71875 0 "/></g></g></g><g fill="#d50000" fill-opacity="1"><g transform="translate(417.872684, 524.065203)"><g><path d="M 20.96875 -31.90625 C 19.425781 -31.90625 18.054688 -31.601562 16.859375 -31 C 15.671875 -30.40625 14.671875 -29.539062 13.859375 -28.40625 C 13.054688 -27.28125 12.445312 -25.921875 12.03125 -24.328125 C 11.613281 -22.734375 11.40625 -20.9375 11.40625 -18.9375 C 11.40625 -16.25 11.738281 -13.953125 12.40625 -12.046875 C 13.082031 -10.140625 14.125 -8.6875 15.53125 -7.6875 C 16.9375 -6.695312 18.75 -6.203125 20.96875 -6.203125 C 22.507812 -6.203125 24.054688 -6.375 25.609375 -6.71875 C 27.171875 -7.0625 28.863281 -7.554688 30.6875 -8.203125 L 30.6875 -1.4375 C 29 -0.738281 27.335938 -0.238281 25.703125 0.0625 C 24.078125 0.363281 22.25 0.515625 20.21875 0.515625 C 16.289062 0.515625 13.0625 -0.289062 10.53125 -1.90625 C 8.007812 -3.53125 6.140625 -5.804688 4.921875 -8.734375 C 3.703125 -11.660156 3.09375 -15.078125 3.09375 -18.984375 C 3.09375 -21.867188 3.484375 -24.507812 4.265625 -26.90625 C 5.046875 -29.300781 6.191406 -31.375 7.703125 -33.125 C 9.210938 -34.882812 11.078125 -36.238281 13.296875 -37.1875 C 15.523438 -38.144531 18.082031 -38.625 20.96875 -38.625 C 22.863281 -38.625 24.757812 -38.382812 26.65625 -37.90625 C 28.5625 -37.425781 30.378906 -36.769531 32.109375 -35.9375 L 29.515625 -29.375 C 28.085938 -30.050781 26.648438 -30.640625 25.203125 -31.140625 C 23.765625 -31.648438 22.351562 -31.90625 20.96875 -31.90625 Z M 20.96875 -31.90625 "/></g></g></g><g fill="#d50000" fill-opacity="1"><g transform="translate(451.85863, 524.065203)"><g><path d="M 39.359375 -19.09375 C 39.359375 -16.15625 38.992188 -13.484375 38.265625 -11.078125 C 37.535156 -8.671875 36.425781 -6.597656 34.9375 -4.859375 C 33.457031 -3.128906 31.578125 -1.800781 29.296875 -0.875 C 27.023438 0.0507812 24.335938 0.515625 21.234375 0.515625 C 18.117188 0.515625 15.421875 0.0507812 13.140625 -0.875 C 10.867188 -1.800781 8.988281 -3.128906 7.5 -4.859375 C 6.019531 -6.597656 4.914062 -8.675781 4.1875 -11.09375 C 3.457031 -13.507812 3.09375 -16.191406 3.09375 -19.140625 C 3.09375 -23.085938 3.738281 -26.519531 5.03125 -29.4375 C 6.332031 -32.363281 8.328125 -34.632812 11.015625 -36.25 C 13.710938 -37.863281 17.132812 -38.671875 21.28125 -38.671875 C 25.414062 -38.671875 28.8125 -37.863281 31.46875 -36.25 C 34.132812 -34.632812 36.113281 -32.359375 37.40625 -29.421875 C 38.707031 -26.492188 39.359375 -23.050781 39.359375 -19.09375 Z M 11.5625 -19.09375 C 11.5625 -16.4375 11.894531 -14.144531 12.5625 -12.21875 C 13.238281 -10.300781 14.285156 -8.828125 15.703125 -7.796875 C 17.128906 -6.765625 18.972656 -6.25 21.234375 -6.25 C 23.523438 -6.25 25.378906 -6.765625 26.796875 -7.796875 C 28.222656 -8.828125 29.257812 -10.300781 29.90625 -12.21875 C 30.5625 -14.144531 30.890625 -16.4375 30.890625 -19.09375 C 30.890625 -23.082031 30.140625 -26.222656 28.640625 -28.515625 C 27.148438 -30.804688 24.695312 -31.953125 21.28125 -31.953125 C 19.007812 -31.953125 17.15625 -31.4375 15.71875 -30.40625 C 14.289062 -29.375 13.238281 -27.898438 12.5625 -25.984375 C 11.894531 -24.066406 11.5625 -21.769531 11.5625 -19.09375 Z M 11.5625 -19.09375 "/></g></g></g><g fill="#d50000" fill-opacity="1"><g transform="translate(494.308499, 524.065203)"><g><path d="M 34.671875 -38.078125 L 21.71875 0 L 12.921875 0 L 0 -38.078125 L 8.15625 -38.078125 L 15.3125 -15.421875 C 15.4375 -15.035156 15.632812 -14.316406 15.90625 -13.265625 C 16.1875 -12.210938 16.46875 -11.097656 16.75 -9.921875 C 17.039062 -8.753906 17.238281 -7.789062 17.34375 -7.03125 C 17.445312 -7.789062 17.632812 -8.753906 17.90625 -9.921875 C 18.175781 -11.085938 18.445312 -12.195312 18.71875 -13.25 C 18.988281 -14.300781 19.179688 -15.023438 19.296875 -15.421875 L 26.515625 -38.078125 Z M 34.671875 -38.078125 "/></g></g></g><g fill="#d50000" fill-opacity="1"><g transform="translate(528.97156, 524.065203)"><g><path d="M 26.71875 0 L 4.796875 0 L 4.796875 -38.078125 L 26.71875 -38.078125 L 26.71875 -31.46875 L 12.859375 -31.46875 L 12.859375 -23.109375 L 25.765625 -23.109375 L 25.765625 -16.484375 L 12.859375 -16.484375 L 12.859375 -6.671875 L 26.71875 -6.671875 Z M 26.71875 0 "/></g></g></g><g fill="#d50000" fill-opacity="1"><g transform="translate(558.842734, 524.065203)"><g><path d="M 15.890625 -38.078125 C 19.347656 -38.078125 22.195312 -37.660156 24.4375 -36.828125 C 26.6875 -35.992188 28.359375 -34.734375 29.453125 -33.046875 C 30.546875 -31.367188 31.09375 -29.242188 31.09375 -26.671875 C 31.09375 -24.929688 30.765625 -23.410156 30.109375 -22.109375 C 29.453125 -20.804688 28.582031 -19.703125 27.5 -18.796875 C 26.425781 -17.898438 25.265625 -17.164062 24.015625 -16.59375 L 35.21875 0 L 26.25 0 L 17.171875 -14.609375 L 12.859375 -14.609375 L 12.859375 0 L 4.796875 0 L 4.796875 -38.078125 Z M 15.3125 -31.46875 L 12.859375 -31.46875 L 12.859375 -21.171875 L 15.46875 -21.171875 C 18.144531 -21.171875 20.0625 -21.617188 21.21875 -22.515625 C 22.375 -23.410156 22.953125 -24.726562 22.953125 -26.46875 C 22.953125 -28.269531 22.328125 -29.550781 21.078125 -30.3125 C 19.835938 -31.082031 17.914062 -31.46875 15.3125 -31.46875 Z M 15.3125 -31.46875 "/></g></g></g><g fill="#d50000" fill-opacity="1"><g transform="translate(594.052686, 524.065203)"><g><path d="M 16.640625 -22.40625 L 24.59375 -38.078125 L 33.28125 -38.078125 L 20.65625 -14.828125 L 20.65625 0 L 12.625 0 L 12.625 -14.5625 L 0 -38.078125 L 8.75 -38.078125 Z M 16.640625 -22.40625 "/></g></g></g><g clip-path="url(#d050091ec9)"><path fill="#d50000" d="M 469.175781 187.878906 C 468.964844 187.878906 468.773438 187.824219 468.59375 187.714844 L 435.597656 167.691406 C 435.515625 167.640625 435.441406 167.582031 435.375 167.511719 C 435.308594 167.441406 435.25 167.367188 435.203125 167.28125 C 435.15625 167.199219 435.121094 167.109375 435.097656 167.015625 C 435.070312 166.921875 435.058594 166.828125 435.058594 166.730469 C 435.058594 166.632812 435.074219 166.539062 435.097656 166.445312 C 435.121094 166.351562 435.15625 166.265625 435.207031 166.179688 C 435.253906 166.097656 435.3125 166.019531 435.378906 165.953125 C 435.445312 165.882812 435.519531 165.824219 435.601562 165.773438 L 468.601562 145.9375 C 468.976562 145.714844 469.355469 145.710938 469.734375 145.925781 L 504.445312 165.855469 C 504.820312 166.070312 505.007812 166.394531 505.007812 166.828125 C 505.007812 167.257812 504.820312 167.582031 504.445312 167.800781 L 469.734375 187.730469 C 469.558594 187.828125 469.375 187.878906 469.175781 187.878906 Z M 438.347656 166.738281 L 469.191406 185.457031 L 501.632812 166.828125 L 469.1875 148.199219 Z M 438.347656 166.738281 " fill-opacity="1" fill-rule="nonzero"/></g><path fill="#d50000" d="M 403.878906 249.863281 C 403.6875 249.863281 403.507812 249.816406 403.34375 249.726562 L 369.304688 231.136719 C 368.921875 230.925781 368.726562 230.601562 368.722656 230.164062 C 368.714844 229.730469 368.902344 229.402344 369.28125 229.183594 L 403.164062 209.628906 C 403.527344 209.417969 403.890625 209.414062 404.253906 209.609375 L 438.140625 227.824219 C 438.523438 228.03125 438.722656 228.351562 438.730469 228.789062 C 438.738281 229.226562 438.554688 229.554688 438.179688 229.777344 L 404.449219 249.707031 C 404.273438 249.808594 404.082031 249.863281 403.878906 249.863281 Z M 372.132812 230.128906 L 403.859375 247.453125 L 435.332031 228.859375 L 403.746094 211.878906 Z M 372.132812 230.128906 " fill-opacity="1" fill-rule="nonzero"/><path fill="#d50000" d="M 339.128906 323.8125 C 338.917969 323.8125 338.722656 323.757812 338.546875 323.648438 L 305.550781 303.625 C 305.46875 303.574219 305.394531 303.515625 305.328125 303.445312 C 305.261719 303.375 305.203125 303.300781 305.15625 303.214844 C 305.109375 303.132812 305.074219 303.042969 305.050781 302.949219 C 305.023438 302.855469 305.011719 302.761719 305.011719 302.664062 C 305.011719 302.566406 305.027344 302.472656 305.050781 302.378906 C 305.074219 302.285156 305.109375 302.199219 305.160156 302.113281 C 305.207031 302.03125 305.261719 301.953125 305.332031 301.886719 C 305.398438 301.816406 305.472656 301.757812 305.554688 301.707031 L 338.550781 281.871094 C 338.929688 281.644531 339.304688 281.640625 339.6875 281.859375 L 374.398438 301.789062 C 374.773438 302.003906 374.960938 302.328125 374.960938 302.761719 C 374.960938 303.191406 374.773438 303.515625 374.398438 303.734375 L 339.683594 323.664062 C 339.511719 323.761719 339.328125 323.8125 339.128906 323.8125 Z M 308.300781 302.671875 L 339.140625 321.390625 L 371.585938 302.761719 L 339.140625 284.132812 Z M 308.300781 302.671875 " fill-opacity="1" fill-rule="nonzero"/><path fill="#d50000" d="M 404 337.972656 C 403.851562 337.972656 403.707031 337.945312 403.570312 337.886719 C 403.433594 337.832031 403.3125 337.75 403.207031 337.644531 C 403.101562 337.539062 403.019531 337.417969 402.964844 337.28125 C 402.90625 337.144531 402.878906 337 402.878906 336.851562 L 402.878906 249.515625 C 402.878906 249.367188 402.90625 249.226562 402.964844 249.089844 C 403.019531 248.949219 403.101562 248.828125 403.207031 248.726562 C 403.3125 248.621094 403.433594 248.539062 403.570312 248.480469 C 403.707031 248.425781 403.851562 248.398438 404 248.398438 C 404.148438 248.398438 404.289062 248.425781 404.425781 248.480469 C 404.566406 248.539062 404.6875 248.621094 404.792969 248.726562 C 404.894531 248.828125 404.976562 248.949219 405.035156 249.089844 C 405.089844 249.226562 405.121094 249.367188 405.121094 249.515625 L 405.121094 334.917969 L 436.492188 316.941406 L 436.492188 228.8125 C 436.492188 228.664062 436.519531 228.519531 436.578125 228.382812 C 436.632812 228.246094 436.714844 228.125 436.820312 228.019531 C 436.925781 227.914062 437.046875 227.832031 437.183594 227.777344 C 437.320312 227.71875 437.464844 227.691406 437.613281 227.691406 C 437.761719 227.691406 437.902344 227.71875 438.042969 227.777344 C 438.179688 227.832031 438.300781 227.914062 438.40625 228.019531 C 438.511719 228.125 438.589844 228.246094 438.648438 228.382812 C 438.703125 228.519531 438.734375 228.664062 438.734375 228.8125 L 438.734375 317.589844 C 438.734375 318.023438 438.546875 318.347656 438.167969 318.5625 L 404.554688 337.824219 C 404.382812 337.921875 404.199219 337.972656 404 337.972656 Z M 404 337.972656 " fill-opacity="1" fill-rule="nonzero"/><path fill="#d50000" d="M 436.179688 229.054688 C 436.03125 229.054688 435.890625 229.023438 435.753906 228.96875 C 435.617188 228.910156 435.496094 228.832031 435.390625 228.726562 C 435.285156 228.621094 435.203125 228.5 435.144531 228.363281 C 435.089844 228.226562 435.0625 228.082031 435.0625 227.933594 L 435.0625 166.734375 C 435.0625 166.585938 435.089844 166.441406 435.144531 166.304688 C 435.203125 166.167969 435.285156 166.046875 435.390625 165.941406 C 435.496094 165.835938 435.617188 165.753906 435.753906 165.699219 C 435.890625 165.640625 436.03125 165.613281 436.179688 165.613281 C 436.328125 165.613281 436.472656 165.640625 436.609375 165.699219 C 436.746094 165.753906 436.867188 165.835938 436.972656 165.941406 C 437.078125 166.046875 437.160156 166.167969 437.214844 166.304688 C 437.273438 166.441406 437.300781 166.585938 437.300781 166.734375 L 437.300781 227.933594 C 437.300781 228.082031 437.273438 228.226562 437.214844 228.363281 C 437.160156 228.5 437.078125 228.621094 436.972656 228.726562 C 436.867188 228.832031 436.746094 228.910156 436.609375 228.96875 C 436.472656 229.023438 436.328125 229.054688 436.179688 229.054688 Z M 436.179688 229.054688 " fill-opacity="1" fill-rule="nonzero"/><path fill="#d50000" d="M 470.03125 298.496094 C 469.8125 298.496094 469.613281 298.4375 469.429688 298.316406 L 437.007812 277.53125 C 436.882812 277.449219 436.773438 277.351562 436.683594 277.226562 C 436.597656 277.105469 436.539062 276.972656 436.503906 276.824219 C 436.46875 276.679688 436.464844 276.53125 436.492188 276.382812 C 436.519531 276.234375 436.570312 276.097656 436.652344 275.96875 C 436.734375 275.84375 436.835938 275.738281 436.960938 275.652344 C 437.085938 275.566406 437.21875 275.507812 437.367188 275.476562 C 437.515625 275.449219 437.660156 275.445312 437.808594 275.476562 C 437.957031 275.503906 438.09375 275.558594 438.21875 275.644531 L 468.898438 295.316406 L 468.054688 186.765625 C 468.054688 186.617188 468.082031 186.472656 468.136719 186.335938 C 468.191406 186.199219 468.273438 186.078125 468.375 185.96875 C 468.480469 185.863281 468.601562 185.78125 468.738281 185.722656 C 468.875 185.667969 469.015625 185.636719 469.164062 185.636719 L 469.175781 185.636719 C 469.324219 185.636719 469.464844 185.664062 469.601562 185.71875 C 469.738281 185.777344 469.859375 185.855469 469.964844 185.960938 C 470.070312 186.066406 470.148438 186.1875 470.207031 186.320312 C 470.265625 186.457031 470.292969 186.601562 470.296875 186.75 L 471.152344 297.363281 C 471.152344 297.511719 471.125 297.65625 471.070312 297.792969 C 471.011719 297.933594 470.933594 298.054688 470.828125 298.160156 C 470.722656 298.265625 470.601562 298.347656 470.464844 298.40625 C 470.324219 298.464844 470.179688 298.492188 470.03125 298.492188 Z M 470.03125 298.496094 " fill-opacity="1" fill-rule="nonzero"/><g clip-path="url(#5ef1f4d24c)"><path fill="#d50000" d="M 470.03125 298.496094 C 469.78125 298.496094 469.558594 298.417969 469.359375 298.269531 C 469.15625 298.117188 469.023438 297.921875 468.953125 297.683594 C 468.886719 297.441406 468.894531 297.203125 468.988281 296.972656 C 469.078125 296.738281 469.226562 296.554688 469.441406 296.421875 L 502.765625 275.679688 L 502.765625 166.828125 C 502.765625 166.679688 502.792969 166.535156 502.851562 166.398438 C 502.90625 166.261719 502.988281 166.140625 503.09375 166.035156 C 503.199219 165.929688 503.320312 165.851562 503.457031 165.792969 C 503.59375 165.738281 503.734375 165.707031 503.886719 165.707031 C 504.035156 165.707031 504.175781 165.738281 504.3125 165.792969 C 504.449219 165.851562 504.570312 165.929688 504.675781 166.035156 C 504.78125 166.140625 504.863281 166.261719 504.921875 166.398438 C 504.976562 166.535156 505.003906 166.679688 505.003906 166.828125 L 505.003906 276.300781 C 505.003906 276.714844 504.828125 277.03125 504.476562 277.25 L 470.625 298.324219 C 470.441406 298.4375 470.246094 298.496094 470.03125 298.496094 Z M 470.03125 298.496094 " fill-opacity="1" fill-rule="nonzero"/></g><g clip-path="url(#eaa08ae112)"><path fill="#d50000" d="M 339.128906 373.542969 C 338.980469 373.542969 338.835938 373.511719 338.699219 373.457031 C 338.5625 373.398438 338.441406 373.320312 338.335938 373.214844 C 338.230469 373.109375 338.148438 372.988281 338.09375 372.851562 C 338.035156 372.710938 338.007812 372.570312 338.007812 372.421875 L 338.007812 322.691406 C 338.007812 322.542969 338.035156 322.402344 338.09375 322.261719 C 338.148438 322.125 338.230469 322.003906 338.335938 321.898438 C 338.441406 321.792969 338.5625 321.714844 338.699219 321.65625 C 338.835938 321.601562 338.980469 321.570312 339.128906 321.570312 C 339.277344 321.570312 339.417969 321.601562 339.554688 321.65625 C 339.691406 321.714844 339.8125 321.792969 339.917969 321.898438 C 340.023438 322.003906 340.105469 322.125 340.164062 322.261719 C 340.21875 322.402344 340.246094 322.542969 340.246094 322.691406 L 340.246094 370.484375 L 373.777344 351.183594 L 372.71875 302.785156 C 372.714844 302.636719 372.738281 302.496094 372.792969 302.355469 C 372.847656 302.21875 372.925781 302.09375 373.027344 301.984375 C 373.128906 301.878906 373.25 301.796875 373.386719 301.734375 C 373.523438 301.675781 373.664062 301.644531 373.8125 301.640625 C 373.960938 301.636719 374.105469 301.660156 374.246094 301.714844 C 374.382812 301.769531 374.507812 301.847656 374.613281 301.949219 C 374.722656 302.054688 374.804688 302.171875 374.863281 302.308594 C 374.925781 302.445312 374.957031 302.589844 374.957031 302.738281 L 376.03125 351.800781 C 376.042969 352.242188 375.855469 352.574219 375.472656 352.796875 L 339.6875 373.390625 C 339.511719 373.492188 339.328125 373.542969 339.128906 373.542969 Z M 339.128906 373.542969 " fill-opacity="1" fill-rule="nonzero"/></g><g clip-path="url(#eb4c3abecb)"><path fill="#d50000" d="M 339.125 373.542969 C 338.917969 373.542969 338.722656 373.488281 338.542969 373.378906 L 305.550781 353.210938 C 305.191406 352.992188 305.011719 352.671875 305.011719 352.253906 L 305.011719 302.667969 C 305.011719 302.519531 305.042969 302.375 305.097656 302.238281 C 305.15625 302.101562 305.234375 301.980469 305.339844 301.875 C 305.445312 301.769531 305.566406 301.6875 305.703125 301.632812 C 305.84375 301.574219 305.984375 301.546875 306.132812 301.546875 C 306.28125 301.546875 306.425781 301.574219 306.5625 301.632812 C 306.699219 301.6875 306.820312 301.769531 306.925781 301.875 C 307.03125 301.980469 307.113281 302.101562 307.167969 302.238281 C 307.226562 302.375 307.253906 302.519531 307.253906 302.667969 L 307.253906 351.621094 L 339.710938 371.460938 C 339.925781 371.59375 340.078125 371.773438 340.171875 372.007812 C 340.261719 372.242188 340.273438 372.480469 340.207031 372.722656 C 340.136719 372.964844 340.003906 373.160156 339.804688 373.3125 C 339.601562 373.464844 339.375 373.539062 339.125 373.539062 Z M 339.125 373.542969 " fill-opacity="1" fill-rule="nonzero"/></g><path fill="#d50000" d="M 368.953125 301.078125 L 368.941406 301.078125 C 368.789062 301.074219 368.648438 301.042969 368.511719 300.984375 C 368.375 300.925781 368.253906 300.84375 368.152344 300.738281 C 368.046875 300.632812 367.96875 300.507812 367.914062 300.371094 C 367.859375 300.234375 367.832031 300.089844 367.832031 299.941406 L 368.722656 230.140625 C 368.726562 229.992188 368.753906 229.851562 368.8125 229.714844 C 368.871094 229.582031 368.953125 229.460938 369.058594 229.359375 C 369.160156 229.253906 369.28125 229.175781 369.417969 229.117188 C 369.554688 229.0625 369.695312 229.035156 369.84375 229.035156 L 369.859375 229.035156 C 370.007812 229.035156 370.148438 229.066406 370.285156 229.125 C 370.421875 229.183594 370.542969 229.265625 370.648438 229.371094 C 370.75 229.480469 370.828125 229.601562 370.886719 229.738281 C 370.941406 229.878906 370.964844 230.019531 370.964844 230.167969 L 370.074219 299.96875 C 370.074219 300.117188 370.042969 300.257812 369.984375 300.394531 C 369.925781 300.53125 369.847656 300.648438 369.742188 300.753906 C 369.636719 300.855469 369.515625 300.9375 369.378906 300.992188 C 369.242188 301.050781 369.101562 301.078125 368.953125 301.078125 Z M 368.953125 301.078125 " fill-opacity="1" fill-rule="nonzero"/><path fill="#d50000" d="M 404 337.972656 C 403.789062 337.972656 403.597656 337.917969 403.417969 337.808594 L 373.605469 319.714844 C 373.480469 319.636719 373.371094 319.539062 373.285156 319.417969 C 373.195312 319.300781 373.136719 319.167969 373.097656 319.023438 C 373.0625 318.878906 373.058594 318.734375 373.082031 318.585938 C 373.101562 318.441406 373.152344 318.300781 373.230469 318.175781 C 373.308594 318.046875 373.40625 317.941406 373.523438 317.851562 C 373.644531 317.765625 373.777344 317.703125 373.921875 317.667969 C 374.066406 317.632812 374.210938 317.625 374.359375 317.648438 C 374.503906 317.671875 374.640625 317.722656 374.769531 317.796875 L 404.578125 335.894531 C 404.792969 336.023438 404.949219 336.207031 405.039062 336.441406 C 405.132812 336.675781 405.144531 336.914062 405.078125 337.15625 C 405.007812 337.398438 404.875 337.59375 404.675781 337.746094 C 404.476562 337.898438 404.25 337.972656 404 337.972656 Z M 404 337.972656 " fill-opacity="1" fill-rule="nonzero"/><path fill="#d50000" d="M 384.070312 210.511719 C 382.296875 210.546875 380.5625 210.320312 378.859375 209.828125 C 377.160156 209.339844 375.566406 208.609375 374.085938 207.636719 C 361.996094 199.5 363.164062 176.523438 376.691406 156.421875 C 383.191406 146.765625 391.535156 139.175781 400.199219 135.050781 C 409.054688 130.832031 417.207031 130.714844 423.15625 134.71875 C 435.25 142.855469 434.082031 165.832031 420.550781 185.933594 C 410.265625 201.21875 395.75 210.511719 384.070312 210.511719 Z M 413.074219 134.042969 C 408.875 134.160156 404.90625 135.171875 401.160156 137.074219 C 392.859375 141.03125 384.828125 148.34375 378.550781 157.671875 C 365.710938 176.75 364.269531 198.332031 375.339844 205.777344 C 386.410156 213.222656 405.855469 203.757812 418.695312 184.683594 C 431.535156 165.605469 432.976562 144.023438 421.90625 136.578125 C 420.597656 135.71875 419.1875 135.074219 417.683594 134.640625 C 416.175781 134.210938 414.640625 134.007812 413.074219 134.042969 Z M 419.621094 185.308594 Z M 419.621094 185.308594 " fill-opacity="1" fill-rule="nonzero"/><path fill="#d50000" d="M 387.453125 201.015625 C 385.113281 201.058594 382.964844 200.441406 381.011719 199.15625 C 376.914062 196.402344 375.042969 190.957031 375.75 183.835938 C 376.429688 176.964844 379.433594 169.269531 384.210938 162.175781 C 388.988281 155.078125 394.984375 149.394531 401.09375 146.179688 C 407.425781 142.84375 413.167969 142.527344 417.265625 145.28125 C 425.636719 150.914062 424.230469 167.160156 414.066406 182.265625 C 409.289062 189.359375 403.296875 195.042969 397.1875 198.261719 C 394.167969 199.972656 390.921875 200.890625 387.453125 201.015625 Z M 410.8125 145.664062 C 407.71875 145.789062 404.824219 146.621094 402.136719 148.160156 C 396.347656 151.207031 390.640625 156.628906 386.066406 163.421875 C 381.496094 170.21875 378.621094 177.546875 377.976562 184.054688 C 377.359375 190.316406 378.882812 195.019531 382.261719 197.292969 C 385.644531 199.570312 390.570312 199.210938 396.144531 196.277344 C 401.933594 193.230469 407.640625 187.808594 412.210938 181.015625 C 421.515625 167.1875 423.222656 151.992188 416.015625 147.144531 C 414.433594 146.113281 412.699219 145.621094 410.8125 145.664062 Z M 410.8125 145.664062 " fill-opacity="1" fill-rule="nonzero"/><path fill="#d50000" d="M 374.113281 207.402344 C 373.871094 207.402344 373.65625 207.332031 373.460938 207.191406 C 372.164062 206.265625 370.945312 205.355469 369.65625 204.390625 C 368.261719 203.34375 366.820312 202.269531 365.199219 201.113281 C 353.140625 192.515625 354.292969 170.023438 367.828125 149.910156 C 374.328125 140.257812 382.671875 132.667969 391.335938 128.542969 C 400.191406 124.320312 408.34375 124.210938 414.292969 128.210938 C 416.050781 129.394531 417.886719 130.777344 419.65625 132.117188 C 420.828125 133 422.039062 133.914062 423.1875 134.738281 C 423.304688 134.824219 423.40625 134.929688 423.484375 135.058594 C 423.5625 135.183594 423.613281 135.320312 423.636719 135.464844 C 423.664062 135.613281 423.65625 135.757812 423.625 135.902344 C 423.589844 136.046875 423.527344 136.179688 423.441406 136.300781 C 423.355469 136.421875 423.25 136.523438 423.125 136.601562 C 422.996094 136.679688 422.859375 136.730469 422.714844 136.753906 C 422.566406 136.777344 422.421875 136.773438 422.277344 136.738281 C 422.132812 136.707031 422 136.644531 421.878906 136.558594 C 420.707031 135.71875 419.488281 134.796875 418.304688 133.902344 C 416.558594 132.582031 414.75 131.214844 413.042969 130.070312 C 407.777344 126.523438 400.40625 126.699219 392.300781 130.566406 C 383.992188 134.523438 375.964844 141.835938 369.6875 151.164062 C 357.050781 169.941406 355.621094 191.53125 366.5 199.285156 C 368.140625 200.460938 369.59375 201.546875 371 202.597656 C 372.277344 203.550781 373.484375 204.457031 374.765625 205.367188 C 374.960938 205.511719 375.101562 205.695312 375.175781 205.929688 C 375.253906 206.160156 375.253906 206.390625 375.179688 206.621094 C 375.105469 206.855469 374.96875 207.042969 374.773438 207.1875 C 374.574219 207.328125 374.355469 207.402344 374.113281 207.402344 Z M 374.113281 207.402344 " fill-opacity="1" fill-rule="nonzero"/><path fill="#d50000" d="M 406.9375 134.878906 C 406.742188 134.878906 406.558594 134.828125 406.390625 134.734375 L 395.757812 128.734375 C 395.636719 128.65625 395.53125 128.558594 395.445312 128.445312 C 395.359375 128.328125 395.300781 128.199219 395.265625 128.058594 C 395.226562 127.917969 395.21875 127.777344 395.238281 127.632812 C 395.257812 127.492188 395.304688 127.355469 395.375 127.230469 C 395.445312 127.105469 395.539062 126.996094 395.648438 126.90625 C 395.761719 126.816406 395.890625 126.75 396.027344 126.707031 C 396.164062 126.667969 396.308594 126.652344 396.449219 126.664062 C 396.59375 126.679688 396.730469 126.71875 396.859375 126.785156 L 407.492188 132.78125 C 407.714844 132.90625 407.875 133.089844 407.972656 133.324219 C 408.074219 133.558594 408.089844 133.796875 408.023438 134.042969 C 407.960938 134.292969 407.828125 134.492188 407.625 134.648438 C 407.421875 134.804688 407.195312 134.878906 406.9375 134.878906 Z M 406.9375 134.878906 " fill-opacity="1" fill-rule="nonzero"/><path fill="#d50000" d="M 395.230469 140.285156 C 395.019531 140.285156 394.824219 140.230469 394.644531 140.117188 L 384.964844 134.148438 C 384.839844 134.070312 384.734375 133.972656 384.644531 133.851562 C 384.558594 133.730469 384.496094 133.597656 384.464844 133.453125 C 384.429688 133.308594 384.421875 133.164062 384.449219 133.015625 C 384.472656 132.871094 384.523438 132.734375 384.601562 132.605469 C 384.679688 132.480469 384.777344 132.375 384.898438 132.285156 C 385.019531 132.199219 385.152344 132.140625 385.296875 132.105469 C 385.441406 132.070312 385.585938 132.066406 385.734375 132.089844 C 385.878906 132.113281 386.015625 132.164062 386.144531 132.242188 L 395.820312 138.210938 C 396.035156 138.34375 396.1875 138.523438 396.277344 138.757812 C 396.367188 138.992188 396.378906 139.230469 396.308594 139.46875 C 396.242188 139.710938 396.105469 139.90625 395.90625 140.058594 C 395.707031 140.210938 395.480469 140.285156 395.230469 140.285156 Z M 395.230469 140.285156 " fill-opacity="1" fill-rule="nonzero"/><path fill="#d50000" d="M 386.421875 147.488281 C 386.191406 147.488281 385.984375 147.425781 385.796875 147.296875 L 376.625 141.097656 C 376.503906 141.011719 376.40625 140.90625 376.328125 140.785156 C 376.25 140.660156 376.199219 140.527344 376.171875 140.382812 C 376.144531 140.238281 376.148438 140.097656 376.179688 139.953125 C 376.207031 139.808594 376.265625 139.679688 376.347656 139.558594 C 376.425781 139.4375 376.527344 139.335938 376.652344 139.253906 C 376.773438 139.171875 376.90625 139.117188 377.046875 139.085938 C 377.191406 139.058594 377.332031 139.054688 377.476562 139.082031 C 377.621094 139.109375 377.753906 139.160156 377.878906 139.242188 L 387.050781 145.441406 C 387.253906 145.578125 387.398438 145.761719 387.480469 145.996094 C 387.5625 146.226562 387.566406 146.460938 387.492188 146.699219 C 387.421875 146.933594 387.285156 147.125 387.085938 147.269531 C 386.890625 147.417969 386.667969 147.488281 386.421875 147.488281 Z M 386.421875 147.488281 " fill-opacity="1" fill-rule="nonzero"/><path fill="#d50000" d="M 378.351562 157.183594 C 378.117188 157.183594 377.90625 157.117188 377.714844 156.984375 L 368.671875 150.710938 C 368.550781 150.625 368.449219 150.519531 368.367188 150.394531 C 368.289062 150.269531 368.234375 150.136719 368.207031 149.988281 C 368.179688 149.84375 368.183594 149.695312 368.214844 149.550781 C 368.246094 149.40625 368.304688 149.273438 368.390625 149.152344 C 368.472656 149.027344 368.578125 148.929688 368.703125 148.847656 C 368.828125 148.765625 368.964844 148.714844 369.109375 148.6875 C 369.257812 148.660156 369.402344 148.664062 369.546875 148.695312 C 369.691406 148.726562 369.828125 148.785156 369.949219 148.867188 L 378.992188 155.144531 C 379.191406 155.285156 379.332031 155.46875 379.414062 155.699219 C 379.492188 155.933594 379.496094 156.164062 379.421875 156.398438 C 379.347656 156.632812 379.214844 156.824219 379.015625 156.96875 C 378.816406 157.113281 378.597656 157.1875 378.351562 157.183594 Z M 378.351562 157.183594 " fill-opacity="1" fill-rule="nonzero"/><path fill="#d50000" d="M 372.242188 166.539062 C 372.007812 166.542969 371.792969 166.476562 371.601562 166.339844 L 363.058594 160.414062 C 362.933594 160.328125 362.835938 160.226562 362.753906 160.101562 C 362.671875 159.976562 362.621094 159.839844 362.59375 159.691406 C 362.566406 159.546875 362.570312 159.402344 362.601562 159.257812 C 362.632812 159.109375 362.691406 158.976562 362.777344 158.855469 C 362.859375 158.734375 362.964844 158.632812 363.089844 158.550781 C 363.214844 158.472656 363.351562 158.417969 363.496094 158.390625 C 363.644531 158.363281 363.789062 158.367188 363.933594 158.398438 C 364.078125 158.429688 364.210938 158.488281 364.335938 158.574219 L 372.878906 164.5 C 373.082031 164.640625 373.222656 164.824219 373.300781 165.058594 C 373.378906 165.289062 373.382812 165.523438 373.308594 165.753906 C 373.238281 165.988281 373.101562 166.179688 372.902344 166.324219 C 372.707031 166.46875 372.484375 166.542969 372.242188 166.539062 Z M 372.242188 166.539062 " fill-opacity="1" fill-rule="nonzero"/><path fill="#d50000" d="M 368.214844 178.570312 C 367.984375 178.570312 367.769531 178.503906 367.578125 178.371094 L 358.71875 172.226562 C 358.597656 172.140625 358.496094 172.039062 358.414062 171.914062 C 358.335938 171.789062 358.28125 171.652344 358.253906 171.503906 C 358.230469 171.359375 358.230469 171.214844 358.261719 171.066406 C 358.292969 170.921875 358.351562 170.789062 358.4375 170.667969 C 358.523438 170.542969 358.625 170.441406 358.75 170.363281 C 358.875 170.28125 359.011719 170.230469 359.160156 170.203125 C 359.304688 170.175781 359.453125 170.179688 359.597656 170.210938 C 359.742188 170.242188 359.875 170.300781 359.996094 170.386719 L 368.855469 176.53125 C 369.058594 176.671875 369.199219 176.855469 369.277344 177.089844 C 369.355469 177.320312 369.359375 177.554688 369.285156 177.789062 C 369.210938 178.019531 369.078125 178.210938 368.878906 178.355469 C 368.683594 178.5 368.460938 178.574219 368.214844 178.574219 Z M 368.214844 178.570312 " fill-opacity="1" fill-rule="nonzero"/><path fill="#d50000" d="M 366.8125 190.691406 C 366.578125 190.691406 366.367188 190.625 366.175781 190.492188 L 357.421875 184.417969 C 357.296875 184.335938 357.191406 184.230469 357.109375 184.105469 C 357.023438 183.980469 356.96875 183.84375 356.941406 183.695312 C 356.910156 183.546875 356.914062 183.398438 356.945312 183.253906 C 356.976562 183.105469 357.035156 182.96875 357.121094 182.84375 C 357.207031 182.722656 357.3125 182.621094 357.441406 182.539062 C 357.566406 182.457031 357.707031 182.40625 357.855469 182.378906 C 358.003906 182.355469 358.148438 182.359375 358.296875 182.394531 C 358.445312 182.429688 358.578125 182.488281 358.699219 182.578125 L 367.453125 188.648438 C 367.65625 188.789062 367.796875 188.976562 367.875 189.207031 C 367.953125 189.4375 367.957031 189.671875 367.882812 189.90625 C 367.8125 190.140625 367.675781 190.328125 367.476562 190.472656 C 367.28125 190.617188 367.058594 190.691406 366.8125 190.691406 Z M 366.8125 190.691406 " fill-opacity="1" fill-rule="nonzero"/><g clip-path="url(#01d6e645b0)"><g clip-path="url(#ede80bafcf)"><path fill="#d50000" d="M 400.21875 158.15625 C 399.816406 158.417969 399.496094 158.753906 399.253906 159.167969 C 399.011719 159.582031 398.878906 160.027344 398.847656 160.503906 C 398.84375 160.730469 398.847656 160.945312 398.847656 161.148438 C 398.847656 161.390625 398.839844 161.402344 398.640625 161.554688 C 397.800781 162.203125 397.0625 162.949219 396.425781 163.796875 C 395.492188 165 394.859375 166.34375 394.519531 167.832031 C 394.3125 168.789062 394.277344 169.753906 394.414062 170.722656 C 394.449219 171.554688 394.804688 172.210938 395.484375 172.691406 C 395.824219 172.875 396.183594 173.007812 396.558594 173.078125 C 397.535156 173.230469 398.507812 173.199219 399.472656 172.988281 C 400.105469 172.851562 400.742188 172.835938 401.378906 172.9375 C 401.613281 172.972656 401.816406 173.074219 401.980469 173.246094 C 402.148438 173.414062 402.246094 173.617188 402.277344 173.851562 C 402.339844 174.21875 402.363281 174.585938 402.347656 174.953125 C 402.269531 176.027344 401.839844 176.929688 401.054688 177.664062 C 400.734375 177.96875 400.386719 178.230469 400.007812 178.457031 C 399.667969 178.65625 399.304688 178.800781 398.921875 178.882812 C 398.773438 178.9375 398.625 178.957031 398.46875 178.945312 C 398.316406 178.9375 398.167969 178.894531 398.03125 178.820312 C 397.894531 178.75 397.777344 178.652344 397.683594 178.53125 C 397.585938 178.410156 397.519531 178.273438 397.480469 178.121094 C 397.398438 177.84375 397.34375 177.5625 397.3125 177.277344 C 397.273438 176.976562 397.042969 176.867188 396.757812 177.015625 C 396.675781 177.054688 396.589844 177.105469 396.507812 177.152344 L 394.683594 178.207031 C 394.5625 178.273438 394.4375 178.347656 394.320312 178.421875 C 394.128906 178.523438 393.980469 178.671875 393.878906 178.863281 C 393.777344 179.054688 393.734375 179.257812 393.753906 179.472656 C 393.765625 179.570312 393.777344 179.667969 393.785156 179.769531 C 393.808594 180.398438 393.957031 180.996094 394.222656 181.5625 C 394.453125 182.003906 394.789062 182.335938 395.226562 182.5625 C 395.667969 182.792969 396.132812 182.871094 396.625 182.804688 C 397.140625 182.789062 397.640625 182.6875 398.121094 182.507812 C 398.90625 182.238281 398.90625 182.058594 398.90625 182.5 L 398.90625 182.921875 C 398.90625 183.796875 399.527344 184.144531 400.28125 183.710938 L 400.296875 183.699219 L 400.304688 183.699219 C 400.703125 183.4375 401.019531 183.097656 401.257812 182.683594 C 401.5 182.269531 401.632812 181.824219 401.65625 181.347656 L 401.65625 180.832031 C 401.65625 180.535156 401.65625 180.523438 401.917969 180.3125 C 402.535156 179.816406 403.097656 179.257812 403.601562 178.644531 C 404.683594 177.378906 405.40625 175.929688 405.765625 174.304688 C 405.925781 173.554688 405.980469 172.796875 405.933594 172.03125 C 405.910156 171.375 405.761719 170.753906 405.484375 170.164062 C 405.300781 169.828125 405.054688 169.558594 404.738281 169.347656 C 404.421875 169.136719 404.078125 169.007812 403.699219 168.96875 C 402.769531 168.828125 401.847656 168.859375 400.929688 169.050781 C 400.214844 169.203125 399.503906 169.207031 398.789062 169.070312 C 398.597656 169.027344 398.433594 168.941406 398.292969 168.800781 C 398.15625 168.664062 398.066406 168.496094 398.027344 168.304688 C 397.851562 167.5625 397.890625 166.828125 398.144531 166.109375 C 398.34375 165.441406 398.699219 164.871094 399.21875 164.40625 C 399.46875 164.179688 399.738281 163.980469 400.03125 163.808594 C 400.113281 163.761719 400.195312 163.71875 400.277344 163.679688 C 401.140625 163.257812 401.773438 163.375 402.09375 164.132812 C 402.207031 164.417969 402.277344 164.714844 402.3125 165.019531 C 402.355469 165.425781 402.582031 165.5 402.925781 165.300781 L 402.953125 165.285156 C 403.082031 165.207031 403.210938 165.128906 403.339844 165.058594 C 403.597656 164.910156 403.855469 164.765625 404.117188 164.617188 L 404.117188 164.609375 C 404.394531 164.449219 404.671875 164.292969 404.949219 164.132812 C 405.089844 164.054688 405.226562 163.972656 405.367188 163.890625 C 405.714844 163.695312 405.878906 163.402344 405.867188 163.003906 C 405.835938 162.582031 405.78125 162.167969 405.699219 161.753906 C 405.632812 161.246094 405.433594 160.800781 405.097656 160.417969 C 404.761719 160.03125 404.347656 159.773438 403.855469 159.640625 C 403.164062 159.5 402.488281 159.550781 401.824219 159.789062 C 401.695312 159.828125 401.601562 159.753906 401.601562 159.601562 L 401.601562 158.945312 C 401.601562 158.074219 400.980469 157.722656 400.222656 158.160156 " fill-opacity="1" fill-rule="nonzero"/></g></g><g clip-path="url(#0dc6bca138)"><g clip-path="url(#658c77eaa0)"><path fill="#d50000" d="M -8.925781 577.398438 L 818.8125 577.398438 L 818.8125 810 L -8.925781 810 Z M -8.925781 577.398438 " fill-opacity="1" fill-rule="nonzero"/></g></g></svg>