<svg xmlns="http://www.w3.org/2000/svg" xmlns:xlink="http://www.w3.org/1999/xlink" width="1920" zoomAndPan="magnify" viewBox="0 0 1440 809.999993" height="1080" preserveAspectRatio="xMidYMid meet" version="1.0"><defs><g/><clipPath id="33702f6eb2"><path d="M 397.675781 321.007812 L 1042.703125 321.007812 L 1042.703125 488.992188 L 397.675781 488.992188 Z M 397.675781 321.007812 " clip-rule="nonzero"/></clipPath><clipPath id="c971ebfb77"><path d="M 958.332031 321.007812 C 1004.71875 321.007812 1042.324219 358.613281 1042.324219 405 C 1042.324219 451.386719 1004.71875 488.992188 958.332031 488.992188 L 481.667969 488.992188 C 435.28125 488.992188 397.675781 451.386719 397.675781 405 C 397.675781 358.613281 435.28125 321.007812 481.667969 321.007812 Z M 958.332031 321.007812 " clip-rule="nonzero"/></clipPath><clipPath id="74d723177d"><path d="M 399.648438 326.742188 L 557.59375 326.742188 L 557.59375 484.683594 L 399.648438 484.683594 Z M 399.648438 326.742188 " clip-rule="nonzero"/></clipPath><clipPath id="a82d6de86a"><path d="M 478.621094 326.742188 C 435.007812 326.742188 399.648438 362.097656 399.648438 405.714844 C 399.648438 449.328125 435.007812 484.683594 478.621094 484.683594 C 522.238281 484.683594 557.59375 449.328125 557.59375 405.714844 C 557.59375 362.097656 522.238281 326.742188 478.621094 326.742188 Z M 478.621094 326.742188 " clip-rule="nonzero"/></clipPath><clipPath id="873d619675"><path d="M 493 351 L 528.824219 351 L 528.824219 373 L 493 373 Z M 493 351 " clip-rule="nonzero"/></clipPath><clipPath id="3096ae191c"><path d="M 428.324219 419 L 464 419 L 464 442 L 428.324219 442 Z M 428.324219 419 " clip-rule="nonzero"/></clipPath><clipPath id="1536b22ec6"><path d="M 510 361 L 528.824219 361 L 528.824219 429 L 510 429 Z M 510 361 " clip-rule="nonzero"/></clipPath><clipPath id="c4317a7241"><path d="M 444 429 L 465 429 L 465 466 L 444 466 Z M 444 429 " clip-rule="nonzero"/></clipPath><clipPath id="3482be91d0"><path d="M 428.324219 429 L 447 429 L 447 466 L 428.324219 466 Z M 428.324219 429 " clip-rule="nonzero"/></clipPath><clipPath id="e67c2db504"><path d="M 472.667969 357 L 479.425781 357 L 479.425781 371 L 472.667969 371 Z M 472.667969 357 " clip-rule="nonzero"/></clipPath><clipPath id="7c2450aa5c"><path d="M 472.976562 372.539062 L 472.941406 359.691406 L 479.066406 356.15625 L 479.101562 369 Z M 472.976562 372.539062 " clip-rule="nonzero"/></clipPath></defs><g clip-path="url(#33702f6eb2)"><g clip-path="url(#c971ebfb77)"><path fill="#414141" d="M 397.675781 321.007812 L 1042.046875 321.007812 L 1042.046875 488.992188 L 397.675781 488.992188 Z M 397.675781 321.007812 " fill-opacity="1" fill-rule="nonzero"/></g></g><g clip-path="url(#74d723177d)"><g clip-path="url(#a82d6de86a)"><path fill="#ffffff" d="M 399.648438 326.742188 L 557.59375 326.742188 L 557.59375 484.683594 L 399.648438 484.683594 Z M 399.648438 326.742188 " fill-opacity="1" fill-rule="nonzero"/></g></g><g clip-path="url(#873d619675)"><path fill="#d50000" d="M 510.886719 372.742188 C 510.78125 372.742188 510.683594 372.714844 510.59375 372.660156 L 494.003906 362.59375 C 493.921875 362.542969 493.855469 362.472656 493.804688 362.386719 C 493.757812 362.300781 493.734375 362.210938 493.734375 362.109375 C 493.734375 362.011719 493.757812 361.921875 493.808594 361.835938 C 493.855469 361.75 493.921875 361.679688 494.007812 361.628906 L 510.597656 351.65625 C 510.785156 351.542969 510.976562 351.542969 511.167969 351.652344 L 528.617188 361.671875 C 528.804688 361.78125 528.898438 361.941406 528.898438 362.160156 C 528.898438 362.378906 528.804688 362.539062 528.617188 362.648438 L 511.164062 372.667969 C 511.078125 372.71875 510.984375 372.742188 510.886719 372.742188 Z M 495.386719 362.113281 L 510.894531 371.527344 L 527.203125 362.160156 L 510.890625 352.792969 Z M 495.386719 362.113281 " fill-opacity="1" fill-rule="nonzero"/></g><path fill="#d50000" d="M 478.058594 403.90625 C 477.960938 403.90625 477.871094 403.882812 477.789062 403.835938 L 460.675781 394.492188 C 460.484375 394.386719 460.386719 394.222656 460.382812 394.003906 C 460.378906 393.785156 460.472656 393.617188 460.664062 393.507812 L 477.699219 383.675781 C 477.878906 383.574219 478.0625 383.570312 478.246094 383.667969 L 495.28125 392.828125 C 495.476562 392.929688 495.574219 393.089844 495.578125 393.3125 C 495.582031 393.53125 495.492188 393.695312 495.300781 393.808594 L 478.34375 403.828125 C 478.257812 403.878906 478.160156 403.90625 478.058594 403.90625 Z M 462.097656 393.984375 L 478.046875 402.695312 L 493.871094 393.34375 L 477.992188 384.808594 Z M 462.097656 393.984375 " fill-opacity="1" fill-rule="nonzero"/><g clip-path="url(#3096ae191c)"><path fill="#d50000" d="M 445.503906 441.082031 C 445.398438 441.085938 445.300781 441.058594 445.210938 441.003906 L 428.625 430.933594 C 428.539062 430.882812 428.472656 430.816406 428.425781 430.730469 C 428.378906 430.644531 428.351562 430.550781 428.351562 430.453125 C 428.351562 430.351562 428.378906 430.261719 428.425781 430.175781 C 428.476562 430.089844 428.542969 430.019531 428.625 429.96875 L 445.214844 420 C 445.402344 419.882812 445.59375 419.882812 445.785156 419.992188 L 463.238281 430.011719 C 463.425781 430.121094 463.519531 430.285156 463.519531 430.5 C 463.519531 430.71875 463.425781 430.878906 463.238281 430.988281 L 445.785156 441.007812 C 445.699219 441.058594 445.605469 441.085938 445.503906 441.082031 Z M 430.003906 430.453125 L 445.511719 439.867188 L 461.824219 430.5 L 445.511719 421.132812 Z M 430.003906 430.453125 " fill-opacity="1" fill-rule="nonzero"/></g><path fill="#d50000" d="M 478.117188 448.203125 C 477.960938 448.203125 477.828125 448.148438 477.71875 448.039062 C 477.609375 447.929688 477.554688 447.796875 477.554688 447.640625 L 477.554688 403.730469 C 477.554688 403.578125 477.609375 403.445312 477.71875 403.332031 C 477.828125 403.222656 477.960938 403.167969 478.117188 403.167969 C 478.273438 403.167969 478.40625 403.222656 478.515625 403.332031 C 478.625 403.445312 478.679688 403.578125 478.679688 403.730469 L 478.679688 446.667969 L 494.453125 437.628906 L 494.453125 393.324219 C 494.453125 393.167969 494.507812 393.035156 494.621094 392.925781 C 494.730469 392.8125 494.863281 392.757812 495.019531 392.757812 C 495.171875 392.757812 495.304688 392.8125 495.414062 392.925781 C 495.527344 393.035156 495.582031 393.167969 495.582031 393.324219 L 495.582031 437.957031 C 495.582031 438.171875 495.484375 438.335938 495.296875 438.445312 L 478.398438 448.128906 C 478.3125 448.179688 478.21875 448.203125 478.117188 448.203125 Z M 478.117188 448.203125 " fill-opacity="1" fill-rule="nonzero"/><path fill="#d50000" d="M 494.296875 393.445312 C 494.140625 393.445312 494.007812 393.390625 493.898438 393.277344 C 493.789062 393.167969 493.734375 393.035156 493.734375 392.878906 L 493.734375 362.113281 C 493.734375 361.957031 493.789062 361.824219 493.898438 361.714844 C 494.007812 361.605469 494.140625 361.550781 494.296875 361.550781 C 494.453125 361.550781 494.585938 361.605469 494.695312 361.714844 C 494.804688 361.824219 494.863281 361.957031 494.863281 362.113281 L 494.863281 392.878906 C 494.863281 393.035156 494.804688 393.167969 494.695312 393.277344 C 494.585938 393.390625 494.453125 393.445312 494.296875 393.445312 Z M 494.296875 393.445312 " fill-opacity="1" fill-rule="nonzero"/><path fill="#d50000" d="M 511.316406 428.355469 C 511.207031 428.355469 511.105469 428.324219 511.011719 428.265625 L 494.714844 417.816406 C 494.578125 417.734375 494.496094 417.613281 494.460938 417.460938 C 494.425781 417.308594 494.449219 417.164062 494.535156 417.03125 C 494.621094 416.898438 494.738281 416.816406 494.894531 416.785156 C 495.046875 416.75 495.191406 416.777344 495.320312 416.867188 L 510.746094 426.757812 L 510.320312 372.183594 C 510.320312 372.027344 510.375 371.894531 510.484375 371.785156 C 510.59375 371.671875 510.726562 371.617188 510.878906 371.617188 L 510.886719 371.617188 C 511.039062 371.617188 511.171875 371.671875 511.28125 371.777344 C 511.390625 371.886719 511.449219 372.019531 511.449219 372.175781 L 511.878906 427.785156 C 511.882812 427.941406 511.828125 428.078125 511.714844 428.1875 C 511.605469 428.296875 511.472656 428.355469 511.316406 428.355469 Z M 511.316406 428.355469 " fill-opacity="1" fill-rule="nonzero"/><g clip-path="url(#1536b22ec6)"><path fill="#d50000" d="M 511.316406 428.355469 C 511.035156 428.355469 510.851562 428.21875 510.773438 427.945312 C 510.695312 427.675781 510.777344 427.464844 511.019531 427.3125 L 527.773438 416.882812 L 527.773438 362.160156 C 527.773438 362.003906 527.828125 361.871094 527.9375 361.761719 C 528.046875 361.652344 528.179688 361.597656 528.335938 361.597656 C 528.492188 361.597656 528.625 361.652344 528.734375 361.761719 C 528.84375 361.871094 528.898438 362.003906 528.898438 362.160156 L 528.898438 417.199219 C 528.898438 417.40625 528.8125 417.566406 528.632812 417.675781 L 511.613281 428.269531 C 511.523438 428.328125 511.425781 428.355469 511.316406 428.355469 Z M 511.316406 428.355469 " fill-opacity="1" fill-rule="nonzero"/></g><g clip-path="url(#c4317a7241)"><path fill="#d50000" d="M 445.503906 466.085938 C 445.347656 466.085938 445.214844 466.03125 445.105469 465.921875 C 444.996094 465.808594 444.941406 465.675781 444.941406 465.523438 L 444.941406 440.519531 C 444.941406 440.363281 444.996094 440.230469 445.105469 440.121094 C 445.214844 440.011719 445.347656 439.957031 445.503906 439.957031 C 445.660156 439.957031 445.792969 440.011719 445.902344 440.121094 C 446.011719 440.230469 446.066406 440.363281 446.066406 440.519531 L 446.066406 464.546875 L 462.925781 454.84375 L 462.390625 430.511719 C 462.386719 430.359375 462.441406 430.222656 462.546875 430.109375 C 462.65625 430 462.785156 429.941406 462.941406 429.9375 C 463.097656 429.933594 463.230469 429.984375 463.34375 430.09375 C 463.457031 430.199219 463.515625 430.332031 463.519531 430.488281 L 464.058594 455.15625 C 464.0625 455.378906 463.96875 455.542969 463.777344 455.65625 L 445.785156 466.011719 C 445.699219 466.058594 445.605469 466.085938 445.503906 466.085938 Z M 445.503906 466.085938 " fill-opacity="1" fill-rule="nonzero"/></g><g clip-path="url(#3482be91d0)"><path fill="#d50000" d="M 445.503906 466.085938 C 445.398438 466.085938 445.300781 466.058594 445.210938 466.003906 L 428.621094 455.863281 C 428.441406 455.753906 428.351562 455.59375 428.351562 455.382812 L 428.351562 430.453125 C 428.351562 430.296875 428.40625 430.164062 428.519531 430.054688 C 428.628906 429.945312 428.761719 429.890625 428.917969 429.890625 C 429.070312 429.890625 429.203125 429.945312 429.316406 430.054688 C 429.425781 430.164062 429.480469 430.296875 429.480469 430.453125 L 429.480469 455.066406 L 445.796875 465.039062 C 446.039062 465.1875 446.125 465.398438 446.046875 465.671875 C 445.96875 465.949219 445.789062 466.085938 445.503906 466.082031 Z M 445.503906 466.085938 " fill-opacity="1" fill-rule="nonzero"/></g><path fill="#d50000" d="M 460.5 429.652344 L 460.492188 429.652344 C 460.335938 429.652344 460.203125 429.59375 460.097656 429.484375 C 459.988281 429.371094 459.933594 429.238281 459.9375 429.082031 L 460.382812 393.992188 C 460.386719 393.835938 460.441406 393.703125 460.550781 393.597656 C 460.660156 393.488281 460.792969 393.433594 460.945312 393.433594 L 460.953125 393.433594 C 461.109375 393.4375 461.242188 393.492188 461.351562 393.605469 C 461.460938 393.714844 461.511719 393.847656 461.511719 394.003906 L 461.0625 429.097656 C 461.0625 429.25 461.003906 429.382812 460.894531 429.492188 C 460.785156 429.597656 460.652344 429.652344 460.5 429.652344 Z M 460.5 429.652344 " fill-opacity="1" fill-rule="nonzero"/><path fill="#d50000" d="M 478.117188 448.203125 C 478.011719 448.203125 477.914062 448.175781 477.824219 448.121094 L 462.839844 439.023438 C 462.707031 438.941406 462.621094 438.828125 462.582031 438.675781 C 462.546875 438.523438 462.570312 438.382812 462.648438 438.25 C 462.730469 438.117188 462.847656 438.03125 462.996094 437.996094 C 463.148438 437.957031 463.289062 437.980469 463.421875 438.058594 L 478.410156 447.160156 C 478.652344 447.304688 478.738281 447.515625 478.660156 447.792969 C 478.582031 448.066406 478.402344 448.203125 478.117188 448.203125 Z M 478.117188 448.203125 " fill-opacity="1" fill-rule="nonzero"/><path fill="#d50000" d="M 468.097656 384.121094 C 466.277344 384.15625 464.605469 383.675781 463.078125 382.675781 C 457 378.585938 457.589844 367.035156 464.390625 356.925781 C 467.65625 352.074219 471.851562 348.257812 476.207031 346.183594 C 480.660156 344.0625 484.757812 344.003906 487.75 346.015625 C 493.828125 350.109375 493.242188 361.660156 486.441406 371.765625 C 481.269531 379.449219 473.972656 384.121094 468.097656 384.121094 Z M 482.679688 345.675781 C 480.570312 345.738281 478.574219 346.246094 476.691406 347.199219 C 472.515625 349.191406 468.480469 352.867188 465.324219 357.554688 C 458.871094 367.148438 458.144531 377.996094 463.710938 381.742188 C 469.273438 385.484375 479.050781 380.726562 485.507812 371.136719 C 491.960938 361.542969 492.6875 350.695312 487.121094 346.953125 C 485.773438 346.070312 484.292969 345.644531 482.679688 345.675781 Z M 485.972656 371.453125 Z M 485.972656 371.453125 " fill-opacity="1" fill-rule="nonzero"/><path fill="#d50000" d="M 469.800781 379.347656 C 468.625 379.371094 467.542969 379.058594 466.5625 378.414062 C 464.5 377.027344 463.5625 374.292969 463.917969 370.710938 C 464.257812 367.257812 465.769531 363.386719 468.167969 359.820312 C 470.570312 356.253906 473.585938 353.394531 476.65625 351.777344 C 479.839844 350.101562 482.726562 349.941406 484.789062 351.328125 C 488.996094 354.160156 488.289062 362.328125 483.179688 369.921875 C 480.777344 373.488281 477.765625 376.34375 474.691406 377.960938 C 473.175781 378.824219 471.542969 379.285156 469.800781 379.347656 Z M 481.542969 351.519531 C 479.988281 351.582031 478.535156 352 477.179688 352.773438 C 474.269531 354.304688 471.402344 357.03125 469.101562 360.449219 C 466.804688 363.863281 465.359375 367.546875 465.035156 370.820312 C 464.726562 373.96875 465.492188 376.332031 467.191406 377.476562 C 468.890625 378.621094 471.367188 378.441406 474.167969 376.964844 C 477.078125 375.433594 479.949219 372.707031 482.246094 369.292969 C 486.925781 362.339844 487.785156 354.703125 484.160156 352.261719 C 483.363281 351.746094 482.492188 351.496094 481.542969 351.519531 Z M 481.542969 351.519531 " fill-opacity="1" fill-rule="nonzero"/><path fill="#d50000" d="M 463.09375 382.558594 C 462.972656 382.558594 462.863281 382.523438 462.765625 382.453125 C 462.113281 381.988281 461.5 381.527344 460.855469 381.042969 C 460.152344 380.519531 459.425781 379.976562 458.609375 379.394531 C 452.546875 375.074219 453.128906 363.765625 459.933594 353.65625 C 463.199219 348.800781 467.398438 344.984375 471.75 342.910156 C 476.203125 340.789062 480.300781 340.734375 483.292969 342.746094 C 484.179688 343.339844 485.097656 344.035156 485.992188 344.707031 C 486.578125 345.152344 487.1875 345.613281 487.765625 346.027344 C 487.890625 346.117188 487.964844 346.238281 487.992188 346.394531 C 488.015625 346.546875 487.984375 346.6875 487.894531 346.8125 C 487.804688 346.941406 487.679688 347.015625 487.527344 347.039062 C 487.375 347.066406 487.234375 347.03125 487.105469 346.941406 C 486.519531 346.519531 485.90625 346.054688 485.3125 345.609375 C 484.433594 344.945312 483.523438 344.253906 482.664062 343.679688 C 480.015625 341.898438 476.3125 341.984375 472.234375 343.929688 C 468.0625 345.917969 464.023438 349.59375 460.867188 354.285156 C 454.515625 363.726562 453.796875 374.578125 459.265625 378.480469 C 460.089844 379.066406 460.820312 379.613281 461.527344 380.140625 C 462.171875 380.625 462.777344 381.078125 463.421875 381.535156 C 463.644531 381.695312 463.714844 381.90625 463.628906 382.167969 C 463.546875 382.429688 463.367188 382.558594 463.09375 382.558594 Z M 463.09375 382.558594 " fill-opacity="1" fill-rule="nonzero"/><path fill="#d50000" d="M 479.597656 346.097656 C 479.496094 346.097656 479.40625 346.074219 479.320312 346.023438 L 473.976562 343.007812 C 473.847656 342.929688 473.765625 342.816406 473.726562 342.667969 C 473.6875 342.523438 473.707031 342.382812 473.78125 342.253906 C 473.855469 342.121094 473.964844 342.03125 474.109375 341.988281 C 474.253906 341.945312 474.394531 341.957031 474.527344 342.027344 L 479.875 345.042969 C 479.984375 345.105469 480.066406 345.199219 480.117188 345.316406 C 480.167969 345.433594 480.175781 345.554688 480.140625 345.679688 C 480.109375 345.800781 480.042969 345.902344 479.941406 345.980469 C 479.839844 346.058594 479.722656 346.097656 479.597656 346.097656 Z M 479.597656 346.097656 " fill-opacity="1" fill-rule="nonzero"/><path fill="#d50000" d="M 473.710938 348.816406 C 473.605469 348.816406 473.503906 348.789062 473.414062 348.730469 L 468.550781 345.730469 C 468.417969 345.648438 468.332031 345.53125 468.296875 345.382812 C 468.261719 345.230469 468.285156 345.089844 468.367188 344.957031 C 468.445312 344.824219 468.5625 344.738281 468.714844 344.703125 C 468.867188 344.667969 469.007812 344.691406 469.140625 344.773438 L 474.007812 347.773438 C 474.25 347.921875 474.332031 348.132812 474.253906 348.40625 C 474.175781 348.679688 473.996094 348.816406 473.710938 348.816406 Z M 473.710938 348.816406 " fill-opacity="1" fill-rule="nonzero"/><path fill="#d50000" d="M 469.28125 352.4375 C 469.167969 352.4375 469.0625 352.40625 468.964844 352.339844 L 464.355469 349.222656 C 464.230469 349.136719 464.15625 349.015625 464.128906 348.863281 C 464.101562 348.714844 464.128906 348.578125 464.214844 348.449219 C 464.300781 348.324219 464.417969 348.246094 464.570312 348.214844 C 464.71875 348.183594 464.855469 348.207031 464.984375 348.289062 L 469.597656 351.40625 C 469.828125 351.5625 469.902344 351.773438 469.820312 352.039062 C 469.738281 352.304688 469.558594 352.4375 469.28125 352.4375 Z M 469.28125 352.4375 " fill-opacity="1" fill-rule="nonzero"/><path fill="#d50000" d="M 465.222656 357.3125 C 465.105469 357.3125 465 357.277344 464.902344 357.210938 L 460.359375 354.058594 C 460.230469 353.96875 460.152344 353.847656 460.125 353.695312 C 460.097656 353.542969 460.128906 353.402344 460.214844 353.273438 C 460.304688 353.144531 460.425781 353.066406 460.578125 353.039062 C 460.730469 353.011719 460.871094 353.042969 461 353.132812 L 465.546875 356.285156 C 465.773438 356.441406 465.84375 356.652344 465.761719 356.917969 C 465.679688 357.179688 465.5 357.3125 465.222656 357.3125 Z M 465.222656 357.3125 " fill-opacity="1" fill-rule="nonzero"/><path fill="#d50000" d="M 462.152344 362.015625 C 462.035156 362.015625 461.925781 361.984375 461.832031 361.914062 L 457.535156 358.9375 C 457.40625 358.847656 457.328125 358.726562 457.300781 358.574219 C 457.273438 358.421875 457.304688 358.28125 457.394531 358.152344 C 457.480469 358.023438 457.601562 357.945312 457.757812 357.917969 C 457.910156 357.890625 458.050781 357.921875 458.175781 358.011719 L 462.472656 360.988281 C 462.699219 361.148438 462.773438 361.359375 462.6875 361.621094 C 462.605469 361.882812 462.425781 362.015625 462.152344 362.015625 Z M 462.152344 362.015625 " fill-opacity="1" fill-rule="nonzero"/><path fill="#d50000" d="M 460.128906 368.0625 C 460.011719 368.0625 459.902344 368.03125 459.808594 367.964844 L 455.355469 364.875 C 455.226562 364.785156 455.148438 364.664062 455.121094 364.511719 C 455.09375 364.359375 455.125 364.21875 455.210938 364.089844 C 455.300781 363.960938 455.421875 363.882812 455.574219 363.855469 C 455.726562 363.828125 455.867188 363.859375 455.996094 363.949219 L 460.449219 367.039062 C 460.675781 367.195312 460.75 367.40625 460.667969 367.667969 C 460.582031 367.933594 460.40625 368.066406 460.128906 368.066406 Z M 460.128906 368.0625 " fill-opacity="1" fill-rule="nonzero"/><path fill="#d50000" d="M 459.421875 374.15625 C 459.304688 374.15625 459.199219 374.125 459.101562 374.054688 L 454.703125 371.003906 C 454.570312 370.917969 454.488281 370.796875 454.460938 370.640625 C 454.429688 370.484375 454.460938 370.34375 454.550781 370.210938 C 454.640625 370.082031 454.761719 370.003906 454.917969 369.980469 C 455.074219 369.953125 455.214844 369.984375 455.34375 370.078125 L 459.746094 373.128906 C 459.972656 373.289062 460.042969 373.5 459.960938 373.761719 C 459.878906 374.027344 459.699219 374.15625 459.421875 374.15625 Z M 459.421875 374.15625 " fill-opacity="1" fill-rule="nonzero"/><g clip-path="url(#e67c2db504)"><g clip-path="url(#7c2450aa5c)"><path fill="#d50000" d="M 476.21875 357.800781 C 475.789062 358.078125 475.5625 358.472656 475.527344 358.980469 C 475.527344 359.09375 475.527344 359.203125 475.527344 359.304688 C 475.527344 359.425781 475.523438 359.433594 475.421875 359.507812 C 475 359.835938 474.628906 360.210938 474.308594 360.636719 C 473.839844 361.242188 473.523438 361.917969 473.351562 362.664062 C 473.25 363.144531 473.230469 363.628906 473.300781 364.117188 C 473.316406 364.535156 473.496094 364.867188 473.835938 365.109375 C 474.007812 365.199219 474.1875 365.265625 474.378906 365.304688 C 474.871094 365.378906 475.359375 365.363281 475.84375 365.257812 C 476.160156 365.1875 476.480469 365.179688 476.800781 365.230469 C 477.066406 365.269531 477.21875 365.425781 477.25 365.691406 C 477.285156 365.875 477.296875 366.058594 477.289062 366.246094 C 477.25 366.785156 477.03125 367.238281 476.636719 367.609375 C 476.476562 367.761719 476.300781 367.894531 476.113281 368.007812 C 475.941406 368.105469 475.757812 368.179688 475.566406 368.21875 C 475.410156 368.277344 475.261719 368.265625 475.117188 368.191406 C 474.972656 368.113281 474.882812 367.996094 474.839844 367.839844 C 474.800781 367.699219 474.773438 367.558594 474.757812 367.414062 C 474.734375 367.261719 474.621094 367.207031 474.476562 367.28125 C 474.4375 367.300781 474.394531 367.328125 474.351562 367.351562 L 473.433594 367.878906 C 473.375 367.914062 473.3125 367.953125 473.25 367.988281 C 473.042969 368.101562 472.945312 368.277344 472.96875 368.515625 C 472.972656 368.566406 472.980469 368.613281 472.980469 368.667969 C 472.996094 368.984375 473.070312 369.28125 473.203125 369.570312 C 473.320312 369.789062 473.488281 369.957031 473.707031 370.070312 C 473.929688 370.1875 474.164062 370.226562 474.410156 370.191406 C 474.667969 370.183594 474.921875 370.132812 475.164062 370.042969 C 475.558594 369.90625 475.558594 369.816406 475.558594 370.039062 L 475.558594 370.25 C 475.558594 370.691406 475.871094 370.867188 476.25 370.648438 L 476.257812 370.640625 L 476.261719 370.640625 C 476.6875 370.363281 476.914062 369.96875 476.941406 369.460938 L 476.941406 369.199219 C 476.941406 369.050781 476.941406 369.046875 477.074219 368.941406 C 477.382812 368.6875 477.664062 368.410156 477.917969 368.101562 C 478.460938 367.464844 478.824219 366.738281 479.007812 365.917969 C 479.085938 365.542969 479.113281 365.160156 479.089844 364.773438 C 479.078125 364.445312 479.003906 364.132812 478.863281 363.835938 C 478.671875 363.480469 478.371094 363.28125 477.96875 363.234375 C 477.5 363.167969 477.035156 363.179688 476.574219 363.277344 C 476.214844 363.355469 475.859375 363.355469 475.5 363.285156 C 475.289062 363.242188 475.160156 363.113281 475.117188 362.902344 C 475.027344 362.527344 475.046875 362.160156 475.175781 361.796875 C 475.273438 361.460938 475.453125 361.175781 475.714844 360.941406 C 475.839844 360.828125 475.976562 360.726562 476.125 360.640625 C 476.164062 360.617188 476.207031 360.597656 476.246094 360.578125 C 476.683594 360.363281 477 360.425781 477.160156 360.804688 C 477.21875 360.949219 477.253906 361.097656 477.269531 361.25 C 477.292969 361.457031 477.40625 361.492188 477.578125 361.390625 L 477.59375 361.382812 C 477.65625 361.34375 477.722656 361.308594 477.785156 361.269531 C 477.917969 361.195312 478.046875 361.125 478.175781 361.046875 C 478.316406 360.964844 478.457031 360.886719 478.597656 360.804688 C 478.667969 360.765625 478.734375 360.726562 478.804688 360.683594 C 478.980469 360.585938 479.0625 360.4375 479.058594 360.238281 C 479.042969 360.027344 479.015625 359.816406 478.972656 359.609375 C 478.941406 359.355469 478.839844 359.128906 478.671875 358.9375 C 478.503906 358.742188 478.292969 358.613281 478.046875 358.546875 C 477.699219 358.476562 477.359375 358.5 477.023438 358.621094 C 476.960938 358.640625 476.914062 358.605469 476.914062 358.527344 L 476.914062 358.195312 C 476.914062 357.757812 476.601562 357.582031 476.21875 357.800781 " fill-opacity="1" fill-rule="nonzero"/></g></g><g fill="#d50000" fill-opacity="1"><g transform="translate(585.031561, 420.704999)"><g><path d="M 23.1875 0 L 20.90625 -7.484375 L 9.453125 -7.484375 L 7.171875 0 L 0 0 L 11.09375 -31.546875 L 19.234375 -31.546875 L 30.359375 0 Z M 19.3125 -13.0625 L 17.03125 -20.375 C 16.894531 -20.851562 16.707031 -21.472656 16.46875 -22.234375 C 16.226562 -23.003906 15.988281 -23.785156 15.75 -24.578125 C 15.519531 -25.378906 15.332031 -26.070312 15.1875 -26.65625 C 15.039062 -26.070312 14.84375 -25.347656 14.59375 -24.484375 C 14.34375 -23.617188 14.101562 -22.796875 13.875 -22.015625 C 13.644531 -21.242188 13.484375 -20.695312 13.390625 -20.375 L 11.125 -13.0625 Z M 19.3125 -13.0625 "/></g></g></g><g fill="#d50000" fill-opacity="1"><g transform="translate(615.383591, 420.704999)"><g><path d="M 22.5 -8.71875 C 22.5 -6.863281 22.046875 -5.25 21.140625 -3.875 C 20.234375 -2.5 18.914062 -1.4375 17.1875 -0.6875 C 15.46875 0.0625 13.378906 0.4375 10.921875 0.4375 C 9.828125 0.4375 8.757812 0.363281 7.71875 0.21875 C 6.6875 0.0703125 5.691406 -0.140625 4.734375 -0.421875 C 3.785156 -0.703125 2.878906 -1.050781 2.015625 -1.46875 L 2.015625 -7.65625 C 3.503906 -6.988281 5.050781 -6.390625 6.65625 -5.859375 C 8.257812 -5.335938 9.851562 -5.078125 11.4375 -5.078125 C 12.519531 -5.078125 13.394531 -5.21875 14.0625 -5.5 C 14.726562 -5.789062 15.210938 -6.1875 15.515625 -6.6875 C 15.816406 -7.1875 15.96875 -7.757812 15.96875 -8.40625 C 15.96875 -9.1875 15.703125 -9.859375 15.171875 -10.421875 C 14.640625 -10.984375 13.910156 -11.503906 12.984375 -11.984375 C 12.066406 -12.472656 11.023438 -13 9.859375 -13.5625 C 9.128906 -13.90625 8.332031 -14.320312 7.46875 -14.8125 C 6.613281 -15.3125 5.800781 -15.914062 5.03125 -16.625 C 4.257812 -17.34375 3.625 -18.210938 3.125 -19.234375 C 2.632812 -20.265625 2.390625 -21.492188 2.390625 -22.921875 C 2.390625 -24.796875 2.816406 -26.398438 3.671875 -27.734375 C 4.535156 -29.066406 5.765625 -30.085938 7.359375 -30.796875 C 8.953125 -31.503906 10.835938 -31.859375 13.015625 -31.859375 C 14.648438 -31.859375 16.207031 -31.664062 17.6875 -31.28125 C 19.175781 -30.90625 20.726562 -30.363281 22.34375 -29.65625 L 20.203125 -24.46875 C 18.753906 -25.0625 17.457031 -25.515625 16.3125 -25.828125 C 15.164062 -26.148438 14 -26.3125 12.8125 -26.3125 C 11.976562 -26.3125 11.265625 -26.179688 10.671875 -25.921875 C 10.085938 -25.660156 9.644531 -25.285156 9.34375 -24.796875 C 9.039062 -24.316406 8.890625 -23.765625 8.890625 -23.140625 C 8.890625 -22.390625 9.109375 -21.757812 9.546875 -21.25 C 9.984375 -20.75 10.640625 -20.257812 11.515625 -19.78125 C 12.398438 -19.3125 13.503906 -18.765625 14.828125 -18.140625 C 16.429688 -17.378906 17.800781 -16.585938 18.9375 -15.765625 C 20.070312 -14.941406 20.945312 -13.972656 21.5625 -12.859375 C 22.1875 -11.742188 22.5 -10.363281 22.5 -8.71875 Z M 22.5 -8.71875 "/></g></g></g><g fill="#d50000" fill-opacity="1"><g transform="translate(639.613662, 420.704999)"><g><path d="M 22.5 -8.71875 C 22.5 -6.863281 22.046875 -5.25 21.140625 -3.875 C 20.234375 -2.5 18.914062 -1.4375 17.1875 -0.6875 C 15.46875 0.0625 13.378906 0.4375 10.921875 0.4375 C 9.828125 0.4375 8.757812 0.363281 7.71875 0.21875 C 6.6875 0.0703125 5.691406 -0.140625 4.734375 -0.421875 C 3.785156 -0.703125 2.878906 -1.050781 2.015625 -1.46875 L 2.015625 -7.65625 C 3.503906 -6.988281 5.050781 -6.390625 6.65625 -5.859375 C 8.257812 -5.335938 9.851562 -5.078125 11.4375 -5.078125 C 12.519531 -5.078125 13.394531 -5.21875 14.0625 -5.5 C 14.726562 -5.789062 15.210938 -6.1875 15.515625 -6.6875 C 15.816406 -7.1875 15.96875 -7.757812 15.96875 -8.40625 C 15.96875 -9.1875 15.703125 -9.859375 15.171875 -10.421875 C 14.640625 -10.984375 13.910156 -11.503906 12.984375 -11.984375 C 12.066406 -12.472656 11.023438 -13 9.859375 -13.5625 C 9.128906 -13.90625 8.332031 -14.320312 7.46875 -14.8125 C 6.613281 -15.3125 5.800781 -15.914062 5.03125 -16.625 C 4.257812 -17.34375 3.625 -18.210938 3.125 -19.234375 C 2.632812 -20.265625 2.390625 -21.492188 2.390625 -22.921875 C 2.390625 -24.796875 2.816406 -26.398438 3.671875 -27.734375 C 4.535156 -29.066406 5.765625 -30.085938 7.359375 -30.796875 C 8.953125 -31.503906 10.835938 -31.859375 13.015625 -31.859375 C 14.648438 -31.859375 16.207031 -31.664062 17.6875 -31.28125 C 19.175781 -30.90625 20.726562 -30.363281 22.34375 -29.65625 L 20.203125 -24.46875 C 18.753906 -25.0625 17.457031 -25.515625 16.3125 -25.828125 C 15.164062 -26.148438 14 -26.3125 12.8125 -26.3125 C 11.976562 -26.3125 11.265625 -26.179688 10.671875 -25.921875 C 10.085938 -25.660156 9.644531 -25.285156 9.34375 -24.796875 C 9.039062 -24.316406 8.890625 -23.765625 8.890625 -23.140625 C 8.890625 -22.390625 9.109375 -21.757812 9.546875 -21.25 C 9.984375 -20.75 10.640625 -20.257812 11.515625 -19.78125 C 12.398438 -19.3125 13.503906 -18.765625 14.828125 -18.140625 C 16.429688 -17.378906 17.800781 -16.585938 18.9375 -15.765625 C 20.070312 -14.941406 20.945312 -13.972656 21.5625 -12.859375 C 22.1875 -11.742188 22.5 -10.363281 22.5 -8.71875 Z M 22.5 -8.71875 "/></g></g></g><g fill="#d50000" fill-opacity="1"><g transform="translate(663.843733, 420.704999)"><g><path d="M 22.046875 0 L 3.953125 0 L 3.953125 -31.40625 L 22.046875 -31.40625 L 22.046875 -25.953125 L 10.609375 -25.953125 L 10.609375 -19.0625 L 21.25 -19.0625 L 21.25 -13.59375 L 10.609375 -13.59375 L 10.609375 -5.5 L 22.046875 -5.5 Z M 22.046875 0 "/></g></g></g><g fill="#d50000" fill-opacity="1"><g transform="translate(688.481935, 420.704999)"><g><path d="M 16.078125 0 L 9.40625 0 L 9.40625 -25.875 L 0.875 -25.875 L 0.875 -31.40625 L 24.59375 -31.40625 L 24.59375 -25.875 L 16.078125 -25.875 Z M 16.078125 0 "/></g></g></g><g fill="#d50000" fill-opacity="1"><g transform="translate(713.957878, 420.704999)"><g/></g></g><g fill="#d50000" fill-opacity="1"><g transform="translate(725.385536, 420.704999)"><g><path d="M 13.109375 -31.40625 C 15.953125 -31.40625 18.300781 -31.0625 20.15625 -30.375 C 22.019531 -29.6875 23.398438 -28.648438 24.296875 -27.265625 C 25.203125 -25.878906 25.65625 -24.125 25.65625 -22 C 25.65625 -20.570312 25.378906 -19.316406 24.828125 -18.234375 C 24.285156 -17.160156 23.570312 -16.25 22.6875 -15.5 C 21.800781 -14.757812 20.84375 -14.15625 19.8125 -13.6875 L 29.046875 0 L 21.65625 0 L 14.15625 -12.046875 L 10.609375 -12.046875 L 10.609375 0 L 3.953125 0 L 3.953125 -31.40625 Z M 12.640625 -25.953125 L 10.609375 -25.953125 L 10.609375 -17.46875 L 12.765625 -17.46875 C 14.972656 -17.46875 16.550781 -17.835938 17.5 -18.578125 C 18.445312 -19.316406 18.921875 -20.398438 18.921875 -21.828125 C 18.921875 -23.316406 18.410156 -24.375 17.390625 -25 C 16.367188 -25.632812 14.785156 -25.953125 12.640625 -25.953125 Z M 12.640625 -25.953125 "/></g></g></g><g fill="#d50000" fill-opacity="1"><g transform="translate(754.427252, 420.704999)"><g><path d="M 22.046875 0 L 3.953125 0 L 3.953125 -31.40625 L 22.046875 -31.40625 L 22.046875 -25.953125 L 10.609375 -25.953125 L 10.609375 -19.0625 L 21.25 -19.0625 L 21.25 -13.59375 L 10.609375 -13.59375 L 10.609375 -5.5 L 22.046875 -5.5 Z M 22.046875 0 "/></g></g></g><g fill="#d50000" fill-opacity="1"><g transform="translate(779.065442, 420.704999)"><g><path d="M 17.296875 -26.3125 C 16.023438 -26.3125 14.894531 -26.066406 13.90625 -25.578125 C 12.925781 -25.085938 12.101562 -24.375 11.4375 -23.4375 C 10.769531 -22.507812 10.265625 -21.382812 9.921875 -20.0625 C 9.578125 -18.75 9.40625 -17.269531 9.40625 -15.625 C 9.40625 -13.40625 9.679688 -11.507812 10.234375 -9.9375 C 10.785156 -8.363281 11.640625 -7.164062 12.796875 -6.34375 C 13.960938 -5.519531 15.460938 -5.109375 17.296875 -5.109375 C 18.566406 -5.109375 19.84375 -5.25 21.125 -5.53125 C 22.40625 -5.820312 23.800781 -6.234375 25.3125 -6.765625 L 25.3125 -1.1875 C 23.914062 -0.613281 22.546875 -0.203125 21.203125 0.046875 C 19.859375 0.304688 18.347656 0.4375 16.671875 0.4375 C 13.429688 0.4375 10.769531 -0.234375 8.6875 -1.578125 C 6.601562 -2.921875 5.0625 -4.796875 4.0625 -7.203125 C 3.0625 -9.617188 2.5625 -12.4375 2.5625 -15.65625 C 2.5625 -18.039062 2.878906 -20.21875 3.515625 -22.1875 C 4.160156 -24.164062 5.109375 -25.878906 6.359375 -27.328125 C 7.609375 -28.773438 9.148438 -29.890625 10.984375 -30.671875 C 12.816406 -31.460938 14.921875 -31.859375 17.296875 -31.859375 C 18.859375 -31.859375 20.421875 -31.660156 21.984375 -31.265625 C 23.554688 -30.878906 25.054688 -30.34375 26.484375 -29.65625 L 24.34375 -24.234375 C 23.164062 -24.796875 21.984375 -25.28125 20.796875 -25.6875 C 19.609375 -26.101562 18.441406 -26.3125 17.296875 -26.3125 Z M 17.296875 -26.3125 "/></g></g></g><g fill="#d50000" fill-opacity="1"><g transform="translate(807.09756, 420.704999)"><g><path d="M 32.46875 -15.75 C 32.46875 -13.332031 32.164062 -11.128906 31.5625 -9.140625 C 30.957031 -7.160156 30.039062 -5.453125 28.8125 -4.015625 C 27.59375 -2.585938 26.046875 -1.488281 24.171875 -0.71875 C 22.296875 0.0507812 20.078125 0.4375 17.515625 0.4375 C 14.953125 0.4375 12.726562 0.0507812 10.84375 -0.71875 C 8.96875 -1.488281 7.414062 -2.585938 6.1875 -4.015625 C 4.96875 -5.453125 4.054688 -7.164062 3.453125 -9.15625 C 2.859375 -11.144531 2.5625 -13.359375 2.5625 -15.796875 C 2.5625 -19.046875 3.09375 -21.875 4.15625 -24.28125 C 5.226562 -26.695312 6.875 -28.570312 9.09375 -29.90625 C 11.3125 -31.238281 14.128906 -31.90625 17.546875 -31.90625 C 20.960938 -31.90625 23.769531 -31.238281 25.96875 -29.90625 C 28.164062 -28.570312 29.796875 -26.691406 30.859375 -24.265625 C 31.929688 -21.847656 32.46875 -19.007812 32.46875 -15.75 Z M 9.546875 -15.75 C 9.546875 -13.5625 9.816406 -11.675781 10.359375 -10.09375 C 10.910156 -8.507812 11.773438 -7.289062 12.953125 -6.4375 C 14.128906 -5.582031 15.648438 -5.15625 17.515625 -5.15625 C 19.398438 -5.15625 20.929688 -5.582031 22.109375 -6.4375 C 23.285156 -7.289062 24.140625 -8.507812 24.671875 -10.09375 C 25.210938 -11.675781 25.484375 -13.5625 25.484375 -15.75 C 25.484375 -19.039062 24.863281 -21.628906 23.625 -23.515625 C 22.394531 -25.410156 20.367188 -26.359375 17.546875 -26.359375 C 15.671875 -26.359375 14.140625 -25.929688 12.953125 -25.078125 C 11.773438 -24.234375 10.910156 -23.019531 10.359375 -21.4375 C 9.816406 -19.851562 9.546875 -17.957031 9.546875 -15.75 Z M 9.546875 -15.75 "/></g></g></g><g fill="#d50000" fill-opacity="1"><g transform="translate(842.110872, 420.704999)"><g><path d="M 28.59375 -31.40625 L 17.921875 0 L 10.65625 0 L 0 -31.40625 L 6.71875 -31.40625 L 12.640625 -12.71875 C 12.734375 -12.40625 12.894531 -11.8125 13.125 -10.9375 C 13.351562 -10.070312 13.585938 -9.15625 13.828125 -8.1875 C 14.066406 -7.226562 14.226562 -6.429688 14.3125 -5.796875 C 14.394531 -6.429688 14.546875 -7.226562 14.765625 -8.1875 C 14.992188 -9.144531 15.21875 -10.054688 15.4375 -10.921875 C 15.65625 -11.785156 15.816406 -12.382812 15.921875 -12.71875 L 21.875 -31.40625 Z M 28.59375 -31.40625 "/></g></g></g><g fill="#d50000" fill-opacity="1"><g transform="translate(870.701485, 420.704999)"><g><path d="M 22.046875 0 L 3.953125 0 L 3.953125 -31.40625 L 22.046875 -31.40625 L 22.046875 -25.953125 L 10.609375 -25.953125 L 10.609375 -19.0625 L 21.25 -19.0625 L 21.25 -13.59375 L 10.609375 -13.59375 L 10.609375 -5.5 L 22.046875 -5.5 Z M 22.046875 0 "/></g></g></g><g fill="#d50000" fill-opacity="1"><g transform="translate(895.339698, 420.704999)"><g><path d="M 13.109375 -31.40625 C 15.953125 -31.40625 18.300781 -31.0625 20.15625 -30.375 C 22.019531 -29.6875 23.398438 -28.648438 24.296875 -27.265625 C 25.203125 -25.878906 25.65625 -24.125 25.65625 -22 C 25.65625 -20.570312 25.378906 -19.316406 24.828125 -18.234375 C 24.285156 -17.160156 23.570312 -16.25 22.6875 -15.5 C 21.800781 -14.757812 20.84375 -14.15625 19.8125 -13.6875 L 29.046875 0 L 21.65625 0 L 14.15625 -12.046875 L 10.609375 -12.046875 L 10.609375 0 L 3.953125 0 L 3.953125 -31.40625 Z M 12.640625 -25.953125 L 10.609375 -25.953125 L 10.609375 -17.46875 L 12.765625 -17.46875 C 14.972656 -17.46875 16.550781 -17.835938 17.5 -18.578125 C 18.445312 -19.316406 18.921875 -20.398438 18.921875 -21.828125 C 18.921875 -23.316406 18.410156 -24.375 17.390625 -25 C 16.367188 -25.632812 14.785156 -25.953125 12.640625 -25.953125 Z M 12.640625 -25.953125 "/></g></g></g><g fill="#d50000" fill-opacity="1"><g transform="translate(924.381414, 420.704999)"><g><path d="M 13.734375 -18.484375 L 20.28125 -31.40625 L 27.453125 -31.40625 L 17.03125 -12.21875 L 17.03125 0 L 10.421875 0 L 10.421875 -12.015625 L 0 -31.40625 L 7.21875 -31.40625 Z M 13.734375 -18.484375 "/></g></g></g></svg>