<svg xmlns="http://www.w3.org/2000/svg" xmlns:xlink="http://www.w3.org/1999/xlink" width="1920" zoomAndPan="magnify" viewBox="0 0 1440 809.999993" height="1080" preserveAspectRatio="xMidYMid meet" version="1.0"><defs><g/><clipPath id="91bef8185e"><path d="M 122.859375 325.796875 L 1317.722656 325.796875 L 1317.722656 484.203125 L 122.859375 484.203125 Z M 122.859375 325.796875 " clip-rule="nonzero"/></clipPath><clipPath id="657d96e010"><path d="M 1237.9375 325.796875 C 1281.679688 325.796875 1317.140625 361.257812 1317.140625 405 C 1317.140625 448.742188 1281.679688 484.203125 1237.9375 484.203125 L 202.0625 484.203125 C 158.320312 484.203125 122.859375 448.742188 122.859375 405 C 122.859375 361.257812 158.320312 325.796875 202.0625 325.796875 Z M 1237.9375 325.796875 " clip-rule="nonzero"/></clipPath><clipPath id="24c74a38fb"><path d="M 124.722656 330.53125 L 273.660156 330.53125 L 273.660156 479.46875 L 124.722656 479.46875 Z M 124.722656 330.53125 " clip-rule="nonzero"/></clipPath><clipPath id="4be59c11c3"><path d="M 199.191406 330.53125 C 158.0625 330.53125 124.722656 363.871094 124.722656 405 C 124.722656 446.128906 158.0625 479.46875 199.191406 479.46875 C 240.320312 479.46875 273.660156 446.128906 273.660156 405 C 273.660156 363.871094 240.320312 330.53125 199.191406 330.53125 Z M 199.191406 330.53125 " clip-rule="nonzero"/></clipPath><clipPath id="aafb6e650d"><path d="M 160.964844 337.800781 L 233 337.800781 L 233 382 L 160.964844 382 Z M 160.964844 337.800781 " clip-rule="nonzero"/></clipPath><clipPath id="90bc3aa1c8"><path d="M 160.964844 371 L 177 371 L 177 468.277344 L 160.964844 468.277344 Z M 160.964844 371 " clip-rule="nonzero"/></clipPath><clipPath id="6a60911153"><path d="M 175 347 L 233.730469 347 L 233.730469 468.277344 L 175 468.277344 Z M 175 347 " clip-rule="nonzero"/></clipPath></defs><g clip-path="url(#91bef8185e)"><g clip-path="url(#657d96e010)"><path fill="#414141" d="M 122.859375 325.796875 L 1317.105469 325.796875 L 1317.105469 484.203125 L 122.859375 484.203125 Z M 122.859375 325.796875 " fill-opacity="1" fill-rule="nonzero"/></g></g><g clip-path="url(#24c74a38fb)"><g clip-path="url(#4be59c11c3)"><path fill="#ffffff" d="M 124.722656 330.53125 L 273.660156 330.53125 L 273.660156 479.46875 L 124.722656 479.46875 Z M 124.722656 330.53125 " fill-opacity="1" fill-rule="nonzero"/></g></g><g clip-path="url(#aafb6e650d)"><path fill="#d50000" d="M 176.074219 381.449219 C 175.953125 381.449219 175.84375 381.417969 175.742188 381.355469 L 161.257812 372.28125 C 161.164062 372.222656 161.09375 372.148438 161.039062 372.050781 C 160.988281 371.957031 160.964844 371.855469 160.964844 371.746094 C 160.964844 371.636719 160.992188 371.535156 161.046875 371.441406 C 161.101562 371.347656 161.175781 371.273438 161.269531 371.21875 L 216.976562 337.953125 C 217.199219 337.820312 217.421875 337.824219 217.636719 337.964844 L 232.597656 347.671875 C 232.691406 347.730469 232.761719 347.808594 232.8125 347.90625 C 232.863281 348 232.886719 348.105469 232.882812 348.210938 C 232.878906 348.320312 232.851562 348.421875 232.796875 348.515625 C 232.742188 348.609375 232.664062 348.679688 232.570312 348.734375 L 176.386719 381.363281 C 176.289062 381.421875 176.183594 381.449219 176.074219 381.449219 Z M 162.785156 371.765625 L 176.085938 380.097656 L 231.070312 348.167969 L 217.285156 339.222656 Z M 162.785156 371.765625 " fill-opacity="1" fill-rule="nonzero"/></g><g clip-path="url(#90bc3aa1c8)"><path fill="#d50000" d="M 175.914062 468.195312 C 175.796875 468.195312 175.6875 468.164062 175.585938 468.101562 L 161.261719 459.1875 C 161.0625 459.066406 160.964844 458.886719 160.964844 458.65625 L 160.964844 371.753906 C 160.964844 371.507812 161.074219 371.324219 161.289062 371.207031 C 161.503906 371.085938 161.714844 371.09375 161.921875 371.226562 L 176.40625 380.296875 C 176.597656 380.417969 176.695312 380.597656 176.695312 380.828125 L 176.539062 467.574219 C 176.539062 467.746094 176.476562 467.890625 176.355469 468.015625 C 176.234375 468.136719 176.085938 468.195312 175.914062 468.195312 Z M 162.214844 458.3125 L 175.292969 466.449219 L 175.449219 381.167969 L 162.214844 372.878906 Z M 162.214844 458.3125 " fill-opacity="1" fill-rule="nonzero"/></g><g clip-path="url(#6a60911153)"><path fill="#d50000" d="M 175.914062 468.195312 C 175.742188 468.195312 175.59375 468.136719 175.472656 468.015625 C 175.351562 467.890625 175.292969 467.746094 175.292969 467.574219 L 175.449219 380.828125 C 175.449219 380.589844 175.554688 380.410156 175.761719 380.289062 L 231.945312 347.65625 C 232.042969 347.601562 232.144531 347.574219 232.257812 347.574219 C 232.367188 347.574219 232.472656 347.597656 232.566406 347.652344 C 232.664062 347.707031 232.738281 347.785156 232.796875 347.878906 C 232.851562 347.972656 232.882812 348.078125 232.882812 348.1875 L 233.996094 434.296875 C 234 434.539062 233.894531 434.722656 233.6875 434.84375 L 176.226562 468.109375 C 176.128906 468.167969 176.027344 468.195312 175.914062 468.195312 Z M 176.695312 381.1875 L 176.539062 466.492188 L 232.746094 433.949219 L 231.648438 349.269531 Z M 176.695312 381.1875 " fill-opacity="1" fill-rule="nonzero"/></g><path fill="#d50000" d="M 183.394531 413.917969 C 183.222656 413.917969 183.078125 413.859375 182.953125 413.738281 C 182.832031 413.613281 182.773438 413.46875 182.773438 413.296875 L 182.773438 385.285156 C 182.769531 385.042969 182.875 384.863281 183.082031 384.742188 L 225.578125 359.863281 C 225.785156 359.738281 225.992188 359.738281 226.203125 359.859375 C 226.410156 359.976562 226.515625 360.160156 226.515625 360.398438 L 226.515625 388.464844 C 226.515625 388.703125 226.414062 388.886719 226.207031 389.003906 L 183.710938 413.835938 C 183.613281 413.890625 183.507812 413.917969 183.394531 413.917969 Z M 184.019531 385.640625 L 184.019531 412.210938 L 225.269531 388.109375 L 225.269531 361.488281 Z M 184.019531 385.640625 " fill-opacity="1" fill-rule="nonzero"/><path fill="#d50000" d="M 184.296875 428.78125 C 184.125 428.78125 183.976562 428.71875 183.855469 428.597656 C 183.734375 428.476562 183.671875 428.328125 183.671875 428.15625 L 183.671875 419.664062 C 183.675781 419.421875 183.777344 419.242188 183.988281 419.121094 L 194.007812 413.371094 C 194.101562 413.316406 194.207031 413.289062 194.316406 413.289062 C 194.429688 413.289062 194.53125 413.316406 194.628906 413.375 C 194.726562 413.429688 194.800781 413.503906 194.855469 413.601562 C 194.914062 413.699219 194.941406 413.800781 194.941406 413.914062 L 194.941406 422.6875 C 194.941406 422.933594 194.832031 423.117188 194.617188 423.234375 L 184.597656 428.703125 C 184.503906 428.753906 184.402344 428.78125 184.296875 428.78125 Z M 184.921875 420.023438 L 184.921875 427.105469 L 193.691406 422.316406 L 193.691406 414.988281 Z M 184.921875 420.023438 " fill-opacity="1" fill-rule="nonzero"/><path fill="#d50000" d="M 200.753906 419.628906 C 200.582031 419.628906 200.433594 419.566406 200.3125 419.445312 C 200.191406 419.324219 200.128906 419.175781 200.128906 419.003906 L 200.128906 410.511719 C 200.128906 410.269531 200.234375 410.089844 200.441406 409.972656 L 210.460938 404.222656 C 210.558594 404.164062 210.660156 404.136719 210.773438 404.136719 C 210.882812 404.140625 210.988281 404.167969 211.082031 404.222656 C 211.179688 404.277344 211.257812 404.355469 211.3125 404.449219 C 211.367188 404.546875 211.394531 404.652344 211.394531 404.761719 L 211.394531 413.535156 C 211.394531 413.78125 211.285156 413.964844 211.070312 414.082031 L 201.050781 419.550781 C 200.957031 419.601562 200.859375 419.628906 200.753906 419.628906 Z M 201.375 410.871094 L 201.375 417.953125 L 210.148438 413.164062 L 210.148438 405.835938 Z M 201.375 410.871094 " fill-opacity="1" fill-rule="nonzero"/><path fill="#d50000" d="M 216.351562 410.316406 C 216.179688 410.316406 216.03125 410.253906 215.910156 410.132812 C 215.789062 410.011719 215.726562 409.863281 215.726562 409.691406 L 215.726562 401.199219 C 215.726562 400.957031 215.832031 400.777344 216.042969 400.660156 L 226.058594 394.910156 C 226.15625 394.855469 226.261719 394.828125 226.371094 394.828125 C 226.484375 394.828125 226.585938 394.855469 226.683594 394.910156 C 226.777344 394.964844 226.855469 395.042969 226.910156 395.136719 C 226.964844 395.234375 226.992188 395.339844 226.992188 395.449219 L 226.992188 404.222656 C 226.992188 404.46875 226.886719 404.652344 226.667969 404.769531 L 216.652344 410.238281 C 216.558594 410.289062 216.457031 410.316406 216.351562 410.316406 Z M 216.976562 401.558594 L 216.976562 408.640625 L 225.746094 403.851562 L 225.746094 396.527344 Z M 216.976562 401.558594 " fill-opacity="1" fill-rule="nonzero"/><path fill="#d50000" d="M 216.351562 438.25 C 216.179688 438.25 216.03125 438.191406 215.910156 438.066406 C 215.789062 437.945312 215.726562 437.800781 215.726562 437.628906 L 215.726562 415.070312 C 215.726562 414.832031 215.832031 414.652344 216.042969 414.53125 L 226.527344 408.515625 C 226.738281 408.394531 226.945312 408.394531 227.152344 408.515625 C 227.359375 408.636719 227.464844 408.816406 227.460938 409.054688 L 227.460938 430.964844 C 227.460938 431.195312 227.363281 431.367188 227.171875 431.492188 L 216.683594 438.15625 C 216.582031 438.21875 216.472656 438.25 216.351562 438.25 Z M 216.976562 415.433594 L 216.976562 436.492188 L 226.214844 430.621094 L 226.214844 410.132812 Z M 216.976562 415.433594 " fill-opacity="1" fill-rule="nonzero"/><path fill="#d50000" d="M 184.296875 443.023438 C 184.125 443.023438 183.976562 442.960938 183.855469 442.839844 C 183.734375 442.71875 183.671875 442.570312 183.671875 442.398438 L 183.671875 433.90625 C 183.675781 433.664062 183.777344 433.484375 183.988281 433.367188 L 194.007812 427.617188 C 194.101562 427.558594 194.207031 427.53125 194.316406 427.53125 C 194.429688 427.53125 194.53125 427.5625 194.628906 427.617188 C 194.726562 427.671875 194.800781 427.75 194.855469 427.84375 C 194.914062 427.941406 194.941406 428.042969 194.941406 428.15625 L 194.941406 436.929688 C 194.941406 437.175781 194.832031 437.359375 194.617188 437.476562 L 184.597656 442.945312 C 184.503906 442.996094 184.402344 443.023438 184.296875 443.023438 Z M 184.921875 434.265625 L 184.921875 441.347656 L 193.691406 436.558594 L 193.691406 429.234375 Z M 184.921875 434.265625 " fill-opacity="1" fill-rule="nonzero"/><path fill="#d50000" d="M 184.296875 456.78125 C 184.125 456.78125 183.976562 456.71875 183.855469 456.597656 C 183.734375 456.476562 183.671875 456.328125 183.671875 456.15625 L 183.671875 447.664062 C 183.675781 447.421875 183.777344 447.242188 183.988281 447.121094 L 194.007812 441.375 C 194.101562 441.316406 194.207031 441.289062 194.316406 441.289062 C 194.429688 441.289062 194.53125 441.320312 194.628906 441.375 C 194.726562 441.429688 194.800781 441.507812 194.855469 441.601562 C 194.914062 441.699219 194.941406 441.800781 194.941406 441.914062 L 194.941406 450.6875 C 194.941406 450.933594 194.832031 451.117188 194.617188 451.234375 L 184.597656 456.703125 C 184.503906 456.753906 184.402344 456.78125 184.296875 456.78125 Z M 184.921875 448.023438 L 184.921875 455.105469 L 193.691406 450.316406 L 193.691406 442.988281 Z M 184.921875 448.023438 " fill-opacity="1" fill-rule="nonzero"/><path fill="#d50000" d="M 200.753906 433.460938 C 200.582031 433.460938 200.433594 433.402344 200.3125 433.28125 C 200.191406 433.160156 200.128906 433.011719 200.128906 432.839844 L 200.128906 424.34375 C 200.128906 424.105469 200.234375 423.925781 200.441406 423.804688 L 210.460938 418.054688 C 210.558594 418 210.660156 417.972656 210.773438 417.972656 C 210.882812 417.972656 210.988281 418 211.082031 418.054688 C 211.179688 418.113281 211.257812 418.1875 211.3125 418.285156 C 211.367188 418.378906 211.394531 418.484375 211.394531 418.597656 L 211.394531 427.367188 C 211.394531 427.617188 211.285156 427.796875 211.070312 427.917969 L 201.050781 433.386719 C 200.957031 433.4375 200.859375 433.460938 200.753906 433.460938 Z M 201.375 424.707031 L 201.375 431.789062 L 210.148438 427 L 210.148438 419.671875 Z M 201.375 424.707031 " fill-opacity="1" fill-rule="nonzero"/><path fill="#d50000" d="M 200.753906 446.992188 C 200.582031 446.992188 200.433594 446.929688 200.3125 446.808594 C 200.191406 446.6875 200.128906 446.539062 200.128906 446.367188 L 200.128906 437.875 C 200.128906 437.632812 200.234375 437.453125 200.441406 437.335938 L 210.460938 431.585938 C 210.558594 431.53125 210.660156 431.503906 210.773438 431.503906 C 210.882812 431.503906 210.988281 431.53125 211.082031 431.585938 C 211.179688 431.640625 211.257812 431.71875 211.3125 431.8125 C 211.367188 431.910156 211.394531 432.015625 211.394531 432.125 L 211.394531 440.898438 C 211.394531 441.144531 211.285156 441.328125 211.070312 441.445312 L 201.050781 446.914062 C 200.960938 446.964844 200.859375 446.992188 200.753906 446.992188 Z M 201.375 438.234375 L 201.375 445.316406 L 210.148438 440.527344 L 210.148438 433.203125 Z M 201.375 438.234375 " fill-opacity="1" fill-rule="nonzero"/><path fill="#d50000" d="M 221.359375 381.449219 C 221.242188 381.449219 221.136719 381.417969 221.035156 381.355469 L 211.242188 375.363281 C 211.09375 375.273438 211 375.144531 210.960938 374.976562 C 210.921875 374.808594 210.945312 374.652344 211.035156 374.503906 C 211.125 374.359375 211.253906 374.265625 211.421875 374.222656 C 211.589844 374.183594 211.746094 374.207031 211.894531 374.296875 L 221.683594 380.292969 C 221.804688 380.367188 221.890625 380.46875 221.941406 380.597656 C 221.992188 380.726562 221.996094 380.859375 221.960938 380.996094 C 221.921875 381.128906 221.847656 381.238281 221.734375 381.324219 C 221.625 381.40625 221.5 381.449219 221.359375 381.449219 Z M 221.359375 381.449219 " fill-opacity="1" fill-rule="nonzero"/><path fill="#d50000" d="M 221.359375 375.984375 C 221.234375 375.984375 221.121094 375.949219 221.015625 375.878906 L 215.570312 372.273438 C 215.429688 372.175781 215.34375 372.046875 215.308594 371.878906 C 215.277344 371.710938 215.308594 371.554688 215.402344 371.414062 C 215.496094 371.269531 215.628906 371.179688 215.796875 371.148438 C 215.960938 371.113281 216.117188 371.140625 216.261719 371.234375 L 221.707031 374.839844 C 221.820312 374.917969 221.902344 375.019531 221.945312 375.148438 C 221.992188 375.277344 221.996094 375.410156 221.957031 375.542969 C 221.917969 375.671875 221.84375 375.78125 221.730469 375.863281 C 221.621094 375.945312 221.496094 375.984375 221.359375 375.984375 Z M 221.359375 375.984375 " fill-opacity="1" fill-rule="nonzero"/><g fill="#d50000" fill-opacity="1"><g transform="translate(299.535313, 422.43304)"><g><path d="M 16.078125 0 L 9.421875 0 L 9.421875 -25.890625 L 0.875 -25.890625 L 0.875 -31.4375 L 24.609375 -31.4375 L 24.609375 -25.890625 L 16.078125 -25.890625 Z M 16.078125 0 "/></g></g></g><g fill="#d50000" fill-opacity="1"><g transform="translate(325.031648, 422.43304)"><g><path d="M 23.203125 0 L 20.921875 -7.484375 L 9.453125 -7.484375 L 7.1875 0 L 0 0 L 11.09375 -31.5625 L 19.234375 -31.5625 L 30.375 0 Z M 19.328125 -13.078125 L 17.046875 -20.375 C 16.898438 -20.863281 16.707031 -21.488281 16.46875 -22.25 C 16.238281 -23.019531 16.003906 -23.800781 15.765625 -24.59375 C 15.535156 -25.394531 15.347656 -26.09375 15.203125 -26.6875 C 15.054688 -26.09375 14.859375 -25.363281 14.609375 -24.5 C 14.359375 -23.632812 14.117188 -22.8125 13.890625 -22.03125 C 13.660156 -21.257812 13.492188 -20.707031 13.390625 -20.375 L 11.140625 -13.078125 Z M 19.328125 -13.078125 "/></g></g></g><g fill="#d50000" fill-opacity="1"><g transform="translate(355.407985, 422.43304)"><g><path d="M 29.375 0 L 21.75 0 L 14.453125 -11.890625 L 7.140625 0 L 0 0 L 10.421875 -16.203125 L 0.671875 -31.4375 L 8.015625 -31.4375 L 14.796875 -20.125 L 21.4375 -31.4375 L 28.609375 -31.4375 L 18.75 -15.84375 Z M 29.375 0 "/></g></g></g><g fill="#d50000" fill-opacity="1"><g transform="translate(384.773916, 422.43304)"><g/></g></g><g fill="#d50000" fill-opacity="1"><g transform="translate(396.210721, 422.43304)"><g><path d="M 23.203125 0 L 20.921875 -7.484375 L 9.453125 -7.484375 L 7.1875 0 L 0 0 L 11.09375 -31.5625 L 19.234375 -31.5625 L 30.375 0 Z M 19.328125 -13.078125 L 17.046875 -20.375 C 16.898438 -20.863281 16.707031 -21.488281 16.46875 -22.25 C 16.238281 -23.019531 16.003906 -23.800781 15.765625 -24.59375 C 15.535156 -25.394531 15.347656 -26.09375 15.203125 -26.6875 C 15.054688 -26.09375 14.859375 -25.363281 14.609375 -24.5 C 14.359375 -23.632812 14.117188 -22.8125 13.890625 -22.03125 C 13.660156 -21.257812 13.492188 -20.707031 13.390625 -20.375 L 11.140625 -13.078125 Z M 19.328125 -13.078125 "/></g></g></g><g fill="#d50000" fill-opacity="1"><g transform="translate(426.587057, 422.43304)"><g><path d="M 29.546875 -31.4375 L 29.546875 -11.09375 C 29.546875 -8.925781 29.066406 -6.972656 28.109375 -5.234375 C 27.160156 -3.492188 25.71875 -2.113281 23.78125 -1.09375 C 21.851562 -0.0703125 19.429688 0.4375 16.515625 0.4375 C 12.359375 0.4375 9.1875 -0.625 7 -2.75 C 4.820312 -4.875 3.734375 -7.6875 3.734375 -11.1875 L 3.734375 -31.4375 L 10.390625 -31.4375 L 10.390625 -12.1875 C 10.390625 -9.59375 10.914062 -7.769531 11.96875 -6.71875 C 13.03125 -5.675781 14.601562 -5.15625 16.6875 -5.15625 C 18.144531 -5.15625 19.328125 -5.40625 20.234375 -5.90625 C 21.148438 -6.414062 21.820312 -7.191406 22.25 -8.234375 C 22.675781 -9.273438 22.890625 -10.609375 22.890625 -12.234375 L 22.890625 -31.4375 Z M 29.546875 -31.4375 "/></g></g></g><g fill="#d50000" fill-opacity="1"><g transform="translate(459.865581, 422.43304)"><g><path d="M 30.03125 -16.015625 C 30.03125 -12.472656 29.351562 -9.515625 28 -7.140625 C 26.644531 -4.773438 24.6875 -2.992188 22.125 -1.796875 C 19.5625 -0.597656 16.472656 0 12.859375 0 L 3.953125 0 L 3.953125 -31.4375 L 13.828125 -31.4375 C 17.117188 -31.4375 19.972656 -30.847656 22.390625 -29.671875 C 24.816406 -28.503906 26.695312 -26.773438 28.03125 -24.484375 C 29.363281 -22.203125 30.03125 -19.378906 30.03125 -16.015625 Z M 23.109375 -15.84375 C 23.109375 -18.164062 22.765625 -20.078125 22.078125 -21.578125 C 21.398438 -23.078125 20.398438 -24.179688 19.078125 -24.890625 C 17.753906 -25.609375 16.117188 -25.96875 14.171875 -25.96875 L 10.625 -25.96875 L 10.625 -5.5 L 13.484375 -5.5 C 16.734375 -5.5 19.148438 -6.363281 20.734375 -8.09375 C 22.316406 -9.832031 23.109375 -12.414062 23.109375 -15.84375 Z M 23.109375 -15.84375 "/></g></g></g><g fill="#d50000" fill-opacity="1"><g transform="translate(492.456176, 422.43304)"><g><path d="M 3.953125 0 L 3.953125 -31.4375 L 10.625 -31.4375 L 10.625 0 Z M 3.953125 0 "/></g></g></g><g fill="#d50000" fill-opacity="1"><g transform="translate(507.031653, 422.43304)"><g><path d="M 16.078125 0 L 9.421875 0 L 9.421875 -25.890625 L 0.875 -25.890625 L 0.875 -31.4375 L 24.609375 -31.4375 L 24.609375 -25.890625 L 16.078125 -25.890625 Z M 16.078125 0 "/></g></g></g><g fill="#d50000" fill-opacity="1"><g transform="translate(532.527989, 422.43304)"><g/></g></g><g fill="#d50000" fill-opacity="1"><g transform="translate(543.964794, 422.43304)"><g><path d="M 23.203125 0 L 20.921875 -7.484375 L 9.453125 -7.484375 L 7.1875 0 L 0 0 L 11.09375 -31.5625 L 19.234375 -31.5625 L 30.375 0 Z M 19.328125 -13.078125 L 17.046875 -20.375 C 16.898438 -20.863281 16.707031 -21.488281 16.46875 -22.25 C 16.238281 -23.019531 16.003906 -23.800781 15.765625 -24.59375 C 15.535156 -25.394531 15.347656 -26.09375 15.203125 -26.6875 C 15.054688 -26.09375 14.859375 -25.363281 14.609375 -24.5 C 14.359375 -23.632812 14.117188 -22.8125 13.890625 -22.03125 C 13.660156 -21.257812 13.492188 -20.707031 13.390625 -20.375 L 11.140625 -13.078125 Z M 19.328125 -13.078125 "/></g></g></g><g fill="#d50000" fill-opacity="1"><g transform="translate(574.34113, 422.43304)"><g><path d="M 31.84375 0 L 23.375 0 L 9.703125 -23.78125 L 9.5 -23.78125 C 9.5625 -22.789062 9.613281 -21.789062 9.65625 -20.78125 C 9.695312 -19.78125 9.738281 -18.78125 9.78125 -17.78125 C 9.820312 -16.789062 9.863281 -15.796875 9.90625 -14.796875 L 9.90625 0 L 3.953125 0 L 3.953125 -31.4375 L 12.359375 -31.4375 L 26.015625 -7.890625 L 26.171875 -7.890625 C 26.140625 -8.867188 26.101562 -9.835938 26.0625 -10.796875 C 26.019531 -11.753906 25.976562 -12.710938 25.9375 -13.671875 C 25.90625 -14.628906 25.875 -15.59375 25.84375 -16.5625 L 25.84375 -31.4375 L 31.84375 -31.4375 Z M 31.84375 0 "/></g></g></g><g fill="#d50000" fill-opacity="1"><g transform="translate(610.1349, 422.43304)"><g><path d="M 30.03125 -16.015625 C 30.03125 -12.472656 29.351562 -9.515625 28 -7.140625 C 26.644531 -4.773438 24.6875 -2.992188 22.125 -1.796875 C 19.5625 -0.597656 16.472656 0 12.859375 0 L 3.953125 0 L 3.953125 -31.4375 L 13.828125 -31.4375 C 17.117188 -31.4375 19.972656 -30.847656 22.390625 -29.671875 C 24.816406 -28.503906 26.695312 -26.773438 28.03125 -24.484375 C 29.363281 -22.203125 30.03125 -19.378906 30.03125 -16.015625 Z M 23.109375 -15.84375 C 23.109375 -18.164062 22.765625 -20.078125 22.078125 -21.578125 C 21.398438 -23.078125 20.398438 -24.179688 19.078125 -24.890625 C 17.753906 -25.609375 16.117188 -25.96875 14.171875 -25.96875 L 10.625 -25.96875 L 10.625 -5.5 L 13.484375 -5.5 C 16.734375 -5.5 19.148438 -6.363281 20.734375 -8.09375 C 22.316406 -9.832031 23.109375 -12.414062 23.109375 -15.84375 Z M 23.109375 -15.84375 "/></g></g></g><g fill="#d50000" fill-opacity="1"><g transform="translate(642.725495, 422.43304)"><g/></g></g><g fill="#d50000" fill-opacity="1"><g transform="translate(654.1623, 422.43304)"><g><path d="M 16.078125 0 L 9.421875 0 L 9.421875 -25.890625 L 0.875 -25.890625 L 0.875 -31.4375 L 24.609375 -31.4375 L 24.609375 -25.890625 L 16.078125 -25.890625 Z M 16.078125 0 "/></g></g></g><g fill="#d50000" fill-opacity="1"><g transform="translate(679.658657, 422.43304)"><g><path d="M 22.0625 0 L 3.953125 0 L 3.953125 -31.4375 L 22.0625 -31.4375 L 22.0625 -25.96875 L 10.625 -25.96875 L 10.625 -19.0625 L 21.265625 -19.0625 L 21.265625 -13.609375 L 10.625 -13.609375 L 10.625 -5.5 L 22.0625 -5.5 Z M 22.0625 0 "/></g></g></g><g fill="#d50000" fill-opacity="1"><g transform="translate(704.31659, 422.43304)"><g><path d="M 17.3125 -26.34375 C 16.03125 -26.34375 14.898438 -26.09375 13.921875 -25.59375 C 12.941406 -25.101562 12.117188 -24.390625 11.453125 -23.453125 C 10.785156 -22.523438 10.28125 -21.398438 9.9375 -20.078125 C 9.59375 -18.765625 9.421875 -17.28125 9.421875 -15.625 C 9.421875 -13.40625 9.695312 -11.507812 10.25 -9.9375 C 10.800781 -8.375 11.65625 -7.175781 12.8125 -6.34375 C 13.976562 -5.519531 15.476562 -5.109375 17.3125 -5.109375 C 18.582031 -5.109375 19.859375 -5.253906 21.140625 -5.546875 C 22.421875 -5.835938 23.816406 -6.242188 25.328125 -6.765625 L 25.328125 -1.1875 C 23.929688 -0.613281 22.5625 -0.203125 21.21875 0.046875 C 19.875 0.304688 18.363281 0.4375 16.6875 0.4375 C 13.445312 0.4375 10.78125 -0.234375 8.6875 -1.578125 C 6.601562 -2.921875 5.0625 -4.796875 4.0625 -7.203125 C 3.0625 -9.617188 2.5625 -12.441406 2.5625 -15.671875 C 2.5625 -18.046875 2.882812 -20.222656 3.53125 -22.203125 C 4.175781 -24.179688 5.117188 -25.894531 6.359375 -27.34375 C 7.609375 -28.789062 9.148438 -29.910156 10.984375 -30.703125 C 12.816406 -31.492188 14.925781 -31.890625 17.3125 -31.890625 C 18.875 -31.890625 20.4375 -31.691406 22 -31.296875 C 23.570312 -30.898438 25.078125 -30.359375 26.515625 -29.671875 L 24.359375 -24.25 C 23.179688 -24.8125 22 -25.300781 20.8125 -25.71875 C 19.625 -26.132812 18.457031 -26.34375 17.3125 -26.34375 Z M 17.3125 -26.34375 "/></g></g></g><g fill="#d50000" fill-opacity="1"><g transform="translate(732.371189, 422.43304)"><g><path d="M 29.71875 0 L 23.0625 0 L 23.0625 -13.5625 L 10.625 -13.5625 L 10.625 0 L 3.953125 0 L 3.953125 -31.4375 L 10.625 -31.4375 L 10.625 -19.109375 L 23.0625 -19.109375 L 23.0625 -31.4375 L 29.71875 -31.4375 Z M 29.71875 0 "/></g></g></g><g fill="#d50000" fill-opacity="1"><g transform="translate(766.058179, 422.43304)"><g><path d="M 31.84375 0 L 23.375 0 L 9.703125 -23.78125 L 9.5 -23.78125 C 9.5625 -22.789062 9.613281 -21.789062 9.65625 -20.78125 C 9.695312 -19.78125 9.738281 -18.78125 9.78125 -17.78125 C 9.820312 -16.789062 9.863281 -15.796875 9.90625 -14.796875 L 9.90625 0 L 3.953125 0 L 3.953125 -31.4375 L 12.359375 -31.4375 L 26.015625 -7.890625 L 26.171875 -7.890625 C 26.140625 -8.867188 26.101562 -9.835938 26.0625 -10.796875 C 26.019531 -11.753906 25.976562 -12.710938 25.9375 -13.671875 C 25.90625 -14.628906 25.875 -15.59375 25.84375 -16.5625 L 25.84375 -31.4375 L 31.84375 -31.4375 Z M 31.84375 0 "/></g></g></g><g fill="#d50000" fill-opacity="1"><g transform="translate(801.851929, 422.43304)"><g><path d="M 3.953125 0 L 3.953125 -31.4375 L 10.625 -31.4375 L 10.625 0 Z M 3.953125 0 "/></g></g></g><g fill="#d50000" fill-opacity="1"><g transform="translate(816.427426, 422.43304)"><g><path d="M 17.3125 -26.34375 C 16.03125 -26.34375 14.898438 -26.09375 13.921875 -25.59375 C 12.941406 -25.101562 12.117188 -24.390625 11.453125 -23.453125 C 10.785156 -22.523438 10.28125 -21.398438 9.9375 -20.078125 C 9.59375 -18.765625 9.421875 -17.28125 9.421875 -15.625 C 9.421875 -13.40625 9.695312 -11.507812 10.25 -9.9375 C 10.800781 -8.375 11.65625 -7.175781 12.8125 -6.34375 C 13.976562 -5.519531 15.476562 -5.109375 17.3125 -5.109375 C 18.582031 -5.109375 19.859375 -5.253906 21.140625 -5.546875 C 22.421875 -5.835938 23.816406 -6.242188 25.328125 -6.765625 L 25.328125 -1.1875 C 23.929688 -0.613281 22.5625 -0.203125 21.21875 0.046875 C 19.875 0.304688 18.363281 0.4375 16.6875 0.4375 C 13.445312 0.4375 10.78125 -0.234375 8.6875 -1.578125 C 6.601562 -2.921875 5.0625 -4.796875 4.0625 -7.203125 C 3.0625 -9.617188 2.5625 -12.441406 2.5625 -15.671875 C 2.5625 -18.046875 2.882812 -20.222656 3.53125 -22.203125 C 4.175781 -24.179688 5.117188 -25.894531 6.359375 -27.34375 C 7.609375 -28.789062 9.148438 -29.910156 10.984375 -30.703125 C 12.816406 -31.492188 14.925781 -31.890625 17.3125 -31.890625 C 18.875 -31.890625 20.4375 -31.691406 22 -31.296875 C 23.570312 -30.898438 25.078125 -30.359375 26.515625 -29.671875 L 24.359375 -24.25 C 23.179688 -24.8125 22 -25.300781 20.8125 -25.71875 C 19.625 -26.132812 18.457031 -26.34375 17.3125 -26.34375 Z M 17.3125 -26.34375 "/></g></g></g><g fill="#d50000" fill-opacity="1"><g transform="translate(844.482024, 422.43304)"><g><path d="M 23.203125 0 L 20.921875 -7.484375 L 9.453125 -7.484375 L 7.1875 0 L 0 0 L 11.09375 -31.5625 L 19.234375 -31.5625 L 30.375 0 Z M 19.328125 -13.078125 L 17.046875 -20.375 C 16.898438 -20.863281 16.707031 -21.488281 16.46875 -22.25 C 16.238281 -23.019531 16.003906 -23.800781 15.765625 -24.59375 C 15.535156 -25.394531 15.347656 -26.09375 15.203125 -26.6875 C 15.054688 -26.09375 14.859375 -25.363281 14.609375 -24.5 C 14.359375 -23.632812 14.117188 -22.8125 13.890625 -22.03125 C 13.660156 -21.257812 13.492188 -20.707031 13.390625 -20.375 L 11.140625 -13.078125 Z M 19.328125 -13.078125 "/></g></g></g><g fill="#d50000" fill-opacity="1"><g transform="translate(874.858341, 422.43304)"><g><path d="M 3.953125 0 L 3.953125 -31.4375 L 10.625 -31.4375 L 10.625 -5.5 L 23.375 -5.5 L 23.375 0 Z M 3.953125 0 "/></g></g></g><g fill="#d50000" fill-opacity="1"><g transform="translate(899.731232, 422.43304)"><g/></g></g><g fill="#d50000" fill-opacity="1"><g transform="translate(911.168037, 422.43304)"><g><path d="M 22.515625 -8.734375 C 22.515625 -6.867188 22.0625 -5.25 21.15625 -3.875 C 20.25 -2.5 18.929688 -1.4375 17.203125 -0.6875 C 15.484375 0.0625 13.390625 0.4375 10.921875 0.4375 C 9.828125 0.4375 8.757812 0.363281 7.71875 0.21875 C 6.6875 0.0703125 5.691406 -0.140625 4.734375 -0.421875 C 3.785156 -0.703125 2.878906 -1.050781 2.015625 -1.46875 L 2.015625 -7.65625 C 3.503906 -7 5.050781 -6.40625 6.65625 -5.875 C 8.269531 -5.34375 9.863281 -5.078125 11.4375 -5.078125 C 12.53125 -5.078125 13.410156 -5.21875 14.078125 -5.5 C 14.742188 -5.789062 15.222656 -6.1875 15.515625 -6.6875 C 15.816406 -7.1875 15.96875 -7.757812 15.96875 -8.40625 C 15.96875 -9.195312 15.703125 -9.867188 15.171875 -10.421875 C 14.648438 -10.984375 13.925781 -11.507812 13 -12 C 12.070312 -12.488281 11.03125 -13.007812 9.875 -13.5625 C 9.132812 -13.90625 8.332031 -14.320312 7.46875 -14.8125 C 6.613281 -15.3125 5.800781 -15.921875 5.03125 -16.640625 C 4.257812 -17.359375 3.625 -18.226562 3.125 -19.25 C 2.632812 -20.28125 2.390625 -21.507812 2.390625 -22.9375 C 2.390625 -24.8125 2.816406 -26.414062 3.671875 -27.75 C 4.535156 -29.082031 5.765625 -30.101562 7.359375 -30.8125 C 8.960938 -31.53125 10.851562 -31.890625 13.03125 -31.890625 C 14.664062 -31.890625 16.222656 -31.695312 17.703125 -31.3125 C 19.191406 -30.9375 20.742188 -30.390625 22.359375 -29.671875 L 20.203125 -24.484375 C 18.753906 -25.078125 17.457031 -25.535156 16.3125 -25.859375 C 15.164062 -26.179688 14 -26.34375 12.8125 -26.34375 C 11.976562 -26.34375 11.265625 -26.207031 10.671875 -25.9375 C 10.085938 -25.675781 9.644531 -25.300781 9.34375 -24.8125 C 9.050781 -24.332031 8.90625 -23.78125 8.90625 -23.15625 C 8.90625 -22.40625 9.125 -21.773438 9.5625 -21.265625 C 10 -20.765625 10.65625 -20.273438 11.53125 -19.796875 C 12.414062 -19.328125 13.515625 -18.773438 14.828125 -18.140625 C 16.441406 -17.378906 17.816406 -16.585938 18.953125 -15.765625 C 20.085938 -14.941406 20.960938 -13.972656 21.578125 -12.859375 C 22.203125 -11.753906 22.515625 -10.378906 22.515625 -8.734375 Z M 22.515625 -8.734375 "/></g></g></g><g fill="#d50000" fill-opacity="1"><g transform="translate(935.417502, 422.43304)"><g><path d="M 22.0625 0 L 3.953125 0 L 3.953125 -31.4375 L 22.0625 -31.4375 L 22.0625 -25.96875 L 10.625 -25.96875 L 10.625 -19.0625 L 21.265625 -19.0625 L 21.265625 -13.609375 L 10.625 -13.609375 L 10.625 -5.5 L 22.0625 -5.5 Z M 22.0625 0 "/></g></g></g><g fill="#d50000" fill-opacity="1"><g transform="translate(960.075436, 422.43304)"><g><path d="M 13.109375 -31.4375 C 15.960938 -31.4375 18.316406 -31.09375 20.171875 -30.40625 C 22.035156 -29.71875 23.414062 -28.675781 24.3125 -27.28125 C 25.21875 -25.894531 25.671875 -24.140625 25.671875 -22.015625 C 25.671875 -20.578125 25.394531 -19.320312 24.84375 -18.25 C 24.300781 -17.175781 23.585938 -16.265625 22.703125 -15.515625 C 21.816406 -14.773438 20.859375 -14.164062 19.828125 -13.6875 L 29.0625 0 L 21.671875 0 L 14.171875 -12.0625 L 10.625 -12.0625 L 10.625 0 L 3.953125 0 L 3.953125 -31.4375 Z M 12.640625 -25.96875 L 10.625 -25.96875 L 10.625 -17.484375 L 12.765625 -17.484375 C 14.972656 -17.484375 16.550781 -17.847656 17.5 -18.578125 C 18.457031 -19.316406 18.9375 -20.40625 18.9375 -21.84375 C 18.9375 -23.332031 18.421875 -24.390625 17.390625 -25.015625 C 16.367188 -25.648438 14.785156 -25.96875 12.640625 -25.96875 Z M 12.640625 -25.96875 "/></g></g></g><g fill="#d50000" fill-opacity="1"><g transform="translate(989.140359, 422.43304)"><g><path d="M 28.609375 -31.4375 L 17.9375 0 L 10.65625 0 L 0 -31.4375 L 6.734375 -31.4375 L 12.640625 -12.734375 C 12.742188 -12.410156 12.910156 -11.816406 13.140625 -10.953125 C 13.367188 -10.085938 13.597656 -9.171875 13.828125 -8.203125 C 14.066406 -7.234375 14.226562 -6.4375 14.3125 -5.8125 C 14.40625 -6.4375 14.5625 -7.226562 14.78125 -8.1875 C 15 -9.144531 15.21875 -10.054688 15.4375 -10.921875 C 15.664062 -11.796875 15.832031 -12.398438 15.9375 -12.734375 L 21.890625 -31.4375 Z M 28.609375 -31.4375 "/></g></g></g><g fill="#d50000" fill-opacity="1"><g transform="translate(1017.753879, 422.43304)"><g><path d="M 3.953125 0 L 3.953125 -31.4375 L 10.625 -31.4375 L 10.625 0 Z M 3.953125 0 "/></g></g></g><g fill="#d50000" fill-opacity="1"><g transform="translate(1032.329377, 422.43304)"><g><path d="M 17.3125 -26.34375 C 16.03125 -26.34375 14.898438 -26.09375 13.921875 -25.59375 C 12.941406 -25.101562 12.117188 -24.390625 11.453125 -23.453125 C 10.785156 -22.523438 10.28125 -21.398438 9.9375 -20.078125 C 9.59375 -18.765625 9.421875 -17.28125 9.421875 -15.625 C 9.421875 -13.40625 9.695312 -11.507812 10.25 -9.9375 C 10.800781 -8.375 11.65625 -7.175781 12.8125 -6.34375 C 13.976562 -5.519531 15.476562 -5.109375 17.3125 -5.109375 C 18.582031 -5.109375 19.859375 -5.253906 21.140625 -5.546875 C 22.421875 -5.835938 23.816406 -6.242188 25.328125 -6.765625 L 25.328125 -1.1875 C 23.929688 -0.613281 22.5625 -0.203125 21.21875 0.046875 C 19.875 0.304688 18.363281 0.4375 16.6875 0.4375 C 13.445312 0.4375 10.78125 -0.234375 8.6875 -1.578125 C 6.601562 -2.921875 5.0625 -4.796875 4.0625 -7.203125 C 3.0625 -9.617188 2.5625 -12.441406 2.5625 -15.671875 C 2.5625 -18.046875 2.882812 -20.222656 3.53125 -22.203125 C 4.175781 -24.179688 5.117188 -25.894531 6.359375 -27.34375 C 7.609375 -28.789062 9.148438 -29.910156 10.984375 -30.703125 C 12.816406 -31.492188 14.925781 -31.890625 17.3125 -31.890625 C 18.875 -31.890625 20.4375 -31.691406 22 -31.296875 C 23.570312 -30.898438 25.078125 -30.359375 26.515625 -29.671875 L 24.359375 -24.25 C 23.179688 -24.8125 22 -25.300781 20.8125 -25.71875 C 19.625 -26.132812 18.457031 -26.34375 17.3125 -26.34375 Z M 17.3125 -26.34375 "/></g></g></g><g fill="#d50000" fill-opacity="1"><g transform="translate(1060.383975, 422.43304)"><g><path d="M 22.0625 0 L 3.953125 0 L 3.953125 -31.4375 L 22.0625 -31.4375 L 22.0625 -25.96875 L 10.625 -25.96875 L 10.625 -19.0625 L 21.265625 -19.0625 L 21.265625 -13.609375 L 10.625 -13.609375 L 10.625 -5.5 L 22.0625 -5.5 Z M 22.0625 0 "/></g></g></g><g fill="#d50000" fill-opacity="1"><g transform="translate(1085.041908, 422.43304)"><g><path d="M 22.515625 -8.734375 C 22.515625 -6.867188 22.0625 -5.25 21.15625 -3.875 C 20.25 -2.5 18.929688 -1.4375 17.203125 -0.6875 C 15.484375 0.0625 13.390625 0.4375 10.921875 0.4375 C 9.828125 0.4375 8.757812 0.363281 7.71875 0.21875 C 6.6875 0.0703125 5.691406 -0.140625 4.734375 -0.421875 C 3.785156 -0.703125 2.878906 -1.050781 2.015625 -1.46875 L 2.015625 -7.65625 C 3.503906 -7 5.050781 -6.40625 6.65625 -5.875 C 8.269531 -5.34375 9.863281 -5.078125 11.4375 -5.078125 C 12.53125 -5.078125 13.410156 -5.21875 14.078125 -5.5 C 14.742188 -5.789062 15.222656 -6.1875 15.515625 -6.6875 C 15.816406 -7.1875 15.96875 -7.757812 15.96875 -8.40625 C 15.96875 -9.195312 15.703125 -9.867188 15.171875 -10.421875 C 14.648438 -10.984375 13.925781 -11.507812 13 -12 C 12.070312 -12.488281 11.03125 -13.007812 9.875 -13.5625 C 9.132812 -13.90625 8.332031 -14.320312 7.46875 -14.8125 C 6.613281 -15.3125 5.800781 -15.921875 5.03125 -16.640625 C 4.257812 -17.359375 3.625 -18.226562 3.125 -19.25 C 2.632812 -20.28125 2.390625 -21.507812 2.390625 -22.9375 C 2.390625 -24.8125 2.816406 -26.414062 3.671875 -27.75 C 4.535156 -29.082031 5.765625 -30.101562 7.359375 -30.8125 C 8.960938 -31.53125 10.851562 -31.890625 13.03125 -31.890625 C 14.664062 -31.890625 16.222656 -31.695312 17.703125 -31.3125 C 19.191406 -30.9375 20.742188 -30.390625 22.359375 -29.671875 L 20.203125 -24.484375 C 18.753906 -25.078125 17.457031 -25.535156 16.3125 -25.859375 C 15.164062 -26.179688 14 -26.34375 12.8125 -26.34375 C 11.976562 -26.34375 11.265625 -26.207031 10.671875 -25.9375 C 10.085938 -25.675781 9.644531 -25.300781 9.34375 -24.8125 C 9.050781 -24.332031 8.90625 -23.78125 8.90625 -23.15625 C 8.90625 -22.40625 9.125 -21.773438 9.5625 -21.265625 C 10 -20.765625 10.65625 -20.273438 11.53125 -19.796875 C 12.414062 -19.328125 13.515625 -18.773438 14.828125 -18.140625 C 16.441406 -17.378906 17.816406 -16.585938 18.953125 -15.765625 C 20.085938 -14.941406 20.960938 -13.972656 21.578125 -12.859375 C 22.203125 -11.753906 22.515625 -10.378906 22.515625 -8.734375 Z M 22.515625 -8.734375 "/></g></g></g></svg>