<svg xmlns="http://www.w3.org/2000/svg" xmlns:xlink="http://www.w3.org/1999/xlink" width="1920" zoomAndPan="magnify" viewBox="0 0 1440 809.999993" height="1080" preserveAspectRatio="xMidYMid meet" version="1.0"><defs><g/><clipPath id="7b6f7083f4"><path d="M 205.210938 329.3125 L 1235 329.3125 L 1235 480.6875 L 205.210938 480.6875 Z M 205.210938 329.3125 " clip-rule="nonzero"/></clipPath><clipPath id="96b5e14eff"><path d="M 1159.101562 329.3125 C 1200.902344 329.3125 1234.789062 363.199219 1234.789062 405 C 1234.789062 446.800781 1200.902344 480.6875 1159.101562 480.6875 L 280.898438 480.6875 C 239.097656 480.6875 205.210938 446.800781 205.210938 405 C 205.210938 363.199219 239.097656 329.3125 280.898438 329.3125 Z M 1159.101562 329.3125 " clip-rule="nonzero"/></clipPath><clipPath id="a9a27575ca"><path d="M 206.988281 333.835938 L 349.320312 333.835938 L 349.320312 476.164062 L 206.988281 476.164062 Z M 206.988281 333.835938 " clip-rule="nonzero"/></clipPath><clipPath id="ed07d9e815"><path d="M 278.152344 333.835938 C 238.851562 333.835938 206.988281 365.695312 206.988281 405 C 206.988281 444.304688 238.851562 476.164062 278.152344 476.164062 C 317.457031 476.164062 349.320312 444.304688 349.320312 405 C 349.320312 365.695312 317.457031 333.835938 278.152344 333.835938 Z M 278.152344 333.835938 " clip-rule="nonzero"/></clipPath><clipPath id="592f970b56"><path d="M 290 345.722656 L 319 345.722656 L 319 367 L 290 367 Z M 290 345.722656 " clip-rule="nonzero"/></clipPath><clipPath id="e76bf01f70"><path d="M 235.800781 378 L 251 378 L 251 389 L 235.800781 389 Z M 235.800781 378 " clip-rule="nonzero"/></clipPath><clipPath id="735fc70865"><path d="M 235.800781 382 L 245 382 L 245 464.972656 L 235.800781 464.972656 Z M 235.800781 382 " clip-rule="nonzero"/></clipPath><clipPath id="309d629ef5"><path d="M 243 408 L 320.550781 408 L 320.550781 464.972656 L 243 464.972656 Z M 243 408 " clip-rule="nonzero"/></clipPath><clipPath id="36f30ff20d"><path d="M 248 383 L 320.550781 383 L 320.550781 456 L 248 456 Z M 248 383 " clip-rule="nonzero"/></clipPath></defs><g clip-path="url(#7b6f7083f4)"><g clip-path="url(#96b5e14eff)"><path fill="#d50000" d="M 205.210938 329.3125 L 1234.695312 329.3125 L 1234.695312 480.6875 L 205.210938 480.6875 Z M 205.210938 329.3125 " fill-opacity="1" fill-rule="nonzero"/></g></g><g clip-path="url(#a9a27575ca)"><g clip-path="url(#ed07d9e815)"><path fill="#ffffff" d="M 206.988281 333.835938 L 349.320312 333.835938 L 349.320312 476.164062 L 206.988281 476.164062 Z M 206.988281 333.835938 " fill-opacity="1" fill-rule="nonzero"/></g></g><path fill="#d50000" d="M 316.378906 373.117188 C 316.296875 373.117188 316.21875 373.101562 316.144531 373.070312 L 300.140625 366.417969 C 300.042969 366.378906 299.964844 366.316406 299.898438 366.234375 C 299.832031 366.152344 299.789062 366.0625 299.773438 365.957031 C 299.753906 365.855469 299.761719 365.753906 299.796875 365.652344 C 299.832031 365.554688 299.886719 365.46875 299.964844 365.398438 L 317.058594 349.890625 C 317.261719 349.707031 317.484375 349.675781 317.730469 349.789062 C 317.976562 349.90625 318.09375 350.101562 318.082031 350.371094 L 316.988281 372.535156 C 316.980469 372.695312 316.917969 372.832031 316.800781 372.945312 C 316.683594 373.058594 316.542969 373.113281 316.378906 373.113281 Z M 301.5 365.660156 L 315.8125 371.609375 L 316.789062 351.785156 Z M 301.5 365.660156 " fill-opacity="1" fill-rule="nonzero"/><g clip-path="url(#592f970b56)"><path fill="#d50000" d="M 300.375 366.464844 C 300.292969 366.464844 300.214844 366.449219 300.136719 366.417969 L 290.980469 362.570312 C 290.882812 362.53125 290.800781 362.46875 290.734375 362.382812 C 290.667969 362.300781 290.628906 362.207031 290.613281 362.101562 C 290.597656 361.996094 290.609375 361.894531 290.644531 361.792969 C 290.683594 361.695312 290.742188 361.609375 290.824219 361.542969 L 309.292969 346.007812 C 309.496094 345.832031 309.71875 345.804688 309.957031 345.925781 L 317.742188 349.796875 C 317.894531 349.871094 317.996094 349.988281 318.050781 350.148438 C 318.101562 350.308594 318.09375 350.464844 318.015625 350.613281 C 317.941406 350.765625 317.824219 350.867188 317.664062 350.921875 C 317.503906 350.976562 317.347656 350.964844 317.199219 350.890625 L 309.773438 347.199219 L 292.375 361.832031 L 300.613281 365.292969 C 300.746094 365.347656 300.847656 365.441406 300.914062 365.570312 C 300.984375 365.699219 301.003906 365.835938 300.972656 365.976562 C 300.945312 366.121094 300.875 366.238281 300.761719 366.328125 C 300.648438 366.421875 300.519531 366.464844 300.375 366.464844 Z M 300.375 366.464844 " fill-opacity="1" fill-rule="nonzero"/></g><path fill="#d50000" d="M 267.742188 428.714844 C 267.664062 428.714844 267.589844 428.699219 267.515625 428.671875 L 261.589844 426.28125 C 261.554688 426.265625 261.523438 426.25 261.492188 426.226562 L 255.410156 422.332031 C 255.28125 422.246094 255.195312 422.128906 255.152344 421.980469 C 255.109375 421.832031 255.125 421.6875 255.191406 421.550781 L 272.027344 386.941406 C 272.109375 386.777344 272.238281 386.667969 272.417969 386.621094 L 288.671875 382.328125 L 297.292969 364.523438 C 297.367188 364.371094 297.484375 364.265625 297.644531 364.207031 C 297.804688 364.152344 297.960938 364.160156 298.113281 364.234375 C 298.265625 364.308594 298.371094 364.425781 298.425781 364.585938 C 298.480469 364.746094 298.46875 364.90625 298.394531 365.058594 L 289.648438 383.113281 C 289.570312 383.28125 289.4375 383.390625 289.257812 383.4375 L 273.003906 387.730469 L 256.527344 421.59375 L 262.105469 425.167969 L 267.441406 427.320312 L 281.429688 397.910156 C 281.507812 397.742188 281.640625 397.632812 281.824219 397.582031 L 296.632812 393.703125 L 309.402344 369.546875 C 309.476562 369.390625 309.597656 369.289062 309.761719 369.234375 C 309.925781 369.179688 310.082031 369.195312 310.234375 369.273438 C 310.386719 369.355469 310.488281 369.476562 310.535156 369.644531 C 310.582031 369.808594 310.566406 369.964844 310.480469 370.113281 L 297.589844 394.511719 C 297.503906 394.667969 297.375 394.769531 297.203125 394.816406 L 282.410156 398.691406 L 268.292969 428.367188 C 268.183594 428.597656 268 428.714844 267.742188 428.714844 Z M 267.742188 428.714844 " fill-opacity="1" fill-rule="nonzero"/><path fill="#d50000" d="M 261.820312 426.324219 C 261.714844 426.324219 261.617188 426.296875 261.523438 426.246094 C 261.433594 426.195312 261.359375 426.125 261.300781 426.039062 C 261.246094 425.949219 261.214844 425.851562 261.210938 425.746094 C 261.203125 425.640625 261.226562 425.542969 261.269531 425.449219 L 278.105469 390.738281 C 278.191406 390.566406 278.324219 390.457031 278.511719 390.410156 L 293.519531 386.734375 L 303.804688 367.21875 C 303.882812 367.070312 304 366.972656 304.164062 366.921875 C 304.324219 366.871094 304.480469 366.886719 304.628906 366.964844 C 304.777344 367.042969 304.875 367.164062 304.925781 367.324219 C 304.976562 367.484375 304.960938 367.640625 304.882812 367.789062 L 294.472656 387.546875 C 294.386719 387.710938 294.253906 387.8125 294.078125 387.855469 L 279.078125 391.527344 L 262.367188 425.980469 C 262.257812 426.210938 262.074219 426.324219 261.820312 426.324219 Z M 261.820312 426.324219 " fill-opacity="1" fill-rule="nonzero"/><g clip-path="url(#e76bf01f70)"><path fill="#d50000" d="M 243.582031 388.367188 C 243.457031 388.367188 243.339844 388.332031 243.238281 388.257812 L 236.066406 383.351562 C 235.980469 383.292969 235.914062 383.21875 235.867188 383.125 C 235.820312 383.035156 235.796875 382.9375 235.800781 382.832031 C 235.800781 382.730469 235.828125 382.636719 235.878906 382.546875 C 235.929688 382.457031 236 382.382812 236.085938 382.328125 L 241.699219 378.820312 C 241.917969 378.6875 242.132812 378.6875 242.351562 378.824219 L 249.910156 383.65625 C 250 383.714844 250.070312 383.789062 250.121094 383.882812 C 250.171875 383.972656 250.195312 384.074219 250.191406 384.179688 C 250.191406 384.285156 250.164062 384.382812 250.113281 384.476562 C 250.058594 384.566406 249.988281 384.640625 249.894531 384.695312 L 243.894531 388.28125 C 243.796875 388.335938 243.695312 388.367188 243.582031 388.367188 Z M 237.527344 382.867188 L 243.605469 387.03125 L 248.421875 384.152344 L 242.019531 380.058594 Z M 237.527344 382.867188 " fill-opacity="1" fill-rule="nonzero"/></g><g clip-path="url(#735fc70865)"><path fill="#d50000" d="M 244.214844 464.90625 C 244.105469 464.90625 244 464.878906 243.90625 464.820312 L 236.101562 460.222656 C 235.902344 460.105469 235.800781 459.929688 235.800781 459.695312 L 235.800781 382.847656 C 235.800781 382.675781 235.859375 382.53125 235.980469 382.414062 C 236.097656 382.292969 236.242188 382.234375 236.410156 382.234375 C 236.578125 382.234375 236.722656 382.292969 236.84375 382.414062 C 236.960938 382.53125 237.019531 382.675781 237.019531 382.847656 L 237.019531 459.347656 L 243.597656 463.222656 L 242.972656 387.761719 C 242.96875 387.59375 243.027344 387.449219 243.144531 387.328125 C 243.265625 387.207031 243.40625 387.148438 243.578125 387.144531 L 243.582031 387.144531 C 243.75 387.144531 243.890625 387.203125 244.011719 387.320312 C 244.128906 387.441406 244.191406 387.582031 244.191406 387.75 L 244.828125 464.289062 C 244.828125 464.460938 244.769531 464.605469 244.648438 464.726562 C 244.53125 464.84375 244.386719 464.90625 244.214844 464.90625 Z M 244.214844 464.90625 " fill-opacity="1" fill-rule="nonzero"/></g><g clip-path="url(#309d629ef5)"><path fill="#d50000" d="M 244.214844 464.90625 C 244.078125 464.90625 243.953125 464.863281 243.84375 464.78125 C 243.734375 464.695312 243.660156 464.585938 243.625 464.453125 C 243.589844 464.320312 243.597656 464.1875 243.652344 464.0625 C 243.703125 463.933594 243.792969 463.835938 243.910156 463.765625 L 319.199219 420.371094 L 319.199219 414.207031 L 311.382812 409.433594 L 249.890625 445.414062 C 249.746094 445.5 249.589844 445.519531 249.429688 445.476562 C 249.265625 445.433594 249.140625 445.339844 249.054688 445.195312 C 248.96875 445.050781 248.949219 444.894531 248.992188 444.734375 C 249.035156 444.570312 249.128906 444.445312 249.273438 444.359375 L 311.082031 408.195312 C 311.292969 408.074219 311.5 408.074219 311.710938 408.199219 L 320.128906 413.34375 C 320.320312 413.464844 320.417969 413.636719 320.417969 413.867188 L 320.417969 420.726562 C 320.417969 420.960938 320.316406 421.136719 320.113281 421.253906 L 244.519531 464.824219 C 244.425781 464.878906 244.324219 464.90625 244.214844 464.90625 Z M 244.214844 464.90625 " fill-opacity="1" fill-rule="nonzero"/></g><g clip-path="url(#36f30ff20d)"><path fill="#d50000" d="M 249.582031 455.476562 C 249.414062 455.476562 249.269531 455.417969 249.152344 455.296875 C 249.03125 455.179688 248.972656 455.035156 248.972656 454.867188 L 248.972656 384.171875 C 248.972656 384.003906 249.03125 383.859375 249.152344 383.738281 C 249.269531 383.621094 249.414062 383.558594 249.582031 383.558594 C 249.75 383.558594 249.894531 383.621094 250.015625 383.738281 C 250.132812 383.859375 250.195312 384.003906 250.195312 384.171875 L 250.195312 453.800781 L 319.5 413.339844 C 319.648438 413.257812 319.800781 413.234375 319.960938 413.277344 C 320.125 413.324219 320.246094 413.417969 320.332031 413.5625 C 320.417969 413.707031 320.4375 413.859375 320.394531 414.023438 C 320.355469 414.183594 320.261719 414.308594 320.117188 414.394531 L 249.890625 455.390625 C 249.796875 455.449219 249.691406 455.476562 249.582031 455.476562 Z M 249.582031 455.476562 " fill-opacity="1" fill-rule="nonzero"/></g><g fill="#ffffff" fill-opacity="1"><g transform="translate(374.044646, 422.657344)"><g><path d="M 13.109375 -31.40625 C 15.953125 -31.40625 18.300781 -31.0625 20.15625 -30.375 C 22.019531 -29.6875 23.398438 -28.648438 24.296875 -27.265625 C 25.203125 -25.878906 25.65625 -24.125 25.65625 -22 C 25.65625 -20.570312 25.378906 -19.316406 24.828125 -18.234375 C 24.285156 -17.160156 23.570312 -16.25 22.6875 -15.5 C 21.800781 -14.757812 20.84375 -14.15625 19.8125 -13.6875 L 29.046875 0 L 21.65625 0 L 14.15625 -12.046875 L 10.609375 -12.046875 L 10.609375 0 L 3.953125 0 L 3.953125 -31.40625 Z M 12.640625 -25.953125 L 10.609375 -25.953125 L 10.609375 -17.46875 L 12.765625 -17.46875 C 14.972656 -17.46875 16.550781 -17.835938 17.5 -18.578125 C 18.445312 -19.316406 18.921875 -20.398438 18.921875 -21.828125 C 18.921875 -23.316406 18.410156 -24.375 17.390625 -25 C 16.367188 -25.632812 14.785156 -25.953125 12.640625 -25.953125 Z M 12.640625 -25.953125 "/></g></g></g><g fill="#ffffff" fill-opacity="1"><g transform="translate(403.086362, 422.657344)"><g><path d="M 22.046875 0 L 3.953125 0 L 3.953125 -31.40625 L 22.046875 -31.40625 L 22.046875 -25.953125 L 10.609375 -25.953125 L 10.609375 -19.0625 L 21.25 -19.0625 L 21.25 -13.59375 L 10.609375 -13.59375 L 10.609375 -5.5 L 22.046875 -5.5 Z M 22.046875 0 "/></g></g></g><g fill="#ffffff" fill-opacity="1"><g transform="translate(427.724563, 422.657344)"><g><path d="M 28.59375 -31.40625 L 17.921875 0 L 10.65625 0 L 0 -31.40625 L 6.71875 -31.40625 L 12.640625 -12.71875 C 12.734375 -12.40625 12.894531 -11.8125 13.125 -10.9375 C 13.351562 -10.070312 13.585938 -9.15625 13.828125 -8.1875 C 14.066406 -7.226562 14.226562 -6.429688 14.3125 -5.796875 C 14.394531 -6.429688 14.546875 -7.226562 14.765625 -8.1875 C 14.992188 -9.144531 15.21875 -10.054688 15.4375 -10.921875 C 15.65625 -11.785156 15.816406 -12.382812 15.921875 -12.71875 L 21.875 -31.40625 Z M 28.59375 -31.40625 "/></g></g></g><g fill="#ffffff" fill-opacity="1"><g transform="translate(456.315187, 422.657344)"><g><path d="M 22.046875 0 L 3.953125 0 L 3.953125 -31.40625 L 22.046875 -31.40625 L 22.046875 -25.953125 L 10.609375 -25.953125 L 10.609375 -19.0625 L 21.25 -19.0625 L 21.25 -13.59375 L 10.609375 -13.59375 L 10.609375 -5.5 L 22.046875 -5.5 Z M 22.046875 0 "/></g></g></g><g fill="#ffffff" fill-opacity="1"><g transform="translate(480.953389, 422.657344)"><g><path d="M 31.8125 0 L 23.359375 0 L 9.6875 -23.765625 L 9.5 -23.765625 C 9.550781 -22.773438 9.597656 -21.773438 9.640625 -20.765625 C 9.691406 -19.765625 9.738281 -18.765625 9.78125 -17.765625 C 9.820312 -16.773438 9.863281 -15.78125 9.90625 -14.78125 L 9.90625 0 L 3.953125 0 L 3.953125 -31.40625 L 12.359375 -31.40625 L 26 -7.890625 L 26.140625 -7.890625 C 26.117188 -8.859375 26.082031 -9.820312 26.03125 -10.78125 C 25.988281 -11.738281 25.953125 -12.695312 25.921875 -13.65625 C 25.890625 -14.625 25.859375 -15.585938 25.828125 -16.546875 L 25.828125 -31.40625 L 31.8125 -31.40625 Z M 31.8125 0 "/></g></g></g><g fill="#ffffff" fill-opacity="1"><g transform="translate(516.71852, 422.657344)"><g><path d="M 29.515625 -31.40625 L 29.515625 -11.09375 C 29.515625 -8.925781 29.035156 -6.972656 28.078125 -5.234375 C 27.128906 -3.492188 25.691406 -2.113281 23.765625 -1.09375 C 21.847656 -0.0703125 19.425781 0.4375 16.5 0.4375 C 12.34375 0.4375 9.175781 -0.625 7 -2.75 C 4.820312 -4.875 3.734375 -7.679688 3.734375 -11.171875 L 3.734375 -31.40625 L 10.375 -31.40625 L 10.375 -12.1875 C 10.375 -9.59375 10.90625 -7.769531 11.96875 -6.71875 C 13.03125 -5.675781 14.597656 -5.15625 16.671875 -5.15625 C 18.128906 -5.15625 19.3125 -5.40625 20.21875 -5.90625 C 21.132812 -6.40625 21.804688 -7.175781 22.234375 -8.21875 C 22.660156 -9.269531 22.875 -10.601562 22.875 -12.21875 L 22.875 -31.40625 Z M 29.515625 -31.40625 "/></g></g></g><g fill="#ffffff" fill-opacity="1"><g transform="translate(549.970425, 422.657344)"><g><path d="M 22.046875 0 L 3.953125 0 L 3.953125 -31.40625 L 22.046875 -31.40625 L 22.046875 -25.953125 L 10.609375 -25.953125 L 10.609375 -19.0625 L 21.25 -19.0625 L 21.25 -13.59375 L 10.609375 -13.59375 L 10.609375 -5.5 L 22.046875 -5.5 Z M 22.046875 0 "/></g></g></g><g fill="#ffffff" fill-opacity="1"><g transform="translate(574.608616, 422.657344)"><g/></g></g><g fill="#ffffff" fill-opacity="1"><g transform="translate(586.036273, 422.657344)"><g><path d="M 22.5 -8.71875 C 22.5 -6.863281 22.046875 -5.25 21.140625 -3.875 C 20.234375 -2.5 18.914062 -1.4375 17.1875 -0.6875 C 15.46875 0.0625 13.378906 0.4375 10.921875 0.4375 C 9.828125 0.4375 8.757812 0.363281 7.71875 0.21875 C 6.6875 0.0703125 5.691406 -0.140625 4.734375 -0.421875 C 3.785156 -0.703125 2.878906 -1.050781 2.015625 -1.46875 L 2.015625 -7.65625 C 3.503906 -6.988281 5.050781 -6.390625 6.65625 -5.859375 C 8.257812 -5.335938 9.851562 -5.078125 11.4375 -5.078125 C 12.519531 -5.078125 13.394531 -5.21875 14.0625 -5.5 C 14.726562 -5.789062 15.210938 -6.1875 15.515625 -6.6875 C 15.816406 -7.1875 15.96875 -7.757812 15.96875 -8.40625 C 15.96875 -9.1875 15.703125 -9.859375 15.171875 -10.421875 C 14.640625 -10.984375 13.910156 -11.503906 12.984375 -11.984375 C 12.066406 -12.472656 11.023438 -13 9.859375 -13.5625 C 9.128906 -13.90625 8.332031 -14.320312 7.46875 -14.8125 C 6.613281 -15.3125 5.800781 -15.914062 5.03125 -16.625 C 4.257812 -17.34375 3.625 -18.210938 3.125 -19.234375 C 2.632812 -20.265625 2.390625 -21.492188 2.390625 -22.921875 C 2.390625 -24.796875 2.816406 -26.398438 3.671875 -27.734375 C 4.535156 -29.066406 5.765625 -30.085938 7.359375 -30.796875 C 8.953125 -31.503906 10.835938 -31.859375 13.015625 -31.859375 C 14.648438 -31.859375 16.207031 -31.664062 17.6875 -31.28125 C 19.175781 -30.90625 20.726562 -30.363281 22.34375 -29.65625 L 20.203125 -24.46875 C 18.753906 -25.0625 17.457031 -25.515625 16.3125 -25.828125 C 15.164062 -26.148438 14 -26.3125 12.8125 -26.3125 C 11.976562 -26.3125 11.265625 -26.179688 10.671875 -25.921875 C 10.085938 -25.660156 9.644531 -25.285156 9.34375 -24.796875 C 9.039062 -24.316406 8.890625 -23.765625 8.890625 -23.140625 C 8.890625 -22.390625 9.109375 -21.757812 9.546875 -21.25 C 9.984375 -20.75 10.640625 -20.257812 11.515625 -19.78125 C 12.398438 -19.3125 13.503906 -18.765625 14.828125 -18.140625 C 16.429688 -17.378906 17.800781 -16.585938 18.9375 -15.765625 C 20.070312 -14.941406 20.945312 -13.972656 21.5625 -12.859375 C 22.1875 -11.742188 22.5 -10.363281 22.5 -8.71875 Z M 22.5 -8.71875 "/></g></g></g><g fill="#ffffff" fill-opacity="1"><g transform="translate(610.266344, 422.657344)"><g><path d="M 13.734375 -18.484375 L 20.28125 -31.40625 L 27.453125 -31.40625 L 17.03125 -12.21875 L 17.03125 0 L 10.421875 0 L 10.421875 -12.015625 L 0 -31.40625 L 7.21875 -31.40625 Z M 13.734375 -18.484375 "/></g></g></g><g fill="#ffffff" fill-opacity="1"><g transform="translate(637.718499, 422.657344)"><g><path d="M 22.5 -8.71875 C 22.5 -6.863281 22.046875 -5.25 21.140625 -3.875 C 20.234375 -2.5 18.914062 -1.4375 17.1875 -0.6875 C 15.46875 0.0625 13.378906 0.4375 10.921875 0.4375 C 9.828125 0.4375 8.757812 0.363281 7.71875 0.21875 C 6.6875 0.0703125 5.691406 -0.140625 4.734375 -0.421875 C 3.785156 -0.703125 2.878906 -1.050781 2.015625 -1.46875 L 2.015625 -7.65625 C 3.503906 -6.988281 5.050781 -6.390625 6.65625 -5.859375 C 8.257812 -5.335938 9.851562 -5.078125 11.4375 -5.078125 C 12.519531 -5.078125 13.394531 -5.21875 14.0625 -5.5 C 14.726562 -5.789062 15.210938 -6.1875 15.515625 -6.6875 C 15.816406 -7.1875 15.96875 -7.757812 15.96875 -8.40625 C 15.96875 -9.1875 15.703125 -9.859375 15.171875 -10.421875 C 14.640625 -10.984375 13.910156 -11.503906 12.984375 -11.984375 C 12.066406 -12.472656 11.023438 -13 9.859375 -13.5625 C 9.128906 -13.90625 8.332031 -14.320312 7.46875 -14.8125 C 6.613281 -15.3125 5.800781 -15.914062 5.03125 -16.625 C 4.257812 -17.34375 3.625 -18.210938 3.125 -19.234375 C 2.632812 -20.265625 2.390625 -21.492188 2.390625 -22.921875 C 2.390625 -24.796875 2.816406 -26.398438 3.671875 -27.734375 C 4.535156 -29.066406 5.765625 -30.085938 7.359375 -30.796875 C 8.953125 -31.503906 10.835938 -31.859375 13.015625 -31.859375 C 14.648438 -31.859375 16.207031 -31.664062 17.6875 -31.28125 C 19.175781 -30.90625 20.726562 -30.363281 22.34375 -29.65625 L 20.203125 -24.46875 C 18.753906 -25.0625 17.457031 -25.515625 16.3125 -25.828125 C 15.164062 -26.148438 14 -26.3125 12.8125 -26.3125 C 11.976562 -26.3125 11.265625 -26.179688 10.671875 -25.921875 C 10.085938 -25.660156 9.644531 -25.285156 9.34375 -24.796875 C 9.039062 -24.316406 8.890625 -23.765625 8.890625 -23.140625 C 8.890625 -22.390625 9.109375 -21.757812 9.546875 -21.25 C 9.984375 -20.75 10.640625 -20.257812 11.515625 -19.78125 C 12.398438 -19.3125 13.503906 -18.765625 14.828125 -18.140625 C 16.429688 -17.378906 17.800781 -16.585938 18.9375 -15.765625 C 20.070312 -14.941406 20.945312 -13.972656 21.5625 -12.859375 C 22.1875 -11.742188 22.5 -10.363281 22.5 -8.71875 Z M 22.5 -8.71875 "/></g></g></g><g fill="#ffffff" fill-opacity="1"><g transform="translate(661.94857, 422.657344)"><g><path d="M 16.078125 0 L 9.40625 0 L 9.40625 -25.875 L 0.875 -25.875 L 0.875 -31.40625 L 24.59375 -31.40625 L 24.59375 -25.875 L 16.078125 -25.875 Z M 16.078125 0 "/></g></g></g><g fill="#ffffff" fill-opacity="1"><g transform="translate(687.424513, 422.657344)"><g><path d="M 22.046875 0 L 3.953125 0 L 3.953125 -31.40625 L 22.046875 -31.40625 L 22.046875 -25.953125 L 10.609375 -25.953125 L 10.609375 -19.0625 L 21.25 -19.0625 L 21.25 -13.59375 L 10.609375 -13.59375 L 10.609375 -5.5 L 22.046875 -5.5 Z M 22.046875 0 "/></g></g></g><g fill="#ffffff" fill-opacity="1"><g transform="translate(712.062726, 422.657344)"><g><path d="M 17.25 0 L 9.6875 -24.640625 L 9.5 -24.640625 C 9.53125 -24.054688 9.578125 -23.171875 9.640625 -21.984375 C 9.703125 -20.804688 9.757812 -19.550781 9.8125 -18.21875 C 9.875 -16.882812 9.90625 -15.679688 9.90625 -14.609375 L 9.90625 0 L 3.953125 0 L 3.953125 -31.40625 L 13.015625 -31.40625 L 20.453125 -7.390625 L 20.578125 -7.390625 L 28.46875 -31.40625 L 37.53125 -31.40625 L 37.53125 0 L 31.328125 0 L 31.328125 -14.875 C 31.328125 -15.851562 31.34375 -16.988281 31.375 -18.28125 C 31.414062 -19.570312 31.460938 -20.800781 31.515625 -21.96875 C 31.578125 -23.132812 31.617188 -24.007812 31.640625 -24.59375 L 31.453125 -24.59375 L 23.359375 0 Z M 17.25 0 "/></g></g></g><g fill="#ffffff" fill-opacity="1"><g transform="translate(753.541698, 422.657344)"><g/></g></g><g fill="#ffffff" fill-opacity="1"><g transform="translate(764.969355, 422.657344)"><g><path d="M 32.46875 -15.75 C 32.46875 -13.332031 32.164062 -11.128906 31.5625 -9.140625 C 30.957031 -7.160156 30.039062 -5.453125 28.8125 -4.015625 C 27.59375 -2.585938 26.046875 -1.488281 24.171875 -0.71875 C 22.296875 0.0507812 20.078125 0.4375 17.515625 0.4375 C 14.953125 0.4375 12.726562 0.0507812 10.84375 -0.71875 C 8.96875 -1.488281 7.414062 -2.585938 6.1875 -4.015625 C 4.96875 -5.453125 4.054688 -7.164062 3.453125 -9.15625 C 2.859375 -11.144531 2.5625 -13.359375 2.5625 -15.796875 C 2.5625 -19.046875 3.09375 -21.875 4.15625 -24.28125 C 5.226562 -26.695312 6.875 -28.570312 9.09375 -29.90625 C 11.3125 -31.238281 14.128906 -31.90625 17.546875 -31.90625 C 20.960938 -31.90625 23.769531 -31.238281 25.96875 -29.90625 C 28.164062 -28.570312 29.796875 -26.691406 30.859375 -24.265625 C 31.929688 -21.847656 32.46875 -19.007812 32.46875 -15.75 Z M 9.546875 -15.75 C 9.546875 -13.5625 9.816406 -11.675781 10.359375 -10.09375 C 10.910156 -8.507812 11.773438 -7.289062 12.953125 -6.4375 C 14.128906 -5.582031 15.648438 -5.15625 17.515625 -5.15625 C 19.398438 -5.15625 20.929688 -5.582031 22.109375 -6.4375 C 23.285156 -7.289062 24.140625 -8.507812 24.671875 -10.09375 C 25.210938 -11.675781 25.484375 -13.5625 25.484375 -15.75 C 25.484375 -19.039062 24.863281 -21.628906 23.625 -23.515625 C 22.394531 -25.410156 20.367188 -26.359375 17.546875 -26.359375 C 15.671875 -26.359375 14.140625 -25.929688 12.953125 -25.078125 C 11.773438 -24.234375 10.910156 -23.019531 10.359375 -21.4375 C 9.816406 -19.851562 9.546875 -17.957031 9.546875 -15.75 Z M 9.546875 -15.75 "/></g></g></g><g fill="#ffffff" fill-opacity="1"><g transform="translate(799.982643, 422.657344)"><g><path d="M 13.984375 -31.40625 C 18.035156 -31.40625 20.992188 -30.535156 22.859375 -28.796875 C 24.722656 -27.054688 25.65625 -24.660156 25.65625 -21.609375 C 25.65625 -20.234375 25.445312 -18.921875 25.03125 -17.671875 C 24.613281 -16.421875 23.9375 -15.304688 23 -14.328125 C 22.0625 -13.359375 20.8125 -12.585938 19.25 -12.015625 C 17.6875 -11.453125 15.757812 -11.171875 13.46875 -11.171875 L 10.609375 -11.171875 L 10.609375 0 L 3.953125 0 L 3.953125 -31.40625 Z M 13.640625 -25.953125 L 10.609375 -25.953125 L 10.609375 -16.625 L 12.8125 -16.625 C 14.050781 -16.625 15.128906 -16.789062 16.046875 -17.125 C 16.960938 -17.457031 17.671875 -17.972656 18.171875 -18.671875 C 18.671875 -19.367188 18.921875 -20.269531 18.921875 -21.375 C 18.921875 -22.925781 18.488281 -24.078125 17.625 -24.828125 C 16.769531 -25.578125 15.441406 -25.953125 13.640625 -25.953125 Z M 13.640625 -25.953125 "/></g></g></g><g fill="#ffffff" fill-opacity="1"><g transform="translate(827.606665, 422.657344)"><g><path d="M 16.078125 0 L 9.40625 0 L 9.40625 -25.875 L 0.875 -25.875 L 0.875 -31.40625 L 24.59375 -31.40625 L 24.59375 -25.875 L 16.078125 -25.875 Z M 16.078125 0 "/></g></g></g><g fill="#ffffff" fill-opacity="1"><g transform="translate(853.082586, 422.657344)"><g><path d="M 3.953125 0 L 3.953125 -31.40625 L 10.609375 -31.40625 L 10.609375 0 Z M 3.953125 0 "/></g></g></g><g fill="#ffffff" fill-opacity="1"><g transform="translate(867.646428, 422.657344)"><g><path d="M 17.25 0 L 9.6875 -24.640625 L 9.5 -24.640625 C 9.53125 -24.054688 9.578125 -23.171875 9.640625 -21.984375 C 9.703125 -20.804688 9.757812 -19.550781 9.8125 -18.21875 C 9.875 -16.882812 9.90625 -15.679688 9.90625 -14.609375 L 9.90625 0 L 3.953125 0 L 3.953125 -31.40625 L 13.015625 -31.40625 L 20.453125 -7.390625 L 20.578125 -7.390625 L 28.46875 -31.40625 L 37.53125 -31.40625 L 37.53125 0 L 31.328125 0 L 31.328125 -14.875 C 31.328125 -15.851562 31.34375 -16.988281 31.375 -18.28125 C 31.414062 -19.570312 31.460938 -20.800781 31.515625 -21.96875 C 31.578125 -23.132812 31.617188 -24.007812 31.640625 -24.59375 L 31.453125 -24.59375 L 23.359375 0 Z M 17.25 0 "/></g></g></g><g fill="#ffffff" fill-opacity="1"><g transform="translate(909.125399, 422.657344)"><g><path d="M 3.953125 0 L 3.953125 -31.40625 L 10.609375 -31.40625 L 10.609375 0 Z M 3.953125 0 "/></g></g></g><g fill="#ffffff" fill-opacity="1"><g transform="translate(923.689242, 422.657344)"><g><path d="M 24.421875 0 L 1.046875 0 L 1.046875 -4.3125 L 16.109375 -25.90625 L 1.46875 -25.90625 L 1.46875 -31.40625 L 24.015625 -31.40625 L 24.015625 -27.109375 L 8.984375 -5.5 L 24.421875 -5.5 Z M 24.421875 0 "/></g></g></g><g fill="#ffffff" fill-opacity="1"><g transform="translate(949.165162, 422.657344)"><g><path d="M 23.1875 0 L 20.90625 -7.484375 L 9.453125 -7.484375 L 7.171875 0 L 0 0 L 11.09375 -31.546875 L 19.234375 -31.546875 L 30.359375 0 Z M 19.3125 -13.0625 L 17.03125 -20.375 C 16.894531 -20.851562 16.707031 -21.472656 16.46875 -22.234375 C 16.226562 -23.003906 15.988281 -23.785156 15.75 -24.578125 C 15.519531 -25.378906 15.332031 -26.070312 15.1875 -26.65625 C 15.039062 -26.070312 14.84375 -25.347656 14.59375 -24.484375 C 14.34375 -23.617188 14.101562 -22.796875 13.875 -22.015625 C 13.644531 -21.242188 13.484375 -20.695312 13.390625 -20.375 L 11.125 -13.0625 Z M 19.3125 -13.0625 "/></g></g></g><g fill="#ffffff" fill-opacity="1"><g transform="translate(979.517181, 422.657344)"><g><path d="M 16.078125 0 L 9.40625 0 L 9.40625 -25.875 L 0.875 -25.875 L 0.875 -31.40625 L 24.59375 -31.40625 L 24.59375 -25.875 L 16.078125 -25.875 Z M 16.078125 0 "/></g></g></g><g fill="#ffffff" fill-opacity="1"><g transform="translate(1004.993101, 422.657344)"><g><path d="M 3.953125 0 L 3.953125 -31.40625 L 10.609375 -31.40625 L 10.609375 0 Z M 3.953125 0 "/></g></g></g><g fill="#ffffff" fill-opacity="1"><g transform="translate(1019.556943, 422.657344)"><g><path d="M 32.46875 -15.75 C 32.46875 -13.332031 32.164062 -11.128906 31.5625 -9.140625 C 30.957031 -7.160156 30.039062 -5.453125 28.8125 -4.015625 C 27.59375 -2.585938 26.046875 -1.488281 24.171875 -0.71875 C 22.296875 0.0507812 20.078125 0.4375 17.515625 0.4375 C 14.953125 0.4375 12.726562 0.0507812 10.84375 -0.71875 C 8.96875 -1.488281 7.414062 -2.585938 6.1875 -4.015625 C 4.96875 -5.453125 4.054688 -7.164062 3.453125 -9.15625 C 2.859375 -11.144531 2.5625 -13.359375 2.5625 -15.796875 C 2.5625 -19.046875 3.09375 -21.875 4.15625 -24.28125 C 5.226562 -26.695312 6.875 -28.570312 9.09375 -29.90625 C 11.3125 -31.238281 14.128906 -31.90625 17.546875 -31.90625 C 20.960938 -31.90625 23.769531 -31.238281 25.96875 -29.90625 C 28.164062 -28.570312 29.796875 -26.691406 30.859375 -24.265625 C 31.929688 -21.847656 32.46875 -19.007812 32.46875 -15.75 Z M 9.546875 -15.75 C 9.546875 -13.5625 9.816406 -11.675781 10.359375 -10.09375 C 10.910156 -8.507812 11.773438 -7.289062 12.953125 -6.4375 C 14.128906 -5.582031 15.648438 -5.15625 17.515625 -5.15625 C 19.398438 -5.15625 20.929688 -5.582031 22.109375 -6.4375 C 23.285156 -7.289062 24.140625 -8.507812 24.671875 -10.09375 C 25.210938 -11.675781 25.484375 -13.5625 25.484375 -15.75 C 25.484375 -19.039062 24.863281 -21.628906 23.625 -23.515625 C 22.394531 -25.410156 20.367188 -26.359375 17.546875 -26.359375 C 15.671875 -26.359375 14.140625 -25.929688 12.953125 -25.078125 C 11.773438 -24.234375 10.910156 -23.019531 10.359375 -21.4375 C 9.816406 -19.851562 9.546875 -17.957031 9.546875 -15.75 Z M 9.546875 -15.75 "/></g></g></g><g fill="#ffffff" fill-opacity="1"><g transform="translate(1054.570278, 422.657344)"><g><path d="M 31.8125 0 L 23.359375 0 L 9.6875 -23.765625 L 9.5 -23.765625 C 9.550781 -22.773438 9.597656 -21.773438 9.640625 -20.765625 C 9.691406 -19.765625 9.738281 -18.765625 9.78125 -17.765625 C 9.820312 -16.773438 9.863281 -15.78125 9.90625 -14.78125 L 9.90625 0 L 3.953125 0 L 3.953125 -31.40625 L 12.359375 -31.40625 L 26 -7.890625 L 26.140625 -7.890625 C 26.117188 -8.859375 26.082031 -9.820312 26.03125 -10.78125 C 25.988281 -11.738281 25.953125 -12.695312 25.921875 -13.65625 C 25.890625 -14.625 25.859375 -15.585938 25.828125 -16.546875 L 25.828125 -31.40625 L 31.8125 -31.40625 Z M 31.8125 0 "/></g></g></g></svg>