<svg xmlns="http://www.w3.org/2000/svg" xmlns:xlink="http://www.w3.org/1999/xlink" width="1920" zoomAndPan="magnify" viewBox="0 0 1440 809.999993" height="1080" preserveAspectRatio="xMidYMid meet" version="1.0"><defs><g/><clipPath id="2fe7922fa2"><path d="M 266.519531 334.261719 L 1173.9375 334.261719 L 1173.9375 475.738281 L 266.519531 475.738281 Z M 266.519531 334.261719 " clip-rule="nonzero"/></clipPath><clipPath id="5f6915e878"><path d="M 1102.742188 334.261719 C 1141.808594 334.261719 1173.480469 365.933594 1173.480469 405 C 1173.480469 444.066406 1141.808594 475.738281 1102.742188 475.738281 L 337.257812 475.738281 C 298.191406 475.738281 266.519531 444.066406 266.519531 405 C 266.519531 365.933594 298.191406 334.261719 337.257812 334.261719 Z M 1102.742188 334.261719 " clip-rule="nonzero"/></clipPath><clipPath id="81ed9a3ff0"><path d="M 268.183594 338.984375 L 401.199219 338.984375 L 401.199219 472 L 268.183594 472 Z M 268.183594 338.984375 " clip-rule="nonzero"/></clipPath><clipPath id="af1f8ddd75"><path d="M 334.691406 338.984375 C 297.960938 338.984375 268.183594 368.757812 268.183594 405.492188 C 268.183594 442.222656 297.960938 472 334.691406 472 C 371.421875 472 401.199219 442.222656 401.199219 405.492188 C 401.199219 368.757812 371.421875 338.984375 334.691406 338.984375 Z M 334.691406 338.984375 " clip-rule="nonzero"/></clipPath><clipPath id="a22bac3ed8"><path d="M 316 442 L 356 442 L 356 462.960938 L 316 462.960938 Z M 316 442 " clip-rule="nonzero"/></clipPath><clipPath id="a52c76c954"><path d="M 340 351.960938 L 377 351.960938 L 377 381 L 340 381 Z M 340 351.960938 " clip-rule="nonzero"/></clipPath><clipPath id="e867ad0999"><path d="M 354 382 L 385.425781 382 L 385.425781 401 L 354 401 Z M 354 382 " clip-rule="nonzero"/></clipPath><clipPath id="d84194a9bc"><path d="M 354 391 L 385.425781 391 L 385.425781 408 L 354 408 Z M 354 391 " clip-rule="nonzero"/></clipPath><clipPath id="67265be54a"><path d="M 281.175781 426 L 312 426 L 312 444 L 281.175781 444 Z M 281.175781 426 " clip-rule="nonzero"/></clipPath><clipPath id="8f566124d2"><path d="M 281.175781 434 L 312 434 L 312 451 L 281.175781 451 Z M 281.175781 434 " clip-rule="nonzero"/></clipPath></defs><g clip-path="url(#2fe7922fa2)"><g clip-path="url(#5f6915e878)"><path fill="#414141" d="M 266.519531 334.261719 L 1173.386719 334.261719 L 1173.386719 475.738281 L 266.519531 475.738281 Z M 266.519531 334.261719 " fill-opacity="1" fill-rule="nonzero"/></g></g><g clip-path="url(#81ed9a3ff0)"><g clip-path="url(#af1f8ddd75)"><path fill="#ffffff" d="M 268.183594 338.984375 L 401.199219 338.984375 L 401.199219 472 L 268.183594 472 Z M 268.183594 338.984375 " fill-opacity="1" fill-rule="nonzero"/></g></g><path fill="#d50000" d="M 336.230469 366.234375 C 333.035156 366.234375 330.535156 364.65625 330.535156 362.636719 C 330.535156 360.617188 333.035156 359.039062 336.230469 359.039062 C 339.421875 359.039062 341.925781 360.617188 341.925781 362.636719 C 341.925781 364.65625 339.421875 366.234375 336.230469 366.234375 Z M 336.230469 360.035156 C 333.683594 360.035156 331.53125 361.226562 331.53125 362.636719 C 331.53125 364.046875 333.683594 365.242188 336.230469 365.242188 C 338.777344 365.242188 340.929688 364.046875 340.929688 362.636719 C 340.929688 361.226562 338.777344 360.035156 336.230469 360.035156 Z M 336.230469 360.035156 " fill-opacity="1" fill-rule="nonzero"/><path fill="#d50000" d="M 336.515625 437.9375 C 335.863281 437.9375 335.21875 437.863281 334.582031 437.71875 C 334.003906 437.578125 333.464844 437.351562 332.964844 437.03125 C 332.464844 436.710938 332.03125 436.316406 331.664062 435.847656 C 331.296875 435.382812 331.015625 434.867188 330.820312 434.308594 C 330.628906 433.746094 330.53125 433.167969 330.535156 432.574219 L 330.535156 362.636719 C 330.535156 362.5 330.582031 362.382812 330.679688 362.285156 C 330.777344 362.1875 330.894531 362.140625 331.03125 362.140625 C 331.167969 362.140625 331.285156 362.1875 331.382812 362.285156 C 331.480469 362.382812 331.527344 362.5 331.527344 362.636719 L 331.527344 432.574219 C 331.527344 433.054688 331.605469 433.523438 331.761719 433.980469 C 331.917969 434.433594 332.144531 434.851562 332.441406 435.230469 C 332.738281 435.605469 333.085938 435.925781 333.492188 436.1875 C 333.898438 436.445312 334.332031 436.632812 334.800781 436.746094 C 335.5 436.90625 336.210938 436.96875 336.929688 436.929688 C 337.472656 436.894531 337.992188 436.761719 338.484375 436.527344 C 338.976562 436.292969 339.40625 435.976562 339.777344 435.578125 C 340.148438 435.179688 340.433594 434.726562 340.632812 434.222656 C 340.832031 433.714844 340.929688 433.1875 340.925781 432.644531 L 340.925781 362.636719 C 340.925781 362.5 340.976562 362.382812 341.074219 362.285156 C 341.171875 362.1875 341.289062 362.140625 341.425781 362.140625 C 341.5625 362.140625 341.679688 362.1875 341.777344 362.285156 C 341.875 362.382812 341.921875 362.5 341.921875 362.636719 L 341.921875 432.644531 C 341.925781 432.976562 341.894531 433.304688 341.832031 433.632812 C 341.769531 433.960938 341.679688 434.277344 341.558594 434.589844 C 341.4375 434.898438 341.285156 435.191406 341.109375 435.472656 C 340.933594 435.753906 340.730469 436.019531 340.503906 436.261719 C 340.273438 436.503906 340.027344 436.722656 339.757812 436.921875 C 339.488281 437.117188 339.207031 437.285156 338.90625 437.429688 C 338.605469 437.570312 338.292969 437.683594 337.972656 437.765625 C 337.648438 437.851562 337.320312 437.902344 336.988281 437.925781 C 336.835938 437.933594 336.675781 437.9375 336.515625 437.9375 Z M 336.515625 437.9375 " fill-opacity="1" fill-rule="nonzero"/><path fill="#d50000" d="M 336.230469 442.648438 C 329.730469 442.648438 324.445312 439.398438 324.445312 435.402344 C 324.445312 432.648438 326.914062 430.171875 330.882812 428.9375 C 331.015625 428.894531 331.140625 428.90625 331.261719 428.972656 C 331.386719 429.035156 331.464844 429.132812 331.507812 429.265625 C 331.546875 429.394531 331.535156 429.523438 331.472656 429.644531 C 331.410156 429.765625 331.3125 429.847656 331.179688 429.886719 C 327.640625 430.988281 325.441406 433.101562 325.441406 435.402344 C 325.441406 438.851562 330.28125 441.652344 336.230469 441.652344 C 342.179688 441.652344 347.015625 438.851562 347.015625 435.402344 C 347.015625 433.101562 344.816406 430.988281 341.277344 429.886719 C 341.148438 429.847656 341.050781 429.765625 340.984375 429.644531 C 340.921875 429.523438 340.910156 429.394531 340.953125 429.265625 C 340.992188 429.132812 341.074219 429.035156 341.195312 428.972656 C 341.316406 428.90625 341.441406 428.894531 341.574219 428.9375 C 345.546875 430.171875 348.011719 432.648438 348.011719 435.402344 C 348.011719 439.398438 342.726562 442.648438 336.230469 442.648438 Z M 336.230469 442.648438 " fill-opacity="1" fill-rule="nonzero"/><path fill="#d50000" d="M 336.257812 451.046875 C 332.320312 451.046875 329.082031 449.527344 327.058594 448.25 C 326.242188 447.738281 325.601562 447.0625 325.136719 446.21875 C 324.671875 445.375 324.441406 444.472656 324.445312 443.507812 L 324.445312 435.402344 C 324.445312 435.265625 324.496094 435.148438 324.589844 435.050781 C 324.6875 434.953125 324.804688 434.90625 324.945312 434.90625 C 325.082031 434.90625 325.199219 434.953125 325.296875 435.050781 C 325.394531 435.148438 325.441406 435.265625 325.441406 435.402344 L 325.441406 443.507812 C 325.4375 444.300781 325.628906 445.042969 326.011719 445.738281 C 326.390625 446.429688 326.917969 446.988281 327.589844 447.410156 C 330.851562 449.464844 337.449219 452.1875 344.984375 447.289062 C 345.625 446.863281 346.128906 446.3125 346.488281 445.636719 C 346.847656 444.957031 347.023438 444.234375 347.015625 443.464844 L 347.015625 435.402344 C 347.015625 435.265625 347.066406 435.148438 347.164062 435.050781 C 347.261719 434.953125 347.378906 434.90625 347.515625 434.90625 C 347.652344 434.90625 347.769531 434.953125 347.867188 435.050781 C 347.964844 435.148438 348.011719 435.265625 348.011719 435.402344 L 348.011719 443.464844 C 348.019531 444.402344 347.804688 445.285156 347.363281 446.109375 C 346.921875 446.9375 346.308594 447.609375 345.527344 448.121094 C 342.207031 450.28125 339.054688 451.046875 336.257812 451.046875 Z M 336.257812 451.046875 " fill-opacity="1" fill-rule="nonzero"/><path fill="#d50000" d="M 336.125 455.402344 C 325.328125 455.402344 316.542969 449.941406 316.542969 443.230469 C 316.542969 439.296875 319.609375 435.589844 324.742188 433.316406 C 324.867188 433.257812 324.992188 433.253906 325.121094 433.304688 C 325.25 433.355469 325.34375 433.441406 325.398438 433.566406 C 325.453125 433.695312 325.457031 433.820312 325.40625 433.949219 C 325.359375 434.078125 325.269531 434.167969 325.144531 434.226562 C 320.382812 436.335938 317.539062 439.699219 317.539062 443.230469 C 317.539062 449.394531 325.875 454.40625 336.121094 454.40625 C 346.371094 454.40625 354.707031 449.394531 354.707031 443.230469 C 354.707031 439.761719 351.941406 436.429688 347.304688 434.316406 C 347.183594 434.261719 347.09375 434.167969 347.046875 434.039062 C 347 433.910156 347.003906 433.785156 347.0625 433.660156 C 347.117188 433.535156 347.210938 433.445312 347.339844 433.398438 C 347.46875 433.351562 347.59375 433.355469 347.71875 433.410156 C 352.792969 435.722656 355.703125 439.300781 355.703125 443.230469 C 355.703125 449.941406 346.921875 455.402344 336.125 455.402344 Z M 336.125 455.402344 " fill-opacity="1" fill-rule="nonzero"/><g clip-path="url(#a22bac3ed8)"><path fill="#d50000" d="M 336.34375 462.214844 C 330.707031 462.214844 325.085938 460.527344 320.695312 457.167969 C 320.050781 456.667969 319.46875 456.101562 318.953125 455.46875 C 318.4375 454.835938 318 454.152344 317.640625 453.421875 C 317.28125 452.6875 317.007812 451.925781 316.820312 451.128906 C 316.636719 450.332031 316.542969 449.527344 316.542969 448.710938 L 316.542969 443.230469 C 316.542969 443.09375 316.59375 442.976562 316.691406 442.878906 C 316.789062 442.78125 316.90625 442.734375 317.042969 442.734375 C 317.179688 442.734375 317.296875 442.78125 317.394531 442.878906 C 317.492188 442.976562 317.539062 443.09375 317.539062 443.230469 L 317.539062 448.710938 C 317.539062 450.210938 317.871094 451.632812 318.53125 452.980469 C 319.191406 454.328125 320.117188 455.460938 321.300781 456.378906 C 329.484375 462.636719 342.121094 462.863281 350.699219 456.910156 C 353.097656 455.242188 354.707031 451.976562 354.707031 448.773438 L 354.707031 443.230469 C 354.707031 443.09375 354.757812 442.976562 354.855469 442.878906 C 354.953125 442.78125 355.070312 442.734375 355.207031 442.734375 C 355.34375 442.734375 355.460938 442.78125 355.558594 442.878906 C 355.65625 442.976562 355.703125 443.09375 355.703125 443.230469 L 355.703125 448.773438 C 355.703125 452.339844 353.964844 455.855469 351.269531 457.726562 C 346.949219 460.722656 341.640625 462.214844 336.34375 462.214844 Z M 336.34375 462.214844 " fill-opacity="1" fill-rule="nonzero"/></g><path fill="#d50000" d="M 292.097656 409.597656 C 291.84375 409.597656 291.683594 409.472656 291.613281 409.230469 C 291.546875 408.984375 291.625 408.796875 291.84375 408.667969 L 330.78125 385.824219 C 330.898438 385.753906 331.023438 385.738281 331.15625 385.773438 C 331.289062 385.808594 331.390625 385.882812 331.460938 386.003906 C 331.53125 386.121094 331.546875 386.246094 331.515625 386.378906 C 331.480469 386.511719 331.402344 386.613281 331.285156 386.683594 L 292.347656 409.527344 C 292.269531 409.574219 292.1875 409.597656 292.097656 409.597656 Z M 292.097656 409.597656 " fill-opacity="1" fill-rule="nonzero"/><g clip-path="url(#a52c76c954)"><path fill="#d50000" d="M 341.648438 380.523438 C 341.394531 380.523438 341.234375 380.402344 341.167969 380.15625 C 341.101562 379.910156 341.179688 379.722656 341.398438 379.597656 L 375.300781 359.703125 C 375.652344 354.441406 372.464844 353.210938 371.671875 352.988281 L 341.671875 370.253906 C 341.554688 370.324219 341.429688 370.339844 341.296875 370.304688 C 341.164062 370.269531 341.0625 370.191406 340.992188 370.074219 C 340.921875 369.953125 340.90625 369.828125 340.941406 369.695312 C 340.980469 369.5625 341.054688 369.460938 341.175781 369.390625 L 371.347656 352.027344 C 371.453125 351.964844 371.566406 351.945312 371.6875 351.96875 C 371.738281 351.980469 376.878906 353.015625 376.273438 360.046875 C 376.257812 360.214844 376.175781 360.34375 376.027344 360.433594 L 341.902344 380.453125 C 341.824219 380.5 341.738281 380.523438 341.648438 380.523438 Z M 341.648438 380.523438 " fill-opacity="1" fill-rule="nonzero"/></g><path fill="#d50000" d="M 286.652344 401.84375 C 286.394531 401.84375 286.234375 401.722656 286.167969 401.476562 C 286.105469 401.230469 286.179688 401.042969 286.402344 400.917969 L 330.785156 375.375 C 330.902344 375.304688 331.027344 375.289062 331.160156 375.324219 C 331.292969 375.359375 331.394531 375.4375 331.464844 375.554688 C 331.53125 375.675781 331.550781 375.800781 331.515625 375.933594 C 331.476562 376.066406 331.402344 376.167969 331.28125 376.234375 L 286.898438 401.777344 C 286.820312 401.824219 286.738281 401.84375 286.652344 401.84375 Z M 286.652344 401.84375 " fill-opacity="1" fill-rule="nonzero"/><path fill="#d50000" d="M 290.84375 409.972656 C 289.398438 409.972656 287.71875 408.972656 286.5 407.242188 C 284.8125 404.839844 284.753906 402.070312 286.363281 400.941406 C 287.976562 399.808594 290.558594 400.804688 292.246094 403.203125 C 293.933594 405.605469 293.992188 408.375 292.382812 409.503906 C 291.917969 409.824219 291.40625 409.980469 290.84375 409.972656 Z M 287.890625 401.476562 C 287.542969 401.46875 287.222656 401.5625 286.9375 401.753906 C 285.820312 402.539062 285.996094 404.789062 287.316406 406.667969 C 288.636719 408.550781 290.691406 409.476562 291.808594 408.691406 C 292.925781 407.90625 292.75 405.65625 291.429688 403.777344 C 290.429688 402.351562 289.003906 401.476562 287.890625 401.476562 Z M 287.890625 401.476562 " fill-opacity="1" fill-rule="nonzero"/><g clip-path="url(#e867ad0999)"><path fill="#d50000" d="M 369.804688 400.589844 C 361.421875 400.589844 354.601562 396.605469 354.601562 391.707031 C 354.601562 386.808594 361.421875 382.824219 369.804688 382.824219 C 378.183594 382.824219 385.003906 386.808594 385.003906 391.707031 C 385.003906 396.605469 378.1875 400.589844 369.804688 400.589844 Z M 369.804688 383.816406 C 361.972656 383.816406 355.597656 387.355469 355.597656 391.707031 C 355.597656 396.054688 361.96875 399.59375 369.804688 399.59375 C 377.636719 399.59375 384.007812 396.054688 384.007812 391.707031 C 384.007812 387.355469 377.636719 383.820312 369.804688 383.820312 Z M 369.804688 383.816406 " fill-opacity="1" fill-rule="nonzero"/></g><g clip-path="url(#d84194a9bc)"><path fill="#d50000" d="M 369.804688 407.25 C 368.804688 407.25 367.816406 407.152344 366.839844 406.957031 C 365.859375 406.761719 364.910156 406.472656 363.988281 406.089844 C 363.066406 405.707031 362.191406 405.238281 361.363281 404.683594 C 360.535156 404.128906 359.765625 403.5 359.0625 402.792969 C 358.355469 402.089844 357.726562 401.320312 357.171875 400.492188 C 356.617188 399.660156 356.148438 398.785156 355.765625 397.863281 C 355.382812 396.941406 355.09375 395.992188 354.898438 395.015625 C 354.703125 394.035156 354.605469 393.046875 354.601562 392.050781 L 354.601562 391.707031 C 354.601562 391.570312 354.652344 391.449219 354.75 391.355469 C 354.847656 391.257812 354.964844 391.207031 355.101562 391.207031 C 355.238281 391.207031 355.355469 391.257812 355.453125 391.355469 C 355.550781 391.449219 355.597656 391.570312 355.597656 391.707031 L 355.597656 392.050781 C 355.597656 392.984375 355.691406 393.90625 355.875 394.820312 C 356.054688 395.734375 356.324219 396.621094 356.683594 397.484375 C 357.039062 398.34375 357.476562 399.164062 357.996094 399.9375 C 358.515625 400.710938 359.101562 401.429688 359.761719 402.089844 C 360.421875 402.746094 361.140625 403.335938 361.914062 403.855469 C 362.691406 404.371094 363.507812 404.808594 364.371094 405.164062 C 365.230469 405.523438 366.121094 405.792969 367.035156 405.972656 C 367.949219 406.15625 368.871094 406.246094 369.804688 406.246094 C 370.738281 406.246094 371.660156 406.15625 372.574219 405.972656 C 373.488281 405.792969 374.375 405.523438 375.238281 405.164062 C 376.097656 404.808594 376.917969 404.371094 377.691406 403.855469 C 378.46875 403.335938 379.1875 402.746094 379.84375 402.089844 C 380.503906 401.429688 381.09375 400.710938 381.613281 399.9375 C 382.128906 399.164062 382.566406 398.34375 382.925781 397.484375 C 383.28125 396.621094 383.550781 395.734375 383.734375 394.820312 C 383.917969 393.90625 384.007812 392.984375 384.007812 392.050781 L 384.007812 391.707031 C 384.007812 391.570312 384.058594 391.449219 384.15625 391.355469 C 384.253906 391.257812 384.371094 391.207031 384.507812 391.207031 C 384.644531 391.207031 384.761719 391.257812 384.859375 391.355469 C 384.957031 391.449219 385.003906 391.570312 385.003906 391.707031 L 385.003906 392.050781 C 385.003906 393.046875 384.90625 394.035156 384.710938 395.015625 C 384.515625 395.992188 384.226562 396.941406 383.84375 397.863281 C 383.460938 398.785156 382.992188 399.660156 382.4375 400.492188 C 381.882812 401.320312 381.253906 402.089844 380.546875 402.792969 C 379.84375 403.5 379.074219 404.128906 378.246094 404.683594 C 377.414062 405.238281 376.539062 405.707031 375.617188 406.089844 C 374.695312 406.472656 373.746094 406.761719 372.769531 406.957031 C 371.789062 407.152344 370.800781 407.25 369.804688 407.25 Z M 369.804688 407.25 " fill-opacity="1" fill-rule="nonzero"/></g><path fill="#d50000" d="M 357.867188 401.125 C 357.789062 401.125 357.714844 401.109375 357.644531 401.074219 C 357.578125 401.039062 357.519531 400.992188 357.472656 400.929688 C 357.425781 400.871094 357.394531 400.800781 357.378906 400.726562 C 357.363281 400.648438 357.363281 400.574219 357.382812 400.5 L 366.769531 364.878906 C 366.800781 364.742188 366.875 364.640625 366.996094 364.566406 C 367.117188 364.496094 367.242188 364.476562 367.378906 364.511719 C 367.515625 364.546875 367.617188 364.628906 367.6875 364.75 C 367.753906 364.871094 367.769531 365 367.730469 365.132812 L 358.347656 400.753906 C 358.28125 401 358.121094 401.125 357.867188 401.125 Z M 357.867188 401.125 " fill-opacity="1" fill-rule="nonzero"/><path fill="#d50000" d="M 382.109375 400.589844 C 381.847656 400.589844 381.6875 400.460938 381.625 400.203125 L 372.660156 361.660156 C 372.628906 361.527344 372.648438 361.402344 372.722656 361.285156 C 372.796875 361.167969 372.898438 361.09375 373.03125 361.0625 C 373.167969 361.03125 373.292969 361.050781 373.410156 361.125 C 373.523438 361.195312 373.597656 361.300781 373.628906 361.433594 L 382.597656 399.980469 C 382.628906 400.113281 382.609375 400.238281 382.535156 400.355469 C 382.460938 400.472656 382.359375 400.546875 382.226562 400.578125 C 382.1875 400.585938 382.148438 400.589844 382.109375 400.589844 Z M 382.109375 400.589844 " fill-opacity="1" fill-rule="nonzero"/><path fill="#d50000" d="M 371.089844 383.851562 C 370.953125 383.851562 370.835938 383.804688 370.738281 383.707031 C 370.640625 383.609375 370.59375 383.492188 370.59375 383.355469 L 370.59375 362.753906 C 370.59375 362.613281 370.640625 362.496094 370.738281 362.398438 C 370.835938 362.304688 370.953125 362.253906 371.089844 362.253906 C 371.226562 362.253906 371.34375 362.304688 371.441406 362.398438 C 371.539062 362.496094 371.589844 362.613281 371.589844 362.753906 L 371.589844 383.355469 C 371.589844 383.492188 371.539062 383.609375 371.441406 383.707031 C 371.34375 383.804688 371.226562 383.851562 371.089844 383.851562 Z M 371.089844 383.851562 " fill-opacity="1" fill-rule="nonzero"/><g clip-path="url(#67265be54a)"><path fill="#d50000" d="M 296.515625 443.796875 C 288.132812 443.796875 281.316406 439.8125 281.316406 434.914062 C 281.316406 430.015625 288.132812 426.03125 296.515625 426.03125 C 304.898438 426.03125 311.714844 430.015625 311.714844 434.914062 C 311.714844 439.8125 304.898438 443.796875 296.515625 443.796875 Z M 296.515625 427.027344 C 288.683594 427.027344 282.308594 430.566406 282.308594 434.914062 C 282.308594 439.265625 288.683594 442.800781 296.515625 442.800781 C 304.347656 442.800781 310.722656 439.265625 310.722656 434.914062 C 310.722656 430.566406 304.347656 427.027344 296.515625 427.027344 Z M 296.515625 427.027344 " fill-opacity="1" fill-rule="nonzero"/></g><g clip-path="url(#8f566124d2)"><path fill="#d50000" d="M 296.515625 450.460938 C 295.519531 450.457031 294.53125 450.359375 293.550781 450.164062 C 292.574219 449.96875 291.621094 449.679688 290.703125 449.296875 C 289.78125 448.917969 288.902344 448.449219 288.074219 447.894531 C 287.246094 447.339844 286.476562 446.707031 285.773438 446.003906 C 285.066406 445.296875 284.4375 444.53125 283.882812 443.699219 C 283.328125 442.871094 282.859375 441.996094 282.476562 441.074219 C 282.09375 440.152344 281.804688 439.203125 281.609375 438.222656 C 281.414062 437.246094 281.316406 436.257812 281.316406 435.257812 L 281.316406 434.914062 C 281.316406 434.777344 281.363281 434.660156 281.460938 434.5625 C 281.558594 434.464844 281.675781 434.417969 281.8125 434.417969 C 281.949219 434.417969 282.066406 434.464844 282.164062 434.5625 C 282.261719 434.660156 282.308594 434.777344 282.308594 434.914062 L 282.308594 435.257812 C 282.308594 436.191406 282.402344 437.117188 282.582031 438.03125 C 282.765625 438.945312 283.035156 439.832031 283.390625 440.695312 C 283.75 441.558594 284.1875 442.375 284.703125 443.152344 C 285.222656 443.925781 285.8125 444.644531 286.472656 445.304688 C 287.128906 445.964844 287.847656 446.550781 288.625 447.070312 C 289.398438 447.589844 290.21875 448.027344 291.078125 448.382812 C 291.941406 448.742188 292.828125 449.011719 293.746094 449.191406 C 294.660156 449.375 295.582031 449.464844 296.515625 449.464844 C 297.449219 449.464844 298.371094 449.375 299.285156 449.191406 C 300.203125 449.011719 301.089844 448.742188 301.953125 448.382812 C 302.8125 448.027344 303.632812 447.589844 304.40625 447.070312 C 305.183594 446.550781 305.902344 445.964844 306.558594 445.304688 C 307.21875 444.644531 307.808594 443.925781 308.328125 443.152344 C 308.84375 442.375 309.28125 441.558594 309.640625 440.695312 C 309.996094 439.832031 310.265625 438.945312 310.449219 438.03125 C 310.628906 437.117188 310.722656 436.191406 310.722656 435.257812 L 310.722656 434.914062 C 310.722656 434.777344 310.769531 434.660156 310.867188 434.5625 C 310.964844 434.464844 311.082031 434.417969 311.21875 434.417969 C 311.355469 434.417969 311.472656 434.464844 311.570312 434.5625 C 311.667969 434.660156 311.714844 434.777344 311.714844 434.914062 L 311.714844 435.257812 C 311.714844 436.257812 311.617188 437.246094 311.421875 438.222656 C 311.226562 439.203125 310.9375 440.152344 310.554688 441.074219 C 310.171875 441.996094 309.703125 442.871094 309.148438 443.699219 C 308.59375 444.53125 307.964844 445.296875 307.257812 446.003906 C 306.554688 446.707031 305.785156 447.339844 304.957031 447.894531 C 304.128906 448.449219 303.25 448.917969 302.328125 449.296875 C 301.410156 449.679688 300.457031 449.96875 299.480469 450.164062 C 298.5 450.359375 297.511719 450.457031 296.515625 450.460938 Z M 296.515625 450.460938 " fill-opacity="1" fill-rule="nonzero"/></g><path fill="#d50000" d="M 284.578125 444.332031 C 284.5 444.332031 284.425781 444.316406 284.359375 444.28125 C 284.289062 444.25 284.230469 444.203125 284.183594 444.140625 C 284.136719 444.078125 284.105469 444.011719 284.089844 443.933594 C 284.074219 443.859375 284.074219 443.785156 284.09375 443.710938 L 293.476562 408.089844 C 293.515625 407.960938 293.59375 407.863281 293.710938 407.796875 C 293.828125 407.730469 293.953125 407.714844 294.082031 407.75 C 294.210938 407.78125 294.3125 407.859375 294.382812 407.972656 C 294.449219 408.089844 294.46875 408.210938 294.441406 408.34375 L 285.058594 443.960938 C 284.992188 444.210938 284.832031 444.332031 284.578125 444.332031 Z M 284.578125 444.332031 " fill-opacity="1" fill-rule="nonzero"/><path fill="#d50000" d="M 308.824219 443.796875 C 308.558594 443.796875 308.398438 443.667969 308.339844 443.414062 L 299.371094 404.867188 C 299.339844 404.734375 299.363281 404.609375 299.433594 404.492188 C 299.507812 404.375 299.609375 404.300781 299.742188 404.269531 C 299.878906 404.238281 300.003906 404.261719 300.121094 404.332031 C 300.238281 404.40625 300.308594 404.507812 300.339844 404.644531 L 309.308594 443.1875 C 309.339844 443.320312 309.316406 443.445312 309.246094 443.5625 C 309.171875 443.679688 309.070312 443.753906 308.9375 443.785156 C 308.898438 443.792969 308.859375 443.796875 308.824219 443.796875 Z M 308.824219 443.796875 " fill-opacity="1" fill-rule="nonzero"/><path fill="#d50000" d="M 297.800781 427.0625 C 297.664062 427.0625 297.546875 427.011719 297.449219 426.914062 C 297.351562 426.820312 297.304688 426.699219 297.304688 426.5625 L 297.304688 405.960938 C 297.304688 405.824219 297.351562 405.707031 297.449219 405.609375 C 297.546875 405.511719 297.664062 405.464844 297.800781 405.464844 C 297.941406 405.464844 298.058594 405.511719 298.15625 405.609375 C 298.25 405.707031 298.300781 405.824219 298.300781 405.960938 L 298.300781 426.5625 C 298.300781 426.699219 298.25 426.820312 298.15625 426.914062 C 298.058594 427.011719 297.941406 427.0625 297.800781 427.0625 Z M 297.800781 427.0625 " fill-opacity="1" fill-rule="nonzero"/><g fill="#d50000" fill-opacity="1"><g transform="translate(424.308441, 424.305467)"><g><path d="M 17.25 0 L 9.6875 -24.640625 L 9.5 -24.640625 C 9.53125 -24.054688 9.578125 -23.171875 9.640625 -21.984375 C 9.703125 -20.804688 9.757812 -19.550781 9.8125 -18.21875 C 9.875 -16.882812 9.90625 -15.679688 9.90625 -14.609375 L 9.90625 0 L 3.953125 0 L 3.953125 -31.40625 L 13.015625 -31.40625 L 20.453125 -7.390625 L 20.578125 -7.390625 L 28.46875 -31.40625 L 37.53125 -31.40625 L 37.53125 0 L 31.328125 0 L 31.328125 -14.875 C 31.328125 -15.851562 31.34375 -16.988281 31.375 -18.28125 C 31.414062 -19.570312 31.460938 -20.800781 31.515625 -21.96875 C 31.578125 -23.132812 31.617188 -24.007812 31.640625 -24.59375 L 31.453125 -24.59375 L 23.359375 0 Z M 17.25 0 "/></g></g></g><g fill="#d50000" fill-opacity="1"><g transform="translate(465.787401, 424.305467)"><g><path d="M 23.1875 0 L 20.90625 -7.484375 L 9.453125 -7.484375 L 7.171875 0 L 0 0 L 11.09375 -31.546875 L 19.234375 -31.546875 L 30.359375 0 Z M 19.3125 -13.0625 L 17.03125 -20.375 C 16.894531 -20.851562 16.707031 -21.472656 16.46875 -22.234375 C 16.226562 -23.003906 15.988281 -23.785156 15.75 -24.578125 C 15.519531 -25.378906 15.332031 -26.070312 15.1875 -26.65625 C 15.039062 -26.070312 14.84375 -25.347656 14.59375 -24.484375 C 14.34375 -23.617188 14.101562 -22.796875 13.875 -22.015625 C 13.644531 -21.242188 13.484375 -20.695312 13.390625 -20.375 L 11.125 -13.0625 Z M 19.3125 -13.0625 "/></g></g></g><g fill="#d50000" fill-opacity="1"><g transform="translate(496.139432, 424.305467)"><g><path d="M 31.8125 0 L 23.359375 0 L 9.6875 -23.765625 L 9.5 -23.765625 C 9.550781 -22.773438 9.597656 -21.773438 9.640625 -20.765625 C 9.691406 -19.765625 9.738281 -18.765625 9.78125 -17.765625 C 9.820312 -16.773438 9.863281 -15.78125 9.90625 -14.78125 L 9.90625 0 L 3.953125 0 L 3.953125 -31.40625 L 12.359375 -31.40625 L 26 -7.890625 L 26.140625 -7.890625 C 26.117188 -8.859375 26.082031 -9.820312 26.03125 -10.78125 C 25.988281 -11.738281 25.953125 -12.695312 25.921875 -13.65625 C 25.890625 -14.625 25.859375 -15.585938 25.828125 -16.546875 L 25.828125 -31.40625 L 31.8125 -31.40625 Z M 31.8125 0 "/></g></g></g><g fill="#d50000" fill-opacity="1"><g transform="translate(531.904563, 424.305467)"><g><path d="M 23.1875 0 L 20.90625 -7.484375 L 9.453125 -7.484375 L 7.171875 0 L 0 0 L 11.09375 -31.546875 L 19.234375 -31.546875 L 30.359375 0 Z M 19.3125 -13.0625 L 17.03125 -20.375 C 16.894531 -20.851562 16.707031 -21.472656 16.46875 -22.234375 C 16.226562 -23.003906 15.988281 -23.785156 15.75 -24.578125 C 15.519531 -25.378906 15.332031 -26.070312 15.1875 -26.65625 C 15.039062 -26.070312 14.84375 -25.347656 14.59375 -24.484375 C 14.34375 -23.617188 14.101562 -22.796875 13.875 -22.015625 C 13.644531 -21.242188 13.484375 -20.695312 13.390625 -20.375 L 11.125 -13.0625 Z M 19.3125 -13.0625 "/></g></g></g><g fill="#d50000" fill-opacity="1"><g transform="translate(562.256593, 424.305467)"><g><path d="M 15.875 -17.640625 L 28.34375 -17.640625 L 28.34375 -1.359375 C 26.695312 -0.804688 24.984375 -0.367188 23.203125 -0.046875 C 21.429688 0.273438 19.421875 0.4375 17.171875 0.4375 C 14.046875 0.4375 11.394531 -0.175781 9.21875 -1.40625 C 7.039062 -2.644531 5.382812 -4.46875 4.25 -6.875 C 3.125 -9.28125 2.5625 -12.238281 2.5625 -15.75 C 2.5625 -19.039062 3.191406 -21.890625 4.453125 -24.296875 C 5.722656 -26.703125 7.578125 -28.5625 10.015625 -29.875 C 12.460938 -31.195312 15.445312 -31.859375 18.96875 -31.859375 C 20.632812 -31.859375 22.273438 -31.675781 23.890625 -31.3125 C 25.503906 -30.957031 26.972656 -30.492188 28.296875 -29.921875 L 26.078125 -24.59375 C 25.117188 -25.082031 24.023438 -25.488281 22.796875 -25.8125 C 21.566406 -26.144531 20.273438 -26.3125 18.921875 -26.3125 C 16.992188 -26.3125 15.316406 -25.867188 13.890625 -24.984375 C 12.460938 -24.097656 11.359375 -22.851562 10.578125 -21.25 C 9.796875 -19.65625 9.40625 -17.78125 9.40625 -15.625 C 9.40625 -13.570312 9.6875 -11.753906 10.25 -10.171875 C 10.8125 -8.585938 11.691406 -7.347656 12.890625 -6.453125 C 14.097656 -5.554688 15.664062 -5.109375 17.59375 -5.109375 C 18.539062 -5.109375 19.335938 -5.15625 19.984375 -5.25 C 20.640625 -5.34375 21.253906 -5.441406 21.828125 -5.546875 L 21.828125 -12.09375 L 15.875 -12.09375 Z M 15.875 -17.640625 "/></g></g></g><g fill="#d50000" fill-opacity="1"><g transform="translate(594.112263, 424.305467)"><g><path d="M 22.046875 0 L 3.953125 0 L 3.953125 -31.40625 L 22.046875 -31.40625 L 22.046875 -25.953125 L 10.609375 -25.953125 L 10.609375 -19.0625 L 21.25 -19.0625 L 21.25 -13.59375 L 10.609375 -13.59375 L 10.609375 -5.5 L 22.046875 -5.5 Z M 22.046875 0 "/></g></g></g><g fill="#d50000" fill-opacity="1"><g transform="translate(618.750464, 424.305467)"><g><path d="M 17.25 0 L 9.6875 -24.640625 L 9.5 -24.640625 C 9.53125 -24.054688 9.578125 -23.171875 9.640625 -21.984375 C 9.703125 -20.804688 9.757812 -19.550781 9.8125 -18.21875 C 9.875 -16.882812 9.90625 -15.679688 9.90625 -14.609375 L 9.90625 0 L 3.953125 0 L 3.953125 -31.40625 L 13.015625 -31.40625 L 20.453125 -7.390625 L 20.578125 -7.390625 L 28.46875 -31.40625 L 37.53125 -31.40625 L 37.53125 0 L 31.328125 0 L 31.328125 -14.875 C 31.328125 -15.851562 31.34375 -16.988281 31.375 -18.28125 C 31.414062 -19.570312 31.460938 -20.800781 31.515625 -21.96875 C 31.578125 -23.132812 31.617188 -24.007812 31.640625 -24.59375 L 31.453125 -24.59375 L 23.359375 0 Z M 17.25 0 "/></g></g></g><g fill="#d50000" fill-opacity="1"><g transform="translate(660.229436, 424.305467)"><g><path d="M 22.046875 0 L 3.953125 0 L 3.953125 -31.40625 L 22.046875 -31.40625 L 22.046875 -25.953125 L 10.609375 -25.953125 L 10.609375 -19.0625 L 21.25 -19.0625 L 21.25 -13.59375 L 10.609375 -13.59375 L 10.609375 -5.5 L 22.046875 -5.5 Z M 22.046875 0 "/></g></g></g><g fill="#d50000" fill-opacity="1"><g transform="translate(684.867648, 424.305467)"><g><path d="M 31.8125 0 L 23.359375 0 L 9.6875 -23.765625 L 9.5 -23.765625 C 9.550781 -22.773438 9.597656 -21.773438 9.640625 -20.765625 C 9.691406 -19.765625 9.738281 -18.765625 9.78125 -17.765625 C 9.820312 -16.773438 9.863281 -15.78125 9.90625 -14.78125 L 9.90625 0 L 3.953125 0 L 3.953125 -31.40625 L 12.359375 -31.40625 L 26 -7.890625 L 26.140625 -7.890625 C 26.117188 -8.859375 26.082031 -9.820312 26.03125 -10.78125 C 25.988281 -11.738281 25.953125 -12.695312 25.921875 -13.65625 C 25.890625 -14.625 25.859375 -15.585938 25.828125 -16.546875 L 25.828125 -31.40625 L 31.8125 -31.40625 Z M 31.8125 0 "/></g></g></g><g fill="#d50000" fill-opacity="1"><g transform="translate(720.632768, 424.305467)"><g><path d="M 16.078125 0 L 9.40625 0 L 9.40625 -25.875 L 0.875 -25.875 L 0.875 -31.40625 L 24.59375 -31.40625 L 24.59375 -25.875 L 16.078125 -25.875 Z M 16.078125 0 "/></g></g></g><g fill="#d50000" fill-opacity="1"><g transform="translate(746.108711, 424.305467)"><g/></g></g><g fill="#d50000" fill-opacity="1"><g transform="translate(757.536369, 424.305467)"><g><path d="M 17.296875 -26.3125 C 16.023438 -26.3125 14.894531 -26.066406 13.90625 -25.578125 C 12.925781 -25.085938 12.101562 -24.375 11.4375 -23.4375 C 10.769531 -22.507812 10.265625 -21.382812 9.921875 -20.0625 C 9.578125 -18.75 9.40625 -17.269531 9.40625 -15.625 C 9.40625 -13.40625 9.679688 -11.507812 10.234375 -9.9375 C 10.785156 -8.363281 11.640625 -7.164062 12.796875 -6.34375 C 13.960938 -5.519531 15.460938 -5.109375 17.296875 -5.109375 C 18.566406 -5.109375 19.84375 -5.25 21.125 -5.53125 C 22.40625 -5.820312 23.800781 -6.234375 25.3125 -6.765625 L 25.3125 -1.1875 C 23.914062 -0.613281 22.546875 -0.203125 21.203125 0.046875 C 19.859375 0.304688 18.347656 0.4375 16.671875 0.4375 C 13.429688 0.4375 10.769531 -0.234375 8.6875 -1.578125 C 6.601562 -2.921875 5.0625 -4.796875 4.0625 -7.203125 C 3.0625 -9.617188 2.5625 -12.4375 2.5625 -15.65625 C 2.5625 -18.039062 2.878906 -20.21875 3.515625 -22.1875 C 4.160156 -24.164062 5.109375 -25.878906 6.359375 -27.328125 C 7.609375 -28.773438 9.148438 -29.890625 10.984375 -30.671875 C 12.816406 -31.460938 14.921875 -31.859375 17.296875 -31.859375 C 18.859375 -31.859375 20.421875 -31.660156 21.984375 -31.265625 C 23.554688 -30.878906 25.054688 -30.34375 26.484375 -29.65625 L 24.34375 -24.234375 C 23.164062 -24.796875 21.984375 -25.28125 20.796875 -25.6875 C 19.609375 -26.101562 18.441406 -26.3125 17.296875 -26.3125 Z M 17.296875 -26.3125 "/></g></g></g><g fill="#d50000" fill-opacity="1"><g transform="translate(785.56851, 424.305467)"><g><path d="M 32.46875 -15.75 C 32.46875 -13.332031 32.164062 -11.128906 31.5625 -9.140625 C 30.957031 -7.160156 30.039062 -5.453125 28.8125 -4.015625 C 27.59375 -2.585938 26.046875 -1.488281 24.171875 -0.71875 C 22.296875 0.0507812 20.078125 0.4375 17.515625 0.4375 C 14.953125 0.4375 12.726562 0.0507812 10.84375 -0.71875 C 8.96875 -1.488281 7.414062 -2.585938 6.1875 -4.015625 C 4.96875 -5.453125 4.054688 -7.164062 3.453125 -9.15625 C 2.859375 -11.144531 2.5625 -13.359375 2.5625 -15.796875 C 2.5625 -19.046875 3.09375 -21.875 4.15625 -24.28125 C 5.226562 -26.695312 6.875 -28.570312 9.09375 -29.90625 C 11.3125 -31.238281 14.128906 -31.90625 17.546875 -31.90625 C 20.960938 -31.90625 23.769531 -31.238281 25.96875 -29.90625 C 28.164062 -28.570312 29.796875 -26.691406 30.859375 -24.265625 C 31.929688 -21.847656 32.46875 -19.007812 32.46875 -15.75 Z M 9.546875 -15.75 C 9.546875 -13.5625 9.816406 -11.675781 10.359375 -10.09375 C 10.910156 -8.507812 11.773438 -7.289062 12.953125 -6.4375 C 14.128906 -5.582031 15.648438 -5.15625 17.515625 -5.15625 C 19.398438 -5.15625 20.929688 -5.582031 22.109375 -6.4375 C 23.285156 -7.289062 24.140625 -8.507812 24.671875 -10.09375 C 25.210938 -11.675781 25.484375 -13.5625 25.484375 -15.75 C 25.484375 -19.039062 24.863281 -21.628906 23.625 -23.515625 C 22.394531 -25.410156 20.367188 -26.359375 17.546875 -26.359375 C 15.671875 -26.359375 14.140625 -25.929688 12.953125 -25.078125 C 11.773438 -24.234375 10.910156 -23.019531 10.359375 -21.4375 C 9.816406 -19.851562 9.546875 -17.957031 9.546875 -15.75 Z M 9.546875 -15.75 "/></g></g></g><g fill="#d50000" fill-opacity="1"><g transform="translate(820.581798, 424.305467)"><g><path d="M 31.8125 0 L 23.359375 0 L 9.6875 -23.765625 L 9.5 -23.765625 C 9.550781 -22.773438 9.597656 -21.773438 9.640625 -20.765625 C 9.691406 -19.765625 9.738281 -18.765625 9.78125 -17.765625 C 9.820312 -16.773438 9.863281 -15.78125 9.90625 -14.78125 L 9.90625 0 L 3.953125 0 L 3.953125 -31.40625 L 12.359375 -31.40625 L 26 -7.890625 L 26.140625 -7.890625 C 26.117188 -8.859375 26.082031 -9.820312 26.03125 -10.78125 C 25.988281 -11.738281 25.953125 -12.695312 25.921875 -13.65625 C 25.890625 -14.625 25.859375 -15.585938 25.828125 -16.546875 L 25.828125 -31.40625 L 31.8125 -31.40625 Z M 31.8125 0 "/></g></g></g><g fill="#d50000" fill-opacity="1"><g transform="translate(856.346918, 424.305467)"><g><path d="M 22.5 -8.71875 C 22.5 -6.863281 22.046875 -5.25 21.140625 -3.875 C 20.234375 -2.5 18.914062 -1.4375 17.1875 -0.6875 C 15.46875 0.0625 13.378906 0.4375 10.921875 0.4375 C 9.828125 0.4375 8.757812 0.363281 7.71875 0.21875 C 6.6875 0.0703125 5.691406 -0.140625 4.734375 -0.421875 C 3.785156 -0.703125 2.878906 -1.050781 2.015625 -1.46875 L 2.015625 -7.65625 C 3.503906 -6.988281 5.050781 -6.390625 6.65625 -5.859375 C 8.257812 -5.335938 9.851562 -5.078125 11.4375 -5.078125 C 12.519531 -5.078125 13.394531 -5.21875 14.0625 -5.5 C 14.726562 -5.789062 15.210938 -6.1875 15.515625 -6.6875 C 15.816406 -7.1875 15.96875 -7.757812 15.96875 -8.40625 C 15.96875 -9.1875 15.703125 -9.859375 15.171875 -10.421875 C 14.640625 -10.984375 13.910156 -11.503906 12.984375 -11.984375 C 12.066406 -12.472656 11.023438 -13 9.859375 -13.5625 C 9.128906 -13.90625 8.332031 -14.320312 7.46875 -14.8125 C 6.613281 -15.3125 5.800781 -15.914062 5.03125 -16.625 C 4.257812 -17.34375 3.625 -18.210938 3.125 -19.234375 C 2.632812 -20.265625 2.390625 -21.492188 2.390625 -22.921875 C 2.390625 -24.796875 2.816406 -26.398438 3.671875 -27.734375 C 4.535156 -29.066406 5.765625 -30.085938 7.359375 -30.796875 C 8.953125 -31.503906 10.835938 -31.859375 13.015625 -31.859375 C 14.648438 -31.859375 16.207031 -31.664062 17.6875 -31.28125 C 19.175781 -30.90625 20.726562 -30.363281 22.34375 -29.65625 L 20.203125 -24.46875 C 18.753906 -25.0625 17.457031 -25.515625 16.3125 -25.828125 C 15.164062 -26.148438 14 -26.3125 12.8125 -26.3125 C 11.976562 -26.3125 11.265625 -26.179688 10.671875 -25.921875 C 10.085938 -25.660156 9.644531 -25.285156 9.34375 -24.796875 C 9.039062 -24.316406 8.890625 -23.765625 8.890625 -23.140625 C 8.890625 -22.390625 9.109375 -21.757812 9.546875 -21.25 C 9.984375 -20.75 10.640625 -20.257812 11.515625 -19.78125 C 12.398438 -19.3125 13.503906 -18.765625 14.828125 -18.140625 C 16.429688 -17.378906 17.800781 -16.585938 18.9375 -15.765625 C 20.070312 -14.941406 20.945312 -13.972656 21.5625 -12.859375 C 22.1875 -11.742188 22.5 -10.363281 22.5 -8.71875 Z M 22.5 -8.71875 "/></g></g></g><g fill="#d50000" fill-opacity="1"><g transform="translate(880.576989, 424.305467)"><g><path d="M 29.515625 -31.40625 L 29.515625 -11.09375 C 29.515625 -8.925781 29.035156 -6.972656 28.078125 -5.234375 C 27.128906 -3.492188 25.691406 -2.113281 23.765625 -1.09375 C 21.847656 -0.0703125 19.425781 0.4375 16.5 0.4375 C 12.34375 0.4375 9.175781 -0.625 7 -2.75 C 4.820312 -4.875 3.734375 -7.679688 3.734375 -11.171875 L 3.734375 -31.40625 L 10.375 -31.40625 L 10.375 -12.1875 C 10.375 -9.59375 10.90625 -7.769531 11.96875 -6.71875 C 13.03125 -5.675781 14.597656 -5.15625 16.671875 -5.15625 C 18.128906 -5.15625 19.3125 -5.40625 20.21875 -5.90625 C 21.132812 -6.40625 21.804688 -7.175781 22.234375 -8.21875 C 22.660156 -9.269531 22.875 -10.601562 22.875 -12.21875 L 22.875 -31.40625 Z M 29.515625 -31.40625 "/></g></g></g><g fill="#d50000" fill-opacity="1"><g transform="translate(913.828895, 424.305467)"><g><path d="M 3.953125 0 L 3.953125 -31.40625 L 10.609375 -31.40625 L 10.609375 -5.5 L 23.359375 -5.5 L 23.359375 0 Z M 3.953125 0 "/></g></g></g><g fill="#d50000" fill-opacity="1"><g transform="translate(938.68189, 424.305467)"><g><path d="M 16.078125 0 L 9.40625 0 L 9.40625 -25.875 L 0.875 -25.875 L 0.875 -31.40625 L 24.59375 -31.40625 L 24.59375 -25.875 L 16.078125 -25.875 Z M 16.078125 0 "/></g></g></g><g fill="#d50000" fill-opacity="1"><g transform="translate(964.157811, 424.305467)"><g><path d="M 3.953125 0 L 3.953125 -31.40625 L 10.609375 -31.40625 L 10.609375 0 Z M 3.953125 0 "/></g></g></g><g fill="#d50000" fill-opacity="1"><g transform="translate(978.721653, 424.305467)"><g><path d="M 31.8125 0 L 23.359375 0 L 9.6875 -23.765625 L 9.5 -23.765625 C 9.550781 -22.773438 9.597656 -21.773438 9.640625 -20.765625 C 9.691406 -19.765625 9.738281 -18.765625 9.78125 -17.765625 C 9.820312 -16.773438 9.863281 -15.78125 9.90625 -14.78125 L 9.90625 0 L 3.953125 0 L 3.953125 -31.40625 L 12.359375 -31.40625 L 26 -7.890625 L 26.140625 -7.890625 C 26.117188 -8.859375 26.082031 -9.820312 26.03125 -10.78125 C 25.988281 -11.738281 25.953125 -12.695312 25.921875 -13.65625 C 25.890625 -14.625 25.859375 -15.585938 25.828125 -16.546875 L 25.828125 -31.40625 L 31.8125 -31.40625 Z M 31.8125 0 "/></g></g></g><g fill="#d50000" fill-opacity="1"><g transform="translate(1014.486773, 424.305467)"><g><path d="M 15.875 -17.640625 L 28.34375 -17.640625 L 28.34375 -1.359375 C 26.695312 -0.804688 24.984375 -0.367188 23.203125 -0.046875 C 21.429688 0.273438 19.421875 0.4375 17.171875 0.4375 C 14.046875 0.4375 11.394531 -0.175781 9.21875 -1.40625 C 7.039062 -2.644531 5.382812 -4.46875 4.25 -6.875 C 3.125 -9.28125 2.5625 -12.238281 2.5625 -15.75 C 2.5625 -19.039062 3.191406 -21.890625 4.453125 -24.296875 C 5.722656 -26.703125 7.578125 -28.5625 10.015625 -29.875 C 12.460938 -31.195312 15.445312 -31.859375 18.96875 -31.859375 C 20.632812 -31.859375 22.273438 -31.675781 23.890625 -31.3125 C 25.503906 -30.957031 26.972656 -30.492188 28.296875 -29.921875 L 26.078125 -24.59375 C 25.117188 -25.082031 24.023438 -25.488281 22.796875 -25.8125 C 21.566406 -26.144531 20.273438 -26.3125 18.921875 -26.3125 C 16.992188 -26.3125 15.316406 -25.867188 13.890625 -24.984375 C 12.460938 -24.097656 11.359375 -22.851562 10.578125 -21.25 C 9.796875 -19.65625 9.40625 -17.78125 9.40625 -15.625 C 9.40625 -13.570312 9.6875 -11.753906 10.25 -10.171875 C 10.8125 -8.585938 11.691406 -7.347656 12.890625 -6.453125 C 14.097656 -5.554688 15.664062 -5.109375 17.59375 -5.109375 C 18.539062 -5.109375 19.335938 -5.15625 19.984375 -5.25 C 20.640625 -5.34375 21.253906 -5.441406 21.828125 -5.546875 L 21.828125 -12.09375 L 15.875 -12.09375 Z M 15.875 -17.640625 "/></g></g></g></svg>