<svg xmlns="http://www.w3.org/2000/svg" xmlns:xlink="http://www.w3.org/1999/xlink" width="1920" zoomAndPan="magnify" viewBox="0 0 1440 809.999993" height="1080" preserveAspectRatio="xMidYMid meet" version="1.0"><defs><g/><clipPath id="d992553e4c"><path d="M 280.417969 328.640625 L 1159.746094 328.640625 L 1159.746094 481.359375 L 280.417969 481.359375 Z M 280.417969 328.640625 " clip-rule="nonzero"/></clipPath><clipPath id="cbf9ca0c3f"><path d="M 1083.222656 328.640625 C 1125.394531 328.640625 1159.582031 362.828125 1159.582031 405 C 1159.582031 447.171875 1125.394531 481.359375 1083.222656 481.359375 L 356.777344 481.359375 C 314.605469 481.359375 280.417969 447.171875 280.417969 405 C 280.417969 362.828125 314.605469 328.640625 356.777344 328.640625 Z M 1083.222656 328.640625 " clip-rule="nonzero"/></clipPath><clipPath id="49faf693ab"><path d="M 282.210938 332.460938 L 425.804688 332.460938 L 425.804688 476.050781 L 282.210938 476.050781 Z M 282.210938 332.460938 " clip-rule="nonzero"/></clipPath><clipPath id="945758caa3"><path d="M 354.007812 332.460938 C 314.355469 332.460938 282.210938 364.605469 282.210938 404.257812 C 282.210938 443.910156 314.355469 476.050781 354.007812 476.050781 C 393.660156 476.050781 425.804688 443.910156 425.804688 404.257812 C 425.804688 364.605469 393.660156 332.460938 354.007812 332.460938 Z M 354.007812 332.460938 " clip-rule="nonzero"/></clipPath><clipPath id="ac187d4d95"><path d="M 318 357 L 401 357 L 401 456.648438 L 318 456.648438 Z M 318 357 " clip-rule="nonzero"/></clipPath><clipPath id="f4317908d2"><path d="M 353.0625 390 L 369 390 L 369 424 L 353.0625 424 Z M 353.0625 390 " clip-rule="nonzero"/></clipPath><clipPath id="1d098949d2"><path d="M 353.394531 427.828125 L 353.300781 395.179688 L 368.871094 386.1875 L 368.964844 418.835938 Z M 353.394531 427.828125 " clip-rule="nonzero"/></clipPath></defs><g clip-path="url(#d992553e4c)"><g clip-path="url(#cbf9ca0c3f)"><path fill="#d50000" d="M 280.417969 328.640625 L 1159.746094 328.640625 L 1159.746094 481.359375 L 280.417969 481.359375 Z M 280.417969 328.640625 " fill-opacity="1" fill-rule="nonzero"/></g></g><g clip-path="url(#49faf693ab)"><g clip-path="url(#945758caa3)"><path fill="#ffffff" d="M 282.210938 332.460938 L 425.804688 332.460938 L 425.804688 476.050781 L 282.210938 476.050781 Z M 282.210938 332.460938 " fill-opacity="1" fill-rule="nonzero"/></g></g><g clip-path="url(#ac187d4d95)"><path fill="#d50000" d="M 341.113281 456.492188 C 336.46875 456.492188 332.261719 455.296875 328.707031 452.902344 C 321.359375 447.957031 317.703125 438.515625 318.417969 426.3125 C 319.125 414.21875 324.046875 400.832031 332.265625 388.621094 C 340.484375 376.40625 351.035156 366.808594 361.96875 361.601562 C 373.003906 356.34375 383.128906 356.171875 390.476562 361.117188 C 397.828125 366.058594 401.480469 375.503906 400.765625 387.707031 C 400.054688 399.796875 395.136719 413.183594 386.917969 425.398438 C 378.699219 437.613281 368.148438 447.210938 357.214844 452.417969 C 351.519531 455.132812 346.066406 456.492188 341.113281 456.492188 Z M 378.066406 358.707031 C 373.289062 358.707031 368.007812 360.027344 362.476562 362.664062 C 351.726562 367.785156 341.347656 377.234375 333.242188 389.277344 C 325.136719 401.320312 320.292969 414.496094 319.59375 426.378906 C 318.90625 438.148438 322.375 447.222656 329.363281 451.925781 C 336.351562 456.628906 346.0625 456.425781 356.707031 451.351562 C 367.453125 446.230469 377.835938 436.78125 385.9375 424.738281 C 394.042969 412.695312 398.890625 399.519531 399.585938 387.636719 C 400.277344 375.863281 396.804688 366.792969 389.816406 362.089844 C 386.460938 359.832031 382.476562 358.707031 378.066406 358.707031 Z M 378.066406 358.707031 " fill-opacity="1" fill-rule="nonzero"/></g><path fill="#d50000" d="M 345.320312 444.296875 C 342.5 444.351562 339.914062 443.609375 337.554688 442.0625 C 332.589844 438.71875 330.328125 432.046875 331.199219 423.269531 C 332.050781 414.621094 335.84375 404.929688 341.871094 395.96875 C 347.898438 387.011719 355.449219 379.851562 363.140625 375.804688 C 370.941406 371.695312 377.976562 371.273438 382.945312 374.613281 C 387.914062 377.957031 390.171875 384.632812 389.300781 393.410156 C 388.449219 402.054688 384.65625 411.75 378.628906 420.707031 C 372.601562 429.667969 365.050781 436.828125 357.359375 440.875 C 353.039062 443.148438 348.949219 444.296875 345.320312 444.296875 Z M 375.164062 373.558594 C 365.382812 373.558594 352.402344 382.425781 342.847656 396.628906 C 330.695312 414.683594 328.617188 434.628906 338.214844 441.085938 C 342.804688 444.171875 349.410156 443.730469 356.8125 439.832031 C 364.332031 435.875 371.730469 428.847656 377.652344 420.050781 C 389.804688 401.992188 391.882812 382.050781 382.285156 375.59375 C 380.121094 374.179688 377.746094 373.503906 375.164062 373.558594 Z M 375.164062 373.558594 " fill-opacity="1" fill-rule="nonzero"/><path fill="#d50000" d="M 328.269531 452.457031 C 328.144531 452.457031 328.027344 452.417969 327.925781 452.347656 C 326.273438 451.164062 324.722656 450.003906 323.078125 448.773438 C 321.292969 447.441406 319.449219 446.058594 317.367188 444.574219 C 310.132812 439.417969 306.523438 429.925781 307.195312 417.84375 C 307.867188 405.804688 312.746094 392.46875 320.9375 380.300781 C 337.96875 354.996094 364.082031 342.65625 379.148438 352.796875 C 381.378906 354.296875 383.710938 356.058594 385.964844 357.761719 C 387.464844 358.894531 389.015625 360.066406 390.492188 361.125 C 390.621094 361.21875 390.703125 361.347656 390.726562 361.507812 C 390.753906 361.667969 390.71875 361.8125 390.625 361.945312 C 390.53125 362.078125 390.402344 362.15625 390.242188 362.183594 C 390.082031 362.210938 389.933594 362.175781 389.804688 362.082031 C 388.316406 361.015625 386.761719 359.839844 385.253906 358.703125 C 383.011719 357.007812 380.691406 355.253906 378.492188 353.773438 C 363.964844 343.996094 338.582031 356.191406 321.914062 380.960938 C 313.84375 392.957031 309.035156 406.078125 308.371094 417.910156 C 307.722656 429.574219 311.160156 438.703125 318.050781 443.617188 C 320.144531 445.109375 321.992188 446.492188 323.785156 447.832031 C 325.421875 449.054688 326.96875 450.214844 328.613281 451.386719 C 328.84375 451.554688 328.917969 451.773438 328.832031 452.046875 C 328.742188 452.320312 328.554688 452.457031 328.269531 452.457031 Z M 328.269531 452.457031 " fill-opacity="1" fill-rule="nonzero"/><path fill="#d50000" d="M 370.222656 359.777344 C 370.117188 359.777344 370.019531 359.75 369.933594 359.699219 L 356.347656 352.03125 C 356.203125 351.949219 356.113281 351.832031 356.070312 351.675781 C 356.023438 351.519531 356.042969 351.371094 356.125 351.230469 C 356.203125 351.085938 356.320312 350.996094 356.476562 350.949219 C 356.632812 350.90625 356.785156 350.925781 356.925781 351.003906 L 370.511719 358.671875 C 370.628906 358.738281 370.710938 358.832031 370.765625 358.957031 C 370.816406 359.078125 370.824219 359.207031 370.789062 359.335938 C 370.757812 359.464844 370.6875 359.570312 370.582031 359.652344 C 370.476562 359.734375 370.355469 359.773438 370.222656 359.773438 Z M 370.222656 359.777344 " fill-opacity="1" fill-rule="nonzero"/><path fill="#d50000" d="M 355.257812 366.683594 C 355.148438 366.683594 355.042969 366.65625 354.949219 366.597656 L 342.582031 358.96875 C 342.445312 358.886719 342.355469 358.761719 342.316406 358.605469 C 342.28125 358.445312 342.304688 358.296875 342.390625 358.160156 C 342.476562 358.019531 342.597656 357.933594 342.753906 357.894531 C 342.914062 357.859375 343.0625 357.882812 343.199219 357.96875 L 355.566406 365.59375 C 355.679688 365.664062 355.757812 365.761719 355.808594 365.882812 C 355.855469 366.003906 355.859375 366.128906 355.824219 366.257812 C 355.789062 366.382812 355.71875 366.484375 355.613281 366.566406 C 355.507812 366.644531 355.390625 366.683594 355.257812 366.683594 Z M 355.257812 366.683594 " fill-opacity="1" fill-rule="nonzero"/><path fill="#d50000" d="M 344 375.890625 C 343.878906 375.890625 343.769531 375.859375 343.671875 375.789062 L 331.949219 367.867188 C 331.816406 367.777344 331.734375 367.652344 331.707031 367.492188 C 331.675781 367.335938 331.707031 367.1875 331.796875 367.054688 C 331.886719 366.921875 332.011719 366.835938 332.167969 366.804688 C 332.328125 366.773438 332.472656 366.804688 332.609375 366.890625 L 344.332031 374.8125 C 344.570312 374.976562 344.648438 375.195312 344.5625 375.472656 C 344.476562 375.75 344.289062 375.890625 344 375.890625 Z M 344 375.890625 " fill-opacity="1" fill-rule="nonzero"/><path fill="#d50000" d="M 333.6875 388.285156 C 333.5625 388.285156 333.453125 388.25 333.351562 388.179688 L 321.796875 380.164062 C 321.664062 380.074219 321.582031 379.945312 321.550781 379.785156 C 321.523438 379.625 321.554688 379.480469 321.648438 379.347656 C 321.742188 379.210938 321.867188 379.132812 322.027344 379.101562 C 322.1875 379.074219 322.332031 379.105469 322.46875 379.199219 L 334.023438 387.210938 C 334.261719 387.378906 334.335938 387.597656 334.25 387.875 C 334.164062 388.148438 333.976562 388.285156 333.6875 388.285156 Z M 333.6875 388.285156 " fill-opacity="1" fill-rule="nonzero"/><path fill="#d50000" d="M 325.875 400.238281 C 325.753906 400.238281 325.640625 400.203125 325.542969 400.136719 L 314.621094 392.558594 C 314.488281 392.46875 314.40625 392.339844 314.378906 392.179688 C 314.347656 392.019531 314.378906 391.875 314.472656 391.742188 C 314.566406 391.605469 314.691406 391.527344 314.851562 391.496094 C 315.011719 391.46875 315.160156 391.5 315.292969 391.59375 L 326.214844 399.167969 C 326.449219 399.332031 326.527344 399.550781 326.4375 399.828125 C 326.351562 400.101562 326.164062 400.238281 325.875 400.238281 Z M 325.875 400.238281 " fill-opacity="1" fill-rule="nonzero"/><path fill="#d50000" d="M 320.734375 415.613281 C 320.613281 415.613281 320.5 415.578125 320.398438 415.507812 L 309.078125 407.65625 C 308.945312 407.5625 308.863281 407.4375 308.835938 407.277344 C 308.808594 407.117188 308.839844 406.96875 308.929688 406.835938 C 309.023438 406.703125 309.152344 406.621094 309.3125 406.59375 C 309.46875 406.5625 309.617188 406.59375 309.75 406.6875 L 321.070312 414.539062 C 321.308594 414.703125 321.382812 414.925781 321.296875 415.199219 C 321.210938 415.476562 321.023438 415.613281 320.734375 415.613281 Z M 320.734375 415.613281 " fill-opacity="1" fill-rule="nonzero"/><path fill="#d50000" d="M 318.941406 431.101562 C 318.820312 431.101562 318.707031 431.066406 318.605469 430.996094 L 307.421875 423.238281 C 307.285156 423.144531 307.203125 423.019531 307.175781 422.859375 C 307.148438 422.699219 307.179688 422.550781 307.273438 422.417969 C 307.363281 422.285156 307.492188 422.203125 307.652344 422.175781 C 307.8125 422.144531 307.957031 422.175781 308.089844 422.269531 L 319.277344 430.027344 C 319.515625 430.191406 319.589844 430.414062 319.503906 430.6875 C 319.417969 430.964844 319.230469 431.101562 318.941406 431.101562 Z M 318.941406 431.101562 " fill-opacity="1" fill-rule="nonzero"/><g clip-path="url(#f4317908d2)"><g clip-path="url(#1d098949d2)"><path fill="#d50000" d="M 361.632812 390.371094 C 361.117188 390.703125 360.707031 391.136719 360.398438 391.664062 C 360.089844 392.195312 359.917969 392.765625 359.878906 393.375 C 359.878906 393.660156 359.875 393.933594 359.875 394.195312 C 359.875 394.503906 359.867188 394.511719 359.609375 394.714844 C 358.535156 395.542969 357.59375 396.5 356.777344 397.582031 C 355.585938 399.117188 354.777344 400.835938 354.347656 402.730469 C 354.078125 403.953125 354.035156 405.1875 354.214844 406.425781 C 354.378906 407.582031 354.789062 408.492188 355.578125 408.945312 C 356.007812 409.183594 356.464844 409.347656 356.949219 409.4375 C 358.199219 409.632812 359.441406 409.59375 360.675781 409.328125 C 361.484375 409.152344 362.292969 409.128906 363.109375 409.257812 C 363.410156 409.304688 363.667969 409.433594 363.878906 409.652344 C 364.09375 409.867188 364.21875 410.125 364.257812 410.425781 C 364.339844 410.894531 364.367188 411.363281 364.347656 411.835938 C 364.246094 413.207031 363.695312 414.363281 362.695312 415.300781 C 362.289062 415.6875 361.847656 416.019531 361.363281 416.304688 C 360.925781 416.566406 360.460938 416.75 359.960938 416.855469 C 359.074219 417.035156 358.410156 416.78125 358.125 415.886719 C 358.019531 415.535156 357.949219 415.171875 357.910156 414.804688 C 357.859375 414.421875 357.5625 414.277344 357.199219 414.46875 C 357.148438 414.496094 357.09375 414.523438 357.042969 414.554688 C 356.988281 414.585938 356.933594 414.617188 356.882812 414.648438 C 356.492188 414.871094 356.105469 415.09375 355.714844 415.316406 C 355.324219 415.542969 354.9375 415.769531 354.546875 415.996094 C 354.445312 416.054688 354.339844 416.113281 354.238281 416.175781 C 354.183594 416.203125 354.132812 416.234375 354.078125 416.265625 C 353.835938 416.398438 353.652344 416.585938 353.519531 416.828125 C 353.390625 417.074219 353.335938 417.332031 353.363281 417.609375 C 353.371094 417.738281 353.390625 417.859375 353.398438 417.984375 C 353.429688 418.789062 353.621094 419.550781 353.964844 420.277344 C 354.585938 421.515625 355.699219 421.898438 357.035156 421.867188 C 357.695312 421.84375 358.332031 421.71875 358.953125 421.492188 C 359.949219 421.144531 359.949219 420.921875 359.949219 421.480469 L 359.949219 422.023438 C 359.957031 423.132812 360.742188 423.582031 361.714844 423.023438 L 361.730469 423.011719 L 361.734375 423.011719 C 362.246094 422.675781 362.652344 422.242188 362.957031 421.714844 C 363.261719 421.183594 363.433594 420.617188 363.464844 420.003906 C 363.464844 419.785156 363.46875 419.5625 363.46875 419.34375 C 363.46875 418.960938 363.464844 418.957031 363.800781 418.683594 C 364.589844 418.042969 365.304688 417.332031 365.949219 416.546875 C 367.332031 414.929688 368.253906 413.082031 368.714844 411.003906 C 368.921875 410.042969 368.992188 409.074219 368.929688 408.09375 C 368.902344 407.261719 368.710938 406.46875 368.355469 405.710938 C 367.863281 404.761719 367.03125 404.367188 366.070312 404.183594 C 364.882812 404.007812 363.703125 404.042969 362.53125 404.289062 C 361.621094 404.484375 360.710938 404.492188 359.800781 404.3125 C 359.554688 404.261719 359.34375 404.144531 359.167969 403.96875 C 358.988281 403.792969 358.875 403.582031 358.820312 403.339844 C 358.601562 402.386719 358.652344 401.449219 358.972656 400.527344 C 359.226562 399.675781 359.683594 398.953125 360.347656 398.355469 C 360.664062 398.066406 361.011719 397.8125 361.382812 397.597656 C 361.488281 397.535156 361.59375 397.480469 361.699219 397.429688 C 362.804688 396.886719 363.605469 397.042969 364.019531 398.003906 C 364.164062 398.371094 364.257812 398.75 364.296875 399.140625 C 364.359375 399.660156 364.644531 399.753906 365.082031 399.5 C 365.09375 399.496094 365.105469 399.488281 365.117188 399.480469 C 365.316406 399.363281 365.511719 399.246094 365.710938 399.132812 C 366.007812 398.960938 366.304688 398.792969 366.601562 398.621094 L 366.601562 398.613281 C 366.929688 398.425781 367.257812 398.238281 367.585938 398.050781 C 367.792969 397.929688 367.996094 397.808594 368.203125 397.6875 C 368.40625 397.574219 368.566406 397.417969 368.679688 397.214844 C 368.796875 397.011719 368.847656 396.792969 368.835938 396.5625 C 368.804688 396.023438 368.734375 395.492188 368.628906 394.960938 C 368.289062 393.46875 367.496094 392.566406 366.269531 392.257812 C 365.386719 392.082031 364.523438 392.144531 363.675781 392.453125 C 363.507812 392.503906 363.386719 392.40625 363.386719 392.210938 L 363.386719 391.378906 C 363.386719 390.261719 362.59375 389.8125 361.625 390.371094 " fill-opacity="1" fill-rule="nonzero"/></g></g><g fill="#ffffff" fill-opacity="1"><g transform="translate(450.74948, 422.059686)"><g><path d="M 10.5 0 L 3.953125 0 L 3.953125 -31.40625 L 21.953125 -31.40625 L 21.953125 -25.953125 L 10.5 -25.953125 L 10.5 -17.859375 L 21.15625 -17.859375 L 21.15625 -12.421875 L 10.5 -12.421875 Z M 10.5 0 "/></g></g></g><g fill="#ffffff" fill-opacity="1"><g transform="translate(474.893628, 422.059686)"><g><path d="M 32.46875 -15.75 C 32.46875 -13.332031 32.164062 -11.128906 31.5625 -9.140625 C 30.957031 -7.160156 30.039062 -5.453125 28.8125 -4.015625 C 27.59375 -2.585938 26.046875 -1.488281 24.171875 -0.71875 C 22.296875 0.0507812 20.078125 0.4375 17.515625 0.4375 C 14.953125 0.4375 12.726562 0.0507812 10.84375 -0.71875 C 8.96875 -1.488281 7.414062 -2.585938 6.1875 -4.015625 C 4.96875 -5.453125 4.054688 -7.164062 3.453125 -9.15625 C 2.859375 -11.144531 2.5625 -13.359375 2.5625 -15.796875 C 2.5625 -19.046875 3.09375 -21.875 4.15625 -24.28125 C 5.226562 -26.695312 6.875 -28.570312 9.09375 -29.90625 C 11.3125 -31.238281 14.128906 -31.90625 17.546875 -31.90625 C 20.960938 -31.90625 23.769531 -31.238281 25.96875 -29.90625 C 28.164062 -28.570312 29.796875 -26.691406 30.859375 -24.265625 C 31.929688 -21.847656 32.46875 -19.007812 32.46875 -15.75 Z M 9.546875 -15.75 C 9.546875 -13.5625 9.816406 -11.675781 10.359375 -10.09375 C 10.910156 -8.507812 11.773438 -7.289062 12.953125 -6.4375 C 14.128906 -5.582031 15.648438 -5.15625 17.515625 -5.15625 C 19.398438 -5.15625 20.929688 -5.582031 22.109375 -6.4375 C 23.285156 -7.289062 24.140625 -8.507812 24.671875 -10.09375 C 25.210938 -11.675781 25.484375 -13.5625 25.484375 -15.75 C 25.484375 -19.039062 24.863281 -21.628906 23.625 -23.515625 C 22.394531 -25.410156 20.367188 -26.359375 17.546875 -26.359375 C 15.671875 -26.359375 14.140625 -25.929688 12.953125 -25.078125 C 11.773438 -24.234375 10.910156 -23.019531 10.359375 -21.4375 C 9.816406 -19.851562 9.546875 -17.957031 9.546875 -15.75 Z M 9.546875 -15.75 "/></g></g></g><g fill="#ffffff" fill-opacity="1"><g transform="translate(509.90694, 422.059686)"><g><path d="M 13.109375 -31.40625 C 15.953125 -31.40625 18.300781 -31.0625 20.15625 -30.375 C 22.019531 -29.6875 23.398438 -28.648438 24.296875 -27.265625 C 25.203125 -25.878906 25.65625 -24.125 25.65625 -22 C 25.65625 -20.570312 25.378906 -19.316406 24.828125 -18.234375 C 24.285156 -17.160156 23.570312 -16.25 22.6875 -15.5 C 21.800781 -14.757812 20.84375 -14.15625 19.8125 -13.6875 L 29.046875 0 L 21.65625 0 L 14.15625 -12.046875 L 10.609375 -12.046875 L 10.609375 0 L 3.953125 0 L 3.953125 -31.40625 Z M 12.640625 -25.953125 L 10.609375 -25.953125 L 10.609375 -17.46875 L 12.765625 -17.46875 C 14.972656 -17.46875 16.550781 -17.835938 17.5 -18.578125 C 18.445312 -19.316406 18.921875 -20.398438 18.921875 -21.828125 C 18.921875 -23.316406 18.410156 -24.375 17.390625 -25 C 16.367188 -25.632812 14.785156 -25.953125 12.640625 -25.953125 Z M 12.640625 -25.953125 "/></g></g></g><g fill="#ffffff" fill-opacity="1"><g transform="translate(538.948656, 422.059686)"><g><path d="M 22.046875 0 L 3.953125 0 L 3.953125 -31.40625 L 22.046875 -31.40625 L 22.046875 -25.953125 L 10.609375 -25.953125 L 10.609375 -19.0625 L 21.25 -19.0625 L 21.25 -13.59375 L 10.609375 -13.59375 L 10.609375 -5.5 L 22.046875 -5.5 Z M 22.046875 0 "/></g></g></g><g fill="#ffffff" fill-opacity="1"><g transform="translate(563.586858, 422.059686)"><g><path d="M 31.8125 0 L 23.359375 0 L 9.6875 -23.765625 L 9.5 -23.765625 C 9.550781 -22.773438 9.597656 -21.773438 9.640625 -20.765625 C 9.691406 -19.765625 9.738281 -18.765625 9.78125 -17.765625 C 9.820312 -16.773438 9.863281 -15.78125 9.90625 -14.78125 L 9.90625 0 L 3.953125 0 L 3.953125 -31.40625 L 12.359375 -31.40625 L 26 -7.890625 L 26.140625 -7.890625 C 26.117188 -8.859375 26.082031 -9.820312 26.03125 -10.78125 C 25.988281 -11.738281 25.953125 -12.695312 25.921875 -13.65625 C 25.890625 -14.625 25.859375 -15.585938 25.828125 -16.546875 L 25.828125 -31.40625 L 31.8125 -31.40625 Z M 31.8125 0 "/></g></g></g><g fill="#ffffff" fill-opacity="1"><g transform="translate(599.351989, 422.059686)"><g><path d="M 22.5 -8.71875 C 22.5 -6.863281 22.046875 -5.25 21.140625 -3.875 C 20.234375 -2.5 18.914062 -1.4375 17.1875 -0.6875 C 15.46875 0.0625 13.378906 0.4375 10.921875 0.4375 C 9.828125 0.4375 8.757812 0.363281 7.71875 0.21875 C 6.6875 0.0703125 5.691406 -0.140625 4.734375 -0.421875 C 3.785156 -0.703125 2.878906 -1.050781 2.015625 -1.46875 L 2.015625 -7.65625 C 3.503906 -6.988281 5.050781 -6.390625 6.65625 -5.859375 C 8.257812 -5.335938 9.851562 -5.078125 11.4375 -5.078125 C 12.519531 -5.078125 13.394531 -5.21875 14.0625 -5.5 C 14.726562 -5.789062 15.210938 -6.1875 15.515625 -6.6875 C 15.816406 -7.1875 15.96875 -7.757812 15.96875 -8.40625 C 15.96875 -9.1875 15.703125 -9.859375 15.171875 -10.421875 C 14.640625 -10.984375 13.910156 -11.503906 12.984375 -11.984375 C 12.066406 -12.472656 11.023438 -13 9.859375 -13.5625 C 9.128906 -13.90625 8.332031 -14.320312 7.46875 -14.8125 C 6.613281 -15.3125 5.800781 -15.914062 5.03125 -16.625 C 4.257812 -17.34375 3.625 -18.210938 3.125 -19.234375 C 2.632812 -20.265625 2.390625 -21.492188 2.390625 -22.921875 C 2.390625 -24.796875 2.816406 -26.398438 3.671875 -27.734375 C 4.535156 -29.066406 5.765625 -30.085938 7.359375 -30.796875 C 8.953125 -31.503906 10.835938 -31.859375 13.015625 -31.859375 C 14.648438 -31.859375 16.207031 -31.664062 17.6875 -31.28125 C 19.175781 -30.90625 20.726562 -30.363281 22.34375 -29.65625 L 20.203125 -24.46875 C 18.753906 -25.0625 17.457031 -25.515625 16.3125 -25.828125 C 15.164062 -26.148438 14 -26.3125 12.8125 -26.3125 C 11.976562 -26.3125 11.265625 -26.179688 10.671875 -25.921875 C 10.085938 -25.660156 9.644531 -25.285156 9.34375 -24.796875 C 9.039062 -24.316406 8.890625 -23.765625 8.890625 -23.140625 C 8.890625 -22.390625 9.109375 -21.757812 9.546875 -21.25 C 9.984375 -20.75 10.640625 -20.257812 11.515625 -19.78125 C 12.398438 -19.3125 13.503906 -18.765625 14.828125 -18.140625 C 16.429688 -17.378906 17.800781 -16.585938 18.9375 -15.765625 C 20.070312 -14.941406 20.945312 -13.972656 21.5625 -12.859375 C 22.1875 -11.742188 22.5 -10.363281 22.5 -8.71875 Z M 22.5 -8.71875 "/></g></g></g><g fill="#ffffff" fill-opacity="1"><g transform="translate(623.58206, 422.059686)"><g><path d="M 3.953125 0 L 3.953125 -31.40625 L 10.609375 -31.40625 L 10.609375 0 Z M 3.953125 0 "/></g></g></g><g fill="#ffffff" fill-opacity="1"><g transform="translate(638.145879, 422.059686)"><g><path d="M 17.296875 -26.3125 C 16.023438 -26.3125 14.894531 -26.066406 13.90625 -25.578125 C 12.925781 -25.085938 12.101562 -24.375 11.4375 -23.4375 C 10.769531 -22.507812 10.265625 -21.382812 9.921875 -20.0625 C 9.578125 -18.75 9.40625 -17.269531 9.40625 -15.625 C 9.40625 -13.40625 9.679688 -11.507812 10.234375 -9.9375 C 10.785156 -8.363281 11.640625 -7.164062 12.796875 -6.34375 C 13.960938 -5.519531 15.460938 -5.109375 17.296875 -5.109375 C 18.566406 -5.109375 19.84375 -5.25 21.125 -5.53125 C 22.40625 -5.820312 23.800781 -6.234375 25.3125 -6.765625 L 25.3125 -1.1875 C 23.914062 -0.613281 22.546875 -0.203125 21.203125 0.046875 C 19.859375 0.304688 18.347656 0.4375 16.671875 0.4375 C 13.429688 0.4375 10.769531 -0.234375 8.6875 -1.578125 C 6.601562 -2.921875 5.0625 -4.796875 4.0625 -7.203125 C 3.0625 -9.617188 2.5625 -12.4375 2.5625 -15.65625 C 2.5625 -18.039062 2.878906 -20.21875 3.515625 -22.1875 C 4.160156 -24.164062 5.109375 -25.878906 6.359375 -27.328125 C 7.609375 -28.773438 9.148438 -29.890625 10.984375 -30.671875 C 12.816406 -31.460938 14.921875 -31.859375 17.296875 -31.859375 C 18.859375 -31.859375 20.421875 -31.660156 21.984375 -31.265625 C 23.554688 -30.878906 25.054688 -30.34375 26.484375 -29.65625 L 24.34375 -24.234375 C 23.164062 -24.796875 21.984375 -25.28125 20.796875 -25.6875 C 19.609375 -26.101562 18.441406 -26.3125 17.296875 -26.3125 Z M 17.296875 -26.3125 "/></g></g></g><g fill="#ffffff" fill-opacity="1"><g transform="translate(666.177998, 422.059686)"><g/></g></g><g fill="#ffffff" fill-opacity="1"><g transform="translate(677.605655, 422.059686)"><g><path d="M 22.046875 0 L 3.953125 0 L 3.953125 -31.40625 L 22.046875 -31.40625 L 22.046875 -25.953125 L 10.609375 -25.953125 L 10.609375 -19.0625 L 21.25 -19.0625 L 21.25 -13.59375 L 10.609375 -13.59375 L 10.609375 -5.5 L 22.046875 -5.5 Z M 22.046875 0 "/></g></g></g><g fill="#ffffff" fill-opacity="1"><g transform="translate(702.243868, 422.059686)"><g><path d="M 29.34375 0 L 21.75 0 L 14.4375 -11.875 L 7.140625 0 L 0 0 L 10.421875 -16.203125 L 0.671875 -31.40625 L 8.015625 -31.40625 L 14.78125 -20.109375 L 21.421875 -31.40625 L 28.59375 -31.40625 L 18.734375 -15.828125 Z M 29.34375 0 "/></g></g></g><g fill="#ffffff" fill-opacity="1"><g transform="translate(731.586312, 422.059686)"><g><path d="M 23.1875 0 L 20.90625 -7.484375 L 9.453125 -7.484375 L 7.171875 0 L 0 0 L 11.09375 -31.546875 L 19.234375 -31.546875 L 30.359375 0 Z M 19.3125 -13.0625 L 17.03125 -20.375 C 16.894531 -20.851562 16.707031 -21.472656 16.46875 -22.234375 C 16.226562 -23.003906 15.988281 -23.785156 15.75 -24.578125 C 15.519531 -25.378906 15.332031 -26.070312 15.1875 -26.65625 C 15.039062 -26.070312 14.84375 -25.347656 14.59375 -24.484375 C 14.34375 -23.617188 14.101562 -22.796875 13.875 -22.015625 C 13.644531 -21.242188 13.484375 -20.695312 13.390625 -20.375 L 11.125 -13.0625 Z M 19.3125 -13.0625 "/></g></g></g><g fill="#ffffff" fill-opacity="1"><g transform="translate(761.938353, 422.059686)"><g><path d="M 17.25 0 L 9.6875 -24.640625 L 9.5 -24.640625 C 9.53125 -24.054688 9.578125 -23.171875 9.640625 -21.984375 C 9.703125 -20.804688 9.757812 -19.550781 9.8125 -18.21875 C 9.875 -16.882812 9.90625 -15.679688 9.90625 -14.609375 L 9.90625 0 L 3.953125 0 L 3.953125 -31.40625 L 13.015625 -31.40625 L 20.453125 -7.390625 L 20.578125 -7.390625 L 28.46875 -31.40625 L 37.53125 -31.40625 L 37.53125 0 L 31.328125 0 L 31.328125 -14.875 C 31.328125 -15.851562 31.34375 -16.988281 31.375 -18.28125 C 31.414062 -19.570312 31.460938 -20.800781 31.515625 -21.96875 C 31.578125 -23.132812 31.617188 -24.007812 31.640625 -24.59375 L 31.453125 -24.59375 L 23.359375 0 Z M 17.25 0 "/></g></g></g><g fill="#ffffff" fill-opacity="1"><g transform="translate(803.417325, 422.059686)"><g><path d="M 3.953125 0 L 3.953125 -31.40625 L 10.609375 -31.40625 L 10.609375 0 Z M 3.953125 0 "/></g></g></g><g fill="#ffffff" fill-opacity="1"><g transform="translate(817.981144, 422.059686)"><g><path d="M 31.8125 0 L 23.359375 0 L 9.6875 -23.765625 L 9.5 -23.765625 C 9.550781 -22.773438 9.597656 -21.773438 9.640625 -20.765625 C 9.691406 -19.765625 9.738281 -18.765625 9.78125 -17.765625 C 9.820312 -16.773438 9.863281 -15.78125 9.90625 -14.78125 L 9.90625 0 L 3.953125 0 L 3.953125 -31.40625 L 12.359375 -31.40625 L 26 -7.890625 L 26.140625 -7.890625 C 26.117188 -8.859375 26.082031 -9.820312 26.03125 -10.78125 C 25.988281 -11.738281 25.953125 -12.695312 25.921875 -13.65625 C 25.890625 -14.625 25.859375 -15.585938 25.828125 -16.546875 L 25.828125 -31.40625 L 31.8125 -31.40625 Z M 31.8125 0 "/></g></g></g><g fill="#ffffff" fill-opacity="1"><g transform="translate(853.746287, 422.059686)"><g><path d="M 23.1875 0 L 20.90625 -7.484375 L 9.453125 -7.484375 L 7.171875 0 L 0 0 L 11.09375 -31.546875 L 19.234375 -31.546875 L 30.359375 0 Z M 19.3125 -13.0625 L 17.03125 -20.375 C 16.894531 -20.851562 16.707031 -21.472656 16.46875 -22.234375 C 16.226562 -23.003906 15.988281 -23.785156 15.75 -24.578125 C 15.519531 -25.378906 15.332031 -26.070312 15.1875 -26.65625 C 15.039062 -26.070312 14.84375 -25.347656 14.59375 -24.484375 C 14.34375 -23.617188 14.101562 -22.796875 13.875 -22.015625 C 13.644531 -21.242188 13.484375 -20.695312 13.390625 -20.375 L 11.125 -13.0625 Z M 19.3125 -13.0625 "/></g></g></g><g fill="#ffffff" fill-opacity="1"><g transform="translate(884.098305, 422.059686)"><g><path d="M 16.078125 0 L 9.40625 0 L 9.40625 -25.875 L 0.875 -25.875 L 0.875 -31.40625 L 24.59375 -31.40625 L 24.59375 -25.875 L 16.078125 -25.875 Z M 16.078125 0 "/></g></g></g><g fill="#ffffff" fill-opacity="1"><g transform="translate(909.574226, 422.059686)"><g><path d="M 3.953125 0 L 3.953125 -31.40625 L 10.609375 -31.40625 L 10.609375 0 Z M 3.953125 0 "/></g></g></g><g fill="#ffffff" fill-opacity="1"><g transform="translate(924.138068, 422.059686)"><g><path d="M 32.46875 -15.75 C 32.46875 -13.332031 32.164062 -11.128906 31.5625 -9.140625 C 30.957031 -7.160156 30.039062 -5.453125 28.8125 -4.015625 C 27.59375 -2.585938 26.046875 -1.488281 24.171875 -0.71875 C 22.296875 0.0507812 20.078125 0.4375 17.515625 0.4375 C 14.953125 0.4375 12.726562 0.0507812 10.84375 -0.71875 C 8.96875 -1.488281 7.414062 -2.585938 6.1875 -4.015625 C 4.96875 -5.453125 4.054688 -7.164062 3.453125 -9.15625 C 2.859375 -11.144531 2.5625 -13.359375 2.5625 -15.796875 C 2.5625 -19.046875 3.09375 -21.875 4.15625 -24.28125 C 5.226562 -26.695312 6.875 -28.570312 9.09375 -29.90625 C 11.3125 -31.238281 14.128906 -31.90625 17.546875 -31.90625 C 20.960938 -31.90625 23.769531 -31.238281 25.96875 -29.90625 C 28.164062 -28.570312 29.796875 -26.691406 30.859375 -24.265625 C 31.929688 -21.847656 32.46875 -19.007812 32.46875 -15.75 Z M 9.546875 -15.75 C 9.546875 -13.5625 9.816406 -11.675781 10.359375 -10.09375 C 10.910156 -8.507812 11.773438 -7.289062 12.953125 -6.4375 C 14.128906 -5.582031 15.648438 -5.15625 17.515625 -5.15625 C 19.398438 -5.15625 20.929688 -5.582031 22.109375 -6.4375 C 23.285156 -7.289062 24.140625 -8.507812 24.671875 -10.09375 C 25.210938 -11.675781 25.484375 -13.5625 25.484375 -15.75 C 25.484375 -19.039062 24.863281 -21.628906 23.625 -23.515625 C 22.394531 -25.410156 20.367188 -26.359375 17.546875 -26.359375 C 15.671875 -26.359375 14.140625 -25.929688 12.953125 -25.078125 C 11.773438 -24.234375 10.910156 -23.019531 10.359375 -21.4375 C 9.816406 -19.851562 9.546875 -17.957031 9.546875 -15.75 Z M 9.546875 -15.75 "/></g></g></g><g fill="#ffffff" fill-opacity="1"><g transform="translate(959.151402, 422.059686)"><g><path d="M 31.8125 0 L 23.359375 0 L 9.6875 -23.765625 L 9.5 -23.765625 C 9.550781 -22.773438 9.597656 -21.773438 9.640625 -20.765625 C 9.691406 -19.765625 9.738281 -18.765625 9.78125 -17.765625 C 9.820312 -16.773438 9.863281 -15.78125 9.90625 -14.78125 L 9.90625 0 L 3.953125 0 L 3.953125 -31.40625 L 12.359375 -31.40625 L 26 -7.890625 L 26.140625 -7.890625 C 26.117188 -8.859375 26.082031 -9.820312 26.03125 -10.78125 C 25.988281 -11.738281 25.953125 -12.695312 25.921875 -13.65625 C 25.890625 -14.625 25.859375 -15.585938 25.828125 -16.546875 L 25.828125 -31.40625 L 31.8125 -31.40625 Z M 31.8125 0 "/></g></g></g></svg>