<svg xmlns="http://www.w3.org/2000/svg" xmlns:xlink="http://www.w3.org/1999/xlink" width="1920" zoomAndPan="magnify" viewBox="0 0 1440 809.999993" height="1080" preserveAspectRatio="xMidYMid meet" version="1.0"><defs><g/><clipPath id="ccaa5c3d43"><path d="M 325.167969 332.652344 L 1115 332.652344 L 1115 477.347656 L 325.167969 477.347656 Z M 325.167969 332.652344 " clip-rule="nonzero"/></clipPath><clipPath id="e2571ee6aa"><path d="M 1042.488281 332.652344 C 1082.441406 332.652344 1114.832031 365.042969 1114.832031 405 C 1114.832031 444.957031 1082.441406 477.347656 1042.488281 477.347656 L 397.511719 477.347656 C 357.558594 477.347656 325.167969 444.957031 325.167969 405 C 325.167969 365.042969 357.558594 332.652344 397.511719 332.652344 Z M 1042.488281 332.652344 " clip-rule="nonzero"/></clipPath><clipPath id="7a5b0e4bd9"><path d="M 326.867188 336.976562 L 462.914062 336.976562 L 462.914062 473.023438 L 326.867188 473.023438 Z M 326.867188 336.976562 " clip-rule="nonzero"/></clipPath><clipPath id="2d130638a8"><path d="M 394.890625 336.976562 C 357.324219 336.976562 326.867188 367.433594 326.867188 405 C 326.867188 442.566406 357.324219 473.023438 394.890625 473.023438 C 432.457031 473.023438 462.914062 442.566406 462.914062 405 C 462.914062 367.433594 432.457031 336.976562 394.890625 336.976562 Z M 394.890625 336.976562 " clip-rule="nonzero"/></clipPath><clipPath id="3f45b3055f"><path d="M 372 357 L 439.285156 357 L 439.285156 466.710938 L 372 466.710938 Z M 372 357 " clip-rule="nonzero"/></clipPath><clipPath id="a330f5dff4"><path d="M 361 352 L 439.285156 352 L 439.285156 460 L 361 460 Z M 361 352 " clip-rule="nonzero"/></clipPath><clipPath id="d77a4187cc"><path d="M 409 426 L 439.285156 426 L 439.285156 463 L 409 463 Z M 409 426 " clip-rule="nonzero"/></clipPath></defs><g clip-path="url(#ccaa5c3d43)"><g clip-path="url(#e2571ee6aa)"><path fill="#414141" d="M 325.167969 332.652344 L 1114.757812 332.652344 L 1114.757812 477.347656 L 325.167969 477.347656 Z M 325.167969 332.652344 " fill-opacity="1" fill-rule="nonzero"/></g></g><g clip-path="url(#7a5b0e4bd9)"><g clip-path="url(#2d130638a8)"><path fill="#ffffff" d="M 326.867188 336.976562 L 462.914062 336.976562 L 462.914062 473.023438 L 326.867188 473.023438 Z M 326.867188 336.976562 " fill-opacity="1" fill-rule="nonzero"/></g></g><g clip-path="url(#3f45b3055f)"><path fill="#d50000" d="M 384.632812 466.898438 C 384.515625 466.898438 384.40625 466.871094 384.304688 466.808594 L 372.554688 459.859375 C 372.402344 459.769531 372.304688 459.640625 372.261719 459.46875 C 372.214844 459.296875 372.238281 459.132812 372.324219 458.980469 L 409.898438 393.679688 L 400.855469 388.378906 C 400.761719 388.324219 400.6875 388.25 400.632812 388.160156 C 400.574219 388.070312 400.542969 387.96875 400.535156 387.863281 C 400.53125 387.753906 400.546875 387.652344 400.59375 387.554688 C 400.636719 387.457031 400.699219 387.375 400.785156 387.308594 L 438.511719 358.019531 C 438.742188 357.84375 438.984375 357.828125 439.234375 357.972656 C 439.484375 358.121094 439.589844 358.335938 439.550781 358.625 L 432.765625 405.121094 C 432.75 405.226562 432.710938 405.324219 432.644531 405.414062 C 432.582031 405.5 432.5 405.566406 432.402344 405.613281 C 432.304688 405.660156 432.203125 405.679688 432.09375 405.675781 C 431.988281 405.671875 431.886719 405.640625 431.792969 405.585938 L 422.929688 400.296875 L 385.199219 466.574219 C 385.109375 466.730469 384.976562 466.832031 384.800781 466.878906 C 384.746094 466.894531 384.691406 466.902344 384.632812 466.898438 Z M 373.769531 459.070312 L 384.394531 465.359375 L 422.128906 399.082031 C 422.21875 398.921875 422.351562 398.820312 422.527344 398.773438 C 422.703125 398.726562 422.867188 398.75 423.023438 398.84375 L 431.621094 403.972656 L 438.03125 360.027344 L 402.335938 387.746094 L 411.109375 392.886719 C 411.261719 392.976562 411.359375 393.109375 411.40625 393.28125 C 411.453125 393.453125 411.429688 393.613281 411.34375 393.769531 Z M 373.769531 459.070312 " fill-opacity="1" fill-rule="nonzero"/></g><g clip-path="url(#a330f5dff4)"><path fill="#d50000" d="M 372.886719 459.949219 C 372.773438 459.949219 372.671875 459.925781 372.574219 459.871094 L 361.859375 453.976562 C 361.699219 453.890625 361.59375 453.757812 361.546875 453.578125 C 361.496094 453.402344 361.519531 453.234375 361.613281 453.078125 L 400.296875 388.039062 L 391.285156 382.523438 C 391.195312 382.46875 391.121094 382.398438 391.066406 382.304688 C 391.011719 382.214844 390.980469 382.117188 390.976562 382.011719 C 390.96875 381.90625 390.988281 381.804688 391.03125 381.707031 C 391.074219 381.609375 391.136719 381.53125 391.222656 381.464844 L 428.246094 352.230469 C 428.476562 352.050781 428.714844 352.035156 428.96875 352.175781 L 439.226562 357.964844 C 439.386719 358.050781 439.492188 358.183594 439.542969 358.355469 C 439.59375 358.53125 439.574219 358.699219 439.484375 358.855469 C 439.394531 359.015625 439.265625 359.117188 439.089844 359.164062 C 438.914062 359.210938 438.746094 359.1875 438.589844 359.09375 L 428.710938 353.519531 L 392.753906 381.90625 L 401.519531 387.265625 C 401.671875 387.359375 401.769531 387.492188 401.8125 387.664062 C 401.851562 387.835938 401.828125 388 401.738281 388.152344 L 363.070312 453.164062 L 373.199219 458.734375 C 373.328125 458.804688 373.421875 458.910156 373.480469 459.046875 C 373.539062 459.179688 373.550781 459.320312 373.511719 459.464844 C 373.476562 459.605469 373.398438 459.722656 373.28125 459.816406 C 373.164062 459.90625 373.03125 459.949219 372.882812 459.949219 Z M 372.886719 459.949219 " fill-opacity="1" fill-rule="nonzero"/></g><path fill="#d50000" d="M 360.984375 423.753906 C 359.34375 423.785156 357.832031 423.351562 356.460938 422.449219 C 351 418.777344 351.503906 408.441406 357.582031 399.410156 C 363.660156 390.378906 373.042969 386.019531 378.503906 389.691406 C 383.960938 393.367188 383.460938 403.703125 377.378906 412.734375 C 372.769531 419.589844 366.246094 423.753906 360.984375 423.753906 Z M 373.902344 389.65625 C 369.113281 389.65625 363.027344 393.640625 358.65625 400.132812 C 352.976562 408.570312 352.316406 418.101562 357.183594 421.375 C 362.050781 424.648438 370.628906 420.449219 376.304688 412.011719 C 381.988281 403.574219 382.644531 394.046875 377.78125 390.769531 C 376.601562 390 375.308594 389.628906 373.902344 389.65625 Z M 373.902344 389.65625 " fill-opacity="1" fill-rule="nonzero"/><path fill="#d50000" d="M 356.554688 422.371094 C 356.414062 422.371094 356.289062 422.328125 356.175781 422.25 C 355.597656 421.835938 355.046875 421.421875 354.476562 420.996094 C 353.855469 420.535156 353.214844 420.054688 352.492188 419.539062 C 347.050781 415.660156 347.550781 405.542969 353.628906 396.507812 C 356.539062 392.183594 360.28125 388.78125 364.167969 386.929688 C 368.164062 385.023438 371.851562 384.976562 374.550781 386.792969 C 375.339844 387.324219 376.15625 387.941406 376.949219 388.539062 C 377.480469 388.941406 378.007812 389.335938 378.519531 389.707031 C 378.664062 389.808594 378.753906 389.949219 378.78125 390.125 C 378.8125 390.304688 378.773438 390.464844 378.667969 390.609375 C 378.5625 390.753906 378.421875 390.84375 378.246094 390.871094 C 378.070312 390.902344 377.910156 390.863281 377.765625 390.757812 C 377.242188 390.382812 376.707031 389.980469 376.167969 389.574219 C 375.390625 388.984375 374.585938 388.378906 373.828125 387.867188 C 371.523438 386.316406 368.292969 386.398438 364.726562 388.097656 C 361.046875 389.851562 357.488281 393.09375 354.703125 397.230469 C 349.113281 405.539062 348.460938 415.070312 353.246094 418.484375 C 353.976562 419.003906 354.625 419.488281 355.25 419.957031 C 355.8125 420.378906 356.359375 420.785156 356.929688 421.195312 C 357.1875 421.378906 357.269531 421.621094 357.171875 421.921875 C 357.074219 422.21875 356.871094 422.371094 356.554688 422.371094 Z M 356.554688 422.371094 " fill-opacity="1" fill-rule="nonzero"/><g clip-path="url(#d77a4187cc)"><path fill="#d50000" d="M 418.136719 462.339844 C 416.472656 462.371094 414.949219 461.925781 413.5625 461.011719 C 408.105469 457.339844 408.605469 447.003906 414.6875 437.972656 C 420.765625 428.941406 430.148438 424.582031 435.609375 428.257812 C 438.308594 430.070312 439.652344 433.503906 439.390625 437.925781 C 439.140625 442.222656 437.398438 446.96875 434.484375 451.296875 C 431.574219 455.625 427.832031 459.023438 423.945312 460.875 C 422.121094 461.800781 420.183594 462.289062 418.136719 462.339844 Z M 431.007812 428.21875 C 426.214844 428.21875 420.128906 432.203125 415.757812 438.695312 C 410.082031 447.132812 409.421875 456.664062 414.285156 459.9375 C 416.589844 461.488281 419.824219 461.40625 423.386719 459.707031 C 427.066406 457.953125 430.625 454.710938 433.410156 450.574219 C 436.191406 446.4375 437.859375 441.917969 438.097656 437.851562 C 438.328125 433.90625 437.1875 430.878906 434.882812 429.332031 C 433.707031 428.5625 432.414062 428.191406 431.007812 428.21875 Z M 431.007812 428.21875 " fill-opacity="1" fill-rule="nonzero"/></g><path fill="#d50000" d="M 413.65625 460.933594 C 413.519531 460.933594 413.394531 460.890625 413.28125 460.8125 C 412.699219 460.398438 412.148438 459.984375 411.578125 459.558594 C 410.960938 459.097656 410.320312 458.617188 409.597656 458.101562 C 404.15625 454.222656 404.652344 444.105469 410.734375 435.070312 C 413.644531 430.746094 417.386719 427.34375 421.273438 425.492188 C 425.269531 423.589844 428.957031 423.539062 431.65625 425.355469 C 432.441406 425.886719 433.261719 426.503906 434.054688 427.101562 C 434.585938 427.503906 435.109375 427.902344 435.621094 428.269531 C 435.769531 428.375 435.855469 428.515625 435.882812 428.691406 C 435.914062 428.867188 435.875 429.027344 435.773438 429.175781 C 435.667969 429.320312 435.527344 429.40625 435.351562 429.4375 C 435.171875 429.464844 435.011719 429.425781 434.867188 429.324219 C 434.347656 428.949219 433.8125 428.542969 433.273438 428.136719 C 432.496094 427.550781 431.691406 426.941406 430.929688 426.429688 C 428.628906 424.882812 425.394531 424.964844 421.828125 426.664062 C 418.152344 428.417969 414.59375 431.660156 411.808594 435.796875 C 406.21875 444.101562 405.5625 453.636719 410.347656 457.046875 C 411.078125 457.570312 411.726562 458.054688 412.355469 458.523438 C 412.914062 458.941406 413.460938 459.351562 414.035156 459.757812 C 414.292969 459.941406 414.371094 460.183594 414.273438 460.484375 C 414.179688 460.785156 413.972656 460.933594 413.65625 460.933594 Z M 413.65625 460.933594 " fill-opacity="1" fill-rule="nonzero"/><g fill="#d50000" fill-opacity="1"><g transform="translate(486.546366, 417.155857)"><g><path d="M 17.296875 -26.3125 C 16.023438 -26.3125 14.894531 -26.066406 13.90625 -25.578125 C 12.925781 -25.085938 12.101562 -24.375 11.4375 -23.4375 C 10.769531 -22.507812 10.265625 -21.382812 9.921875 -20.0625 C 9.578125 -18.75 9.40625 -17.269531 9.40625 -15.625 C 9.40625 -13.40625 9.679688 -11.507812 10.234375 -9.9375 C 10.785156 -8.363281 11.640625 -7.164062 12.796875 -6.34375 C 13.960938 -5.519531 15.460938 -5.109375 17.296875 -5.109375 C 18.566406 -5.109375 19.84375 -5.25 21.125 -5.53125 C 22.40625 -5.820312 23.800781 -6.234375 25.3125 -6.765625 L 25.3125 -1.1875 C 23.914062 -0.613281 22.546875 -0.203125 21.203125 0.046875 C 19.859375 0.304688 18.347656 0.4375 16.671875 0.4375 C 13.429688 0.4375 10.769531 -0.234375 8.6875 -1.578125 C 6.601562 -2.921875 5.0625 -4.796875 4.0625 -7.203125 C 3.0625 -9.617188 2.5625 -12.4375 2.5625 -15.65625 C 2.5625 -18.039062 2.878906 -20.21875 3.515625 -22.1875 C 4.160156 -24.164062 5.109375 -25.878906 6.359375 -27.328125 C 7.609375 -28.773438 9.148438 -29.890625 10.984375 -30.671875 C 12.816406 -31.460938 14.921875 -31.859375 17.296875 -31.859375 C 18.859375 -31.859375 20.421875 -31.660156 21.984375 -31.265625 C 23.554688 -30.878906 25.054688 -30.34375 26.484375 -29.65625 L 24.34375 -24.234375 C 23.164062 -24.796875 21.984375 -25.28125 20.796875 -25.6875 C 19.609375 -26.101562 18.441406 -26.3125 17.296875 -26.3125 Z M 17.296875 -26.3125 "/></g></g></g><g fill="#d50000" fill-opacity="1"><g transform="translate(514.578496, 417.155857)"><g><path d="M 32.46875 -15.75 C 32.46875 -13.332031 32.164062 -11.128906 31.5625 -9.140625 C 30.957031 -7.160156 30.039062 -5.453125 28.8125 -4.015625 C 27.59375 -2.585938 26.046875 -1.488281 24.171875 -0.71875 C 22.296875 0.0507812 20.078125 0.4375 17.515625 0.4375 C 14.953125 0.4375 12.726562 0.0507812 10.84375 -0.71875 C 8.96875 -1.488281 7.414062 -2.585938 6.1875 -4.015625 C 4.96875 -5.453125 4.054688 -7.164062 3.453125 -9.15625 C 2.859375 -11.144531 2.5625 -13.359375 2.5625 -15.796875 C 2.5625 -19.046875 3.09375 -21.875 4.15625 -24.28125 C 5.226562 -26.695312 6.875 -28.570312 9.09375 -29.90625 C 11.3125 -31.238281 14.128906 -31.90625 17.546875 -31.90625 C 20.960938 -31.90625 23.769531 -31.238281 25.96875 -29.90625 C 28.164062 -28.570312 29.796875 -26.691406 30.859375 -24.265625 C 31.929688 -21.847656 32.46875 -19.007812 32.46875 -15.75 Z M 9.546875 -15.75 C 9.546875 -13.5625 9.816406 -11.675781 10.359375 -10.09375 C 10.910156 -8.507812 11.773438 -7.289062 12.953125 -6.4375 C 14.128906 -5.582031 15.648438 -5.15625 17.515625 -5.15625 C 19.398438 -5.15625 20.929688 -5.582031 22.109375 -6.4375 C 23.285156 -7.289062 24.140625 -8.507812 24.671875 -10.09375 C 25.210938 -11.675781 25.484375 -13.5625 25.484375 -15.75 C 25.484375 -19.039062 24.863281 -21.628906 23.625 -23.515625 C 22.394531 -25.410156 20.367188 -26.359375 17.546875 -26.359375 C 15.671875 -26.359375 14.140625 -25.929688 12.953125 -25.078125 C 11.773438 -24.234375 10.910156 -23.019531 10.359375 -21.4375 C 9.816406 -19.851562 9.546875 -17.957031 9.546875 -15.75 Z M 9.546875 -15.75 "/></g></g></g><g fill="#d50000" fill-opacity="1"><g transform="translate(549.591807, 417.155857)"><g><path d="M 13.109375 -31.40625 C 15.953125 -31.40625 18.300781 -31.0625 20.15625 -30.375 C 22.019531 -29.6875 23.398438 -28.648438 24.296875 -27.265625 C 25.203125 -25.878906 25.65625 -24.125 25.65625 -22 C 25.65625 -20.570312 25.378906 -19.316406 24.828125 -18.234375 C 24.285156 -17.160156 23.570312 -16.25 22.6875 -15.5 C 21.800781 -14.757812 20.84375 -14.15625 19.8125 -13.6875 L 29.046875 0 L 21.65625 0 L 14.15625 -12.046875 L 10.609375 -12.046875 L 10.609375 0 L 3.953125 0 L 3.953125 -31.40625 Z M 12.640625 -25.953125 L 10.609375 -25.953125 L 10.609375 -17.46875 L 12.765625 -17.46875 C 14.972656 -17.46875 16.550781 -17.835938 17.5 -18.578125 C 18.445312 -19.316406 18.921875 -20.398438 18.921875 -21.828125 C 18.921875 -23.316406 18.410156 -24.375 17.390625 -25 C 16.367188 -25.632812 14.785156 -25.953125 12.640625 -25.953125 Z M 12.640625 -25.953125 "/></g></g></g><g fill="#d50000" fill-opacity="1"><g transform="translate(578.633523, 417.155857)"><g><path d="M 13.984375 -31.40625 C 18.035156 -31.40625 20.992188 -30.535156 22.859375 -28.796875 C 24.722656 -27.054688 25.65625 -24.660156 25.65625 -21.609375 C 25.65625 -20.234375 25.445312 -18.921875 25.03125 -17.671875 C 24.613281 -16.421875 23.9375 -15.304688 23 -14.328125 C 22.0625 -13.359375 20.8125 -12.585938 19.25 -12.015625 C 17.6875 -11.453125 15.757812 -11.171875 13.46875 -11.171875 L 10.609375 -11.171875 L 10.609375 0 L 3.953125 0 L 3.953125 -31.40625 Z M 13.640625 -25.953125 L 10.609375 -25.953125 L 10.609375 -16.625 L 12.8125 -16.625 C 14.050781 -16.625 15.128906 -16.789062 16.046875 -17.125 C 16.960938 -17.457031 17.671875 -17.972656 18.171875 -18.671875 C 18.671875 -19.367188 18.921875 -20.269531 18.921875 -21.375 C 18.921875 -22.925781 18.488281 -24.078125 17.625 -24.828125 C 16.769531 -25.578125 15.441406 -25.953125 13.640625 -25.953125 Z M 13.640625 -25.953125 "/></g></g></g><g fill="#d50000" fill-opacity="1"><g transform="translate(606.257523, 417.155857)"><g><path d="M 32.46875 -15.75 C 32.46875 -13.332031 32.164062 -11.128906 31.5625 -9.140625 C 30.957031 -7.160156 30.039062 -5.453125 28.8125 -4.015625 C 27.59375 -2.585938 26.046875 -1.488281 24.171875 -0.71875 C 22.296875 0.0507812 20.078125 0.4375 17.515625 0.4375 C 14.953125 0.4375 12.726562 0.0507812 10.84375 -0.71875 C 8.96875 -1.488281 7.414062 -2.585938 6.1875 -4.015625 C 4.96875 -5.453125 4.054688 -7.164062 3.453125 -9.15625 C 2.859375 -11.144531 2.5625 -13.359375 2.5625 -15.796875 C 2.5625 -19.046875 3.09375 -21.875 4.15625 -24.28125 C 5.226562 -26.695312 6.875 -28.570312 9.09375 -29.90625 C 11.3125 -31.238281 14.128906 -31.90625 17.546875 -31.90625 C 20.960938 -31.90625 23.769531 -31.238281 25.96875 -29.90625 C 28.164062 -28.570312 29.796875 -26.691406 30.859375 -24.265625 C 31.929688 -21.847656 32.46875 -19.007812 32.46875 -15.75 Z M 9.546875 -15.75 C 9.546875 -13.5625 9.816406 -11.675781 10.359375 -10.09375 C 10.910156 -8.507812 11.773438 -7.289062 12.953125 -6.4375 C 14.128906 -5.582031 15.648438 -5.15625 17.515625 -5.15625 C 19.398438 -5.15625 20.929688 -5.582031 22.109375 -6.4375 C 23.285156 -7.289062 24.140625 -8.507812 24.671875 -10.09375 C 25.210938 -11.675781 25.484375 -13.5625 25.484375 -15.75 C 25.484375 -19.039062 24.863281 -21.628906 23.625 -23.515625 C 22.394531 -25.410156 20.367188 -26.359375 17.546875 -26.359375 C 15.671875 -26.359375 14.140625 -25.929688 12.953125 -25.078125 C 11.773438 -24.234375 10.910156 -23.019531 10.359375 -21.4375 C 9.816406 -19.851562 9.546875 -17.957031 9.546875 -15.75 Z M 9.546875 -15.75 "/></g></g></g><g fill="#d50000" fill-opacity="1"><g transform="translate(641.270834, 417.155857)"><g><path d="M 13.109375 -31.40625 C 15.953125 -31.40625 18.300781 -31.0625 20.15625 -30.375 C 22.019531 -29.6875 23.398438 -28.648438 24.296875 -27.265625 C 25.203125 -25.878906 25.65625 -24.125 25.65625 -22 C 25.65625 -20.570312 25.378906 -19.316406 24.828125 -18.234375 C 24.285156 -17.160156 23.570312 -16.25 22.6875 -15.5 C 21.800781 -14.757812 20.84375 -14.15625 19.8125 -13.6875 L 29.046875 0 L 21.65625 0 L 14.15625 -12.046875 L 10.609375 -12.046875 L 10.609375 0 L 3.953125 0 L 3.953125 -31.40625 Z M 12.640625 -25.953125 L 10.609375 -25.953125 L 10.609375 -17.46875 L 12.765625 -17.46875 C 14.972656 -17.46875 16.550781 -17.835938 17.5 -18.578125 C 18.445312 -19.316406 18.921875 -20.398438 18.921875 -21.828125 C 18.921875 -23.316406 18.410156 -24.375 17.390625 -25 C 16.367188 -25.632812 14.785156 -25.953125 12.640625 -25.953125 Z M 12.640625 -25.953125 "/></g></g></g><g fill="#d50000" fill-opacity="1"><g transform="translate(670.31255, 417.155857)"><g><path d="M 23.1875 0 L 20.90625 -7.484375 L 9.453125 -7.484375 L 7.171875 0 L 0 0 L 11.09375 -31.546875 L 19.234375 -31.546875 L 30.359375 0 Z M 19.3125 -13.0625 L 17.03125 -20.375 C 16.894531 -20.851562 16.707031 -21.472656 16.46875 -22.234375 C 16.226562 -23.003906 15.988281 -23.785156 15.75 -24.578125 C 15.519531 -25.378906 15.332031 -26.070312 15.1875 -26.65625 C 15.039062 -26.070312 14.84375 -25.347656 14.59375 -24.484375 C 14.34375 -23.617188 14.101562 -22.796875 13.875 -22.015625 C 13.644531 -21.242188 13.484375 -20.695312 13.390625 -20.375 L 11.125 -13.0625 Z M 19.3125 -13.0625 "/></g></g></g><g fill="#d50000" fill-opacity="1"><g transform="translate(700.664581, 417.155857)"><g><path d="M 16.078125 0 L 9.40625 0 L 9.40625 -25.875 L 0.875 -25.875 L 0.875 -31.40625 L 24.59375 -31.40625 L 24.59375 -25.875 L 16.078125 -25.875 Z M 16.078125 0 "/></g></g></g><g fill="#d50000" fill-opacity="1"><g transform="translate(726.140524, 417.155857)"><g><path d="M 22.046875 0 L 3.953125 0 L 3.953125 -31.40625 L 22.046875 -31.40625 L 22.046875 -25.953125 L 10.609375 -25.953125 L 10.609375 -19.0625 L 21.25 -19.0625 L 21.25 -13.59375 L 10.609375 -13.59375 L 10.609375 -5.5 L 22.046875 -5.5 Z M 22.046875 0 "/></g></g></g><g fill="#d50000" fill-opacity="1"><g transform="translate(750.778714, 417.155857)"><g/></g></g><g fill="#d50000" fill-opacity="1"><g transform="translate(762.206372, 417.155857)"><g><path d="M 23.1875 0 L 20.90625 -7.484375 L 9.453125 -7.484375 L 7.171875 0 L 0 0 L 11.09375 -31.546875 L 19.234375 -31.546875 L 30.359375 0 Z M 19.3125 -13.0625 L 17.03125 -20.375 C 16.894531 -20.851562 16.707031 -21.472656 16.46875 -22.234375 C 16.226562 -23.003906 15.988281 -23.785156 15.75 -24.578125 C 15.519531 -25.378906 15.332031 -26.070312 15.1875 -26.65625 C 15.039062 -26.070312 14.84375 -25.347656 14.59375 -24.484375 C 14.34375 -23.617188 14.101562 -22.796875 13.875 -22.015625 C 13.644531 -21.242188 13.484375 -20.695312 13.390625 -20.375 L 11.125 -13.0625 Z M 19.3125 -13.0625 "/></g></g></g><g fill="#d50000" fill-opacity="1"><g transform="translate(792.55839, 417.155857)"><g><path d="M 30.015625 -16 C 30.015625 -12.46875 29.335938 -9.515625 27.984375 -7.140625 C 26.628906 -4.773438 24.671875 -2.992188 22.109375 -1.796875 C 19.546875 -0.597656 16.457031 0 12.84375 0 L 3.953125 0 L 3.953125 -31.40625 L 13.8125 -31.40625 C 17.101562 -31.40625 19.957031 -30.820312 22.375 -29.65625 C 24.800781 -28.488281 26.679688 -26.765625 28.015625 -24.484375 C 29.347656 -22.203125 30.015625 -19.375 30.015625 -16 Z M 23.09375 -15.828125 C 23.09375 -18.148438 22.753906 -20.0625 22.078125 -21.5625 C 21.398438 -23.0625 20.394531 -24.164062 19.0625 -24.875 C 17.738281 -25.59375 16.101562 -25.953125 14.15625 -25.953125 L 10.609375 -25.953125 L 10.609375 -5.5 L 13.46875 -5.5 C 16.71875 -5.5 19.132812 -6.363281 20.71875 -8.09375 C 22.300781 -9.832031 23.09375 -12.410156 23.09375 -15.828125 Z M 23.09375 -15.828125 "/></g></g></g><g fill="#d50000" fill-opacity="1"><g transform="translate(825.122919, 417.155857)"><g><path d="M 28.59375 -31.40625 L 17.921875 0 L 10.65625 0 L 0 -31.40625 L 6.71875 -31.40625 L 12.640625 -12.71875 C 12.734375 -12.40625 12.894531 -11.8125 13.125 -10.9375 C 13.351562 -10.070312 13.585938 -9.15625 13.828125 -8.1875 C 14.066406 -7.226562 14.226562 -6.429688 14.3125 -5.796875 C 14.394531 -6.429688 14.546875 -7.226562 14.765625 -8.1875 C 14.992188 -9.144531 15.21875 -10.054688 15.4375 -10.921875 C 15.65625 -11.785156 15.816406 -12.382812 15.921875 -12.71875 L 21.875 -31.40625 Z M 28.59375 -31.40625 "/></g></g></g><g fill="#d50000" fill-opacity="1"><g transform="translate(853.713555, 417.155857)"><g><path d="M 3.953125 0 L 3.953125 -31.40625 L 10.609375 -31.40625 L 10.609375 0 Z M 3.953125 0 "/></g></g></g><g fill="#d50000" fill-opacity="1"><g transform="translate(868.277374, 417.155857)"><g><path d="M 22.5 -8.71875 C 22.5 -6.863281 22.046875 -5.25 21.140625 -3.875 C 20.234375 -2.5 18.914062 -1.4375 17.1875 -0.6875 C 15.46875 0.0625 13.378906 0.4375 10.921875 0.4375 C 9.828125 0.4375 8.757812 0.363281 7.71875 0.21875 C 6.6875 0.0703125 5.691406 -0.140625 4.734375 -0.421875 C 3.785156 -0.703125 2.878906 -1.050781 2.015625 -1.46875 L 2.015625 -7.65625 C 3.503906 -6.988281 5.050781 -6.390625 6.65625 -5.859375 C 8.257812 -5.335938 9.851562 -5.078125 11.4375 -5.078125 C 12.519531 -5.078125 13.394531 -5.21875 14.0625 -5.5 C 14.726562 -5.789062 15.210938 -6.1875 15.515625 -6.6875 C 15.816406 -7.1875 15.96875 -7.757812 15.96875 -8.40625 C 15.96875 -9.1875 15.703125 -9.859375 15.171875 -10.421875 C 14.640625 -10.984375 13.910156 -11.503906 12.984375 -11.984375 C 12.066406 -12.472656 11.023438 -13 9.859375 -13.5625 C 9.128906 -13.90625 8.332031 -14.320312 7.46875 -14.8125 C 6.613281 -15.3125 5.800781 -15.914062 5.03125 -16.625 C 4.257812 -17.34375 3.625 -18.210938 3.125 -19.234375 C 2.632812 -20.265625 2.390625 -21.492188 2.390625 -22.921875 C 2.390625 -24.796875 2.816406 -26.398438 3.671875 -27.734375 C 4.535156 -29.066406 5.765625 -30.085938 7.359375 -30.796875 C 8.953125 -31.503906 10.835938 -31.859375 13.015625 -31.859375 C 14.648438 -31.859375 16.207031 -31.664062 17.6875 -31.28125 C 19.175781 -30.90625 20.726562 -30.363281 22.34375 -29.65625 L 20.203125 -24.46875 C 18.753906 -25.0625 17.457031 -25.515625 16.3125 -25.828125 C 15.164062 -26.148438 14 -26.3125 12.8125 -26.3125 C 11.976562 -26.3125 11.265625 -26.179688 10.671875 -25.921875 C 10.085938 -25.660156 9.644531 -25.285156 9.34375 -24.796875 C 9.039062 -24.316406 8.890625 -23.765625 8.890625 -23.140625 C 8.890625 -22.390625 9.109375 -21.757812 9.546875 -21.25 C 9.984375 -20.75 10.640625 -20.257812 11.515625 -19.78125 C 12.398438 -19.3125 13.503906 -18.765625 14.828125 -18.140625 C 16.429688 -17.378906 17.800781 -16.585938 18.9375 -15.765625 C 20.070312 -14.941406 20.945312 -13.972656 21.5625 -12.859375 C 22.1875 -11.742188 22.5 -10.363281 22.5 -8.71875 Z M 22.5 -8.71875 "/></g></g></g><g fill="#d50000" fill-opacity="1"><g transform="translate(892.507468, 417.155857)"><g><path d="M 32.46875 -15.75 C 32.46875 -13.332031 32.164062 -11.128906 31.5625 -9.140625 C 30.957031 -7.160156 30.039062 -5.453125 28.8125 -4.015625 C 27.59375 -2.585938 26.046875 -1.488281 24.171875 -0.71875 C 22.296875 0.0507812 20.078125 0.4375 17.515625 0.4375 C 14.953125 0.4375 12.726562 0.0507812 10.84375 -0.71875 C 8.96875 -1.488281 7.414062 -2.585938 6.1875 -4.015625 C 4.96875 -5.453125 4.054688 -7.164062 3.453125 -9.15625 C 2.859375 -11.144531 2.5625 -13.359375 2.5625 -15.796875 C 2.5625 -19.046875 3.09375 -21.875 4.15625 -24.28125 C 5.226562 -26.695312 6.875 -28.570312 9.09375 -29.90625 C 11.3125 -31.238281 14.128906 -31.90625 17.546875 -31.90625 C 20.960938 -31.90625 23.769531 -31.238281 25.96875 -29.90625 C 28.164062 -28.570312 29.796875 -26.691406 30.859375 -24.265625 C 31.929688 -21.847656 32.46875 -19.007812 32.46875 -15.75 Z M 9.546875 -15.75 C 9.546875 -13.5625 9.816406 -11.675781 10.359375 -10.09375 C 10.910156 -8.507812 11.773438 -7.289062 12.953125 -6.4375 C 14.128906 -5.582031 15.648438 -5.15625 17.515625 -5.15625 C 19.398438 -5.15625 20.929688 -5.582031 22.109375 -6.4375 C 23.285156 -7.289062 24.140625 -8.507812 24.671875 -10.09375 C 25.210938 -11.675781 25.484375 -13.5625 25.484375 -15.75 C 25.484375 -19.039062 24.863281 -21.628906 23.625 -23.515625 C 22.394531 -25.410156 20.367188 -26.359375 17.546875 -26.359375 C 15.671875 -26.359375 14.140625 -25.929688 12.953125 -25.078125 C 11.773438 -24.234375 10.910156 -23.019531 10.359375 -21.4375 C 9.816406 -19.851562 9.546875 -17.957031 9.546875 -15.75 Z M 9.546875 -15.75 "/></g></g></g><g fill="#d50000" fill-opacity="1"><g transform="translate(927.520802, 417.155857)"><g><path d="M 13.109375 -31.40625 C 15.953125 -31.40625 18.300781 -31.0625 20.15625 -30.375 C 22.019531 -29.6875 23.398438 -28.648438 24.296875 -27.265625 C 25.203125 -25.878906 25.65625 -24.125 25.65625 -22 C 25.65625 -20.570312 25.378906 -19.316406 24.828125 -18.234375 C 24.285156 -17.160156 23.570312 -16.25 22.6875 -15.5 C 21.800781 -14.757812 20.84375 -14.15625 19.8125 -13.6875 L 29.046875 0 L 21.65625 0 L 14.15625 -12.046875 L 10.609375 -12.046875 L 10.609375 0 L 3.953125 0 L 3.953125 -31.40625 Z M 12.640625 -25.953125 L 10.609375 -25.953125 L 10.609375 -17.46875 L 12.765625 -17.46875 C 14.972656 -17.46875 16.550781 -17.835938 17.5 -18.578125 C 18.445312 -19.316406 18.921875 -20.398438 18.921875 -21.828125 C 18.921875 -23.316406 18.410156 -24.375 17.390625 -25 C 16.367188 -25.632812 14.785156 -25.953125 12.640625 -25.953125 Z M 12.640625 -25.953125 "/></g></g></g><g fill="#d50000" fill-opacity="1"><g transform="translate(956.562518, 417.155857)"><g><path d="M 13.734375 -18.484375 L 20.28125 -31.40625 L 27.453125 -31.40625 L 17.03125 -12.21875 L 17.03125 0 L 10.421875 0 L 10.421875 -12.015625 L 0 -31.40625 L 7.21875 -31.40625 Z M 13.734375 -18.484375 "/></g></g></g></svg>