<svg xmlns="http://www.w3.org/2000/svg" xmlns:xlink="http://www.w3.org/1999/xlink" width="1920" zoomAndPan="magnify" viewBox="0 0 1440 809.999993" height="1080" preserveAspectRatio="xMidYMid meet" version="1.0"><defs><g/><clipPath id="a0ce977ee9"><path d="M 340.414062 324.8125 L 1099.6875 324.8125 L 1099.6875 485.1875 L 340.414062 485.1875 Z M 340.414062 324.8125 " clip-rule="nonzero"/></clipPath><clipPath id="e9291583a6"><path d="M 1019.398438 324.8125 C 1063.683594 324.8125 1099.585938 360.714844 1099.585938 405 C 1099.585938 449.285156 1063.683594 485.1875 1019.398438 485.1875 L 420.601562 485.1875 C 376.316406 485.1875 340.414062 449.285156 340.414062 405 C 340.414062 360.714844 376.316406 324.8125 420.601562 324.8125 Z M 1019.398438 324.8125 " clip-rule="nonzero"/></clipPath><clipPath id="59eb1be040"><path d="M 342.300781 329.605469 L 493.089844 329.605469 L 493.089844 480.394531 L 342.300781 480.394531 Z M 342.300781 329.605469 " clip-rule="nonzero"/></clipPath><clipPath id="bad872aebe"><path d="M 417.695312 329.605469 C 376.054688 329.605469 342.300781 363.359375 342.300781 405 C 342.300781 446.640625 376.054688 480.394531 417.695312 480.394531 C 459.335938 480.394531 493.089844 446.640625 493.089844 405 C 493.089844 363.359375 459.335938 329.605469 417.695312 329.605469 Z M 417.695312 329.605469 " clip-rule="nonzero"/></clipPath><clipPath id="73cdc46a1f"><path d="M 383.824219 425 L 410 425 L 410 442 L 383.824219 442 Z M 383.824219 425 " clip-rule="nonzero"/></clipPath><clipPath id="2d2a04ed22"><path d="M 394 354 L 451.324219 354 L 451.324219 464 L 394 464 Z M 394 354 " clip-rule="nonzero"/></clipPath><clipPath id="0cc96f2c50"><path d="M 436 400 L 451.324219 400 L 451.324219 418 L 436 418 Z M 436 400 " clip-rule="nonzero"/></clipPath><clipPath id="991b1debbc"><path d="M 417 383 L 428.453125 383 L 428.453125 407 L 417 407 Z M 417 383 " clip-rule="nonzero"/></clipPath><clipPath id="288e65417e"><path d="M 417.261719 409.960938 L 417.199219 386.796875 L 428.242188 380.421875 L 428.308594 403.582031 Z M 417.261719 409.960938 " clip-rule="nonzero"/></clipPath></defs><g clip-path="url(#a0ce977ee9)"><g clip-path="url(#e9291583a6)"><path fill="#d50000" d="M 340.414062 324.8125 L 1099.6875 324.8125 L 1099.6875 485.1875 L 340.414062 485.1875 Z M 340.414062 324.8125 " fill-opacity="1" fill-rule="nonzero"/></g></g><g clip-path="url(#59eb1be040)"><g clip-path="url(#bad872aebe)"><path fill="#ffffff" d="M 342.300781 329.605469 L 493.089844 329.605469 L 493.089844 480.394531 L 342.300781 480.394531 Z M 342.300781 329.605469 " fill-opacity="1" fill-rule="nonzero"/></g></g><path fill="#d50000" d="M 408.886719 372.027344 C 408.800781 372.027344 408.71875 372.003906 408.644531 371.957031 L 397.949219 365.289062 C 397.882812 365.246094 397.828125 365.191406 397.789062 365.121094 C 397.753906 365.054688 397.734375 364.980469 397.734375 364.898438 C 397.734375 364.820312 397.753906 364.746094 397.792969 364.679688 C 397.832031 364.609375 397.882812 364.554688 397.953125 364.515625 L 424.925781 348.082031 C 425.089844 347.984375 425.246094 347.984375 425.40625 348.085938 L 436.257812 354.90625 C 436.328125 354.949219 436.378906 355.003906 436.417969 355.074219 C 436.453125 355.144531 436.472656 355.21875 436.472656 355.296875 C 436.472656 355.378906 436.453125 355.449219 436.414062 355.519531 C 436.371094 355.589844 436.320312 355.644531 436.25 355.683594 L 409.121094 371.960938 C 409.046875 372.003906 408.96875 372.027344 408.886719 372.027344 Z M 399.058594 364.90625 L 408.890625 371.039062 L 435.148438 355.285156 L 425.160156 349.007812 Z M 399.058594 364.90625 " fill-opacity="1" fill-rule="nonzero"/><path fill="#d50000" d="M 408.886719 433.574219 C 408.792969 433.574219 408.710938 433.550781 408.632812 433.496094 L 397.9375 426.367188 C 397.800781 426.277344 397.734375 426.148438 397.734375 425.988281 L 397.734375 364.902344 C 397.734375 364.722656 397.8125 364.589844 397.96875 364.503906 C 398.125 364.417969 398.277344 364.421875 398.429688 364.515625 L 409.128906 371.183594 C 409.269531 371.273438 409.339844 371.402344 409.339844 371.570312 L 409.339844 433.117188 C 409.339844 433.246094 409.296875 433.351562 409.207031 433.441406 C 409.121094 433.53125 409.011719 433.574219 408.886719 433.574219 Z M 398.644531 425.742188 L 408.429688 432.269531 L 408.429688 371.824219 L 398.644531 365.722656 Z M 398.644531 425.742188 " fill-opacity="1" fill-rule="nonzero"/><g clip-path="url(#73cdc46a1f)"><path fill="#d50000" d="M 394.46875 441.945312 C 394.371094 441.945312 394.28125 441.917969 394.203125 441.859375 L 384.011719 434.546875 C 383.949219 434.5 383.902344 434.445312 383.867188 434.375 C 383.835938 434.304688 383.820312 434.234375 383.824219 434.15625 C 383.828125 434.078125 383.847656 434.007812 383.886719 433.941406 C 383.925781 433.875 383.980469 433.824219 384.046875 433.785156 L 397.957031 425.59375 C 398.121094 425.5 398.28125 425.503906 398.441406 425.609375 L 409.140625 432.738281 C 409.203125 432.785156 409.253906 432.839844 409.289062 432.910156 C 409.328125 432.980469 409.34375 433.054688 409.339844 433.132812 C 409.339844 433.210938 409.316406 433.285156 409.277344 433.351562 C 409.238281 433.417969 409.183594 433.472656 409.113281 433.511719 L 394.695312 441.882812 C 394.625 441.925781 394.550781 441.945312 394.46875 441.945312 Z M 385.113281 434.214844 L 394.496094 440.949219 L 408.023438 433.09375 L 398.175781 426.523438 Z M 385.113281 434.214844 " fill-opacity="1" fill-rule="nonzero"/></g><g clip-path="url(#2d2a04ed22)"><path fill="#d50000" d="M 422.996094 463.960938 C 422.890625 463.960938 422.796875 463.929688 422.714844 463.867188 L 394.191406 441.851562 C 394.128906 441.804688 394.085938 441.746094 394.054688 441.679688 C 394.023438 441.609375 394.007812 441.535156 394.015625 441.460938 C 394.019531 441.386719 394.042969 441.316406 394.082031 441.25 C 394.121094 441.1875 394.175781 441.136719 394.238281 441.097656 L 408.429688 432.855469 L 408.429688 371.570312 C 408.429688 371.398438 408.503906 371.269531 408.652344 371.179688 L 435.78125 354.902344 C 435.933594 354.8125 436.085938 354.808594 436.238281 354.894531 C 436.390625 354.980469 436.46875 355.109375 436.472656 355.285156 L 437.238281 416.023438 L 450.8125 407.464844 C 451.007812 407.339844 451.191406 407.355469 451.363281 407.511719 C 451.53125 407.667969 451.566406 407.847656 451.460938 408.054688 L 423.402344 463.710938 C 423.335938 463.839844 423.234375 463.917969 423.09375 463.949219 C 423.0625 463.957031 423.027344 463.960938 422.996094 463.960938 Z M 395.28125 441.542969 L 422.835938 462.808594 L 449.910156 409.109375 L 437.035156 417.226562 C 436.886719 417.320312 436.730469 417.328125 436.574219 417.242188 C 436.417969 417.15625 436.339844 417.023438 436.335938 416.847656 L 435.570312 356.089844 L 409.339844 371.828125 L 409.339844 433.117188 C 409.339844 433.292969 409.265625 433.425781 409.113281 433.515625 Z M 408.886719 433.117188 Z M 408.886719 433.117188 " fill-opacity="1" fill-rule="nonzero"/></g><g clip-path="url(#0cc96f2c50)"><path fill="#d50000" d="M 436.792969 417.296875 C 436.667969 417.296875 436.5625 417.253906 436.472656 417.164062 C 436.382812 417.078125 436.339844 416.972656 436.335938 416.847656 L 436.160156 402.890625 C 436.160156 402.714844 436.234375 402.578125 436.390625 402.492188 L 439.511719 400.710938 C 439.664062 400.621094 439.820312 400.621094 439.972656 400.714844 L 451.289062 407.457031 C 451.355469 407.496094 451.410156 407.550781 451.449219 407.621094 C 451.488281 407.691406 451.507812 407.761719 451.511719 407.84375 C 451.511719 407.921875 451.492188 407.996094 451.457031 408.066406 C 451.417969 408.136719 451.363281 408.191406 451.296875 408.234375 L 437.035156 417.226562 C 436.960938 417.273438 436.878906 417.296875 436.792969 417.296875 Z M 437.074219 403.148438 L 437.238281 416.019531 L 450.183594 407.859375 L 439.734375 401.632812 Z M 437.074219 403.148438 " fill-opacity="1" fill-rule="nonzero"/></g><g clip-path="url(#991b1debbc)"><g clip-path="url(#288e65417e)"><path fill="#d50000" d="M 423.105469 383.386719 C 422.742188 383.625 422.449219 383.929688 422.230469 384.304688 C 422.011719 384.679688 421.890625 385.085938 421.863281 385.519531 C 421.863281 385.71875 421.859375 385.917969 421.863281 386.101562 C 421.863281 386.316406 421.855469 386.324219 421.671875 386.464844 C 420.914062 387.054688 420.242188 387.730469 419.664062 388.5 C 418.820312 389.589844 418.242188 390.808594 417.9375 392.152344 C 417.746094 393.023438 417.714844 393.894531 417.84375 394.773438 C 417.960938 395.59375 418.25 396.242188 418.8125 396.5625 C 419.117188 396.730469 419.441406 396.847656 419.785156 396.914062 C 420.671875 397.046875 421.550781 397.023438 422.425781 396.832031 C 423 396.707031 423.578125 396.691406 424.15625 396.785156 C 424.371094 396.816406 424.550781 396.910156 424.703125 397.0625 C 424.851562 397.214844 424.941406 397.398438 424.972656 397.613281 C 425.027344 397.945312 425.046875 398.277344 425.035156 398.613281 C 424.960938 399.582031 424.570312 400.402344 423.859375 401.070312 C 423.574219 401.34375 423.257812 401.582031 422.914062 401.785156 C 422.605469 401.96875 422.273438 402.097656 421.921875 402.171875 C 421.292969 402.300781 420.820312 402.117188 420.621094 401.484375 C 420.546875 401.234375 420.496094 400.976562 420.46875 400.714844 C 420.433594 400.441406 420.21875 400.34375 419.960938 400.476562 C 419.886719 400.515625 419.8125 400.5625 419.738281 400.605469 C 419.460938 400.761719 419.1875 400.921875 418.910156 401.082031 C 418.632812 401.238281 418.359375 401.398438 418.082031 401.5625 C 417.972656 401.625 417.859375 401.6875 417.75 401.753906 C 417.578125 401.847656 417.445312 401.980469 417.355469 402.152344 C 417.261719 402.328125 417.222656 402.511719 417.242188 402.707031 C 417.25 402.796875 417.261719 402.882812 417.269531 402.972656 C 417.292969 403.542969 417.425781 404.085938 417.667969 404.601562 C 418.109375 405.480469 418.898438 405.75 419.847656 405.726562 C 420.316406 405.710938 420.769531 405.621094 421.207031 405.460938 C 421.914062 405.210938 421.914062 405.058594 421.914062 405.453125 L 421.914062 405.835938 C 421.921875 406.628906 422.476562 406.945312 423.164062 406.546875 L 423.179688 406.539062 L 423.183594 406.539062 C 423.542969 406.300781 423.832031 405.992188 424.050781 405.617188 C 424.265625 405.242188 424.386719 404.839844 424.410156 404.40625 C 424.410156 404.25 424.410156 404.09375 424.410156 403.9375 C 424.410156 403.664062 424.410156 403.660156 424.644531 403.472656 C 425.207031 403.015625 425.714844 402.511719 426.171875 401.953125 C 427.152344 400.804688 427.808594 399.496094 428.132812 398.019531 C 428.277344 397.339844 428.328125 396.652344 428.285156 395.957031 C 428.265625 395.363281 428.128906 394.800781 427.878906 394.265625 C 427.714844 393.964844 427.488281 393.714844 427.203125 393.523438 C 426.914062 393.332031 426.601562 393.21875 426.257812 393.183594 C 425.417969 393.054688 424.578125 393.082031 423.746094 393.257812 C 423.101562 393.394531 422.457031 393.398438 421.808594 393.273438 C 421.425781 393.191406 421.195312 392.960938 421.113281 392.578125 C 420.957031 391.90625 420.996094 391.242188 421.222656 390.589844 C 421.402344 389.984375 421.726562 389.46875 422.195312 389.046875 C 422.421875 388.84375 422.667969 388.660156 422.933594 388.507812 C 423.007812 388.464844 423.082031 388.425781 423.15625 388.386719 C 423.941406 388.007812 424.511719 388.113281 424.804688 388.800781 C 424.90625 389.058594 424.972656 389.324219 425 389.601562 C 425.042969 389.972656 425.25 390.035156 425.558594 389.855469 L 425.582031 389.84375 C 425.722656 389.757812 425.863281 389.675781 426.003906 389.597656 C 426.214844 389.476562 426.425781 389.355469 426.636719 389.234375 L 426.636719 389.230469 C 426.863281 389.101562 427.089844 388.972656 427.316406 388.839844 C 427.46875 388.753906 427.621094 388.664062 427.773438 388.574219 C 428.085938 388.398438 428.238281 388.132812 428.222656 387.773438 C 428.199219 387.390625 428.148438 387.015625 428.074219 386.640625 C 427.832031 385.578125 427.269531 384.941406 426.402344 384.722656 C 425.777344 384.59375 425.160156 384.640625 424.558594 384.859375 C 424.445312 384.894531 424.359375 384.824219 424.359375 384.6875 L 424.355469 384.09375 C 424.355469 383.304688 423.792969 382.984375 423.105469 383.382812 " fill-opacity="1" fill-rule="nonzero"/></g></g><g fill="#ffffff" fill-opacity="1"><g transform="translate(519.285148, 416.79832)"><g><path d="M 10.5 0 L 3.953125 0 L 3.953125 -31.40625 L 21.953125 -31.40625 L 21.953125 -25.953125 L 10.5 -25.953125 L 10.5 -17.859375 L 21.15625 -17.859375 L 21.15625 -12.421875 L 10.5 -12.421875 Z M 10.5 0 "/></g></g></g><g fill="#ffffff" fill-opacity="1"><g transform="translate(543.429297, 416.79832)"><g><path d="M 13.109375 -31.40625 C 15.953125 -31.40625 18.300781 -31.0625 20.15625 -30.375 C 22.019531 -29.6875 23.398438 -28.648438 24.296875 -27.265625 C 25.203125 -25.878906 25.65625 -24.125 25.65625 -22 C 25.65625 -20.570312 25.378906 -19.316406 24.828125 -18.234375 C 24.285156 -17.160156 23.570312 -16.25 22.6875 -15.5 C 21.800781 -14.757812 20.84375 -14.15625 19.8125 -13.6875 L 29.046875 0 L 21.65625 0 L 14.15625 -12.046875 L 10.609375 -12.046875 L 10.609375 0 L 3.953125 0 L 3.953125 -31.40625 Z M 12.640625 -25.953125 L 10.609375 -25.953125 L 10.609375 -17.46875 L 12.765625 -17.46875 C 14.972656 -17.46875 16.550781 -17.835938 17.5 -18.578125 C 18.445312 -19.316406 18.921875 -20.398438 18.921875 -21.828125 C 18.921875 -23.316406 18.410156 -24.375 17.390625 -25 C 16.367188 -25.632812 14.785156 -25.953125 12.640625 -25.953125 Z M 12.640625 -25.953125 "/></g></g></g><g fill="#ffffff" fill-opacity="1"><g transform="translate(572.471013, 416.79832)"><g><path d="M 23.1875 0 L 20.90625 -7.484375 L 9.453125 -7.484375 L 7.171875 0 L 0 0 L 11.09375 -31.546875 L 19.234375 -31.546875 L 30.359375 0 Z M 19.3125 -13.0625 L 17.03125 -20.375 C 16.894531 -20.851562 16.707031 -21.472656 16.46875 -22.234375 C 16.226562 -23.003906 15.988281 -23.785156 15.75 -24.578125 C 15.519531 -25.378906 15.332031 -26.070312 15.1875 -26.65625 C 15.039062 -26.070312 14.84375 -25.347656 14.59375 -24.484375 C 14.34375 -23.617188 14.101562 -22.796875 13.875 -22.015625 C 13.644531 -21.242188 13.484375 -20.695312 13.390625 -20.375 L 11.125 -13.0625 Z M 19.3125 -13.0625 "/></g></g></g><g fill="#ffffff" fill-opacity="1"><g transform="translate(602.823043, 416.79832)"><g><path d="M 29.515625 -31.40625 L 29.515625 -11.09375 C 29.515625 -8.925781 29.035156 -6.972656 28.078125 -5.234375 C 27.128906 -3.492188 25.691406 -2.113281 23.765625 -1.09375 C 21.847656 -0.0703125 19.425781 0.4375 16.5 0.4375 C 12.34375 0.4375 9.175781 -0.625 7 -2.75 C 4.820312 -4.875 3.734375 -7.679688 3.734375 -11.171875 L 3.734375 -31.40625 L 10.375 -31.40625 L 10.375 -12.1875 C 10.375 -9.59375 10.90625 -7.769531 11.96875 -6.71875 C 13.03125 -5.675781 14.597656 -5.15625 16.671875 -5.15625 C 18.128906 -5.15625 19.3125 -5.40625 20.21875 -5.90625 C 21.132812 -6.40625 21.804688 -7.175781 22.234375 -8.21875 C 22.660156 -9.269531 22.875 -10.601562 22.875 -12.21875 L 22.875 -31.40625 Z M 29.515625 -31.40625 "/></g></g></g><g fill="#ffffff" fill-opacity="1"><g transform="translate(636.074949, 416.79832)"><g><path d="M 30.015625 -16 C 30.015625 -12.46875 29.335938 -9.515625 27.984375 -7.140625 C 26.628906 -4.773438 24.671875 -2.992188 22.109375 -1.796875 C 19.546875 -0.597656 16.457031 0 12.84375 0 L 3.953125 0 L 3.953125 -31.40625 L 13.8125 -31.40625 C 17.101562 -31.40625 19.957031 -30.820312 22.375 -29.65625 C 24.800781 -28.488281 26.679688 -26.765625 28.015625 -24.484375 C 29.347656 -22.203125 30.015625 -19.375 30.015625 -16 Z M 23.09375 -15.828125 C 23.09375 -18.148438 22.753906 -20.0625 22.078125 -21.5625 C 21.398438 -23.0625 20.394531 -24.164062 19.0625 -24.875 C 17.738281 -25.59375 16.101562 -25.953125 14.15625 -25.953125 L 10.609375 -25.953125 L 10.609375 -5.5 L 13.46875 -5.5 C 16.71875 -5.5 19.132812 -6.363281 20.71875 -8.09375 C 22.300781 -9.832031 23.09375 -12.410156 23.09375 -15.828125 Z M 23.09375 -15.828125 "/></g></g></g><g fill="#ffffff" fill-opacity="1"><g transform="translate(668.639477, 416.79832)"><g/></g></g><g fill="#ffffff" fill-opacity="1"><g transform="translate(680.067134, 416.79832)"><g><path d="M 22.046875 0 L 3.953125 0 L 3.953125 -31.40625 L 22.046875 -31.40625 L 22.046875 -25.953125 L 10.609375 -25.953125 L 10.609375 -19.0625 L 21.25 -19.0625 L 21.25 -13.59375 L 10.609375 -13.59375 L 10.609375 -5.5 L 22.046875 -5.5 Z M 22.046875 0 "/></g></g></g><g fill="#ffffff" fill-opacity="1"><g transform="translate(704.705336, 416.79832)"><g><path d="M 29.34375 0 L 21.75 0 L 14.4375 -11.875 L 7.140625 0 L 0 0 L 10.421875 -16.203125 L 0.671875 -31.40625 L 8.015625 -31.40625 L 14.78125 -20.109375 L 21.421875 -31.40625 L 28.59375 -31.40625 L 18.734375 -15.828125 Z M 29.34375 0 "/></g></g></g><g fill="#ffffff" fill-opacity="1"><g transform="translate(734.047779, 416.79832)"><g><path d="M 23.1875 0 L 20.90625 -7.484375 L 9.453125 -7.484375 L 7.171875 0 L 0 0 L 11.09375 -31.546875 L 19.234375 -31.546875 L 30.359375 0 Z M 19.3125 -13.0625 L 17.03125 -20.375 C 16.894531 -20.851562 16.707031 -21.472656 16.46875 -22.234375 C 16.226562 -23.003906 15.988281 -23.785156 15.75 -24.578125 C 15.519531 -25.378906 15.332031 -26.070312 15.1875 -26.65625 C 15.039062 -26.070312 14.84375 -25.347656 14.59375 -24.484375 C 14.34375 -23.617188 14.101562 -22.796875 13.875 -22.015625 C 13.644531 -21.242188 13.484375 -20.695312 13.390625 -20.375 L 11.125 -13.0625 Z M 19.3125 -13.0625 "/></g></g></g><g fill="#ffffff" fill-opacity="1"><g transform="translate(764.399821, 416.79832)"><g><path d="M 17.25 0 L 9.6875 -24.640625 L 9.5 -24.640625 C 9.53125 -24.054688 9.578125 -23.171875 9.640625 -21.984375 C 9.703125 -20.804688 9.757812 -19.550781 9.8125 -18.21875 C 9.875 -16.882812 9.90625 -15.679688 9.90625 -14.609375 L 9.90625 0 L 3.953125 0 L 3.953125 -31.40625 L 13.015625 -31.40625 L 20.453125 -7.390625 L 20.578125 -7.390625 L 28.46875 -31.40625 L 37.53125 -31.40625 L 37.53125 0 L 31.328125 0 L 31.328125 -14.875 C 31.328125 -15.851562 31.34375 -16.988281 31.375 -18.28125 C 31.414062 -19.570312 31.460938 -20.800781 31.515625 -21.96875 C 31.578125 -23.132812 31.617188 -24.007812 31.640625 -24.59375 L 31.453125 -24.59375 L 23.359375 0 Z M 17.25 0 "/></g></g></g><g fill="#ffffff" fill-opacity="1"><g transform="translate(805.878792, 416.79832)"><g><path d="M 3.953125 0 L 3.953125 -31.40625 L 10.609375 -31.40625 L 10.609375 0 Z M 3.953125 0 "/></g></g></g><g fill="#ffffff" fill-opacity="1"><g transform="translate(820.442612, 416.79832)"><g><path d="M 31.8125 0 L 23.359375 0 L 9.6875 -23.765625 L 9.5 -23.765625 C 9.550781 -22.773438 9.597656 -21.773438 9.640625 -20.765625 C 9.691406 -19.765625 9.738281 -18.765625 9.78125 -17.765625 C 9.820312 -16.773438 9.863281 -15.78125 9.90625 -14.78125 L 9.90625 0 L 3.953125 0 L 3.953125 -31.40625 L 12.359375 -31.40625 L 26 -7.890625 L 26.140625 -7.890625 C 26.117188 -8.859375 26.082031 -9.820312 26.03125 -10.78125 C 25.988281 -11.738281 25.953125 -12.695312 25.921875 -13.65625 C 25.890625 -14.625 25.859375 -15.585938 25.828125 -16.546875 L 25.828125 -31.40625 L 31.8125 -31.40625 Z M 31.8125 0 "/></g></g></g><g fill="#ffffff" fill-opacity="1"><g transform="translate(856.207754, 416.79832)"><g><path d="M 23.1875 0 L 20.90625 -7.484375 L 9.453125 -7.484375 L 7.171875 0 L 0 0 L 11.09375 -31.546875 L 19.234375 -31.546875 L 30.359375 0 Z M 19.3125 -13.0625 L 17.03125 -20.375 C 16.894531 -20.851562 16.707031 -21.472656 16.46875 -22.234375 C 16.226562 -23.003906 15.988281 -23.785156 15.75 -24.578125 C 15.519531 -25.378906 15.332031 -26.070312 15.1875 -26.65625 C 15.039062 -26.070312 14.84375 -25.347656 14.59375 -24.484375 C 14.34375 -23.617188 14.101562 -22.796875 13.875 -22.015625 C 13.644531 -21.242188 13.484375 -20.695312 13.390625 -20.375 L 11.125 -13.0625 Z M 19.3125 -13.0625 "/></g></g></g><g fill="#ffffff" fill-opacity="1"><g transform="translate(886.559773, 416.79832)"><g><path d="M 16.078125 0 L 9.40625 0 L 9.40625 -25.875 L 0.875 -25.875 L 0.875 -31.40625 L 24.59375 -31.40625 L 24.59375 -25.875 L 16.078125 -25.875 Z M 16.078125 0 "/></g></g></g><g fill="#ffffff" fill-opacity="1"><g transform="translate(912.035739, 416.79832)"><g><path d="M 3.953125 0 L 3.953125 -31.40625 L 10.609375 -31.40625 L 10.609375 0 Z M 3.953125 0 "/></g></g></g><g fill="#ffffff" fill-opacity="1"><g transform="translate(926.599581, 416.79832)"><g><path d="M 32.46875 -15.75 C 32.46875 -13.332031 32.164062 -11.128906 31.5625 -9.140625 C 30.957031 -7.160156 30.039062 -5.453125 28.8125 -4.015625 C 27.59375 -2.585938 26.046875 -1.488281 24.171875 -0.71875 C 22.296875 0.0507812 20.078125 0.4375 17.515625 0.4375 C 14.953125 0.4375 12.726562 0.0507812 10.84375 -0.71875 C 8.96875 -1.488281 7.414062 -2.585938 6.1875 -4.015625 C 4.96875 -5.453125 4.054688 -7.164062 3.453125 -9.15625 C 2.859375 -11.144531 2.5625 -13.359375 2.5625 -15.796875 C 2.5625 -19.046875 3.09375 -21.875 4.15625 -24.28125 C 5.226562 -26.695312 6.875 -28.570312 9.09375 -29.90625 C 11.3125 -31.238281 14.128906 -31.90625 17.546875 -31.90625 C 20.960938 -31.90625 23.769531 -31.238281 25.96875 -29.90625 C 28.164062 -28.570312 29.796875 -26.691406 30.859375 -24.265625 C 31.929688 -21.847656 32.46875 -19.007812 32.46875 -15.75 Z M 9.546875 -15.75 C 9.546875 -13.5625 9.816406 -11.675781 10.359375 -10.09375 C 10.910156 -8.507812 11.773438 -7.289062 12.953125 -6.4375 C 14.128906 -5.582031 15.648438 -5.15625 17.515625 -5.15625 C 19.398438 -5.15625 20.929688 -5.582031 22.109375 -6.4375 C 23.285156 -7.289062 24.140625 -8.507812 24.671875 -10.09375 C 25.210938 -11.675781 25.484375 -13.5625 25.484375 -15.75 C 25.484375 -19.039062 24.863281 -21.628906 23.625 -23.515625 C 22.394531 -25.410156 20.367188 -26.359375 17.546875 -26.359375 C 15.671875 -26.359375 14.140625 -25.929688 12.953125 -25.078125 C 11.773438 -24.234375 10.910156 -23.019531 10.359375 -21.4375 C 9.816406 -19.851562 9.546875 -17.957031 9.546875 -15.75 Z M 9.546875 -15.75 "/></g></g></g><g fill="#ffffff" fill-opacity="1"><g transform="translate(961.612916, 416.79832)"><g><path d="M 31.8125 0 L 23.359375 0 L 9.6875 -23.765625 L 9.5 -23.765625 C 9.550781 -22.773438 9.597656 -21.773438 9.640625 -20.765625 C 9.691406 -19.765625 9.738281 -18.765625 9.78125 -17.765625 C 9.820312 -16.773438 9.863281 -15.78125 9.90625 -14.78125 L 9.90625 0 L 3.953125 0 L 3.953125 -31.40625 L 12.359375 -31.40625 L 26 -7.890625 L 26.140625 -7.890625 C 26.117188 -8.859375 26.082031 -9.820312 26.03125 -10.78125 C 25.988281 -11.738281 25.953125 -12.695312 25.921875 -13.65625 C 25.890625 -14.625 25.859375 -15.585938 25.828125 -16.546875 L 25.828125 -31.40625 L 31.8125 -31.40625 Z M 31.8125 0 "/></g></g></g></svg>